<?xml version="1.0" encoding="UTF-8"?>
<svg version="1.1" xmlns="http://www.w3.org/2000/svg" viewBox="0 0 838.00 923.00">
<style type="text/css">
@font-face {
  font-family: 'Roboto Mono';
  font-style: normal;
  font-weight: 400;
  font-display: swap;
  src: local('Roboto Mono'), local('RobotoMono-Regular'), url(https://fonts.gstatic.com/s/robotomono/v7/L0x5DF4xlVMF-BfR8bXMIjhLq38.woff2) format('woff2');
  unicode-range: U+0000-00FF, U+0131, U+0152-0153, U+02BB-02BC, U+02C6, U+02DA, U+02DC, U+2000-206F, U+2074, U+20AC, U+2122, U+2191, U+2193, U+2212, U+2215, U+FEFF, U+FFFD;
}
@font-face {
  font-family: 'Roboto Mono';
  font-style: normal;
  font-weight: 700;
  font-display: swap;
  src: local('Roboto Mono Bold'), local('RobotoMono-Bold'), url(https://fonts.gstatic.com/s/robotomono/v7/L0xkDF4xlVMF-BfR8bXMIjDwjmqxf78.woff2) format('woff2');
  unicode-range: U+0000-00FF, U+0131, U+0152-0153, U+02BB-02BC, U+02C6, U+02DA, U+02DC, U+2000-206F, U+2074, U+20AC, U+2122, U+2191, U+2193, U+2212, U+2215, U+FEFF, U+FFFD;
}
</style>
    <rect x="0" y="0" width="837.9999999999999" height="923" fill="#eeeeee" stroke="none" />
    <polygon points="0.00,922.90 838.00,922.90 838.00,0.10 0.00,0.10" fill="#fbfbfb" stroke="none" />
    <polyline points="0.00,853.07 838.00,853.07" fill="none" stroke="#d2d2d2" stroke-width="1" stroke-linecap="butt" stroke-linejoin="miter" />
    <polyline points="0.00,753.30 838.00,753.30" fill="none" stroke="#d2d2d2" stroke-width="1" stroke-linecap="butt" stroke-linejoin="miter" />
    <polyline points="0.00,653.54 838.00,653.54" fill="none" stroke="#d2d2d2" stroke-width="1" stroke-linecap="butt" stroke-linejoin="miter" />
    <polyline points="0.00,553.78 838.00,553.78" fill="none" stroke="#d2d2d2" stroke-width="1" stroke-linecap="butt" stroke-linejoin="miter" />
    <polyline points="0.00,454.02 838.00,454.02" fill="none" stroke="#d2d2d2" stroke-width="1" stroke-linecap="butt" stroke-linejoin="miter" />
    <polyline points="0.00,354.26 838.00,354.26" fill="none" stroke="#d2d2d2" stroke-width="1" stroke-linecap="butt" stroke-linejoin="miter" />
    <polyline points="0.00,254.49 838.00,254.49" fill="none" stroke="#d2d2d2" stroke-width="1" stroke-linecap="butt" stroke-linejoin="miter" />
    <polyline points="0.00,154.73 838.00,154.73" fill="none" stroke="#d2d2d2" stroke-width="1" stroke-linecap="butt" stroke-linejoin="miter" />
    <polyline points="0.00,54.97 838.00,54.97" fill="none" stroke="#d2d2d2" stroke-width="1" stroke-linecap="butt" stroke-linejoin="miter" />
    <polyline points="69.83,923.00 69.83,0.00" fill="none" stroke="#d2d2d2" stroke-width="1" stroke-linecap="butt" stroke-linejoin="miter" />
    <polyline points="169.60,923.00 169.60,0.00" fill="none" stroke="#d2d2d2" stroke-width="1" stroke-linecap="butt" stroke-linejoin="miter" />
    <polyline points="269.36,923.00 269.36,0.00" fill="none" stroke="#d2d2d2" stroke-width="1" stroke-linecap="butt" stroke-linejoin="miter" />
    <polyline points="369.12,923.00 369.12,0.00" fill="none" stroke="#d2d2d2" stroke-width="1" stroke-linecap="butt" stroke-linejoin="miter" />
    <polyline points="468.88,923.00 468.88,0.00" fill="none" stroke="#d2d2d2" stroke-width="1" stroke-linecap="butt" stroke-linejoin="miter" />
    <polyline points="568.64,923.00 568.64,0.00" fill="none" stroke="#d2d2d2" stroke-width="1" stroke-linecap="butt" stroke-linejoin="miter" />
    <polyline points="668.40,923.00 668.40,0.00" fill="none" stroke="#d2d2d2" stroke-width="1" stroke-linecap="butt" stroke-linejoin="miter" />
    <polyline points="768.17,923.00 768.17,0.00" fill="none" stroke="#d2d2d2" stroke-width="1" stroke-linecap="butt" stroke-linejoin="miter" />
    <circle cx="668.40" cy="254.49" r="24.94" fill="#f1c40f" stroke="none" />
    <circle cx="369.12" cy="354.26" r="24.94" fill="#2ecc71" stroke="none" />
    <path d="M 387.08,645.56 A 9.98 9.98 0 0 0 377.10,635.58" fill="none" stroke="#f1c40f" stroke-width="2.6603174603174606" stroke-linecap="butt" stroke-linejoin="miter" />
    <path d="M 394.56,645.56 A 17.46 17.46 0 0 0 377.10,628.10" fill="none" stroke="#f1c40f" stroke-width="2.6603174603174606" stroke-linecap="butt" stroke-linejoin="miter" />
    <path d="M 402.04,645.56 A 24.94 24.94 0 0 0 377.10,620.62" fill="none" stroke="#f1c40f" stroke-width="2.6603174603174606" stroke-linecap="butt" stroke-linejoin="miter" />
    <polygon points="398.95,614.49 408.73,621.61 410.01,609.58" fill="#f1c40f" stroke="none" />
    <circle cx="401.79" cy="620.87" r="6.98" fill="#f1c40f" stroke="none" />
    <text x="401.78981177643027" y="620.870902509284" fill="#333333" stroke="none" font-family="Roboto Mono" font-weight="normal" font-size="11.97" text-anchor="middle" dominant-baseline="middle">A</text>
    <path d="M 686.36,545.80 A 9.98 9.98 0 0 0 676.39,535.82" fill="none" stroke="#2ecc71" stroke-width="2.6603174603174606" stroke-linecap="butt" stroke-linejoin="miter" />
    <path d="M 693.84,545.80 A 17.46 17.46 0 0 0 676.39,528.34" fill="none" stroke="#2ecc71" stroke-width="2.6603174603174606" stroke-linecap="butt" stroke-linejoin="miter" />
    <path d="M 701.33,545.80 A 24.94 24.94 0 0 0 676.39,520.86" fill="none" stroke="#2ecc71" stroke-width="2.6603174603174606" stroke-linecap="butt" stroke-linejoin="miter" />
    <polygon points="695.24,524.94 700.67,514.14 688.60,514.84" fill="#2ecc71" stroke="none" />
    <circle cx="701.08" cy="521.11" r="6.98" fill="#2ecc71" stroke="none" />
    <text x="701.0755260621447" y="521.1089977473794" fill="#fbfbfb" stroke="none" font-family="Roboto Mono" font-weight="normal" font-size="11.97" text-anchor="middle" dominant-baseline="middle">B</text>
    <path d="M 686.36,346.28 A 9.98 9.98 0 0 0 676.39,336.30" fill="none" stroke="#e74c3c" stroke-width="2.6603174603174606" stroke-linecap="butt" stroke-linejoin="miter" />
    <path d="M 693.84,346.28 A 17.46 17.46 0 0 0 676.39,328.82" fill="none" stroke="#e74c3c" stroke-width="2.6603174603174606" stroke-linecap="butt" stroke-linejoin="miter" />
    <path d="M 701.33,346.28 A 24.94 24.94 0 0 0 676.39,321.33" fill="none" stroke="#e74c3c" stroke-width="2.6603174603174606" stroke-linecap="butt" stroke-linejoin="miter" />
    <circle cx="701.08" cy="321.59" r="6.98" fill="#e74c3c" stroke="none" />
    <text x="701.0755260621447" y="321.58518822356984" fill="#fbfbfb" stroke="none" font-family="Roboto Mono" font-weight="normal" font-size="11.97" text-anchor="middle" dominant-baseline="middle">C</text>
    <path d="M 187.55,745.32 A 9.98 9.98 0 0 0 177.58,735.35" fill="none" stroke="#9b59b6" stroke-width="2.6603174603174606" stroke-linecap="butt" stroke-linejoin="miter" />
    <path d="M 195.03,745.32 A 17.46 17.46 0 0 0 177.58,727.86" fill="none" stroke="#9b59b6" stroke-width="2.6603174603174606" stroke-linecap="butt" stroke-linejoin="miter" />
    <path d="M 202.52,745.32 A 24.94 24.94 0 0 0 177.58,720.38" fill="none" stroke="#9b59b6" stroke-width="2.6603174603174606" stroke-linecap="butt" stroke-linejoin="miter" />
    <circle cx="202.27" cy="720.63" r="6.98" fill="#9b59b6" stroke="none" />
    <text x="202.26600225262064" y="720.6328072711888" fill="#fbfbfb" stroke="none" font-family="Roboto Mono" font-weight="normal" font-size="11.97" text-anchor="middle" dominant-baseline="middle">D</text>
    <path d="M 187.55,545.80 A 9.98 9.98 0 0 0 177.58,535.82" fill="none" stroke="#1abc9c" stroke-width="2.6603174603174606" stroke-linecap="butt" stroke-linejoin="miter" />
    <path d="M 195.03,545.80 A 17.46 17.46 0 0 0 177.58,528.34" fill="none" stroke="#1abc9c" stroke-width="2.6603174603174606" stroke-linecap="butt" stroke-linejoin="miter" />
    <path d="M 202.52,545.80 A 24.94 24.94 0 0 0 177.58,520.86" fill="none" stroke="#1abc9c" stroke-width="2.6603174603174606" stroke-linecap="butt" stroke-linejoin="miter" />
    <circle cx="202.27" cy="521.11" r="6.98" fill="#1abc9c" stroke="none" />
    <text x="202.26600225262064" y="521.1089977473794" fill="#fbfbfb" stroke="none" font-family="Roboto Mono" font-weight="normal" font-size="11.97" text-anchor="middle" dominant-baseline="middle">E</text>
    <polyline points="369.12,743.33 369.12,738.34 369.12,734.01 369.15,730.27 369.22,727.01 369.36,724.08 369.59,721.36 369.93,718.71 370.40,716.02 371.03,713.24 371.82,710.42 372.80,707.61 373.98,704.83 375.36,702.14 376.98,699.58 378.82,697.17 380.88,694.95 383.14,692.92 385.57,691.11 388.15,689.52 390.87,688.18 393.70,687.10 396.62,686.28 399.60,685.74 402.62,685.47 405.65,685.48 408.67,685.76 411.65,686.32 414.56,687.16 417.39,688.27 420.10,689.62 422.68,691.22 425.10,693.04 427.34,695.08 429.38,697.33 431.20,699.75 432.80,702.32 434.16,705.04 435.26,707.86 436.10,710.77 436.66,713.75 436.94,716.77 436.95,719.80 436.68,722.82 436.14,725.80 435.33,728.73 434.25,731.56 432.90,734.27 431.32,736.86 429.50,739.29 427.47,741.54 425.25,743.60 422.85,745.45 420.28,747.06 417.59,748.45 414.82,749.62 412.00,750.60 409.18,751.39 406.40,752.02 403.71,752.50 401.06,752.84 398.34,753.06 395.41,753.20 392.15,753.27 384.08,753.30 379.10,753.30" fill="none" stroke="#333333" stroke-width="2.6603174603174606" stroke-linecap="butt" stroke-linejoin="miter" />
    <text x="420.28429960906783" y="702.1383194385496" fill="#333333" stroke="none" font-family="Roboto Mono" font-weight="normal" font-size="11.97" text-anchor="middle" dominant-baseline="middle">1</text>
    <polyline points="359.14,753.30 354.15,753.30 353.36,753.30 352.39,753.30 351.25,753.30 349.95,753.30 348.48,753.30 346.86,753.30 345.10,753.30 343.18,753.30 341.14,753.30 338.96,753.30 336.65,753.30 334.23,753.30 331.69,753.30 329.04,753.30 326.29,753.30 323.45,753.30 320.51,753.30 317.48,753.30 314.38,753.30 311.20,753.30 307.96,753.30 304.65,753.30 301.28,753.30 297.86,753.30 294.40,753.30 290.90,753.30 287.36,753.30 283.79,753.30 280.20,753.30 276.60,753.30 272.98,753.30 269.36,753.30 265.73,753.30 262.12,753.30 258.51,753.30 254.92,753.30 251.36,753.30 247.82,753.30 244.31,753.30 240.85,753.30 237.43,753.30 234.07,753.30 230.76,753.30 227.51,753.30 224.33,753.30 221.23,753.30 218.21,753.30 215.27,753.30 212.42,753.30 209.67,753.30 207.02,753.30 204.49,753.30 202.06,753.30 199.76,753.30 197.58,753.30 195.53,753.30 193.62,753.30 191.85,753.30 190.23,753.30 188.77,753.30 187.46,753.30 186.32,753.30 184.56,753.30 179.57,753.30" fill="none" stroke="#333333" stroke-width="2.6603174603174606" stroke-linecap="butt" stroke-linejoin="miter" />
    <text x="269.3571428571429" y="763.2797619047619" fill="#333333" stroke="none" font-family="Roboto Mono" font-weight="normal" font-size="11.97" text-anchor="middle" dominant-baseline="middle">2</text>
    <polyline points="169.60,743.33 169.60,738.34 169.64,734.29 169.76,730.53 169.95,727.04 170.21,723.80 170.53,720.79 170.91,717.98 171.33,715.36 171.80,712.89 172.31,710.56 172.87,708.35 173.47,706.24 174.11,704.22 174.81,702.25 175.56,700.34 176.36,698.45 177.21,696.58 178.12,694.73 179.07,692.92 180.07,691.13 181.13,689.36 182.23,687.63 183.37,685.93 184.57,684.26 185.81,682.63 187.09,681.02 188.42,679.46 189.79,677.93 191.21,676.44 192.66,675.00 194.15,673.59 195.69,672.22 197.25,670.90 198.86,669.62 200.50,668.38 202.17,667.19 203.88,666.05 205.61,664.95 207.38,663.91 209.17,662.91 210.99,661.96 212.84,661.06 214.71,660.22 216.60,659.42 218.51,658.68 220.45,657.99 222.40,657.36 224.37,656.78 226.35,656.25 228.35,655.78 230.36,655.36 232.50,655.00 235.10,654.69 238.54,654.43 243.20,654.21 249.46,654.03 257.67,653.88 268.22,653.77 281.17,653.69 295.62,653.62 310.55,653.58 324.91,653.56 337.66,653.55 354.15,653.54 359.14,653.54" fill="none" stroke="#333333" stroke-width="2.6603174603174606" stroke-linecap="butt" stroke-linejoin="miter" />
    <text x="203.5834840743778" y="678.6077182884142" fill="#333333" stroke="none" font-family="Roboto Mono" font-weight="normal" font-size="11.97" text-anchor="middle" dominant-baseline="middle">2</text>
    <polyline points="369.12,643.57 369.12,638.58 369.15,634.96 369.25,631.58 369.40,628.41 369.61,625.45 369.87,622.68 370.18,620.07 370.52,617.62 370.91,615.31 371.32,613.13 371.78,611.05 372.26,609.07 372.78,607.17 373.34,605.35 373.94,603.58 374.58,601.85 375.26,600.15 375.98,598.47 376.74,596.82 377.54,595.18 378.38,593.56 379.26,591.96 380.18,590.38 381.13,588.83 382.13,587.30 383.16,585.79 384.23,584.32 385.33,582.86 386.47,581.44 387.65,580.04 388.86,578.68 390.10,577.34 391.37,576.03 392.68,574.76 394.02,573.52 395.38,572.31 396.78,571.13 398.20,569.99 399.65,568.89 401.13,567.82 402.64,566.79 404.17,565.79 405.72,564.84 407.30,563.92 408.90,563.04 410.52,562.20 412.16,561.40 413.81,560.64 415.49,559.92 417.19,559.24 418.91,558.60 420.68,558.01 422.51,557.45 424.41,556.92 426.39,556.44 428.47,555.99 430.65,555.57 432.96,555.18 435.41,554.84 438.02,554.53 440.79,554.27 443.75,554.06 446.92,553.91 453.92,553.78 458.90,553.78" fill="none" stroke="#333333" stroke-width="2.6603174603174606" stroke-linecap="butt" stroke-linejoin="miter" />
    <text x="398.42683132722345" y="583.0875456129609" fill="#333333" stroke="none" font-family="Roboto Mono" font-weight="normal" font-size="11.97" text-anchor="middle" dominant-baseline="middle">1</text>
    <polyline points="468.88,563.76 468.88,568.74 468.72,570.24 468.26,571.93 467.53,573.78 466.55,575.78 465.36,577.92 463.98,580.19 462.44,582.58 460.77,585.05 459.00,587.61 457.15,590.24 455.26,592.92 453.34,595.64 451.44,598.38 449.58,601.14 447.78,603.89 446.08,606.62 444.51,609.32 443.08,611.97 441.83,614.56 440.80,617.08 439.99,619.50 439.45,621.82 439.18,624.04 439.14,626.15 439.33,628.17 439.73,630.10 440.33,631.95 441.09,633.72 442.00,635.42 443.06,637.05 444.23,638.62 445.50,640.14 446.85,641.60 448.27,643.03 449.73,644.41 451.23,645.76 452.73,647.09 454.22,648.40 455.69,649.68 457.12,650.96 458.48,652.24 459.76,653.52 460.95,654.80 462.03,656.11 463.01,657.47 463.89,658.93 464.67,660.50 465.37,662.23 465.99,664.15 466.53,666.29 467.00,668.69 467.40,671.38 467.74,674.39 468.02,677.75 468.26,681.51 468.44,685.69 468.59,690.32 468.70,695.44 468.77,701.09 468.83,707.29 468.86,714.09 468.87,721.50 468.88,738.34 468.88,743.33" fill="none" stroke="#333333" stroke-width="2.6603174603174606" stroke-linecap="butt" stroke-linejoin="miter" />
    <text x="438.0186222429902" y="646.7365012905866" fill="#333333" stroke="none" font-family="Roboto Mono" font-weight="normal" font-size="11.97" text-anchor="middle" dominant-baseline="middle">2</text>
    <polyline points="478.86,753.30 483.85,753.30 485.32,753.30 486.93,753.30 488.67,753.30 490.53,753.30 492.50,753.30 494.56,753.30 496.72,753.30 498.97,753.30 501.28,753.30 503.66,753.30 506.09,753.30 508.57,753.30 511.09,753.30 513.63,753.30 516.19,753.30 518.76,753.30 521.33,753.30 523.89,753.30 526.44,753.30 528.95,753.30 531.43,753.30 533.87,753.30 536.24,753.30 538.56,753.30 540.80,753.30 542.96,753.30 545.03,753.30 547.00,753.30 548.85,753.30 550.59,753.30 553.68,753.30 558.67,753.30" fill="none" stroke="#333333" stroke-width="2.6603174603174606" stroke-linecap="butt" stroke-linejoin="miter" />
    <text x="518.7619047619046" y="763.2797619047619" fill="#333333" stroke="none" font-family="Roboto Mono" font-weight="normal" font-size="11.97" text-anchor="middle" dominant-baseline="middle">1</text>
    <polyline points="568.64,563.76 568.64,568.74 568.48,570.24 568.02,571.93 567.29,573.78 566.31,575.78 565.12,577.92 563.74,580.19 562.20,582.58 560.53,585.05 558.76,587.61 556.91,590.24 555.02,592.92 553.11,595.64 551.21,598.38 549.34,601.14 547.55,603.89 545.85,606.62 544.27,609.32 542.84,611.97 541.60,614.56 540.56,617.08 539.76,619.50 539.22,621.82 538.94,624.04 538.90,626.15 539.10,628.17 539.50,630.10 540.09,631.95 540.85,633.72 541.77,635.42 542.82,637.05 543.99,638.62 545.26,640.14 546.61,641.60 548.03,643.03 549.50,644.41 550.99,645.76 552.49,647.09 553.98,648.40 555.45,649.68 556.88,650.96 558.24,652.24 559.53,653.52 560.71,654.80 561.79,656.11 562.77,657.47 563.65,658.93 564.44,660.50 565.14,662.23 565.75,664.15 566.29,666.29 566.76,668.69 567.16,671.38 567.50,674.39 567.79,677.75 568.02,681.51 568.20,685.69 568.35,690.32 568.46,695.44 568.54,701.09 568.59,707.29 568.62,714.09 568.64,721.50 568.64,738.34 568.64,743.33" fill="none" stroke="#333333" stroke-width="2.6603174603174606" stroke-linecap="butt" stroke-linejoin="miter" />
    <text x="537.7805270048991" y="646.7365012905913" fill="#333333" stroke="none" font-family="Roboto Mono" font-weight="normal" font-size="11.97" text-anchor="middle" dominant-baseline="middle">2</text>
    <polyline points="478.86,553.78 483.85,553.78 485.32,553.78 486.93,553.78 488.67,553.78 490.53,553.78 492.50,553.78 494.56,553.78 496.72,553.78 498.97,553.78 501.28,553.78 503.66,553.78 506.09,553.78 508.57,553.78 511.09,553.78 513.63,553.78 516.19,553.78 518.76,553.78 521.33,553.78 523.89,553.78 526.44,553.78 528.95,553.78 531.43,553.78 533.87,553.78 536.24,553.78 538.56,553.78 540.80,553.78 542.96,553.78 545.03,553.78 547.00,553.78 548.85,553.78 550.59,553.78 553.68,553.78 558.67,553.78" fill="none" stroke="#333333" stroke-width="2.6603174603174606" stroke-linecap="butt" stroke-linejoin="miter" />
    <text x="518.7619047619046" y="563.7559523809524" fill="#333333" stroke="none" font-family="Roboto Mono" font-weight="normal" font-size="11.97" text-anchor="middle" dominant-baseline="middle">1</text>
    <polyline points="578.62,753.30 583.61,753.30 586.13,753.27 588.56,753.16 590.90,752.98 593.15,752.73 595.31,752.41 597.38,752.03 599.37,751.58 601.27,751.06 603.09,750.48 604.82,749.84 606.48,749.14 608.06,748.37 609.56,747.55 610.98,746.67 612.34,745.73 613.61,744.73 614.82,743.68 615.96,742.58 617.03,741.42 618.03,740.21 618.96,738.95 619.84,737.65 620.65,736.29 621.40,734.89 622.09,733.44 622.72,731.95 623.30,730.42 623.82,728.84 624.29,727.22 624.70,725.56 625.07,723.86 625.38,722.13 625.65,720.36 625.87,718.55 626.05,716.71 626.19,714.83 626.28,712.93 626.33,710.99 626.35,709.02 626.33,707.03 626.27,705.00 626.18,702.96 626.05,700.88 625.90,698.78 625.71,696.66 625.50,694.52 625.26,692.36 624.99,690.17 624.70,687.97 624.39,685.75 624.06,683.52 623.71,681.27 623.34,679.01 622.95,676.73 622.55,674.45 622.14,672.15 621.71,669.84 621.28,667.53 620.83,665.21 620.38,662.88 619.92,660.55 619.46,658.22 618.99,655.88 618.52,653.54 618.06,651.20 617.59,648.87 617.13,646.53 616.67,644.20 616.22,641.87 615.77,639.55 615.34,637.24 614.91,634.93 614.50,632.64 614.09,630.35 613.71,628.08 613.34,625.81 612.99,623.56 612.66,621.33 612.34,619.11 612.05,616.91 611.79,614.73 611.55,612.56 611.34,610.42 611.15,608.30 610.99,606.20 610.87,604.13 610.78,602.08 610.72,600.06 610.70,598.06 610.71,596.09 610.77,594.16 610.86,592.25 611.00,590.38 611.17,588.53 611.40,586.73 611.67,584.96 611.98,583.22 612.35,581.52 612.76,579.86 613.23,578.25 613.75,576.67 614.33,575.13 614.96,573.64 615.65,572.19 616.40,570.79 617.21,569.44 618.08,568.13 619.02,566.87 620.02,565.66 621.09,564.51 622.23,563.40 623.43,562.35 624.71,561.36 626.06,560.42 627.49,559.54 628.99,558.71 630.57,557.95 632.22,557.24 633.96,556.60 635.78,556.02 637.68,555.50 639.66,555.05 641.74,554.67 643.90,554.35 646.15,554.10 648.48,553.92 653.44,553.78 658.43,553.78" fill="none" stroke="#333333" stroke-width="2.6603174603174606" stroke-linecap="butt" stroke-linejoin="miter" />
    <text x="608.7413388893085" y="655.4981034027679" fill="#333333" stroke="none" font-family="Roboto Mono" font-weight="normal" font-size="11.97" text-anchor="middle" dominant-baseline="middle">3</text>
    <polyline points="678.38,553.78 683.37,553.78 684.30,553.78 685.24,553.78 686.17,553.78 687.11,553.78 688.05,553.78 688.98,553.78 689.92,553.78 690.85,553.78 691.79,553.78 692.72,553.78 693.66,553.78 694.59,553.78 695.53,553.78 696.46,553.78 698.33,553.78" fill="none" stroke="#333333" stroke-width="2.6603174603174606" stroke-linecap="butt" stroke-linejoin="miter" />
    <circle cx="698.33" cy="553.78" r="7.98" fill="#c0392b" stroke="none" />
    <polyline points="693.84,553.78 702.82,553.78" fill="none" stroke="#fbfbfb" stroke-width="2.494047619047619" stroke-linecap="butt" stroke-linejoin="miter" />
    <polyline points="668.40,563.76 668.40,568.74 668.40,569.54 668.40,570.50 668.40,571.64 668.40,572.95 668.40,574.42 668.40,576.04 668.40,577.80 668.40,579.71 668.40,581.76 668.40,583.94 668.40,586.25 668.40,588.67 668.40,591.21 668.40,593.86 668.40,596.61 668.40,599.45 668.40,602.39 668.40,605.41 668.40,608.52 668.40,611.70 668.40,614.94 668.40,618.25 668.40,621.62 668.40,625.04 668.40,628.50 668.40,632.00 668.40,635.54 668.40,639.11 668.40,642.69 668.40,646.30 668.40,649.92 668.40,653.54 668.40,657.16 668.40,660.78 668.40,664.39 668.40,667.98 668.40,671.54 668.40,675.08 668.40,678.58 668.40,682.05 668.40,685.47 668.40,688.83 668.40,692.14 668.40,695.39 668.40,698.57 668.40,701.67 668.40,704.69 668.40,707.63 668.40,710.48 668.40,713.23 668.40,715.88 668.40,718.41 668.40,720.84 668.40,723.14 668.40,725.32 668.40,727.37 668.40,729.28 668.40,731.05 668.40,732.67 668.40,734.13 668.40,735.44 668.40,736.58 668.40,738.34 668.40,743.33" fill="none" stroke="#333333" stroke-width="2.6603174603174606" stroke-linecap="butt" stroke-linejoin="miter" />
    <text x="658.4285714285711" y="653.5416666666667" fill="#333333" stroke="none" font-family="Roboto Mono" font-weight="normal" font-size="11.97" text-anchor="middle" dominant-baseline="middle">2</text>
    <polyline points="668.40,763.28 668.40,768.27 668.41,772.60 668.43,776.33 668.51,779.60 668.64,782.53 668.87,785.25 669.21,787.89 669.69,790.59 670.32,793.36 671.11,796.18 672.09,799.00 673.26,801.77 674.65,804.47 676.26,807.03 678.11,809.43 680.17,811.66 682.42,813.69 684.85,815.50 687.43,817.09 690.15,818.43 692.98,819.51 695.90,820.32 698.89,820.86 701.91,821.13 704.94,821.13 707.96,820.85 710.94,820.28 713.85,819.44 716.67,818.34 719.38,816.98 721.96,815.39 724.38,813.56 726.62,811.52 728.66,809.28 730.49,806.86 732.08,804.28 733.44,801.57 734.54,798.75 735.38,795.83 735.95,792.86 736.23,789.84 736.24,786.81 735.97,783.79 735.42,780.80 734.61,777.88 733.53,775.05 732.19,772.33 730.60,769.75 728.79,767.32 726.76,765.07 724.53,763.01 722.13,761.16 719.57,759.55 716.88,758.16 714.10,756.99 711.28,756.01 708.47,755.21 705.69,754.59 702.99,754.11 700.35,753.77 697.63,753.54 694.70,753.40 691.44,753.33 683.37,753.30 678.38,753.30" fill="none" stroke="#333333" stroke-width="2.6603174603174606" stroke-linecap="butt" stroke-linejoin="miter" />
    <text x="719.5700138947827" y="804.4688234185933" fill="#333333" stroke="none" font-family="Roboto Mono" font-weight="normal" font-size="11.97" text-anchor="middle" dominant-baseline="middle">3</text>
    <polyline points="668.40,543.80 668.40,538.82 668.32,533.06 668.08,527.70 667.69,522.72 667.15,518.11 666.47,513.87 665.65,509.97 664.71,506.40 663.64,503.15 662.45,500.21 661.15,497.56 659.74,495.19 658.23,493.09 656.63,491.24 654.94,489.63 653.16,488.25 651.31,487.08 649.38,486.12 647.39,485.34 645.34,484.74 643.23,484.30 641.08,484.01 638.88,483.86 636.64,483.83 634.37,483.91 632.08,484.08 629.77,484.34 627.44,484.67 625.11,485.05 622.77,485.48 620.43,485.94 618.11,486.42 615.80,486.91 613.51,487.38 611.24,487.84 609.01,488.26 606.82,488.63 604.67,488.94 602.56,489.18 600.52,489.33 598.53,489.39 596.62,489.32 594.77,489.14 593.00,488.81 591.32,488.34 589.72,487.73 588.19,486.99 586.76,486.12 585.40,485.13 584.13,484.03 582.93,482.83 581.82,481.52 580.80,480.13 579.85,478.65 578.99,477.09 578.21,475.46 577.51,473.77 576.89,472.02 576.36,470.21 575.91,468.37 575.54,466.48 575.25,464.56 575.04,462.62 574.92,460.66 574.88,458.69 574.92,456.72 575.04,454.75 575.25,452.79 575.54,450.84 575.91,448.92 576.36,447.03 576.89,445.17 577.51,443.36 578.21,441.59 578.99,439.88 579.85,438.24 580.80,436.67 581.82,435.17 582.93,433.76 584.13,432.43 585.40,431.21 586.76,430.08 588.19,429.07 589.72,428.18 591.32,427.41 593.00,426.77 594.77,426.26 596.62,425.89 598.53,425.64 600.52,425.49 602.56,425.44 604.67,425.47 606.82,425.56 609.01,425.72 611.24,425.91 613.51,426.14 615.80,426.39 618.11,426.64 620.43,426.89 622.77,427.12 625.11,427.31 627.44,427.47 629.77,427.56 632.08,427.59 634.37,427.53 636.64,427.39 638.88,427.13 641.08,426.76 643.23,426.25 645.34,425.60 647.39,424.79 649.38,423.82 651.31,422.66 653.16,421.31 654.94,419.75 656.63,417.98 658.23,415.97 659.74,413.71 661.15,411.20 662.45,408.42 663.64,405.36 664.71,402.01 665.65,398.34 666.47,394.36 667.15,390.05 667.69,385.39 668.08,380.37 668.40,369.22 668.40,364.23" fill="none" stroke="#333333" stroke-width="2.6603174603174606" stroke-linecap="butt" stroke-linejoin="miter" />
    <text x="564.9017857142853" y="458.69419642857144" fill="#333333" stroke="none" font-family="Roboto Mono" font-weight="normal" font-size="11.97" text-anchor="middle" dominant-baseline="middle">5</text>
    <polyline points="668.40,344.28 668.40,339.29 668.40,337.82 668.40,336.21 668.40,334.47 668.40,332.61 668.40,330.64 668.40,328.57 668.40,326.41 668.40,324.17 668.40,321.86 668.40,319.48 668.40,317.04 668.40,314.57 668.40,312.05 668.40,309.51 668.40,306.95 668.40,304.38 668.40,301.80 668.40,299.24 668.40,296.70 668.40,294.18 668.40,291.71 668.40,289.27 668.40,286.89 668.40,284.58 668.40,282.34 668.40,280.18 668.40,278.11 668.40,276.14 668.40,274.28 668.40,272.54 668.40,269.46 668.40,264.47" fill="none" stroke="#333333" stroke-width="2.6603174603174606" stroke-linecap="butt" stroke-linejoin="miter" />
    <text x="658.4285714285711" y="304.375" fill="#333333" stroke="none" font-family="Roboto Mono" font-weight="normal" font-size="11.97" text-anchor="middle" dominant-baseline="middle">1</text>
    <polyline points="678.38,254.49 683.37,254.49 685.90,254.57 688.35,254.78 690.72,255.13 693.01,255.61 695.22,256.23 697.35,256.96 699.40,257.81 701.37,258.78 703.26,259.86 705.07,261.04 706.80,262.32 708.45,263.70 710.01,265.17 711.50,266.73 712.91,268.37 714.23,270.08 715.48,271.87 716.64,273.73 717.73,275.65 718.73,277.63 719.66,279.67 720.50,281.75 721.27,283.89 721.95,286.06 722.55,288.27 723.07,290.51 723.52,292.78 723.88,295.07 724.16,297.38 724.36,299.70 724.48,302.04 724.52,304.38 724.48,306.71 724.36,309.05 724.16,311.37 723.88,313.68 723.52,315.97 723.07,318.24 722.55,320.48 721.95,322.69 721.27,324.86 720.50,327.00 719.66,329.08 718.73,331.12 717.73,333.10 716.64,335.02 715.48,336.88 714.23,338.67 712.91,340.38 711.50,342.02 710.01,343.58 708.45,345.05 706.80,346.43 705.07,347.71 703.26,348.89 701.37,349.97 699.40,350.94 697.35,351.79 695.22,352.52 693.01,353.14 690.72,353.62 688.35,353.97 683.37,354.26 678.38,354.26" fill="none" stroke="#333333" stroke-width="2.6603174603174606" stroke-linecap="butt" stroke-linejoin="miter" />
    <text x="714.5446428571427" y="304.375" fill="#333333" stroke="none" font-family="Roboto Mono" font-weight="normal" font-size="11.97" text-anchor="middle" dominant-baseline="middle">2</text>
    <polyline points="668.40,244.52 668.40,239.53 668.40,238.06 668.40,236.44 668.40,234.70 668.40,232.85 668.40,230.88 668.40,228.81 668.40,226.65 668.40,224.41 668.40,222.09 668.40,219.72 668.40,217.28 668.40,214.80 668.40,212.29 668.40,209.74 668.40,207.18 668.40,204.61 668.40,202.04 668.40,199.48 668.40,196.94 668.40,194.42 668.40,191.94 668.40,189.51 668.40,187.13 668.40,184.82 668.40,182.57 668.40,180.42 668.40,178.35 668.40,176.38 668.40,174.52 668.40,172.78 668.40,169.70 668.40,164.71" fill="none" stroke="#333333" stroke-width="2.6603174603174606" stroke-linecap="butt" stroke-linejoin="miter" />
    <text x="658.4285714285711" y="204.61309523809518" fill="#333333" stroke="none" font-family="Roboto Mono" font-weight="normal" font-size="11.97" text-anchor="middle" dominant-baseline="middle">1</text>
    <polyline points="678.38,154.73 683.37,154.73 684.30,154.73 685.24,154.73 686.17,154.73 687.11,154.73 688.05,154.73 688.98,154.73 689.92,154.73 690.85,154.73 691.79,154.73 692.72,154.73 693.66,154.73 694.59,154.73 695.53,154.73 696.46,154.73 698.33,154.73" fill="none" stroke="#333333" stroke-width="2.6603174603174606" stroke-linecap="butt" stroke-linejoin="miter" />
    <circle cx="698.33" cy="154.73" r="7.98" fill="#c0392b" stroke="none" />
    <polyline points="693.84,154.73 702.82,154.73" fill="none" stroke="#fbfbfb" stroke-width="2.494047619047619" stroke-linecap="butt" stroke-linejoin="miter" />
    <polyline points="658.43,154.73 653.44,154.73 651.97,154.73 650.35,154.73 648.62,154.73 646.76,154.73 644.79,154.73 642.72,154.73 640.56,154.73 638.32,154.73 636.01,154.73 633.63,154.73 631.19,154.73 628.71,154.73 626.20,154.73 623.66,154.73 621.09,154.73 618.52,154.73 615.95,154.73 613.39,154.73 610.85,154.73 608.33,154.73 605.85,154.73 603.42,154.73 601.04,154.73 598.73,154.73 596.49,154.73 594.33,154.73 592.26,154.73 590.29,154.73 588.43,154.73 586.69,154.73 583.61,154.73 578.62,154.73" fill="none" stroke="#333333" stroke-width="2.6603174603174606" stroke-linecap="butt" stroke-linejoin="miter" />
    <text x="618.5238095238094" y="164.70833333333326" fill="#333333" stroke="none" font-family="Roboto Mono" font-weight="normal" font-size="11.97" text-anchor="middle" dominant-baseline="middle">1</text>
    <polyline points="568.64,144.76 568.64,139.77 568.72,137.24 568.93,134.78 569.28,132.41 569.76,130.12 570.37,127.91 571.11,125.78 571.96,123.73 572.93,121.76 574.01,119.88 575.19,118.07 576.47,116.34 577.85,114.69 579.32,113.12 580.88,111.64 582.51,110.23 584.23,108.90 586.02,107.66 587.88,106.49 589.80,105.41 591.78,104.40 593.82,103.48 595.90,102.63 598.04,101.87 600.21,101.19 602.42,100.59 604.66,100.06 606.93,99.62 609.22,99.26 611.53,98.98 613.85,98.78 616.19,98.66 618.52,98.62 620.86,98.66 623.19,98.78 625.52,98.98 627.83,99.26 630.12,99.62 632.39,100.06 634.63,100.59 636.84,101.19 639.01,101.87 641.14,102.63 643.23,103.48 645.27,104.40 647.25,105.41 649.17,106.49 651.03,107.66 652.82,108.90 654.53,110.23 656.17,111.64 657.73,113.12 659.20,114.69 660.58,116.34 661.86,118.07 663.04,119.88 664.12,121.76 665.09,123.73 665.94,125.78 666.67,127.91 667.28,130.12 667.77,132.41 668.12,134.78 668.40,139.77 668.40,144.76" fill="none" stroke="#333333" stroke-width="2.6603174603174606" stroke-linecap="butt" stroke-linejoin="miter" />
    <text x="618.5238095238119" y="108.59226190476181" fill="#333333" stroke="none" font-family="Roboto Mono" font-weight="normal" font-size="11.97" text-anchor="middle" dominant-baseline="middle">2</text>
    <polyline points="658.43,254.49 653.44,254.49 652.65,254.49 651.68,254.49 650.54,254.49 649.23,254.49 647.77,254.49 646.15,254.49 644.38,254.49 642.47,254.49 640.42,254.49 638.24,254.49 635.94,254.49 633.51,254.49 630.98,254.49 628.33,254.49 625.58,254.49 622.73,254.49 619.79,254.49 616.77,254.49 613.67,254.49 610.49,254.49 607.24,254.49 603.93,254.49 600.57,254.49 597.15,254.49 593.69,254.49 590.18,254.49 586.64,254.49 583.08,254.49 579.49,254.49 575.88,254.49 572.27,254.49 568.64,254.49 565.02,254.49 561.40,254.49 557.80,254.49 554.21,254.49 550.64,254.49 547.10,254.49 543.60,254.49 540.14,254.49 536.72,254.49 533.35,254.49 530.04,254.49 526.80,254.49 523.62,254.49 520.52,254.49 517.49,254.49 514.55,254.49 511.71,254.49 508.96,254.49 506.31,254.49 503.77,254.49 501.35,254.49 499.04,254.49 496.86,254.49 494.82,254.49 492.90,254.49 491.14,254.49 489.52,254.49 488.05,254.49 486.75,254.49 485.61,254.49 483.85,254.49 478.86,254.49" fill="none" stroke="#333333" stroke-width="2.6603174603174606" stroke-linecap="butt" stroke-linejoin="miter" />
    <text x="568.6428571428571" y="264.4702380952381" fill="#333333" stroke="none" font-family="Roboto Mono" font-weight="normal" font-size="11.97" text-anchor="middle" dominant-baseline="middle">1</text>
    <polyline points="468.88,264.47 468.88,269.46 468.88,270.93 468.88,272.54 468.88,274.28 468.88,276.14 468.88,278.11 468.88,280.18 468.88,282.34 468.88,284.58 468.88,286.89 468.88,289.27 468.88,291.71 468.88,294.18 468.88,296.70 468.88,299.24 468.88,301.80 468.88,304.38 468.88,306.95 468.88,309.51 468.88,312.05 468.88,314.57 468.88,317.04 468.88,319.48 468.88,321.86 468.88,324.17 468.88,326.41 468.88,328.57 468.88,330.64 468.88,332.61 468.88,334.47 468.88,336.21 468.88,339.29 468.88,344.28" fill="none" stroke="#333333" stroke-width="2.6603174603174606" stroke-linecap="butt" stroke-linejoin="miter" />
    <text x="454.62925170068047" y="304.375" fill="#333333" stroke="none" font-family="Roboto Mono" font-weight="normal" font-size="11.97" text-anchor="middle" dominant-baseline="middle">3</text>
    <text x="463.1802721088434" y="304.375" fill="#333333" stroke="none" font-family="Roboto Mono" font-weight="normal" font-size="11.97" text-anchor="middle" dominant-baseline="middle">6</text>
    <polyline points="458.90,354.26 453.92,354.26 452.44,354.26 450.83,354.26 449.09,354.26 447.23,354.26 445.27,354.26 443.20,354.26 441.04,354.26 438.80,354.26 436.48,354.26 434.10,354.26 431.67,354.26 429.19,354.26 426.67,354.26 424.13,354.26 421.57,354.26 419.00,354.26 416.43,354.26 413.87,354.26 411.33,354.26 408.81,354.26 406.33,354.26 403.90,354.26 401.52,354.26 399.20,354.26 396.96,354.26 394.80,354.26 392.73,354.26 390.77,354.26 388.91,354.26 387.17,354.26 384.08,354.26 379.10,354.26" fill="none" stroke="#333333" stroke-width="2.6603174603174606" stroke-linecap="butt" stroke-linejoin="miter" />
    <text x="419" y="364.2321428571429" fill="#333333" stroke="none" font-family="Roboto Mono" font-weight="normal" font-size="11.97" text-anchor="middle" dominant-baseline="middle">2</text>
    <polyline points="369.12,344.28 369.12,339.29 369.15,335.67 369.25,332.29 369.40,329.13 369.61,326.16 369.87,323.39 370.18,320.79 370.52,318.34 370.91,316.03 371.32,313.84 371.78,311.77 372.26,309.78 372.78,307.89 373.34,306.06 373.94,304.29 374.58,302.56 375.26,300.87 375.98,299.19 376.74,297.53 377.54,295.89 378.38,294.27 379.26,292.67 380.18,291.10 381.13,289.54 382.13,288.01 383.16,286.51 384.23,285.03 385.33,283.58 386.47,282.15 387.65,280.76 388.86,279.39 390.10,278.05 391.37,276.75 392.68,275.47 394.02,274.23 395.38,273.02 396.78,271.85 398.20,270.71 399.65,269.60 401.13,268.53 402.64,267.50 404.17,266.51 405.72,265.55 407.30,264.63 408.90,263.75 410.52,262.91 412.16,262.11 413.81,261.35 415.49,260.63 417.19,259.95 418.91,259.32 420.68,258.72 422.51,258.16 424.41,257.64 426.39,257.15 428.47,256.70 430.65,256.28 432.96,255.90 435.41,255.55 438.02,255.25 440.79,254.99 443.75,254.78 446.92,254.62 453.92,254.49 458.90,254.49" fill="none" stroke="#333333" stroke-width="2.6603174603174606" stroke-linecap="butt" stroke-linejoin="miter" />
    <text x="394.15132112314495" y="283.80183132724335" fill="#333333" stroke="none" font-family="Roboto Mono" font-weight="normal" font-size="11.97" text-anchor="middle" dominant-baseline="middle">3</text>
    <text x="402.7023415313083" y="283.80183132724335" fill="#333333" stroke="none" font-family="Roboto Mono" font-weight="normal" font-size="11.97" text-anchor="middle" dominant-baseline="middle">8</text>
    <polyline points="169.60,264.47 169.60,269.46 169.64,273.51 169.76,277.27 169.95,280.76 170.21,283.99 170.53,287.01 170.91,289.81 171.33,292.44 171.80,294.91 172.31,297.24 172.87,299.45 173.47,301.56 174.11,303.58 174.81,305.54 175.56,307.46 176.36,309.35 177.21,311.22 178.12,313.06 179.07,314.88 180.07,316.67 181.13,318.43 182.23,320.17 183.37,321.87 184.57,323.54 185.81,325.17 187.09,326.77 188.42,328.34 189.79,329.86 191.21,331.35 192.66,332.80 194.15,334.21 195.69,335.58 197.25,336.90 198.86,338.18 200.50,339.42 202.17,340.61 203.88,341.75 205.61,342.85 207.38,343.89 209.17,344.89 210.99,345.84 212.84,346.74 214.71,347.58 216.60,348.38 218.51,349.12 220.45,349.81 222.40,350.44 224.37,351.02 226.35,351.55 228.35,352.02 230.36,352.44 232.50,352.80 235.10,353.11 238.54,353.37 243.20,353.59 249.46,353.77 257.67,353.91 268.22,354.03 281.17,354.11 295.62,354.17 310.55,354.21 324.91,354.24 337.66,354.25 354.15,354.26 359.14,354.26" fill="none" stroke="#333333" stroke-width="2.6603174603174606" stroke-linecap="butt" stroke-linejoin="miter" />
    <text x="190.92582759510833" y="344.6132998048673" fill="#333333" stroke="none" font-family="Roboto Mono" font-weight="normal" font-size="11.97" text-anchor="middle" dominant-baseline="middle">4</text>
    <polyline points="169.60,244.52 169.60,239.53 169.60,238.06 169.60,236.44 169.60,234.70 169.60,232.85 169.60,230.88 169.60,228.81 169.60,226.65 169.60,224.41 169.60,222.09 169.60,219.72 169.60,217.28 169.60,214.80 169.60,212.29 169.60,209.74 169.60,207.18 169.60,204.61 169.60,202.04 169.60,199.48 169.60,196.94 169.60,194.42 169.60,191.94 169.60,189.51 169.60,187.13 169.60,184.82 169.60,182.57 169.60,180.42 169.60,178.35 169.60,176.38 169.60,174.52 169.60,172.78 169.60,169.70 169.60,164.71" fill="none" stroke="#e74c3c" stroke-width="2.6603174603174606" stroke-linecap="butt" stroke-linejoin="miter" />
    <text x="159.6190476190477" y="204.61309523809518" fill="#333333" stroke="none" font-family="Roboto Mono" font-weight="normal" font-size="11.97" text-anchor="middle" dominant-baseline="middle">1</text>
    <circle cx="184.56" cy="204.61" r="6.98" fill="#e74c3c" stroke="none" />
    <text x="184.55952380952385" y="204.61309523809518" fill="#fbfbfb" stroke="none" font-family="Roboto Mono" font-weight="normal" font-size="11.97" text-anchor="middle" dominant-baseline="middle">C</text>
    <polyline points="179.57,154.73 184.56,154.73 186.03,154.73 187.65,154.73 189.38,154.73 191.24,154.73 193.21,154.73 195.28,154.73 197.44,154.73 199.68,154.73 201.99,154.73 204.37,154.73 206.81,154.73 209.29,154.73 211.80,154.73 214.34,154.73 216.91,154.73 219.48,154.73 222.05,154.73 224.61,154.73 227.15,154.73 229.67,154.73 232.15,154.73 234.58,154.73 236.96,154.73 239.27,154.73 241.51,154.73 243.67,154.73 245.74,154.73 247.71,154.73 249.57,154.73 251.31,154.73 254.39,154.73 259.38,154.73" fill="none" stroke="#e74c3c" stroke-width="2.6603174603174606" stroke-linecap="butt" stroke-linejoin="miter" />
    <text x="219.4761904761906" y="164.70833333333326" fill="#333333" stroke="none" font-family="Roboto Mono" font-weight="normal" font-size="11.97" text-anchor="middle" dominant-baseline="middle">1</text>
    <circle cx="219.48" cy="139.77" r="6.98" fill="#e74c3c" stroke="none" />
    <text x="219.4761904761906" y="139.7678571428571" fill="#fbfbfb" stroke="none" font-family="Roboto Mono" font-weight="normal" font-size="11.97" text-anchor="middle" dominant-baseline="middle">C</text>
    <polyline points="179.57,254.49 184.56,254.49 188.18,254.46 191.56,254.37 194.73,254.21 197.69,254.00 200.46,253.74 203.06,253.44 205.51,253.09 207.82,252.71 210.01,252.29 212.09,251.84 214.07,251.35 215.96,250.83 217.79,250.27 219.56,249.67 221.29,249.03 222.99,248.36 224.66,247.64 226.32,246.88 227.96,246.08 229.58,245.24 231.18,244.36 232.76,243.44 234.31,242.48 235.84,241.49 237.34,240.45 238.82,239.38 240.27,238.28 241.70,237.14 243.09,235.96 244.46,234.76 245.80,233.51 247.10,232.24 248.38,230.93 249.62,229.60 250.83,228.23 252.00,226.83 253.14,225.41 254.25,223.96 255.32,222.48 256.35,220.97 257.34,219.45 258.30,217.89 259.22,216.32 260.10,214.72 260.94,213.10 261.74,211.46 262.50,209.80 263.22,208.12 263.90,206.43 264.53,204.70 265.13,202.93 265.69,201.10 266.21,199.20 266.70,197.22 267.15,195.15 267.57,192.96 267.95,190.65 268.30,188.20 268.60,185.60 268.86,182.82 269.07,179.86 269.23,176.70 269.36,169.70 269.36,164.71" fill="none" stroke="#e74c3c" stroke-width="2.6603174603174606" stroke-linecap="butt" stroke-linejoin="miter" />
    <text x="254.157823021191" y="239.2947277831165" fill="#333333" stroke="none" font-family="Roboto Mono" font-weight="normal" font-size="11.97" text-anchor="middle" dominant-baseline="middle">1</text>
    <circle cx="236.52" cy="221.66" r="6.98" fill="#e74c3c" stroke="none" />
    <text x="236.52224318090975" y="221.65914794278308" fill="#fbfbfb" stroke="none" font-family="Roboto Mono" font-weight="normal" font-size="11.97" text-anchor="middle" dominant-baseline="middle">C</text>
    <polyline points="558.67,154.73 553.68,154.73 552.81,154.68 551.95,154.51 551.10,154.24 550.26,153.86 549.43,153.39 548.61,152.82 547.80,152.17 547.00,151.43 546.20,150.61 545.42,149.71 544.64,148.73 543.87,147.69 543.11,146.58 542.35,145.41 541.60,144.19 540.86,142.91 540.12,141.58 539.38,140.21 538.66,138.80 537.93,137.35 537.21,135.87 536.49,134.36 535.78,132.82 535.07,131.27 534.36,129.70 533.65,128.12 532.95,126.53 532.24,124.93 531.54,123.34 530.84,121.75 530.14,120.17 529.44,118.60 528.73,117.05 528.03,115.52 527.33,114.02 526.62,112.54 525.91,111.10 525.20,109.69 524.49,108.32 523.78,107.00 523.06,105.73 522.33,104.51 521.61,103.36 520.87,102.26 520.14,101.22 519.40,100.26 518.65,99.37 517.89,98.56 517.13,97.83 516.37,97.19 515.59,96.64 514.81,96.18 514.02,95.81 513.22,95.54 512.42,95.36 511.61,95.26 510.79,95.25 509.97,95.33 509.14,95.49 508.30,95.72 507.46,96.04 506.61,96.44 505.75,96.90 504.89,97.45 504.02,98.06 503.15,98.74 502.27,99.50 501.39,100.31 500.50,101.19 499.60,102.14 498.70,103.14 497.80,104.20 496.89,105.32 495.98,106.49 495.07,107.71 494.14,108.99 493.22,110.32 492.29,111.69 491.36,113.11 490.43,114.57 489.49,116.07 488.55,117.61 487.60,119.19 486.65,120.81 485.70,122.46 484.75,124.14 483.79,125.86 482.84,127.60 481.88,129.37 480.91,131.16 479.95,132.98 478.99,134.82 478.02,136.67 477.05,138.55 476.08,140.44 475.11,142.34 474.14,144.26 473.17,146.19 472.19,148.12 471.22,150.06 470.24,152.01 469.27,153.95 468.30,155.90 467.32,157.85 466.35,159.79 465.37,161.73 464.39,163.66 463.41,165.58 462.43,167.49 461.45,169.38 460.46,171.25 459.47,173.11 458.48,174.94 457.48,176.75 456.48,178.54 455.48,180.30 454.46,182.02 453.45,183.72 452.43,185.38 451.40,187.00 450.36,188.58 449.32,190.12 448.27,191.62 447.21,193.07 446.15,194.48 445.07,195.83 443.99,197.13 442.90,198.38 441.80,199.57 440.69,200.70 439.57,201.76 438.44,202.77 437.29,203.71 436.14,204.58 434.97,205.38 433.80,206.10 432.61,206.76 431.40,207.33 430.19,207.83 428.96,208.24 427.71,208.57 426.45,208.81 425.18,208.97 423.89,209.03 422.59,209.01 421.27,208.88 419.93,208.66 418.58,208.34 417.21,207.92 415.83,207.40 414.42,206.77 413.00,206.03 411.56,205.18 410.10,204.21 408.62,203.14 407.13,201.96 405.61,200.67 404.08,199.29 402.53,197.81 400.97,196.24 399.39,194.58 397.79,192.85 396.19,191.03 394.56,189.15 392.93,187.20 391.28,185.18 389.62,183.11 387.95,180.99 386.26,178.81 384.57,176.59 382.87,174.33 381.16,172.03 379.43,169.70 377.70,167.35 375.97,164.97 374.22,162.57 372.47,160.16 370.71,157.74 368.95,155.32 367.19,152.90 365.41,150.48 363.64,148.07 361.86,145.68 360.08,143.30 358.30,140.94 356.51,138.61 354.73,136.32 352.94,134.06 351.15,131.84 349.37,129.66 347.58,127.54 345.80,125.47 344.02,123.45 342.25,121.50 340.47,119.62 338.70,117.81 336.94,116.08 335.18,114.42 333.43,112.86 331.68,111.38 329.94,110.00 328.20,108.71 326.48,107.53 324.76,106.46 323.05,105.50 321.36,104.65 319.67,103.92 317.99,103.30 316.33,102.78 314.68,102.37 313.04,102.05 311.42,101.83 309.82,101.71 308.23,101.67 306.66,101.72 305.11,101.86 303.58,102.07 302.07,102.37 300.59,102.73 299.12,103.17 297.68,103.68 296.27,104.25 294.87,104.89 293.51,105.58 292.17,106.33 290.86,107.13 289.58,107.98 288.33,108.87 287.12,109.81 285.93,110.79 284.78,111.80 283.66,112.85 282.57,113.93 281.52,115.03 280.51,116.16 279.54,117.31 278.60,118.48 277.70,119.66 276.85,120.85 276.03,122.05 275.26,123.25 274.53,124.46 273.84,125.67 273.20,126.87 272.60,128.06 272.06,129.24 271.56,130.41 271.10,131.56 270.70,132.69 270.35,133.80 270.05,134.88 269.80,135.93 269.61,136.95 269.47,137.93 269.36,139.77 269.36,144.76" fill="none" stroke="#e74c3c" stroke-width="2.6603174603174606" stroke-linecap="butt" stroke-linejoin="miter" />
    <text x="435.48616860739776" y="191.7041200444222" fill="#333333" stroke="none" font-family="Roboto Mono" font-weight="normal" font-size="11.97" text-anchor="middle" dominant-baseline="middle">2</text>
    <circle cx="454.02" cy="208.39" r="6.98" fill="#e74c3c" stroke="none" />
    <text x="454.0239712952523" y="208.3887604095571" fill="#fbfbfb" stroke="none" font-family="Roboto Mono" font-weight="normal" font-size="11.97" text-anchor="middle" dominant-baseline="middle">C</text>
    <polyline points="159.62,753.30 154.63,753.30 152.10,753.27 149.65,753.16 147.27,752.98 144.97,752.73 142.75,752.41 140.60,752.03 138.52,751.58 136.52,751.06 134.59,750.48 132.72,749.84 130.92,749.14 129.19,748.37 127.53,747.55 125.93,746.67 124.39,745.73 122.91,744.73 121.49,743.68 120.14,742.58 118.84,741.42 117.59,740.21 116.40,738.95 115.27,737.65 114.19,736.29 113.16,734.89 112.18,733.44 111.25,731.95 110.36,730.42 109.53,728.84 108.74,727.22 107.99,725.56 107.28,723.86 106.62,722.13 106.00,720.36 105.41,718.55 104.87,716.71 104.36,714.83 103.88,712.93 103.44,710.99 103.03,709.02 102.66,707.03 102.31,705.00 101.99,702.96 101.70,700.88 101.44,698.78 101.20,696.66 100.98,694.52 100.79,692.36 100.62,690.17 100.47,687.97 100.34,685.75 100.22,683.52 100.12,681.27 100.04,679.01 99.97,676.73 99.91,674.45 99.87,672.15 99.83,669.84 99.81,667.53 99.79,665.21 99.78,662.88 99.77,660.55 99.76,658.22 99.76,655.88 99.76,653.54 99.76,651.20 99.76,648.87 99.77,646.53 99.78,644.20 99.79,641.87 99.81,639.55 99.83,637.24 99.87,634.93 99.91,632.64 99.97,630.35 100.04,628.08 100.12,625.81 100.22,623.56 100.34,621.33 100.47,619.11 100.62,616.91 100.79,614.73 100.98,612.56 101.20,610.42 101.44,608.30 101.70,606.20 101.99,604.13 102.31,602.08 102.66,600.06 103.03,598.06 103.44,596.09 103.88,594.16 104.36,592.25 104.87,590.38 105.41,588.53 106.00,586.73 106.62,584.96 107.28,583.22 107.99,581.52 108.74,579.86 109.53,578.25 110.36,576.67 111.25,575.13 112.18,573.64 113.16,572.19 114.19,570.79 115.27,569.44 116.40,568.13 117.59,566.87 118.84,565.66 120.14,564.51 121.49,563.40 122.91,562.35 124.39,561.36 125.93,560.42 127.53,559.54 129.19,558.71 130.92,557.95 132.72,557.24 134.59,556.60 136.52,556.02 138.52,555.50 140.60,555.05 142.75,554.67 144.97,554.35 147.27,554.10 149.65,553.92 154.63,553.78 159.62,553.78" fill="none" stroke="#333333" stroke-width="2.6603174603174606" stroke-linecap="butt" stroke-linejoin="miter" />
    <text x="89.78571428571445" y="653.5416666666667" fill="#333333" stroke="none" font-family="Roboto Mono" font-weight="normal" font-size="11.97" text-anchor="middle" dominant-baseline="middle">2</text>
    <polyline points="179.57,553.78 184.56,553.78 186.03,553.78 187.65,553.78 189.38,553.78 191.24,553.78 193.21,553.78 195.28,553.78 197.44,553.78 199.68,553.78 201.99,553.78 204.37,553.78 206.81,553.78 209.29,553.78 211.80,553.78 214.34,553.78 216.91,553.78 219.48,553.78 222.05,553.78 224.61,553.78 227.15,553.78 229.67,553.78 232.15,553.78 234.58,553.78 236.96,553.78 239.27,553.78 241.51,553.78 243.67,553.78 245.74,553.78 247.71,553.78 249.57,553.78 251.31,553.78 254.39,553.78 259.38,553.78" fill="none" stroke="#9b59b6" stroke-width="2.6603174603174606" stroke-linecap="butt" stroke-linejoin="miter" />
    <text x="219.4761904761906" y="563.7559523809524" fill="#333333" stroke="none" font-family="Roboto Mono" font-weight="normal" font-size="11.97" text-anchor="middle" dominant-baseline="middle">1</text>
    <circle cx="219.48" cy="538.82" r="6.98" fill="#9b59b6" stroke="none" />
    <text x="219.4761904761906" y="538.8154761904761" fill="#fbfbfb" stroke="none" font-family="Roboto Mono" font-weight="normal" font-size="11.97" text-anchor="middle" dominant-baseline="middle">D</text>
    <polyline points="169.60,563.76 169.60,568.74 169.67,571.28 169.88,573.73 170.23,576.10 170.72,578.39 171.33,580.60 172.06,582.73 172.91,584.78 173.88,586.75 174.96,588.64 176.14,590.45 177.42,592.17 178.80,593.82 180.27,595.39 181.83,596.88 183.47,598.28 185.18,599.61 186.97,600.85 188.83,602.02 190.75,603.10 192.73,604.11 194.77,605.03 196.86,605.88 198.99,606.64 201.16,607.32 203.37,607.93 205.61,608.45 207.88,608.89 210.17,609.25 212.48,609.53 214.81,609.74 217.14,609.86 219.48,609.90 221.81,609.86 224.15,609.74 226.47,609.53 228.78,609.25 231.07,608.89 233.34,608.45 235.58,607.93 237.79,607.32 239.96,606.64 242.10,605.88 244.18,605.03 246.22,604.11 248.20,603.10 250.12,602.02 251.98,600.85 253.77,599.61 255.49,598.28 257.12,596.88 258.68,595.39 260.15,593.82 261.53,592.17 262.81,590.45 263.99,588.64 265.07,586.75 266.04,584.78 266.89,582.73 267.63,580.60 268.24,578.39 268.72,576.10 269.07,573.73 269.36,568.74 269.36,563.76" fill="none" stroke="#9b59b6" stroke-width="2.6603174603174606" stroke-linecap="butt" stroke-linejoin="miter" />
    <text x="219.4761904761906" y="619.8720238095239" fill="#333333" stroke="none" font-family="Roboto Mono" font-weight="normal" font-size="11.97" text-anchor="middle" dominant-baseline="middle">3</text>
    <circle cx="219.48" cy="594.93" r="6.98" fill="#9b59b6" stroke="none" />
    <text x="219.4761904761906" y="594.9315476190476" fill="#fbfbfb" stroke="none" font-family="Roboto Mono" font-weight="normal" font-size="11.97" text-anchor="middle" dominant-baseline="middle">D</text>
    <polyline points="269.36,543.80 269.36,538.82 269.43,533.86 269.64,529.27 269.99,525.04 270.48,521.15 271.09,517.60 271.82,514.36 272.68,511.44 273.64,508.81 274.72,506.47 275.90,504.39 277.19,502.58 278.56,501.02 280.03,499.70 281.59,498.61 283.23,497.72 284.94,497.04 286.73,496.55 288.59,496.24 290.51,496.09 292.50,496.10 294.53,496.24 296.62,496.53 298.75,496.92 300.92,497.43 303.13,498.03 305.37,498.71 307.64,499.47 309.93,500.28 312.24,501.15 314.57,502.04 316.90,502.97 319.24,503.90 321.58,504.83 323.91,505.75 326.23,506.65 328.54,507.51 330.83,508.33 333.10,509.08 335.34,509.77 337.55,510.37 339.73,510.87 341.86,511.27 343.94,511.55 345.98,511.70 347.96,511.71 349.88,511.56 351.74,511.25 353.53,510.76 355.25,510.08 356.89,509.19 358.44,508.10 359.91,506.77 361.29,505.21 362.57,503.40 363.76,501.33 364.83,498.99 365.80,496.36 366.65,493.43 367.39,490.20 368.00,486.65 368.48,482.76 368.83,478.53 369.12,468.98 369.12,463.99" fill="none" stroke="#9b59b6" stroke-width="2.6603174603174606" stroke-linecap="butt" stroke-linejoin="miter" />
    <text x="315.53312480205227" y="513.161507321173" fill="#333333" stroke="none" font-family="Roboto Mono" font-weight="normal" font-size="11.97" text-anchor="middle" dominant-baseline="middle">1</text>
    <circle cx="324.80" cy="490.00" r="6.98" fill="#9b59b6" stroke="none" />
    <text x="324.7955508921598" y="490.0047628277644" fill="#fbfbfb" stroke="none" font-family="Roboto Mono" font-weight="normal" font-size="11.97" text-anchor="middle" dominant-baseline="middle">D</text>
    <polyline points="169.60,543.80 169.60,538.82 169.64,534.76 169.76,531.00 169.95,527.52 170.21,524.28 170.53,521.27 170.91,518.46 171.33,515.83 171.80,513.37 172.31,511.04 172.87,508.83 173.47,506.72 174.11,504.69 174.81,502.73 175.56,500.81 176.36,498.92 177.21,497.05 178.12,495.21 179.07,493.39 180.07,491.60 181.13,489.84 182.23,488.11 183.37,486.41 184.57,484.74 185.81,483.10 187.09,481.50 188.42,479.94 189.79,478.41 191.21,476.92 192.66,475.47 194.15,474.06 195.69,472.70 197.25,471.37 198.86,470.09 200.50,468.86 202.17,467.67 203.88,466.52 205.61,465.43 207.38,464.38 209.17,463.38 210.99,462.44 212.84,461.54 214.71,460.69 216.60,459.90 218.51,459.16 220.45,458.47 222.40,457.83 224.37,457.25 226.35,456.73 228.35,456.25 230.36,455.84 232.50,455.48 235.10,455.17 238.54,454.90 243.20,454.68 249.46,454.50 257.67,454.36 268.22,454.25 281.17,454.16 295.62,454.10 310.55,454.06 324.91,454.04 337.66,454.02 354.15,454.02 359.14,454.02" fill="none" stroke="#1abc9c" stroke-width="2.6603174603174606" stroke-linecap="butt" stroke-linejoin="miter" />
    <text x="203.58348407438007" y="479.0839087646027" fill="#333333" stroke="none" font-family="Roboto Mono" font-weight="normal" font-size="11.97" text-anchor="middle" dominant-baseline="middle">2</text>
    <circle cx="187.76" cy="459.80" r="6.98" fill="#1abc9c" stroke="none" />
    <text x="187.76141347529347" y="459.80465995752456" fill="#fbfbfb" stroke="none" font-family="Roboto Mono" font-weight="normal" font-size="11.97" text-anchor="middle" dominant-baseline="middle">E</text>
    <polyline points="379.10,454.02 384.08,454.02 388.42,454.01 392.15,453.99 395.41,453.92 398.34,453.78 401.06,453.55 403.71,453.21 406.40,452.73 409.18,452.11 412.00,451.31 414.82,450.34 417.59,449.16 420.28,447.77 422.85,446.16 425.25,444.32 427.47,442.26 429.50,440.00 431.32,437.57 432.90,434.99 434.25,432.27 435.33,429.44 436.14,426.52 436.68,423.54 436.95,420.51 436.94,417.48 436.66,414.46 436.10,411.49 435.26,408.58 434.16,405.75 432.80,403.04 431.20,400.46 429.38,398.04 427.34,395.80 425.10,393.76 422.68,391.93 420.10,390.34 417.39,388.98 414.56,387.88 411.65,387.04 408.67,386.48 405.65,386.19 402.62,386.19 399.60,386.46 396.62,387.00 393.70,387.81 390.87,388.89 388.15,390.23 385.57,391.82 383.14,393.64 380.88,395.66 378.82,397.89 376.98,400.29 375.36,402.86 373.98,405.55 372.80,408.32 371.82,411.14 371.03,413.96 370.40,416.73 369.93,419.43 369.59,422.07 369.36,424.80 369.22,427.72 369.15,430.99 369.12,439.05 369.12,444.04" fill="none" stroke="#1abc9c" stroke-width="2.6603174603174606" stroke-linecap="butt" stroke-linejoin="miter" />
    <text x="420.2842996090699" y="402.85260515283767" fill="#333333" stroke="none" font-family="Roboto Mono" font-weight="normal" font-size="11.97" text-anchor="middle" dominant-baseline="middle">1</text>
    <circle cx="437.92" cy="385.22" r="6.98" fill="#1abc9c" stroke="none" />
    <text x="437.91987944937387" y="385.21702531252674" fill="#fbfbfb" stroke="none" font-family="Roboto Mono" font-weight="normal" font-size="11.97" text-anchor="middle" dominant-baseline="middle">E</text>
    <polyline points="169.60,763.28 169.60,768.27 169.60,769.20 169.60,770.14 169.60,771.07 169.60,772.01 169.60,772.94 169.60,773.88 169.60,774.81 169.60,775.75 169.60,776.69 169.60,777.62 169.60,778.56 169.60,779.49 169.60,780.43 169.60,781.36 169.60,783.23" fill="none" stroke="#9b59b6" stroke-width="2.6603174603174606" stroke-linecap="butt" stroke-linejoin="miter" />
    <circle cx="169.60" cy="783.23" r="7.98" fill="#c0392b" stroke="none" />
    <polyline points="165.11,783.23 174.08,783.23" fill="none" stroke="#fbfbfb" stroke-width="2.494047619047619" stroke-linecap="butt" stroke-linejoin="miter" />
    <circle cx="184.56" cy="775.75" r="6.98" fill="#9b59b6" stroke="none" />
    <text x="184.55952380952385" y="775.75" fill="#fbfbfb" stroke="none" font-family="Roboto Mono" font-weight="normal" font-size="11.97" text-anchor="middle" dominant-baseline="middle">D</text>
    <polyline points="159.62,254.49 154.63,254.49 146.89,254.49 140.01,254.43 133.93,254.28 128.59,253.99 123.94,253.50 119.91,252.78 116.46,251.77 113.52,250.43 111.03,248.71 108.95,246.57 107.21,243.94 105.75,240.79 104.52,237.08 103.47,232.78 102.59,227.99 101.87,222.80 101.27,217.30 100.81,211.60 100.45,205.78 100.18,199.94 99.99,194.18 99.87,188.59 99.80,183.27 99.77,178.31 99.76,173.80 99.76,169.85 99.76,166.48 99.76,163.65 99.76,161.32 99.76,159.43 99.76,157.94 99.76,156.81 99.76,155.98 99.76,155.41 99.76,155.04 99.76,154.84 99.76,154.75 99.76,154.73 99.76,154.78 99.76,154.94 99.76,155.29 99.76,155.89 99.76,156.82 99.76,158.15 99.76,159.95 99.76,162.30 99.76,165.25 99.76,168.90 99.76,173.30 99.76,178.52 99.77,184.62 99.82,191.47 99.97,198.84 100.28,206.52 100.81,214.31 101.62,221.98 102.75,229.32 104.28,236.12 106.25,242.16 108.72,247.24 111.75,251.13 119.71,254.49" fill="none" stroke="#333333" stroke-width="2.6603174603174606" stroke-linecap="butt" stroke-linejoin="miter" />
    <circle cx="119.71" cy="254.49" r="7.98" fill="#c0392b" stroke="none" />
    <polyline points="115.22,254.49 124.20,254.49" fill="none" stroke="#fbfbfb" stroke-width="2.494047619047619" stroke-linecap="butt" stroke-linejoin="miter" />
    <polyline points="568.64,763.28 568.64,768.27 568.64,769.20 568.64,770.14 568.64,771.07 568.64,772.01 568.64,772.94 568.64,773.88 568.64,774.81 568.64,775.75 568.64,776.69 568.64,777.62 568.64,778.56 568.64,779.49 568.64,780.43 568.64,781.36 568.64,783.23" fill="none" stroke="#9b59b6" stroke-width="2.6603174603174606" stroke-linecap="butt" stroke-linejoin="miter" />
    <circle cx="568.64" cy="783.23" r="7.98" fill="#c0392b" stroke="none" />
    <polyline points="564.15,783.23 573.13,783.23" fill="none" stroke="#fbfbfb" stroke-width="2.494047619047619" stroke-linecap="butt" stroke-linejoin="miter" />
    <circle cx="583.61" cy="775.75" r="6.98" fill="#9b59b6" stroke="none" />
    <text x="583.6071428571429" y="775.75" fill="#fbfbfb" stroke="none" font-family="Roboto Mono" font-weight="normal" font-size="11.97" text-anchor="middle" dominant-baseline="middle">D</text>
    <polyline points="369.12,763.28 369.12,768.27 369.12,769.20 369.12,770.14 369.12,771.07 369.12,772.01 369.12,772.94 369.12,773.88 369.12,774.81 369.12,775.75 369.12,776.69 369.12,777.62 369.12,778.56 369.12,779.49 369.12,780.43 369.12,781.36 369.12,783.23" fill="none" stroke="#333333" stroke-width="2.6603174603174606" stroke-linecap="butt" stroke-linejoin="miter" />
    <polygon points="369.12,778.24 361.34,804.18 369.12,798.99 376.90,804.18" fill="#333333" stroke="none" />
    <text x="369.1190476190477" y="809.1702380952381" fill="#333333" stroke="none" font-family="Roboto Mono" font-weight="normal" font-size="11.97" text-anchor="middle" dominant-baseline="middle">N</text>
    <polyline points="661.42,166.70 661.42,174.39" fill="none" stroke="#333333" stroke-width="1.7292063492063494" stroke-linecap="butt" stroke-linejoin="miter" />
    <polygon points="661.42,177.68 664.49,173.29 658.35,173.29" fill="#333333" stroke="none" />
    <polyline points="480.85,261.48 488.53,261.48" fill="none" stroke="#333333" stroke-width="1.7292063492063494" stroke-linecap="butt" stroke-linejoin="miter" />
    <polygon points="491.83,261.48 487.44,258.40 487.44,264.55" fill="#333333" stroke="none" />
    <polyline points="157.62,746.32 149.94,746.32" fill="none" stroke="#333333" stroke-width="1.7292063492063494" stroke-linecap="butt" stroke-linejoin="miter" />
    <polygon points="146.65,746.32 151.04,749.39 151.04,743.25" fill="#333333" stroke="none" />
    <polygon points="359.14,763.28 379.10,763.28 379.10,743.33 359.14,743.33" fill="#c0392b" stroke="none" />
    <polygon points="159.62,763.28 179.57,763.28 179.57,743.33 159.62,743.33" fill="#c0392b" stroke="none" />
    <polygon points="359.14,663.52 379.10,663.52 379.10,643.57 359.14,643.57" fill="#2980b9" stroke="none" />
    <polygon points="458.90,563.76 478.86,563.76 478.86,543.80 458.90,543.80" fill="#2980b9" stroke="none" />
    <polygon points="458.90,763.28 478.86,763.28 478.86,743.33 458.90,743.33" fill="#2980b9" stroke="none" />
    <polygon points="558.67,763.28 578.62,763.28 578.62,743.33 558.67,743.33" fill="#c0392b" stroke="none" />
    <polygon points="558.67,563.76 578.62,563.76 578.62,543.80 558.67,543.80" fill="#c0392b" stroke="none" />
    <polygon points="658.43,563.76 678.38,563.76 678.38,543.80 658.43,543.80" fill="#2980b9" stroke="none" />
    <polygon points="658.43,763.28 678.38,763.28 678.38,743.33 658.43,743.33" fill="#2980b9" stroke="none" />
    <polygon points="658.43,364.23 678.38,364.23 678.38,344.28 658.43,344.28" fill="#2980b9" stroke="none" />
    <polygon points="658.43,264.47 678.38,264.47 678.38,244.52 658.43,244.52" fill="#c0392b" stroke="none" />
    <polygon points="658.43,164.71 678.38,164.71 678.38,144.76 658.43,144.76" fill="#2980b9" stroke="none" />
    <polygon points="558.67,164.71 578.62,164.71 578.62,144.76 558.67,144.76" fill="#c0392b" stroke="none" />
    <polygon points="458.90,264.47 478.86,264.47 478.86,244.52 458.90,244.52" fill="#c0392b" stroke="none" />
    <polygon points="458.90,364.23 478.86,364.23 478.86,344.28 458.90,344.28" fill="#2980b9" stroke="none" />
    <polygon points="359.14,364.23 379.10,364.23 379.10,344.28 359.14,344.28" fill="#c0392b" stroke="none" />
    <polygon points="159.62,264.47 179.57,264.47 179.57,244.52 159.62,244.52" fill="#2980b9" stroke="none" />
    <polygon points="159.62,164.71 179.57,164.71 179.57,144.76 159.62,144.76" fill="#c0392b" stroke="none" />
    <polygon points="259.38,164.71 279.33,164.71 279.33,144.76 259.38,144.76" fill="#2980b9" stroke="none" />
    <polygon points="159.62,563.76 179.57,563.76 179.57,543.80 159.62,543.80" fill="#c0392b" stroke="none" />
    <polygon points="259.38,563.76 279.33,563.76 279.33,543.80 259.38,543.80" fill="#2980b9" stroke="none" />
    <polygon points="359.14,463.99 379.10,463.99 379.10,444.04 359.14,444.04" fill="#2980b9" stroke="none" />
    <circle cx="668.40" cy="254.49" r="6.98" fill="#f1c40f" stroke="none" />
    <text x="668.4047619047617" y="254.4940476190476" fill="#333333" stroke="none" font-family="Roboto Mono" font-weight="normal" font-size="11.97" text-anchor="middle" dominant-baseline="middle">A</text>
    <circle cx="369.12" cy="354.26" r="6.98" fill="#2ecc71" stroke="none" />
    <text x="369.1190476190477" y="354.2559523809524" fill="#fbfbfb" stroke="none" font-family="Roboto Mono" font-weight="normal" font-size="11.97" text-anchor="middle" dominant-baseline="middle">B</text>
    <text x="30" y="853.0654761904761" fill="#a3a3a3" stroke="none" font-family="Roboto Mono" font-weight="normal" font-size="16.00" text-anchor="middle" dominant-baseline="middle">1</text>
    <text x="30" y="753.3035714285714" fill="#a3a3a3" stroke="none" font-family="Roboto Mono" font-weight="normal" font-size="16.00" text-anchor="middle" dominant-baseline="middle">2</text>
    <text x="30" y="653.5416666666667" fill="#a3a3a3" stroke="none" font-family="Roboto Mono" font-weight="normal" font-size="16.00" text-anchor="middle" dominant-baseline="middle">3</text>
    <text x="30" y="553.7797619047619" fill="#a3a3a3" stroke="none" font-family="Roboto Mono" font-weight="normal" font-size="16.00" text-anchor="middle" dominant-baseline="middle">4</text>
    <text x="30" y="454.01785714285717" fill="#a3a3a3" stroke="none" font-family="Roboto Mono" font-weight="normal" font-size="16.00" text-anchor="middle" dominant-baseline="middle">5</text>
    <text x="30" y="354.2559523809524" fill="#a3a3a3" stroke="none" font-family="Roboto Mono" font-weight="normal" font-size="16.00" text-anchor="middle" dominant-baseline="middle">6</text>
    <text x="30" y="254.4940476190476" fill="#a3a3a3" stroke="none" font-family="Roboto Mono" font-weight="normal" font-size="16.00" text-anchor="middle" dominant-baseline="middle">7</text>
    <text x="30" y="154.7321428571429" fill="#a3a3a3" stroke="none" font-family="Roboto Mono" font-weight="normal" font-size="16.00" text-anchor="middle" dominant-baseline="middle">8</text>
    <text x="30" y="54.97023809523819" fill="#a3a3a3" stroke="none" font-family="Roboto Mono" font-weight="normal" font-size="16.00" text-anchor="middle" dominant-baseline="middle">9</text>
    <text x="69.83333333333326" y="893" fill="#a3a3a3" stroke="none" font-family="Roboto Mono" font-weight="normal" font-size="16.00" text-anchor="middle" dominant-baseline="middle">12</text>
    <text x="169.59523809523807" y="893" fill="#a3a3a3" stroke="none" font-family="Roboto Mono" font-weight="normal" font-size="16.00" text-anchor="middle" dominant-baseline="middle">13</text>
    <text x="269.3571428571429" y="893" fill="#a3a3a3" stroke="none" font-family="Roboto Mono" font-weight="normal" font-size="16.00" text-anchor="middle" dominant-baseline="middle">14</text>
    <text x="369.1190476190477" y="893" fill="#a3a3a3" stroke="none" font-family="Roboto Mono" font-weight="normal" font-size="16.00" text-anchor="middle" dominant-baseline="middle">15</text>
    <text x="468.8809523809523" y="893" fill="#a3a3a3" stroke="none" font-family="Roboto Mono" font-weight="normal" font-size="16.00" text-anchor="middle" dominant-baseline="middle">16</text>
    <text x="568.6428571428571" y="893" fill="#a3a3a3" stroke="none" font-family="Roboto Mono" font-weight="normal" font-size="16.00" text-anchor="middle" dominant-baseline="middle">17</text>
    <text x="668.4047619047617" y="893" fill="#a3a3a3" stroke="none" font-family="Roboto Mono" font-weight="normal" font-size="16.00" text-anchor="middle" dominant-baseline="middle">18</text>
    <text x="768.1666666666667" y="893" fill="#a3a3a3" stroke="none" font-family="Roboto Mono" font-weight="normal" font-size="16.00" text-anchor="middle" dominant-baseline="middle">19</text>
    <circle cx="794.00" cy="44.00" r="24.00" fill="rgba(51, 51, 51, 0.25)" stroke="none" />
    <polygon points="794.00,24.00 802.00,44.00 786.00,44.00" fill="#c0392b" stroke="none" />
    <polygon points="794.00,64.00 802.00,44.00 786.00,44.00" fill="rgba(51, 51, 51, 0.8)" stroke="none" />
    <polygon points="791.85,43.00 790.65,43.00 790.65,35.00 791.85,35.00 796.15,41.00 796.15,35.00 797.35,35.00 797.35,43.00 796.15,43.00 791.85,37.00" fill="#ffffff" stroke="none" />
</svg>
