<?xml version="1.0" encoding="UTF-8"?>
<svg version="1.1" xmlns="http://www.w3.org/2000/svg" viewBox="0 0 398.00 698.00">
<style type="text/css">
@font-face {
  font-family: 'Roboto Mono';
  font-style: normal;
  font-weight: 400;
  font-display: swap;
  src: local('Roboto Mono'), local('RobotoMono-Regular'), url(https://fonts.gstatic.com/s/robotomono/v7/L0x5DF4xlVMF-BfR8bXMIjhLq38.woff2) format('woff2');
  unicode-range: U+0000-00FF, U+0131, U+0152-0153, U+02BB-02BC, U+02C6, U+02DA, U+02DC, U+2000-206F, U+2074, U+20AC, U+2122, U+2191, U+2193, U+2212, U+2215, U+FEFF, U+FFFD;
}
@font-face {
  font-family: 'Roboto Mono';
  font-style: normal;
  font-weight: 700;
  font-display: swap;
  src: local('Roboto Mono Bold'), local('RobotoMono-Bold'), url(https://fonts.gstatic.com/s/robotomono/v7/L0xkDF4xlVMF-BfR8bXMIjDwjmqxf78.woff2) format('woff2');
  unicode-range: U+0000-00FF, U+0131, U+0152-0153, U+02BB-02BC, U+02C6, U+02DA, U+02DC, U+2000-206F, U+2074, U+20AC, U+2122, U+2191, U+2193, U+2212, U+2215, U+FEFF, U+FFFD;
}
</style>
    <rect x="0" y="0" width="398" height="698" fill="#eeeeee" stroke="none" />
    <polygon points="0.00,697.25 398.00,697.25 398.00,0.75 0.00,0.75" fill="#fbfbfb" stroke="none" />
    <polyline points="0.00,697.25 398.00,697.25" fill="none" stroke="#d2d2d2" stroke-width="1" stroke-linecap="butt" stroke-linejoin="miter" />
    <polyline points="0.00,597.75 398.00,597.75" fill="none" stroke="#d2d2d2" stroke-width="1" stroke-linecap="butt" stroke-linejoin="miter" />
    <polyline points="0.00,498.25 398.00,498.25" fill="none" stroke="#d2d2d2" stroke-width="1" stroke-linecap="butt" stroke-linejoin="miter" />
    <polyline points="0.00,398.75 398.00,398.75" fill="none" stroke="#d2d2d2" stroke-width="1" stroke-linecap="butt" stroke-linejoin="miter" />
    <polyline points="0.00,299.25 398.00,299.25" fill="none" stroke="#d2d2d2" stroke-width="1" stroke-linecap="butt" stroke-linejoin="miter" />
    <polyline points="0.00,199.75 398.00,199.75" fill="none" stroke="#d2d2d2" stroke-width="1" stroke-linecap="butt" stroke-linejoin="miter" />
    <polyline points="0.00,100.25 398.00,100.25" fill="none" stroke="#d2d2d2" stroke-width="1" stroke-linecap="butt" stroke-linejoin="miter" />
    <polyline points="0.00,0.75 398.00,0.75" fill="none" stroke="#d2d2d2" stroke-width="1" stroke-linecap="butt" stroke-linejoin="miter" />
    <polyline points="0.00,698.00 0.00,0.00" fill="none" stroke="#d2d2d2" stroke-width="1" stroke-linecap="butt" stroke-linejoin="miter" />
    <polyline points="99.50,698.00 99.50,0.00" fill="none" stroke="#d2d2d2" stroke-width="1" stroke-linecap="butt" stroke-linejoin="miter" />
    <polyline points="199.00,698.00 199.00,0.00" fill="none" stroke="#d2d2d2" stroke-width="1" stroke-linecap="butt" stroke-linejoin="miter" />
    <polyline points="298.50,698.00 298.50,0.00" fill="none" stroke="#d2d2d2" stroke-width="1" stroke-linecap="butt" stroke-linejoin="miter" />
    <polyline points="398.00,698.00 398.00,0.00" fill="none" stroke="#d2d2d2" stroke-width="1" stroke-linecap="butt" stroke-linejoin="miter" />
    <circle cx="99.50" cy="299.25" r="24.88" fill="#f1c40f" stroke="none" />
    <path d="M 117.41,490.29 A 9.95 9.95 0 0 0 107.46,480.34" fill="none" stroke="#f1c40f" stroke-width="2.6533333333333333" stroke-linecap="butt" stroke-linejoin="miter" />
    <path d="M 124.87,490.29 A 17.41 17.41 0 0 0 107.46,472.88" fill="none" stroke="#f1c40f" stroke-width="2.6533333333333333" stroke-linecap="butt" stroke-linejoin="miter" />
    <path d="M 132.34,490.29 A 24.88 24.88 0 0 0 107.46,465.42" fill="none" stroke="#f1c40f" stroke-width="2.6533333333333333" stroke-linecap="butt" stroke-linejoin="miter" />
    <polygon points="125.50,463.41 137.34,461.09 129.41,451.99" fill="#f1c40f" stroke="none" />
    <circle cx="132.08" cy="465.67" r="6.97" fill="#f1c40f" stroke="none" />
    <text x="132.08499365482152" y="465.66500634517865" fill="#333333" stroke="none" font-family="Roboto Mono" font-weight="normal" font-size="11.94" text-anchor="middle" dominant-baseline="middle">A</text>
    <path d="M 316.41,191.79 A 9.95 9.95 0 0 0 306.46,181.84" fill="none" stroke="#2ecc71" stroke-width="2.6533333333333333" stroke-linecap="butt" stroke-linejoin="miter" />
    <path d="M 323.87,191.79 A 17.41 17.41 0 0 0 306.46,174.38" fill="none" stroke="#2ecc71" stroke-width="2.6533333333333333" stroke-linecap="butt" stroke-linejoin="miter" />
    <path d="M 331.34,191.79 A 24.88 24.88 0 0 0 306.46,166.91" fill="none" stroke="#2ecc71" stroke-width="2.6533333333333333" stroke-linecap="butt" stroke-linejoin="miter" />
    <circle cx="331.08" cy="167.17" r="6.97" fill="#2ecc71" stroke="none" />
    <text x="331.0849936548215" y="167.16500634517843" fill="#fbfbfb" stroke="none" font-family="Roboto Mono" font-weight="normal" font-size="11.94" text-anchor="middle" dominant-baseline="middle">B</text>
    <path d="M 216.91,92.29 A 9.95 9.95 0 0 0 206.96,82.34" fill="none" stroke="#e74c3c" stroke-width="2.6533333333333333" stroke-linecap="butt" stroke-linejoin="miter" />
    <path d="M 224.37,92.29 A 17.41 17.41 0 0 0 206.96,74.88" fill="none" stroke="#e74c3c" stroke-width="2.6533333333333333" stroke-linecap="butt" stroke-linejoin="miter" />
    <path d="M 231.84,92.29 A 24.88 24.88 0 0 0 206.96,67.41" fill="none" stroke="#e74c3c" stroke-width="2.6533333333333333" stroke-linecap="butt" stroke-linejoin="miter" />
    <circle cx="231.58" cy="67.67" r="6.97" fill="#e74c3c" stroke="none" />
    <text x="231.58499365482152" y="67.66500634517865" fill="#fbfbfb" stroke="none" font-family="Roboto Mono" font-weight="normal" font-size="11.94" text-anchor="middle" dominant-baseline="middle">C</text>
    <path d="M 117.41,291.29 A 9.95 9.95 0 0 0 107.46,281.34" fill="none" stroke="#9b59b6" stroke-width="2.6533333333333333" stroke-linecap="butt" stroke-linejoin="miter" />
    <path d="M 124.87,291.29 A 17.41 17.41 0 0 0 107.46,273.88" fill="none" stroke="#9b59b6" stroke-width="2.6533333333333333" stroke-linecap="butt" stroke-linejoin="miter" />
    <path d="M 132.34,291.29 A 24.88 24.88 0 0 0 107.46,266.41" fill="none" stroke="#9b59b6" stroke-width="2.6533333333333333" stroke-linecap="butt" stroke-linejoin="miter" />
    <circle cx="132.08" cy="266.67" r="6.97" fill="#9b59b6" stroke="none" />
    <text x="132.08499365482152" y="266.66500634517865" fill="#fbfbfb" stroke="none" font-family="Roboto Mono" font-weight="normal" font-size="11.94" text-anchor="middle" dominant-baseline="middle">D</text>
    <polyline points="298.50,309.20 298.50,314.18 298.50,314.96 298.50,315.93 298.50,317.07 298.50,318.37 298.50,319.83 298.50,321.45 298.50,323.21 298.50,325.12 298.50,327.16 298.50,329.33 298.50,331.63 298.50,334.05 298.50,336.58 298.50,339.22 298.50,341.96 298.50,344.80 298.50,347.73 298.50,350.75 298.50,353.84 298.50,357.01 298.50,360.25 298.50,363.55 298.50,366.91 298.50,370.32 298.50,373.77 298.50,377.27 298.50,380.80 298.50,384.35 298.50,387.93 298.50,391.53 298.50,395.14 298.50,398.75 298.50,402.36 298.50,405.97 298.50,409.57 298.50,413.15 298.50,416.70 298.50,420.23 298.50,423.73 298.50,427.18 298.50,430.59 298.50,433.95 298.50,437.25 298.50,440.49 298.50,443.66 298.50,446.75 298.50,449.77 298.50,452.70 298.50,455.54 298.50,458.28 298.50,460.92 298.50,463.45 298.50,465.87 298.50,468.17 298.50,470.34 298.50,472.38 298.50,474.29 298.50,476.05 298.50,477.67 298.50,479.13 298.50,480.43 298.50,481.57 298.50,483.33 298.50,488.30" fill="none" stroke="#333333" stroke-width="2.6533333333333333" stroke-linecap="butt" stroke-linejoin="miter" />
    <text x="288.55" y="398.75" fill="#333333" stroke="none" font-family="Roboto Mono" font-weight="normal" font-size="11.94" text-anchor="middle" dominant-baseline="middle">9</text>
    <polyline points="288.55,299.25 283.58,299.25 282.10,299.25 280.50,299.25 278.76,299.25 276.91,299.25 274.95,299.25 272.88,299.25 270.73,299.25 268.49,299.25 266.19,299.25 263.81,299.25 261.39,299.25 258.91,299.25 256.40,299.25 253.87,299.25 251.31,299.25 248.75,299.25 246.19,299.25 243.63,299.25 241.10,299.25 238.59,299.25 236.11,299.25 233.69,299.25 231.31,299.25 229.01,299.25 226.77,299.25 224.62,299.25 222.55,299.25 220.59,299.25 218.74,299.25 217.00,299.25 213.92,299.25 208.95,299.25" fill="none" stroke="#333333" stroke-width="2.6533333333333333" stroke-linecap="butt" stroke-linejoin="miter" />
    <text x="244.4857142857143" y="309.20000000000005" fill="#333333" stroke="none" font-family="Roboto Mono" font-weight="normal" font-size="11.94" text-anchor="middle" dominant-baseline="middle">2</text>
    <text x="253.0142857142857" y="309.20000000000005" fill="#333333" stroke="none" font-family="Roboto Mono" font-weight="normal" font-size="11.94" text-anchor="middle" dominant-baseline="middle">0</text>
    <polyline points="189.05,299.25 184.08,299.25 182.60,299.25 181.00,299.25 179.26,299.25 177.41,299.25 175.45,299.25 173.38,299.25 171.23,299.25 168.99,299.25 166.69,299.25 164.31,299.25 161.89,299.25 159.41,299.25 156.90,299.25 154.37,299.25 151.81,299.25 149.25,299.25 146.69,299.25 144.13,299.25 141.60,299.25 139.09,299.25 136.61,299.25 134.19,299.25 131.81,299.25 129.51,299.25 127.27,299.25 125.12,299.25 123.05,299.25 121.09,299.25 119.24,299.25 117.50,299.25 114.42,299.25 109.45,299.25" fill="none" stroke="#2ecc71" stroke-width="2.6533333333333333" stroke-linecap="butt" stroke-linejoin="miter" />
    <text x="149.25" y="309.20000000000005" fill="#333333" stroke="none" font-family="Roboto Mono" font-weight="normal" font-size="11.94" text-anchor="middle" dominant-baseline="middle">5</text>
    <circle cx="149.25" cy="284.33" r="6.97" fill="#2ecc71" stroke="none" />
    <text x="149.25" y="284.32500000000005" fill="#fbfbfb" stroke="none" font-family="Roboto Mono" font-weight="normal" font-size="11.94" text-anchor="middle" dominant-baseline="middle">B</text>
    <polyline points="199.00,289.30 199.00,284.33 199.03,280.72 199.13,277.34 199.28,274.19 199.49,271.23 199.75,268.47 200.05,265.87 200.40,263.43 200.78,261.12 201.20,258.94 201.65,256.87 202.13,254.90 202.66,253.00 203.21,251.18 203.81,249.41 204.45,247.69 205.12,246.00 205.84,244.33 206.60,242.67 207.40,241.04 208.23,239.42 209.11,237.83 210.03,236.26 210.98,234.71 211.97,233.18 213.00,231.68 214.07,230.21 215.17,228.76 216.31,227.34 217.48,225.94 218.69,224.58 219.92,223.25 221.20,221.95 222.50,220.67 223.83,219.44 225.19,218.23 226.59,217.06 228.01,215.92 229.46,214.82 230.93,213.75 232.43,212.72 233.96,211.73 235.51,210.78 237.08,209.86 238.67,208.98 240.29,208.15 241.92,207.35 243.58,206.59 245.25,205.87 246.94,205.20 248.66,204.56 250.43,203.96 252.25,203.41 254.15,202.88 256.12,202.40 258.19,201.95 260.37,201.53 262.68,201.15 265.12,200.80 267.72,200.50 270.48,200.24 273.44,200.03 276.59,199.88 283.58,199.75 288.55,199.75" fill="none" stroke="#e74c3c" stroke-width="2.6533333333333333" stroke-linecap="butt" stroke-linejoin="miter" />
    <text x="228.23084203257983" y="228.9808420325826" fill="#333333" stroke="none" font-family="Roboto Mono" font-weight="normal" font-size="11.94" text-anchor="middle" dominant-baseline="middle">6</text>
    <circle cx="210.64" cy="211.39" r="6.97" fill="#e74c3c" stroke="none" />
    <text x="210.64156085056788" y="211.39156085056356" fill="#fbfbfb" stroke="none" font-family="Roboto Mono" font-weight="normal" font-size="11.94" text-anchor="middle" dominant-baseline="middle">C</text>
    <polyline points="199.00,309.20 199.00,314.18 199.00,315.65 199.00,317.25 199.00,318.99 199.00,320.84 199.00,322.80 199.00,324.87 199.00,327.02 199.00,329.26 199.00,331.56 199.00,333.94 199.00,336.36 199.00,338.84 199.00,341.35 199.00,343.88 199.00,346.44 199.00,349.00 199.00,351.56 199.00,354.12 199.00,356.65 199.00,359.16 199.00,361.64 199.00,364.06 199.00,366.44 199.00,368.74 199.00,370.98 199.00,373.13 199.00,375.20 199.00,377.16 199.00,379.01 199.00,380.75 199.00,383.83 199.00,388.80" fill="none" stroke="#2ecc71" stroke-width="2.6533333333333333" stroke-linecap="butt" stroke-linejoin="miter" />
    <text x="189.05" y="349" fill="#333333" stroke="none" font-family="Roboto Mono" font-weight="normal" font-size="11.94" text-anchor="middle" dominant-baseline="middle">7</text>
    <circle cx="213.92" cy="349.00" r="6.97" fill="#2ecc71" stroke="none" />
    <text x="213.925" y="349" fill="#fbfbfb" stroke="none" font-family="Roboto Mono" font-weight="normal" font-size="11.94" text-anchor="middle" dominant-baseline="middle">B</text>
    <polyline points="298.50,289.30 298.50,284.33 298.50,282.85 298.50,281.25 298.50,279.51 298.50,277.66 298.50,275.70 298.50,273.63 298.50,271.48 298.50,269.24 298.50,266.94 298.50,264.56 298.50,262.14 298.50,259.66 298.50,257.15 298.50,254.62 298.50,252.06 298.50,249.50 298.50,246.94 298.50,244.38 298.50,241.85 298.50,239.34 298.50,236.86 298.50,234.44 298.50,232.06 298.50,229.76 298.50,227.52 298.50,225.37 298.50,223.30 298.50,221.34 298.50,219.49 298.50,217.75 298.50,214.67 298.50,209.70" fill="none" stroke="#333333" stroke-width="2.6533333333333333" stroke-linecap="butt" stroke-linejoin="miter" />
    <text x="284.2857142857143" y="249.5" fill="#333333" stroke="none" font-family="Roboto Mono" font-weight="normal" font-size="11.94" text-anchor="middle" dominant-baseline="middle">1</text>
    <text x="292.8142857142857" y="249.5" fill="#333333" stroke="none" font-family="Roboto Mono" font-weight="normal" font-size="11.94" text-anchor="middle" dominant-baseline="middle">2</text>
    <polyline points="199.00,408.70 199.00,413.67 199.03,420.51 199.21,427.71 199.70,434.95 200.67,441.90 202.25,448.20 204.42,453.70 206.94,458.40 209.53,462.33 211.95,465.52 213.98,468.01 215.71,470.01 217.35,471.78 219.11,473.58 221.20,475.67 223.68,478.17 226.36,480.94 229.05,483.83 231.53,486.68 233.60,489.36 235.27,491.90 236.60,494.43 237.68,497.09 238.59,500.02 239.38,503.28 239.96,506.83 240.25,510.55 240.15,514.36 239.56,518.16 238.45,521.88 236.80,525.45 234.60,528.82 231.84,531.91 228.53,534.68 224.83,537.08 220.92,539.09 216.96,540.67 213.14,541.79 209.53,542.46 206.08,542.73 202.74,542.65 199.47,542.27 196.21,541.64 192.99,540.72 189.87,539.47 186.91,537.83 184.14,535.75 181.60,533.26 179.31,530.48 177.25,527.59 175.43,524.74 173.84,522.07 172.37,519.55 170.88,517.10 169.20,514.60 167.18,511.95 164.64,509.13 161.39,506.31 157.22,503.70 151.92,501.50 145.30,499.92 137.63,498.95 129.51,498.46 114.42,498.25 109.45,498.25" fill="none" stroke="#333333" stroke-width="2.6533333333333333" stroke-linecap="butt" stroke-linejoin="miter" />
    <text x="238.7416585590375" y="539.0766081183558" fill="#333333" stroke="none" font-family="Roboto Mono" font-weight="normal" font-size="11.94" text-anchor="middle" dominant-baseline="middle">1</text>
    <polyline points="189.05,398.75 184.08,398.75 182.60,398.75 181.00,398.75 179.26,398.75 177.41,398.75 175.45,398.75 173.38,398.75 171.23,398.75 168.99,398.75 166.69,398.75 164.31,398.75 161.89,398.75 159.41,398.75 156.90,398.75 154.37,398.75 151.81,398.75 149.25,398.75 146.69,398.75 144.13,398.75 141.60,398.75 139.09,398.75 136.61,398.75 134.19,398.75 131.81,398.75 129.51,398.75 127.27,398.75 125.12,398.75 123.05,398.75 121.09,398.75 119.24,398.75 117.50,398.75 114.42,398.75 109.45,398.75" fill="none" stroke="#9b59b6" stroke-width="2.6533333333333333" stroke-linecap="butt" stroke-linejoin="miter" />
    <text x="149.25" y="408.70000000000005" fill="#333333" stroke="none" font-family="Roboto Mono" font-weight="normal" font-size="11.94" text-anchor="middle" dominant-baseline="middle">3</text>
    <circle cx="149.25" cy="383.83" r="6.97" fill="#9b59b6" stroke="none" />
    <text x="149.25" y="383.82500000000005" fill="#fbfbfb" stroke="none" font-family="Roboto Mono" font-weight="normal" font-size="11.94" text-anchor="middle" dominant-baseline="middle">D</text>
    <polyline points="99.50,408.70 99.50,413.67 99.50,415.15 99.50,416.75 99.50,418.49 99.50,420.34 99.50,422.30 99.50,424.37 99.50,426.52 99.50,428.76 99.50,431.06 99.50,433.44 99.50,435.86 99.50,438.34 99.50,440.85 99.50,443.38 99.50,445.94 99.50,448.50 99.50,451.06 99.50,453.62 99.50,456.15 99.50,458.66 99.50,461.14 99.50,463.56 99.50,465.94 99.50,468.24 99.50,470.48 99.50,472.63 99.50,474.70 99.50,476.66 99.50,478.51 99.50,480.25 99.50,483.33 99.50,488.30" fill="none" stroke="#9b59b6" stroke-width="2.6533333333333333" stroke-linecap="butt" stroke-linejoin="miter" />
    <text x="89.55" y="448.5" fill="#333333" stroke="none" font-family="Roboto Mono" font-weight="normal" font-size="11.94" text-anchor="middle" dominant-baseline="middle">8</text>
    <circle cx="114.42" cy="448.50" r="6.97" fill="#9b59b6" stroke="none" />
    <text x="114.425" y="448.5" fill="#fbfbfb" stroke="none" font-family="Roboto Mono" font-weight="normal" font-size="11.94" text-anchor="middle" dominant-baseline="middle">D</text>
    <polyline points="298.50,189.80 298.50,184.82 298.47,181.22 298.37,177.84 298.22,174.69 298.01,171.73 297.75,168.97 297.45,166.37 297.10,163.93 296.72,161.62 296.30,159.44 295.85,157.37 295.37,155.40 294.84,153.50 294.29,151.68 293.69,149.91 293.05,148.19 292.38,146.50 291.66,144.83 290.90,143.17 290.10,141.54 289.27,139.92 288.39,138.33 287.47,136.76 286.52,135.21 285.53,133.68 284.50,132.18 283.43,130.71 282.33,129.26 281.19,127.84 280.02,126.44 278.81,125.08 277.58,123.75 276.30,122.45 275.00,121.17 273.67,119.94 272.31,118.73 270.91,117.56 269.49,116.42 268.04,115.32 266.57,114.25 265.07,113.22 263.54,112.23 261.99,111.28 260.42,110.36 258.83,109.48 257.21,108.65 255.58,107.85 253.92,107.09 252.25,106.37 250.56,105.70 248.84,105.06 247.07,104.46 245.25,103.91 243.35,103.38 241.38,102.90 239.31,102.45 237.13,102.03 234.82,101.65 232.38,101.30 229.78,101.00 227.02,100.74 224.06,100.53 220.91,100.38 213.92,100.25 208.95,100.25" fill="none" stroke="#333333" stroke-width="2.6533333333333333" stroke-linecap="butt" stroke-linejoin="miter" />
    <text x="269.26915796741156" y="129.48084203257372" fill="#333333" stroke="none" font-family="Roboto Mono" font-weight="normal" font-size="11.94" text-anchor="middle" dominant-baseline="middle">7</text>
    <polyline points="99.50,309.20 99.50,314.18 99.50,315.65 99.50,317.25 99.50,318.99 99.50,320.84 99.50,322.80 99.50,324.87 99.50,327.02 99.50,329.26 99.50,331.56 99.50,333.94 99.50,336.36 99.50,338.84 99.50,341.35 99.50,343.88 99.50,346.44 99.50,349.00 99.50,351.56 99.50,354.12 99.50,356.65 99.50,359.16 99.50,361.64 99.50,364.06 99.50,366.44 99.50,368.74 99.50,370.98 99.50,373.13 99.50,375.20 99.50,377.16 99.50,379.01 99.50,380.75 99.50,383.83 99.50,388.80" fill="none" stroke="#9b59b6" stroke-width="2.6533333333333333" stroke-linecap="butt" stroke-linejoin="miter" />
    <text x="89.55" y="349" fill="#333333" stroke="none" font-family="Roboto Mono" font-weight="normal" font-size="11.94" text-anchor="middle" dominant-baseline="middle">1</text>
    <circle cx="114.42" cy="349.00" r="6.97" fill="#9b59b6" stroke="none" />
    <text x="114.425" y="349" fill="#fbfbfb" stroke="none" font-family="Roboto Mono" font-weight="normal" font-size="11.94" text-anchor="middle" dominant-baseline="middle">D</text>
    <polyline points="189.05,100.25 184.08,100.25 177.83,100.28 172.14,100.36 166.96,100.50 162.27,100.68 158.03,100.92 154.21,101.19 150.78,101.50 147.70,101.86 144.94,102.24 142.46,102.66 140.25,103.10 138.25,103.57 136.45,104.06 134.80,104.57 133.27,105.10 131.84,105.64 130.47,106.19 129.15,106.75 127.89,107.32 126.68,107.90 125.52,108.49 124.40,109.10 123.33,109.72 122.30,110.36 121.31,111.00 120.36,111.67 119.43,112.35 118.54,113.04 117.68,113.76 116.85,114.49 116.04,115.24 115.25,116.00 114.49,116.79 113.74,117.60 113.01,118.43 112.29,119.29 111.60,120.18 110.92,121.11 110.25,122.06 109.61,123.05 108.97,124.08 108.35,125.15 107.74,126.27 107.15,127.43 106.57,128.64 106.00,129.90 105.44,131.22 104.89,132.59 104.35,134.02 103.82,135.58 103.31,137.29 102.82,139.23 102.35,141.45 101.91,144.00 101.49,146.93 101.11,150.31 100.75,154.18 100.44,158.60 100.17,163.63 99.93,169.32 99.75,175.72 99.61,182.89 99.50,199.75" fill="none" stroke="#333333" stroke-width="2.6533333333333333" stroke-linecap="butt" stroke-linejoin="miter" />
    <circle cx="99.50" cy="199.75" r="7.96" fill="#c0392b" stroke="none" />
    <polyline points="95.02,199.75 103.98,199.75" fill="none" stroke="#fbfbfb" stroke-width="2.4875000000000003" stroke-linecap="butt" stroke-linejoin="miter" />
    <polyline points="99.50,289.30 99.50,284.33 99.50,281.68 99.50,279.04 99.50,276.40 99.50,273.75 99.50,271.11 99.50,268.47 99.50,265.82 99.50,263.18 99.50,260.54 99.50,257.90 99.50,255.25 99.50,252.61 99.50,249.97 99.50,247.32 99.50,244.68 99.50,242.04 99.50,239.39 99.50,236.75 99.50,234.11 99.50,231.47 99.50,228.82 99.50,226.18 99.50,223.54 99.50,220.89 99.50,218.25 99.50,215.61 99.50,212.96 99.50,210.32 99.50,207.68 99.50,205.04 99.50,199.75" fill="none" stroke="#9b59b6" stroke-width="2.6533333333333333" stroke-linecap="butt" stroke-linejoin="miter" />
    <circle cx="99.50" cy="199.75" r="7.96" fill="#c0392b" stroke="none" />
    <polyline points="95.02,199.75 103.98,199.75" fill="none" stroke="#fbfbfb" stroke-width="2.4875000000000003" stroke-linecap="butt" stroke-linejoin="miter" />
    <circle cx="114.42" cy="242.04" r="6.97" fill="#9b59b6" stroke="none" />
    <text x="114.425" y="242.03750000000014" fill="#fbfbfb" stroke="none" font-family="Roboto Mono" font-weight="normal" font-size="11.94" text-anchor="middle" dominant-baseline="middle">D</text>
    <polyline points="199.00,110.20 199.00,115.17 199.00,121.33 199.00,127.22 199.00,132.89 199.00,138.37 199.00,143.69 199.00,148.89 199.00,154.00 199.00,159.05 198.95,164.03 198.83,168.92 198.59,173.71 198.19,178.37 197.59,182.87 196.74,187.20 195.61,191.34 194.19,195.25 192.51,198.89 190.57,202.22 188.38,205.20 185.97,207.78 183.34,209.92 180.51,211.59 177.52,212.78 174.43,213.53 171.29,213.86 168.15,213.80 165.08,213.38 162.12,212.62 159.33,211.56 156.76,210.21 154.43,208.58 152.36,206.69 150.59,204.56 149.14,202.20 148.04,199.62 147.32,196.83 146.99,193.88 147.06,190.83 147.52,187.76 148.37,184.72 149.62,181.80 151.25,179.06 153.29,176.56 155.69,174.34 158.42,172.36 161.41,170.58 164.61,168.96 167.96,167.45 171.41,166.02 174.90,164.61 178.38,163.19 181.77,161.68 185.01,159.99 188.03,158.06 190.75,155.81 193.11,153.16 195.05,150.04 196.51,146.34 197.56,141.86 198.26,136.38 198.69,129.70 198.91,121.59 199.00,100.25" fill="none" stroke="#333333" stroke-width="2.6533333333333333" stroke-linecap="butt" stroke-linejoin="miter" />
    <text x="145.16907630040515" y="213.57192338421146" fill="#333333" stroke="none" font-family="Roboto Mono" font-weight="normal" font-size="11.94" text-anchor="middle" dominant-baseline="middle">1</text>
    <polyline points="298.50,508.20 298.50,513.18 298.50,524.64 298.46,534.03 298.38,541.64 298.20,547.76 297.92,552.68 297.50,556.69 296.92,560.09 296.15,563.12 295.20,565.89 294.11,568.41 292.90,570.72 291.61,572.84 290.25,574.80 288.86,576.63 287.46,578.35 286.01,579.99 284.47,581.55 282.77,583.05 280.86,584.51 278.69,585.93 276.19,587.33 273.33,588.73 270.07,590.11 266.42,591.44 262.38,592.70 257.94,593.86 253.11,594.89 247.88,595.76 242.26,596.45 236.28,596.96 229.96,597.31 223.36,597.54 216.51,597.67 209.45,597.73 202.24,597.75 194.90,597.75 187.49,597.74 180.09,597.68 172.76,597.56 165.56,597.35 158.58,597.01 151.87,596.52 145.51,595.85 139.55,594.99 134.00,593.98 128.88,592.84 124.19,591.59 119.96,590.26 116.19,588.89 112.91,587.49 110.10,586.08 107.74,584.63 105.77,583.10 104.17,581.46 102.88,579.67 101.86,577.71 101.08,575.52 100.50,573.06 100.08,570.16 99.80,566.65 99.62,562.35 99.54,557.09 99.50,543.02" fill="none" stroke="#333333" stroke-width="2.6533333333333333" stroke-linecap="butt" stroke-linejoin="miter" />
    <polygon points="99.50,548.00 107.26,522.13 99.50,527.30 91.74,522.13" fill="#333333" stroke="none" />
    <text x="99.49995938815341" y="517.1550000000317" fill="#333333" stroke="none" font-family="Roboto Mono" font-weight="normal" font-size="11.94" text-anchor="middle" dominant-baseline="middle">N</text>
    <polyline points="305.47,287.31 305.47,279.65" fill="none" stroke="#333333" stroke-width="1.724666666666667" stroke-linecap="butt" stroke-linejoin="miter" />
    <polygon points="305.47,276.36 302.40,280.74 308.53,280.74" fill="#333333" stroke="none" />
    <polyline points="305.47,187.81 305.47,180.15" fill="none" stroke="#333333" stroke-width="1.724666666666667" stroke-linecap="butt" stroke-linejoin="miter" />
    <polygon points="305.47,176.86 302.40,181.24 308.53,181.24" fill="#333333" stroke="none" />
    <polyline points="106.46,287.31 106.46,279.65" fill="none" stroke="#333333" stroke-width="1.724666666666667" stroke-linecap="butt" stroke-linejoin="miter" />
    <polygon points="106.46,276.36 103.40,280.74 109.53,280.74" fill="#333333" stroke="none" />
    <polyline points="111.44,505.22 119.10,505.22" fill="none" stroke="#333333" stroke-width="1.724666666666667" stroke-linecap="butt" stroke-linejoin="miter" />
    <polygon points="122.38,505.22 118.01,502.15 118.01,508.28" fill="#333333" stroke="none" />
    <polygon points="288.55,309.20 308.45,309.20 308.45,289.30 288.55,289.30" fill="#2980b9" stroke="none" />
    <polygon points="288.55,508.20 308.45,508.20 308.45,488.30 288.55,488.30" fill="#2980b9" stroke="none" />
    <polygon points="189.05,309.20 208.95,309.20 208.95,289.30 189.05,289.30" fill="#c0392b" stroke="none" />
    <polygon points="89.55,309.20 109.45,309.20 109.45,289.30 89.55,289.30" fill="#2980b9" stroke="none" />
    <polygon points="288.55,209.70 308.45,209.70 308.45,189.80 288.55,189.80" fill="#c0392b" stroke="none" />
    <polygon points="189.05,110.20 208.95,110.20 208.95,90.30 189.05,90.30" fill="#c0392b" stroke="none" />
    <polygon points="189.05,408.70 208.95,408.70 208.95,388.80 189.05,388.80" fill="#2980b9" stroke="none" />
    <polygon points="89.55,508.20 109.45,508.20 109.45,488.30 89.55,488.30" fill="#2980b9" stroke="none" />
    <polygon points="89.55,408.70 109.45,408.70 109.45,388.80 89.55,388.80" fill="#c0392b" stroke="none" />
    <circle cx="99.50" cy="299.25" r="6.97" fill="#f1c40f" stroke="none" />
    <text x="99.5" y="299.25" fill="#333333" stroke="none" font-family="Roboto Mono" font-weight="normal" font-size="11.94" text-anchor="middle" dominant-baseline="middle">A</text>
    <text x="30" y="597.75" fill="#a3a3a3" stroke="none" font-family="Roboto Mono" font-weight="normal" font-size="16.00" text-anchor="middle" dominant-baseline="middle">9</text>
    <text x="30" y="498.2500000000001" fill="#a3a3a3" stroke="none" font-family="Roboto Mono" font-weight="normal" font-size="16.00" text-anchor="middle" dominant-baseline="middle">10</text>
    <text x="30" y="398.75" fill="#a3a3a3" stroke="none" font-family="Roboto Mono" font-weight="normal" font-size="16.00" text-anchor="middle" dominant-baseline="middle">11</text>
    <text x="30" y="299.25" fill="#a3a3a3" stroke="none" font-family="Roboto Mono" font-weight="normal" font-size="16.00" text-anchor="middle" dominant-baseline="middle">12</text>
    <text x="30" y="199.75" fill="#a3a3a3" stroke="none" font-family="Roboto Mono" font-weight="normal" font-size="16.00" text-anchor="middle" dominant-baseline="middle">13</text>
    <text x="30" y="100.25" fill="#a3a3a3" stroke="none" font-family="Roboto Mono" font-weight="normal" font-size="16.00" text-anchor="middle" dominant-baseline="middle">14</text>
    <text x="30" y="0.75" fill="#a3a3a3" stroke="none" font-family="Roboto Mono" font-weight="normal" font-size="16.00" text-anchor="middle" dominant-baseline="middle">15</text>
    <text x="0" y="668" fill="#a3a3a3" stroke="none" font-family="Roboto Mono" font-weight="normal" font-size="16.00" text-anchor="middle" dominant-baseline="middle">-2</text>
    <text x="99.5" y="668" fill="#a3a3a3" stroke="none" font-family="Roboto Mono" font-weight="normal" font-size="16.00" text-anchor="middle" dominant-baseline="middle">-1</text>
    <text x="199" y="668" fill="#a3a3a3" stroke="none" font-family="Roboto Mono" font-weight="normal" font-size="16.00" text-anchor="middle" dominant-baseline="middle">0</text>
    <text x="298.5" y="668" fill="#a3a3a3" stroke="none" font-family="Roboto Mono" font-weight="normal" font-size="16.00" text-anchor="middle" dominant-baseline="middle">1</text>
    <text x="398" y="668" fill="#a3a3a3" stroke="none" font-family="Roboto Mono" font-weight="normal" font-size="16.00" text-anchor="middle" dominant-baseline="middle">2</text>
    <circle cx="354.00" cy="44.00" r="24.00" fill="rgba(51, 51, 51, 0.25)" stroke="none" />
    <polygon points="354.00,24.00 362.00,44.00 346.00,44.00" fill="#c0392b" stroke="none" />
    <polygon points="354.00,64.00 362.00,44.00 346.00,44.00" fill="rgba(51, 51, 51, 0.8)" stroke="none" />
    <polygon points="351.85,43.00 350.65,43.00 350.65,35.00 351.85,35.00 356.15,41.00 356.15,35.00 357.35,35.00 357.35,43.00 356.15,43.00 351.85,37.00" fill="#ffffff" stroke="none" />
</svg>
