<?xml version="1.0" encoding="UTF-8"?>
<svg version="1.1" xmlns="http://www.w3.org/2000/svg" viewBox="0 0 423.00 598.00">
<style type="text/css">
@font-face {
  font-family: 'Roboto Mono';
  font-style: normal;
  font-weight: 400;
  font-display: swap;
  src: local('Roboto Mono'), local('RobotoMono-Regular'), url(https://fonts.gstatic.com/s/robotomono/v7/L0x5DF4xlVMF-BfR8bXMIjhLq38.woff2) format('woff2');
  unicode-range: U+0000-00FF, U+0131, U+0152-0153, U+02BB-02BC, U+02C6, U+02DA, U+02DC, U+2000-206F, U+2074, U+20AC, U+2122, U+2191, U+2193, U+2212, U+2215, U+FEFF, U+FFFD;
}
@font-face {
  font-family: 'Roboto Mono';
  font-style: normal;
  font-weight: 700;
  font-display: swap;
  src: local('Roboto Mono Bold'), local('RobotoMono-Bold'), url(https://fonts.gstatic.com/s/robotomono/v7/L0xkDF4xlVMF-BfR8bXMIjDwjmqxf78.woff2) format('woff2');
  unicode-range: U+0000-00FF, U+0131, U+0152-0153, U+02BB-02BC, U+02C6, U+02DA, U+02DC, U+2000-206F, U+2074, U+20AC, U+2122, U+2191, U+2193, U+2212, U+2215, U+FEFF, U+FFFD;
}
</style>
    <rect x="0" y="0" width="423.00000000000006" height="598" fill="#eeeeee" stroke="none" />
    <polygon points="0.00,597.59 423.00,597.59 423.00,0.41 0.00,0.41" fill="#fbfbfb" stroke="none" />
    <polyline points="0.00,597.59 423.00,597.59" fill="none" stroke="#d2d2d2" stroke-width="1" stroke-linecap="butt" stroke-linejoin="miter" />
    <polyline points="0.00,498.06 423.00,498.06" fill="none" stroke="#d2d2d2" stroke-width="1" stroke-linecap="butt" stroke-linejoin="miter" />
    <polyline points="0.00,398.53 423.00,398.53" fill="none" stroke="#d2d2d2" stroke-width="1" stroke-linecap="butt" stroke-linejoin="miter" />
    <polyline points="0.00,299.00 423.00,299.00" fill="none" stroke="#d2d2d2" stroke-width="1" stroke-linecap="butt" stroke-linejoin="miter" />
    <polyline points="0.00,199.47 423.00,199.47" fill="none" stroke="#d2d2d2" stroke-width="1" stroke-linecap="butt" stroke-linejoin="miter" />
    <polyline points="0.00,99.94 423.00,99.94" fill="none" stroke="#d2d2d2" stroke-width="1" stroke-linecap="butt" stroke-linejoin="miter" />
    <polyline points="0.00,0.41 423.00,0.41" fill="none" stroke="#d2d2d2" stroke-width="1" stroke-linecap="butt" stroke-linejoin="miter" />
    <polyline points="24.88,598.00 24.88,0.00" fill="none" stroke="#d2d2d2" stroke-width="1" stroke-linecap="butt" stroke-linejoin="miter" />
    <polyline points="124.41,598.00 124.41,0.00" fill="none" stroke="#d2d2d2" stroke-width="1" stroke-linecap="butt" stroke-linejoin="miter" />
    <polyline points="223.94,598.00 223.94,0.00" fill="none" stroke="#d2d2d2" stroke-width="1" stroke-linecap="butt" stroke-linejoin="miter" />
    <polyline points="323.47,598.00 323.47,0.00" fill="none" stroke="#d2d2d2" stroke-width="1" stroke-linecap="butt" stroke-linejoin="miter" />
    <polyline points="423.00,598.00 423.00,0.00" fill="none" stroke="#d2d2d2" stroke-width="1" stroke-linecap="butt" stroke-linejoin="miter" />
    <path d="M 142.33,490.10 A 9.95 9.95 0 0 0 132.37,480.14" fill="none" stroke="#f1c40f" stroke-width="2.654117647058824" stroke-linecap="butt" stroke-linejoin="miter" />
    <path d="M 149.79,490.10 A 17.42 17.42 0 0 0 132.37,472.68" fill="none" stroke="#f1c40f" stroke-width="2.654117647058824" stroke-linecap="butt" stroke-linejoin="miter" />
    <path d="M 157.26,490.10 A 24.88 24.88 0 0 0 132.37,465.21" fill="none" stroke="#f1c40f" stroke-width="2.654117647058824" stroke-linecap="butt" stroke-linejoin="miter" />
    <circle cx="157.01" cy="465.46" r="6.97" fill="#f1c40f" stroke="none" />
    <text x="157.00639034227498" y="465.4641978930193" fill="#333333" stroke="none" font-family="Roboto Mono" font-weight="normal" font-size="11.94" text-anchor="middle" dominant-baseline="middle">A</text>
    <path d="M 341.39,91.98 A 9.95 9.95 0 0 0 331.43,82.03" fill="none" stroke="#2ecc71" stroke-width="2.654117647058824" stroke-linecap="butt" stroke-linejoin="miter" />
    <path d="M 348.85,91.98 A 17.42 17.42 0 0 0 331.43,74.56" fill="none" stroke="#2ecc71" stroke-width="2.654117647058824" stroke-linecap="butt" stroke-linejoin="miter" />
    <path d="M 356.32,91.98 A 24.88 24.88 0 0 0 331.43,67.10" fill="none" stroke="#2ecc71" stroke-width="2.654117647058824" stroke-linecap="butt" stroke-linejoin="miter" />
    <circle cx="356.07" cy="67.35" r="6.97" fill="#2ecc71" stroke="none" />
    <text x="356.06521387168686" y="67.34655083419568" fill="#fbfbfb" stroke="none" font-family="Roboto Mono" font-weight="normal" font-size="11.94" text-anchor="middle" dominant-baseline="middle">B</text>
    <path d="M 241.86,291.04 A 9.95 9.95 0 0 0 231.90,281.08" fill="none" stroke="#e74c3c" stroke-width="2.654117647058824" stroke-linecap="butt" stroke-linejoin="miter" />
    <path d="M 249.32,291.04 A 17.42 17.42 0 0 0 231.90,273.62" fill="none" stroke="#e74c3c" stroke-width="2.654117647058824" stroke-linecap="butt" stroke-linejoin="miter" />
    <path d="M 256.79,291.04 A 24.88 24.88 0 0 0 231.90,266.16" fill="none" stroke="#e74c3c" stroke-width="2.654117647058824" stroke-linecap="butt" stroke-linejoin="miter" />
    <circle cx="256.54" cy="266.41" r="6.97" fill="#e74c3c" stroke="none" />
    <text x="256.5358021069809" y="266.4053743636075" fill="#fbfbfb" stroke="none" font-family="Roboto Mono" font-weight="normal" font-size="11.94" text-anchor="middle" dominant-baseline="middle">C</text>
    <polyline points="223.94,488.11 223.94,483.13 223.94,481.66 223.94,480.05 223.94,478.32 223.94,476.46 223.94,474.50 223.94,472.44 223.94,470.28 223.94,468.04 223.94,465.74 223.94,463.36 223.94,460.93 223.94,458.46 223.94,455.95 223.94,453.41 223.94,450.86 223.94,448.29 223.94,445.73 223.94,443.17 223.94,440.64 223.94,438.13 223.94,435.65 223.94,433.23 223.94,430.85 223.94,428.54 223.94,426.31 223.94,424.15 223.94,422.09 223.94,420.13 223.94,418.27 223.94,416.54 223.94,413.46 223.94,408.48" fill="none" stroke="#333333" stroke-width="2.654117647058824" stroke-linecap="butt" stroke-linejoin="miter" />
    <text x="213.98823529411777" y="448.2941176470589" fill="#333333" stroke="none" font-family="Roboto Mono" font-weight="normal" font-size="11.94" text-anchor="middle" dominant-baseline="middle">2</text>
    <polyline points="213.99,398.53 209.01,398.53 205.40,398.56 202.03,398.66 198.87,398.81 195.92,399.02 193.15,399.28 190.55,399.58 188.11,399.93 185.80,400.31 183.62,400.73 181.55,401.18 179.57,401.67 177.68,402.19 175.86,402.74 174.09,403.34 172.37,403.98 170.68,404.65 169.00,405.37 167.35,406.13 165.71,406.93 164.10,407.77 162.50,408.64 160.93,409.56 159.38,410.51 157.85,411.51 156.35,412.54 154.88,413.60 153.43,414.71 152.01,415.84 150.61,417.02 149.25,418.22 147.92,419.46 146.61,420.73 145.34,422.03 144.10,423.37 142.90,424.73 141.73,426.12 140.59,427.55 139.49,428.99 138.42,430.47 137.39,431.97 136.40,433.50 135.44,435.05 134.53,436.62 133.65,438.21 132.81,439.83 132.01,441.47 131.25,443.12 130.54,444.79 129.86,446.49 129.22,448.21 128.63,449.98 128.07,451.80 127.55,453.69 127.06,455.67 126.61,457.74 126.20,459.92 125.81,462.22 125.47,464.67 125.16,467.27 124.90,470.03 124.69,472.99 124.54,476.14 124.41,483.13 124.41,488.11" fill="none" stroke="#333333" stroke-width="2.654117647058824" stroke-linecap="butt" stroke-linejoin="miter" />
    <text x="153.65124724748785" y="427.7688943063134" fill="#333333" stroke="none" font-family="Roboto Mono" font-weight="normal" font-size="11.94" text-anchor="middle" dominant-baseline="middle">4</text>
    <polyline points="233.89,398.53 238.87,398.53 242.48,398.56 245.86,398.66 249.01,398.81 251.97,399.02 254.73,399.28 257.33,399.58 259.78,399.93 262.08,400.31 264.26,400.73 266.33,401.18 268.31,401.67 270.20,402.19 272.02,402.74 273.79,403.34 275.51,403.98 277.21,404.65 278.88,405.37 280.53,406.13 282.17,406.93 283.79,407.77 285.38,408.64 286.95,409.56 288.50,410.51 290.03,411.51 291.53,412.54 293.01,413.60 294.45,414.71 295.88,415.84 297.27,417.02 298.63,418.22 299.97,419.46 301.27,420.73 302.54,422.03 303.78,423.37 304.98,424.73 306.16,426.12 307.29,427.55 308.40,428.99 309.46,430.47 310.49,431.97 311.49,433.50 312.44,435.05 313.36,436.62 314.23,438.21 315.07,439.83 315.87,441.47 316.63,443.12 317.35,444.79 318.02,446.49 318.66,448.21 319.26,449.98 319.81,451.80 320.33,453.69 320.82,455.67 321.27,457.74 321.69,459.92 322.07,462.22 322.42,464.67 322.72,467.27 322.98,470.03 323.19,472.99 323.34,476.14 323.47,483.13 323.47,488.11" fill="none" stroke="#f1c40f" stroke-width="2.654117647058824" stroke-linecap="butt" stroke-linejoin="miter" />
    <circle cx="301.27" cy="420.73" r="7.96" fill="rgba(251, 251, 251, 0.8)" stroke="none" />
    <circle cx="301.27" cy="420.73" r="6.97" fill="none" stroke="rgba(231, 76, 60, 0.8)" stroke-width="1.990588235294118" stroke-linecap="butt" stroke-linejoin="miter" />
    <polyline points="296.79,420.73 305.75,420.73" fill="none" stroke="rgba(231, 76, 60, 0.8)" stroke-width="2.4882352941176475" stroke-linecap="butt" stroke-linejoin="miter" />
    <text x="294.2311056936866" y="427.7688943063114" fill="#333333" stroke="none" font-family="Roboto Mono" font-weight="normal" font-size="11.94" text-anchor="middle" dominant-baseline="middle">4</text>
    <circle cx="305.67" cy="404.02" r="6.97" fill="#f1c40f" stroke="none" />
    <text x="305.667518016469" y="404.01634563592614" fill="#333333" stroke="none" font-family="Roboto Mono" font-weight="normal" font-size="11.94" text-anchor="middle" dominant-baseline="middle">A</text>
    <circle cx="317.98" cy="416.33" r="6.97" fill="#f3b5af" stroke="none" />
    <circle cx="317.98" cy="416.33" r="7.96" fill="none" stroke="#e74c3c" stroke-width="2.4882352941176475" stroke-linecap="butt" stroke-linejoin="miter" />
    <text x="317.98365436407516" y="416.332481983536" fill="#333333" stroke="none" font-family="Roboto Mono" font-weight="normal" font-size="11.94" text-anchor="middle" dominant-baseline="middle">C</text>
    <polyline points="315.00,421.31 320.97,421.31" fill="none" stroke="#333333" stroke-width="0.7962352941176472" stroke-linecap="butt" stroke-linejoin="miter" />
    <polyline points="223.94,388.58 223.94,383.60 223.94,382.13 223.94,380.52 223.94,378.79 223.94,376.93 223.94,374.97 223.94,372.91 223.94,370.75 223.94,368.52 223.94,366.21 223.94,363.83 223.94,361.40 223.94,358.93 223.94,356.42 223.94,353.88 223.94,351.33 223.94,348.76 223.94,346.20 223.94,343.64 223.94,341.11 223.94,338.60 223.94,336.12 223.94,333.70 223.94,331.32 223.94,329.01 223.94,326.78 223.94,324.62 223.94,322.56 223.94,320.60 223.94,318.74 223.94,317.01 223.94,313.93 223.94,308.95" fill="none" stroke="#333333" stroke-width="2.654117647058824" stroke-linecap="butt" stroke-linejoin="miter" />
    <text x="213.98823529411777" y="348.764705882353" fill="#333333" stroke="none" font-family="Roboto Mono" font-weight="normal" font-size="11.94" text-anchor="middle" dominant-baseline="middle">2</text>
    <polyline points="213.99,299.00 209.01,299.00 205.02,299.24 201.19,299.92 197.52,301.01 194.00,302.46 190.61,304.22 187.35,306.24 184.21,308.50 181.17,310.93 178.22,313.50 175.36,316.16 172.56,318.87 169.84,321.59 167.16,324.26 164.52,326.85 161.92,329.30 159.33,331.58 156.76,333.65 154.18,335.45 151.59,336.95 148.99,338.13 146.39,339.02 143.79,339.61 141.20,339.94 138.63,339.99 136.07,339.80 133.55,339.36 131.06,338.70 128.62,337.82 126.22,336.73 123.88,335.45 121.60,333.98 119.38,332.35 117.24,330.56 115.19,328.62 113.22,326.55 111.34,324.36 109.56,322.05 107.89,319.65 106.33,317.15 104.89,314.56 103.56,311.90 102.35,309.18 101.27,306.39 100.32,303.55 99.51,300.67 98.83,297.75 98.30,294.80 97.91,291.84 97.67,288.86 97.59,285.88 97.67,282.91 97.91,279.94 98.32,277.00 98.89,274.09 99.65,271.22 100.58,268.40 101.67,265.63 102.92,262.92 104.32,260.30 105.85,257.76 107.51,255.33 109.27,253.00 111.15,250.79 113.11,248.72 115.16,246.78 117.27,245.00 119.45,243.38 121.68,241.93 123.95,240.67 126.25,239.60 128.56,238.74 130.88,238.09 133.20,237.66 135.51,237.48 137.81,237.51 140.08,237.75 142.35,238.17 144.60,238.77 146.83,239.51 149.05,240.39 151.25,241.39 153.44,242.48 155.61,243.65 157.77,244.88 159.92,246.16 162.05,247.46 164.16,248.77 166.26,250.07 168.35,251.35 170.42,252.57 172.47,253.74 174.51,254.82 176.54,255.81 178.54,256.71 180.53,257.51 182.50,258.22 184.45,258.83 186.38,259.34 188.29,259.75 190.17,260.05 192.02,260.24 193.85,260.33 195.65,260.30 197.43,260.17 199.17,259.91 200.88,259.54 202.56,259.06 204.20,258.45 205.81,257.71 207.38,256.86 208.92,255.87 210.41,254.75 211.85,253.49 213.23,252.09 214.56,250.54 215.82,248.84 217.01,246.97 218.13,244.94 219.16,242.74 220.11,240.37 220.96,237.81 221.72,235.07 222.38,232.13 222.93,229.00 223.36,225.67 223.68,222.13 223.94,214.40 223.94,209.42" fill="none" stroke="#333333" stroke-width="2.654117647058824" stroke-linecap="butt" stroke-linejoin="miter" />
    <text x="120.14882161039765" y="255.75470396333938" fill="#333333" stroke="none" font-family="Roboto Mono" font-weight="normal" font-size="11.94" text-anchor="middle" dominant-baseline="middle">7</text>
    <polyline points="323.47,109.89 323.47,114.87 323.47,116.34 323.47,117.95 323.47,119.68 323.47,121.54 323.47,123.50 323.47,125.56 323.47,127.72 323.47,129.96 323.47,132.26 323.47,134.64 323.47,137.07 323.47,139.54 323.47,142.05 323.47,144.59 323.47,147.14 323.47,149.71 323.47,152.27 323.47,154.83 323.47,157.36 323.47,159.87 323.47,162.35 323.47,164.77 323.47,167.15 323.47,169.46 323.47,171.69 323.47,173.85 323.47,175.91 323.47,177.87 323.47,179.73 323.47,181.46 323.47,184.54 323.47,189.52" fill="none" stroke="#333333" stroke-width="2.654117647058824" stroke-linecap="butt" stroke-linejoin="miter" />
    <text x="313.5176470588236" y="149.70588235294116" fill="#333333" stroke="none" font-family="Roboto Mono" font-weight="normal" font-size="11.94" text-anchor="middle" dominant-baseline="middle">2</text>
    <polyline points="323.47,209.42 323.47,214.40 323.44,218.01 323.34,221.39 323.19,224.54 322.98,227.50 322.72,230.26 322.42,232.86 322.07,235.30 321.69,237.61 321.27,239.79 320.82,241.86 320.33,243.84 319.81,245.73 319.26,247.55 318.66,249.32 318.02,251.04 317.35,252.74 316.63,254.41 315.87,256.06 315.07,257.70 314.23,259.32 313.36,260.91 312.44,262.48 311.49,264.03 310.49,265.56 309.46,267.06 308.40,268.54 307.29,269.98 306.16,271.41 304.98,272.80 303.78,274.16 302.54,275.50 301.27,276.80 299.97,278.07 298.63,279.31 297.27,280.51 295.88,281.69 294.45,282.82 293.01,283.93 291.53,284.99 290.03,286.02 288.50,287.01 286.95,287.97 285.38,288.89 283.79,289.76 282.17,290.60 280.53,291.40 278.88,292.16 277.21,292.88 275.51,293.55 273.79,294.19 272.02,294.78 270.20,295.34 268.31,295.86 266.33,296.35 264.26,296.80 262.08,297.22 259.78,297.60 257.33,297.94 254.73,298.25 251.97,298.51 249.01,298.72 245.86,298.87 238.87,299.00 233.89,299.00" fill="none" stroke="#f1c40f" stroke-width="2.654117647058824" stroke-linecap="butt" stroke-linejoin="miter" />
    <text x="294.2311056936866" y="269.7605174583945" fill="#333333" stroke="none" font-family="Roboto Mono" font-weight="normal" font-size="11.94" text-anchor="middle" dominant-baseline="middle">4</text>
    <circle cx="311.83" cy="287.35" r="6.97" fill="#f1c40f" stroke="none" />
    <text x="311.82558619027213" y="287.3549979549748" fill="#333333" stroke="none" font-family="Roboto Mono" font-weight="normal" font-size="11.94" text-anchor="middle" dominant-baseline="middle">A</text>
    <polyline points="233.89,199.47 238.87,199.47 240.34,199.47 241.95,199.47 243.68,199.47 245.54,199.47 247.50,199.47 249.56,199.47 251.72,199.47 253.96,199.47 256.26,199.47 258.64,199.47 261.07,199.47 263.54,199.47 266.05,199.47 268.59,199.47 271.14,199.47 273.71,199.47 276.27,199.47 278.83,199.47 281.36,199.47 283.87,199.47 286.35,199.47 288.77,199.47 291.15,199.47 293.46,199.47 295.69,199.47 297.85,199.47 299.91,199.47 301.87,199.47 303.73,199.47 305.46,199.47 308.54,199.47 313.52,199.47" fill="none" stroke="#333333" stroke-width="2.654117647058824" stroke-linecap="butt" stroke-linejoin="miter" />
    <text x="273.7058823529412" y="209.42352941176472" fill="#333333" stroke="none" font-family="Roboto Mono" font-weight="normal" font-size="11.94" text-anchor="middle" dominant-baseline="middle">2</text>
    <polyline points="313.52,99.94 308.54,99.94 305.66,99.94 302.79,99.94 299.91,99.94 297.03,99.94 294.16,99.94 291.28,99.94 288.40,99.94 285.52,99.94 282.65,99.94 279.77,99.94 276.89,99.94 274.02,99.94 271.14,99.94 268.26,99.94 265.39,99.94 262.51,99.94 259.63,99.94 256.75,99.94 253.88,99.94 251.00,99.94 248.12,99.94 245.25,99.94 242.37,99.94 239.49,99.94 236.62,99.94 233.74,99.94 230.86,99.94 227.98,99.94 225.11,99.94 222.23,99.94 219.35,99.94 216.48,99.94 213.60,99.94 210.72,99.94 207.85,99.94 204.97,99.94 202.09,99.94 199.21,99.94 196.34,99.94 193.46,99.94 190.58,99.94 187.71,99.94 184.83,99.94 181.95,99.94 179.08,99.94 176.20,99.94 173.32,99.94 170.44,99.94 167.57,99.94 164.69,99.94 161.81,99.94 158.94,99.94 156.06,99.94 153.18,99.94 150.30,99.94 147.43,99.94 144.55,99.94 141.67,99.94 138.80,99.94 135.92,99.94 133.04,99.94 130.17,99.94 124.41,99.94" fill="none" stroke="#333333" stroke-width="2.654117647058824" stroke-linecap="butt" stroke-linejoin="miter" />
    <circle cx="124.41" cy="99.94" r="7.96" fill="#c0392b" stroke="none" />
    <polyline points="119.93,99.94 128.89,99.94" fill="none" stroke="#fbfbfb" stroke-width="2.4882352941176475" stroke-linecap="butt" stroke-linejoin="miter" />
    <polyline points="213.99,199.47 209.01,199.47 207.55,199.47 205.96,199.47 204.26,199.45 202.46,199.43 200.55,199.40 198.57,199.34 196.50,199.27 194.36,199.16 192.16,199.03 189.91,198.87 187.61,198.67 185.28,198.44 182.92,198.16 180.54,197.83 178.16,197.45 175.77,197.02 173.39,196.53 171.03,195.98 168.70,195.37 166.39,194.69 164.14,193.93 161.93,193.10 159.78,192.20 157.68,191.22 155.64,190.16 153.67,189.04 151.75,187.84 149.89,186.57 148.09,185.23 146.35,183.83 144.68,182.35 143.07,180.81 141.53,179.20 140.06,177.53 138.65,175.79 137.31,174.00 136.04,172.14 134.84,170.22 133.72,168.24 132.66,166.20 131.68,164.10 130.78,161.95 129.95,159.75 129.20,157.48 128.51,155.17 127.90,152.79 127.35,150.36 126.86,147.88 126.43,145.33 126.05,142.73 125.73,140.07 125.45,137.35 125.21,134.58 125.01,131.74 124.85,128.84 124.72,125.88 124.62,122.86 124.54,119.77 124.49,116.63 124.45,113.42 124.43,110.15 124.42,106.81 124.41,99.94" fill="none" stroke="#2ecc71" stroke-width="2.654117647058824" stroke-linecap="butt" stroke-linejoin="miter" />
    <circle cx="124.41" cy="99.94" r="7.96" fill="#c0392b" stroke="none" />
    <polyline points="119.93,99.94 128.89,99.94" fill="none" stroke="#fbfbfb" stroke-width="2.4882352941176475" stroke-linecap="butt" stroke-linejoin="miter" />
    <circle cx="153.63" cy="170.25" r="6.97" fill="#2ecc71" stroke="none" />
    <text x="153.6302177097145" y="170.2521352314621" fill="#fbfbfb" stroke="none" font-family="Roboto Mono" font-weight="normal" font-size="11.94" text-anchor="middle" dominant-baseline="middle">B</text>
    <polyline points="223.94,508.01 223.94,512.99 223.94,513.92 223.94,514.85 223.94,515.79 223.94,516.72 223.94,517.65 223.94,518.59 223.94,519.52 223.94,520.45 223.94,521.39 223.94,522.32 223.94,523.25 223.94,524.19 223.94,525.12 223.94,526.05 223.94,527.92" fill="none" stroke="#333333" stroke-width="2.654117647058824" stroke-linecap="butt" stroke-linejoin="miter" />
    <polygon points="223.94,522.94 216.18,548.82 223.94,543.64 231.70,548.82" fill="#333333" stroke="none" />
    <text x="223.9411764705883" y="553.7952941176471" fill="#333333" stroke="none" font-family="Roboto Mono" font-weight="normal" font-size="11.94" text-anchor="middle" dominant-baseline="middle">N</text>
    <polyline points="212.00,391.56 204.33,391.56" fill="none" stroke="#333333" stroke-width="1.7251764705882358" stroke-linecap="butt" stroke-linejoin="miter" />
    <polygon points="201.05,391.56 205.43,394.63 205.43,388.50" fill="#333333" stroke="none" />
    <polyline points="235.88,206.44 243.55,206.44" fill="none" stroke="#333333" stroke-width="1.7251764705882358" stroke-linecap="butt" stroke-linejoin="miter" />
    <polygon points="246.83,206.44 242.45,203.37 242.45,209.50" fill="#333333" stroke="none" />
    <polygon points="213.99,508.01 233.89,508.01 233.89,488.11 213.99,488.11" fill="#c0392b" stroke="none" />
    <polygon points="213.99,408.48 233.89,408.48 233.89,388.58 213.99,388.58" fill="#2980b9" stroke="none" />
    <polygon points="114.46,508.01 134.36,508.01 134.36,488.11 114.46,488.11" fill="#2980b9" stroke="none" />
    <polygon points="313.52,508.01 333.42,508.01 333.42,488.11 313.52,488.11" fill="#2980b9" stroke="none" />
    <polygon points="213.99,308.95 233.89,308.95 233.89,289.05 213.99,289.05" fill="#c0392b" stroke="none" />
    <polygon points="213.99,209.42 233.89,209.42 233.89,189.52 213.99,189.52" fill="#2980b9" stroke="none" />
    <polygon points="313.52,109.89 333.42,109.89 333.42,89.99 313.52,89.99" fill="#2980b9" stroke="none" />
    <polygon points="313.52,209.42 333.42,209.42 333.42,189.52 313.52,189.52" fill="#c0392b" stroke="none" />
    <text x="221.09747899159674" y="123.82823529411758" fill="#333333" stroke="none" font-family="Roboto Mono" font-weight="normal" font-size="11.94" text-anchor="middle" dominant-baseline="middle">e</text>
    <text x="229.6285714285715" y="123.82823529411758" fill="#333333" stroke="none" font-family="Roboto Mono" font-weight="normal" font-size="11.94" text-anchor="middle" dominant-baseline="middle">x</text>
    <text x="238.15966386554624" y="123.82823529411758" fill="#333333" stroke="none" font-family="Roboto Mono" font-weight="normal" font-size="11.94" text-anchor="middle" dominant-baseline="middle">p</text>
    <text x="246.69075630252098" y="123.82823529411758" fill="#333333" stroke="none" font-family="Roboto Mono" font-weight="normal" font-size="11.94" text-anchor="middle" dominant-baseline="middle">l</text>
    <text x="255.22184873949573" y="123.82823529411758" fill="#333333" stroke="none" font-family="Roboto Mono" font-weight="normal" font-size="11.94" text-anchor="middle" dominant-baseline="middle">o</text>
    <text x="263.7529411764705" y="123.82823529411758" fill="#333333" stroke="none" font-family="Roboto Mono" font-weight="normal" font-size="11.94" text-anchor="middle" dominant-baseline="middle">r</text>
    <text x="272.2840336134452" y="123.82823529411758" fill="#333333" stroke="none" font-family="Roboto Mono" font-weight="normal" font-size="11.94" text-anchor="middle" dominant-baseline="middle">a</text>
    <text x="280.81512605041996" y="123.82823529411758" fill="#333333" stroke="none" font-family="Roboto Mono" font-weight="normal" font-size="11.94" text-anchor="middle" dominant-baseline="middle">t</text>
    <text x="289.3462184873947" y="123.82823529411758" fill="#333333" stroke="none" font-family="Roboto Mono" font-weight="normal" font-size="11.94" text-anchor="middle" dominant-baseline="middle">i</text>
    <text x="297.87731092436957" y="123.82823529411758" fill="#333333" stroke="none" font-family="Roboto Mono" font-weight="normal" font-size="11.94" text-anchor="middle" dominant-baseline="middle">o</text>
    <text x="306.4084033613443" y="123.82823529411758" fill="#333333" stroke="none" font-family="Roboto Mono" font-weight="normal" font-size="11.94" text-anchor="middle" dominant-baseline="middle">n</text>
    <text x="229.6285714285715" y="135.77176470588233" fill="#333333" stroke="none" font-family="Roboto Mono" font-weight="normal" font-size="11.94" text-anchor="middle" dominant-baseline="middle">c</text>
    <text x="238.15966386554624" y="135.77176470588233" fill="#333333" stroke="none" font-family="Roboto Mono" font-weight="normal" font-size="11.94" text-anchor="middle" dominant-baseline="middle">o</text>
    <text x="246.69075630252098" y="135.77176470588233" fill="#333333" stroke="none" font-family="Roboto Mono" font-weight="normal" font-size="11.94" text-anchor="middle" dominant-baseline="middle">m</text>
    <text x="255.22184873949573" y="135.77176470588233" fill="#333333" stroke="none" font-family="Roboto Mono" font-weight="normal" font-size="11.94" text-anchor="middle" dominant-baseline="middle">p</text>
    <text x="263.7529411764705" y="135.77176470588233" fill="#333333" stroke="none" font-family="Roboto Mono" font-weight="normal" font-size="11.94" text-anchor="middle" dominant-baseline="middle">l</text>
    <text x="272.2840336134452" y="135.77176470588233" fill="#333333" stroke="none" font-family="Roboto Mono" font-weight="normal" font-size="11.94" text-anchor="middle" dominant-baseline="middle">e</text>
    <text x="280.81512605041996" y="135.77176470588233" fill="#333333" stroke="none" font-family="Roboto Mono" font-weight="normal" font-size="11.94" text-anchor="middle" dominant-baseline="middle">t</text>
    <text x="289.3462184873947" y="135.77176470588233" fill="#333333" stroke="none" font-family="Roboto Mono" font-weight="normal" font-size="11.94" text-anchor="middle" dominant-baseline="middle">e</text>
    <text x="297.87731092436957" y="135.77176470588233" fill="#333333" stroke="none" font-family="Roboto Mono" font-weight="normal" font-size="11.94" text-anchor="middle" dominant-baseline="middle">d</text>
    <text x="30" y="498.0588235294118" fill="#a3a3a3" stroke="none" font-family="Roboto Mono" font-weight="normal" font-size="16.00" text-anchor="middle" dominant-baseline="middle">0</text>
    <text x="30" y="398.5294117647059" fill="#a3a3a3" stroke="none" font-family="Roboto Mono" font-weight="normal" font-size="16.00" text-anchor="middle" dominant-baseline="middle">1</text>
    <text x="30" y="299" fill="#a3a3a3" stroke="none" font-family="Roboto Mono" font-weight="normal" font-size="16.00" text-anchor="middle" dominant-baseline="middle">2</text>
    <text x="30" y="199.47058823529414" fill="#a3a3a3" stroke="none" font-family="Roboto Mono" font-weight="normal" font-size="16.00" text-anchor="middle" dominant-baseline="middle">3</text>
    <text x="30" y="99.94117647058823" fill="#a3a3a3" stroke="none" font-family="Roboto Mono" font-weight="normal" font-size="16.00" text-anchor="middle" dominant-baseline="middle">4</text>
    <text x="30" y="0.4117647058823195" fill="#a3a3a3" stroke="none" font-family="Roboto Mono" font-weight="normal" font-size="16.00" text-anchor="middle" dominant-baseline="middle">5</text>
    <text x="24.882352941176464" y="568" fill="#a3a3a3" stroke="none" font-family="Roboto Mono" font-weight="normal" font-size="16.00" text-anchor="middle" dominant-baseline="middle">3</text>
    <text x="124.41176470588238" y="568" fill="#a3a3a3" stroke="none" font-family="Roboto Mono" font-weight="normal" font-size="16.00" text-anchor="middle" dominant-baseline="middle">4</text>
    <text x="223.9411764705883" y="568" fill="#a3a3a3" stroke="none" font-family="Roboto Mono" font-weight="normal" font-size="16.00" text-anchor="middle" dominant-baseline="middle">5</text>
    <text x="323.47058823529414" y="568" fill="#a3a3a3" stroke="none" font-family="Roboto Mono" font-weight="normal" font-size="16.00" text-anchor="middle" dominant-baseline="middle">6</text>
    <text x="423.0000000000001" y="568" fill="#a3a3a3" stroke="none" font-family="Roboto Mono" font-weight="normal" font-size="16.00" text-anchor="middle" dominant-baseline="middle">7</text>
    <circle cx="379.00" cy="44.00" r="24.00" fill="rgba(51, 51, 51, 0.25)" stroke="none" />
    <polygon points="379.00,24.00 387.00,44.00 371.00,44.00" fill="#c0392b" stroke="none" />
    <polygon points="379.00,64.00 387.00,44.00 371.00,44.00" fill="rgba(51, 51, 51, 0.8)" stroke="none" />
    <polygon points="376.85,43.00 375.65,43.00 375.65,35.00 376.85,35.00 381.15,41.00 381.15,35.00 382.35,35.00 382.35,43.00 381.15,43.00 376.85,37.00" fill="#ffffff" stroke="none" />
</svg>
