<?xml version="1.0" encoding="UTF-8"?>
<svg version="1.1" xmlns="http://www.w3.org/2000/svg" viewBox="0 0 398.00 598.00">
<style type="text/css">
@font-face {
  font-family: 'Roboto Mono';
  font-style: normal;
  font-weight: 400;
  font-display: swap;
  src: local('Roboto Mono'), local('RobotoMono-Regular'), url(https://fonts.gstatic.com/s/robotomono/v7/L0x5DF4xlVMF-BfR8bXMIjhLq38.woff2) format('woff2');
  unicode-range: U+0000-00FF, U+0131, U+0152-0153, U+02BB-02BC, U+02C6, U+02DA, U+02DC, U+2000-206F, U+2074, U+20AC, U+2122, U+2191, U+2193, U+2212, U+2215, U+FEFF, U+FFFD;
}
@font-face {
  font-family: 'Roboto Mono';
  font-style: normal;
  font-weight: 700;
  font-display: swap;
  src: local('Roboto Mono Bold'), local('RobotoMono-Bold'), url(https://fonts.gstatic.com/s/robotomono/v7/L0xkDF4xlVMF-BfR8bXMIjDwjmqxf78.woff2) format('woff2');
  unicode-range: U+0000-00FF, U+0131, U+0152-0153, U+02BB-02BC, U+02C6, U+02DA, U+02DC, U+2000-206F, U+2074, U+20AC, U+2122, U+2191, U+2193, U+2212, U+2215, U+FEFF, U+FFFD;
}
</style>
    <rect x="0" y="0" width="398" height="598" fill="#303030" stroke="none" />
    <polygon points="0.00,597.50 398.00,597.50 398.00,0.50 0.00,0.50" fill="#0d0d0d" stroke="none" />
    <polyline points="0.00,597.50 398.00,597.50" fill="none" stroke="#4f4f4f" stroke-width="1" stroke-linecap="butt" stroke-linejoin="miter" />
    <polyline points="0.00,498.00 398.00,498.00" fill="none" stroke="#4f4f4f" stroke-width="1" stroke-linecap="butt" stroke-linejoin="miter" />
    <polyline points="0.00,398.50 398.00,398.50" fill="none" stroke="#4f4f4f" stroke-width="1" stroke-linecap="butt" stroke-linejoin="miter" />
    <polyline points="0.00,299.00 398.00,299.00" fill="none" stroke="#4f4f4f" stroke-width="1" stroke-linecap="butt" stroke-linejoin="miter" />
    <polyline points="0.00,199.50 398.00,199.50" fill="none" stroke="#4f4f4f" stroke-width="1" stroke-linecap="butt" stroke-linejoin="miter" />
    <polyline points="0.00,100.00 398.00,100.00" fill="none" stroke="#4f4f4f" stroke-width="1" stroke-linecap="butt" stroke-linejoin="miter" />
    <polyline points="0.00,0.50 398.00,0.50" fill="none" stroke="#4f4f4f" stroke-width="1" stroke-linecap="butt" stroke-linejoin="miter" />
    <polyline points="0.00,598.00 0.00,0.00" fill="none" stroke="#4f4f4f" stroke-width="1" stroke-linecap="butt" stroke-linejoin="miter" />
    <polyline points="99.50,598.00 99.50,0.00" fill="none" stroke="#4f4f4f" stroke-width="1" stroke-linecap="butt" stroke-linejoin="miter" />
    <polyline points="199.00,598.00 199.00,0.00" fill="none" stroke="#4f4f4f" stroke-width="1" stroke-linecap="butt" stroke-linejoin="miter" />
    <polyline points="298.50,598.00 298.50,0.00" fill="none" stroke="#4f4f4f" stroke-width="1" stroke-linecap="butt" stroke-linejoin="miter" />
    <polyline points="398.00,598.00 398.00,0.00" fill="none" stroke="#4f4f4f" stroke-width="1" stroke-linecap="butt" stroke-linejoin="miter" />
    <circle cx="199.00" cy="498.00" r="24.88" fill="#f1c40f" stroke="none" />
    <path d="M 316.41,92.04 A 9.95 9.95 0 0 0 306.46,82.09" fill="none" stroke="#e74c3c" stroke-width="2.6533333333333333" stroke-linecap="butt" stroke-linejoin="miter" />
    <path d="M 323.87,92.04 A 17.41 17.41 0 0 0 306.46,74.63" fill="none" stroke="#e74c3c" stroke-width="2.6533333333333333" stroke-linecap="butt" stroke-linejoin="miter" />
    <path d="M 331.34,92.04 A 24.88 24.88 0 0 0 306.46,67.17" fill="none" stroke="#e74c3c" stroke-width="2.6533333333333333" stroke-linecap="butt" stroke-linejoin="miter" />
    <circle cx="331.08" cy="67.42" r="6.97" fill="#e74c3c" stroke="none" />
    <text x="331.0849936548211" y="67.41500634518161" fill="#ffffff" stroke="none" font-family="Roboto Mono" font-weight="normal" font-size="11.94" text-anchor="middle" dominant-baseline="middle">C</text>
    <path d="M 216.91,191.54 A 9.95 9.95 0 0 0 206.96,181.59" fill="none" stroke="#f1c40f" stroke-width="2.6533333333333333" stroke-linecap="butt" stroke-linejoin="miter" />
    <path d="M 224.37,191.54 A 17.41 17.41 0 0 0 206.96,174.13" fill="none" stroke="#f1c40f" stroke-width="2.6533333333333333" stroke-linecap="butt" stroke-linejoin="miter" />
    <path d="M 231.84,191.54 A 24.88 24.88 0 0 0 206.96,166.67" fill="none" stroke="#f1c40f" stroke-width="2.6533333333333333" stroke-linecap="butt" stroke-linejoin="miter" />
    <polygon points="237.25,170.97 225.24,169.79 230.22,180.78" fill="#f1c40f" stroke="none" />
    <circle cx="231.58" cy="166.92" r="6.97" fill="#f1c40f" stroke="none" />
    <text x="231.58499365482203" y="166.91500634517433" fill="#0d0d0d" stroke="none" font-family="Roboto Mono" font-weight="normal" font-size="11.94" text-anchor="middle" dominant-baseline="middle">A</text>
    <path d="M 216.91,390.54 A 9.95 9.95 0 0 0 206.96,380.59" fill="none" stroke="#2ecc71" stroke-width="2.6533333333333333" stroke-linecap="butt" stroke-linejoin="miter" />
    <path d="M 224.37,390.54 A 17.41 17.41 0 0 0 206.96,373.13" fill="none" stroke="#2ecc71" stroke-width="2.6533333333333333" stroke-linecap="butt" stroke-linejoin="miter" />
    <path d="M 231.84,390.54 A 24.88 24.88 0 0 0 206.96,365.67" fill="none" stroke="#2ecc71" stroke-width="2.6533333333333333" stroke-linecap="butt" stroke-linejoin="miter" />
    <circle cx="231.58" cy="365.92" r="6.97" fill="#2ecc71" stroke="none" />
    <text x="231.58499365482203" y="365.91500634517433" fill="#0d0d0d" stroke="none" font-family="Roboto Mono" font-weight="normal" font-size="11.94" text-anchor="middle" dominant-baseline="middle">B</text>
    <polyline points="288.55,299.00 283.57,299.00 281.01,299.00 278.43,299.00 275.85,299.00 273.26,299.00 270.66,299.00 268.06,299.00 265.45,299.00 262.84,299.00 260.22,299.00 257.60,299.00 254.97,299.00 252.33,299.00 249.69,299.00 247.05,299.00 244.40,299.00 241.75,299.00 239.10,299.00 236.44,299.00 233.78,299.00 231.12,299.00 228.45,299.00 225.78,299.00 223.11,299.00 220.44,299.00 217.76,299.00 215.08,299.00 212.40,299.00 209.72,299.00 207.04,299.00 204.36,299.00 201.68,299.00 199.00,299.00 196.32,299.00 193.64,299.00 190.96,299.00 188.28,299.00 185.60,299.00 182.92,299.00 180.24,299.00 177.56,299.00 174.89,299.00 172.22,299.00 169.55,299.00 166.88,299.00 164.22,299.00 161.56,299.00 158.90,299.00 156.25,299.00 153.60,299.00 150.95,299.00 148.31,299.00 145.67,299.00 143.03,299.00 140.40,299.00 137.78,299.00 135.16,299.00 132.55,299.00 129.94,299.00 127.34,299.00 124.74,299.00 122.15,299.00 119.57,299.00 114.43,299.00 109.45,299.00" fill="none" stroke="#e74c3c" stroke-width="2.6533333333333333" stroke-linecap="butt" stroke-linejoin="miter" />
    <text x="199" y="308.95000000000437" fill="#ffffff" stroke="none" font-family="Roboto Mono" font-weight="normal" font-size="11.94" text-anchor="middle" dominant-baseline="middle">4</text>
    <circle cx="199.00" cy="284.08" r="6.97" fill="#e74c3c" stroke="none" />
    <text x="199" y="284.07500000000437" fill="#ffffff" stroke="none" font-family="Roboto Mono" font-weight="normal" font-size="11.94" text-anchor="middle" dominant-baseline="middle">C</text>
    <polyline points="199.00,189.55 199.00,184.58 198.89,182.86 198.57,180.99 198.06,179.00 197.36,176.91 196.49,174.76 195.47,172.56 194.30,170.36 193.00,168.16 191.59,166.01 190.08,163.93 188.48,161.95 186.80,160.10 185.06,158.40 183.27,156.88 181.44,155.56 179.60,154.49 177.74,153.68 175.89,153.16 174.06,152.95 172.25,153.05 170.46,153.42 168.68,154.02 166.91,154.82 165.15,155.79 163.40,156.89 161.65,158.09 159.90,159.36 158.15,160.65 156.39,161.93 154.62,163.18 152.85,164.36 151.06,165.43 149.25,166.35 147.42,167.10 145.57,167.65 143.70,167.94 141.80,167.96 139.87,167.70 137.93,167.16 135.98,166.37 134.04,165.34 132.12,164.11 130.23,162.67 128.37,161.06 126.56,159.29 124.82,157.38 123.14,155.35 121.54,153.21 120.03,151.00 118.63,148.71 117.34,146.39 116.17,144.03 115.13,141.66 114.24,139.31 113.50,136.98 112.93,134.70 112.52,132.46 112.30,130.28 112.25,128.14 112.39,126.06 112.73,124.04 113.26,122.08 114.00,120.18 114.94,118.35 116.11,116.58 117.49,114.88 119.10,113.25 120.95,111.70 123.03,110.22 125.36,108.82 127.93,107.51 130.77,106.28 133.86,105.13 137.22,104.07 140.82,103.11 144.64,102.23 148.65,101.44 152.81,100.74 157.12,100.13 161.52,99.61 166.01,99.18 170.54,98.84 175.10,98.58 179.66,98.42 184.18,98.35 188.64,98.36 193.01,98.47 197.27,98.66 201.38,98.94 205.33,99.31 209.07,99.77 212.59,100.33 215.88,100.96 218.96,101.66 221.84,102.41 224.53,103.20 227.05,104.02 229.42,104.85 231.65,105.68 233.76,106.49 235.76,107.28 237.66,108.02 239.48,108.70 241.25,109.31 242.96,109.84 244.64,110.27 246.29,110.59 247.95,110.78 249.62,110.84 251.31,110.73 253.04,110.48 254.80,110.08 256.58,109.56 258.39,108.94 260.22,108.23 262.06,107.47 263.91,106.65 265.76,105.81 267.62,104.96 269.47,104.12 271.31,103.30 273.14,102.54 274.95,101.84 276.74,101.23 278.50,100.72 280.23,100.33 283.57,100.00 288.55,100.00" fill="none" stroke="#ffffff" stroke-width="2.6533333333333333" stroke-linecap="butt" stroke-linejoin="miter" />
    <text x="106.35455291054132" y="113.32165445357532" fill="#ffffff" stroke="none" font-family="Roboto Mono" font-weight="normal" font-size="11.94" text-anchor="middle" dominant-baseline="middle">3</text>
    <polyline points="99.50,388.55 99.50,383.58 99.50,382.10 99.50,380.50 99.50,378.76 99.50,376.91 99.50,374.95 99.50,372.88 99.50,370.73 99.50,368.49 99.50,366.19 99.50,363.81 99.50,361.39 99.50,358.91 99.50,356.40 99.50,353.87 99.50,351.31 99.50,348.75 99.50,346.19 99.50,343.63 99.50,341.10 99.50,338.59 99.50,336.11 99.50,333.69 99.50,331.31 99.50,329.01 99.50,326.77 99.50,324.62 99.50,322.55 99.50,320.59 99.50,318.74 99.50,317.00 99.50,313.92 99.50,308.95" fill="none" stroke="#ffffff" stroke-width="2.6533333333333333" stroke-linecap="butt" stroke-linejoin="miter" />
    <text x="89.55000000000018" y="348.75" fill="#ffffff" stroke="none" font-family="Roboto Mono" font-weight="normal" font-size="11.94" text-anchor="middle" dominant-baseline="middle">3</text>
    <polyline points="109.45,299.00 114.43,299.00 117.85,299.00 121.27,299.00 124.69,299.00 128.11,299.00 131.53,299.00 134.95,299.00 138.37,299.00 141.79,299.00 145.21,299.00 148.63,299.00 152.05,299.00 155.47,299.00 158.89,299.00 162.31,299.00 169.15,299.00" fill="none" stroke="#ffffff" stroke-width="2.6533333333333333" stroke-linecap="butt" stroke-linejoin="miter" />
    <circle cx="169.15" cy="299.00" r="7.96" fill="#c0392b" stroke="none" />
    <polyline points="164.67,299.00 173.63,299.00" fill="none" stroke="#0d0d0d" stroke-width="2.4875000000000003" stroke-linecap="butt" stroke-linejoin="miter" />
    <polyline points="99.50,289.05 99.50,284.08 99.53,280.47 99.63,277.09 99.78,273.94 99.99,270.98 100.25,268.22 100.55,265.62 100.90,263.18 101.28,260.87 101.70,258.69 102.15,256.62 102.63,254.65 103.16,252.75 103.71,250.93 104.31,249.16 104.95,247.44 105.62,245.75 106.34,244.08 107.10,242.42 107.90,240.79 108.73,239.17 109.61,237.58 110.53,236.01 111.48,234.46 112.47,232.93 113.50,231.43 114.57,229.96 115.67,228.51 116.81,227.09 117.98,225.69 119.19,224.33 120.42,223.00 121.70,221.70 123.00,220.42 124.33,219.19 125.69,217.98 127.09,216.81 128.51,215.67 129.96,214.57 131.43,213.50 132.93,212.47 134.46,211.48 136.01,210.53 137.58,209.61 139.17,208.73 140.79,207.90 142.42,207.10 144.08,206.34 145.75,205.62 147.44,204.95 149.16,204.31 150.93,203.71 152.75,203.16 154.65,202.63 156.62,202.15 158.69,201.70 160.87,201.28 163.18,200.90 165.62,200.55 168.22,200.25 170.98,199.99 173.94,199.78 177.09,199.63 184.07,199.50 189.05,199.50" fill="none" stroke="#ffffff" stroke-width="2.6533333333333333" stroke-linecap="butt" stroke-linejoin="miter" />
    <text x="128.7308420324489" y="228.73084203270992" fill="#ffffff" stroke="none" font-family="Roboto Mono" font-weight="normal" font-size="11.94" text-anchor="middle" dominant-baseline="middle">1</text>
    <polyline points="288.55,299.00 283.57,299.00 280.15,299.00 276.73,299.00 273.31,299.00 269.89,299.00 266.47,299.00 263.05,299.00 259.63,299.00 256.21,299.00 252.79,299.00 249.37,299.00 245.95,299.00 242.53,299.00 239.11,299.00 235.69,299.00 228.85,299.00" fill="none" stroke="#ffffff" stroke-width="2.6533333333333333" stroke-linecap="butt" stroke-linejoin="miter" />
    <circle cx="228.85" cy="299.00" r="7.96" fill="#e74c3c" stroke="none" />
    <polyline points="224.37,299.00 233.33,299.00" fill="none" stroke="#0d0d0d" stroke-width="2.4875000000000003" stroke-linecap="butt" stroke-linejoin="miter" />
    <circle cx="256.21" cy="284.08" r="6.97" fill="#642620" stroke="none" />
    <circle cx="256.21" cy="284.08" r="7.96" fill="none" stroke="#e74c3c" stroke-width="2.4875000000000003" stroke-linecap="butt" stroke-linejoin="miter" />
    <text x="256.2124999999987" y="284.07500000000437" fill="#ffffff" stroke="none" font-family="Roboto Mono" font-weight="normal" font-size="11.94" text-anchor="middle" dominant-baseline="middle">C</text>
    <polyline points="253.23,289.05 259.20,289.05" fill="none" stroke="#ffffff" stroke-width="0.796" stroke-linecap="butt" stroke-linejoin="miter" />
    <polyline points="298.50,308.95 298.50,313.92 298.47,317.53 298.37,320.91 298.22,324.06 298.01,327.02 297.75,329.78 297.45,332.38 297.10,334.82 296.72,337.13 296.30,339.31 295.85,341.38 295.37,343.35 294.84,345.25 294.29,347.07 293.69,348.84 293.05,350.56 292.38,352.25 291.66,353.92 290.90,355.58 290.10,357.21 289.27,358.83 288.39,360.42 287.47,361.99 286.52,363.54 285.53,365.07 284.50,366.57 283.43,368.04 282.33,369.49 281.19,370.91 280.02,372.31 278.81,373.67 277.58,375.00 276.30,376.30 275.00,377.58 273.67,378.81 272.31,380.02 270.91,381.19 269.49,382.33 268.04,383.43 266.57,384.50 265.07,385.53 263.54,386.52 261.99,387.47 260.42,388.39 258.83,389.27 257.21,390.10 255.58,390.90 253.92,391.66 252.25,392.38 250.56,393.05 248.84,393.69 247.07,394.29 245.25,394.84 243.35,395.37 241.38,395.85 239.31,396.30 237.13,396.72 234.82,397.10 232.38,397.45 229.78,397.75 227.02,398.01 224.06,398.22 220.91,398.37 213.93,398.50 208.95,398.50" fill="none" stroke="#f1c40f" stroke-width="2.6533333333333333" stroke-linecap="butt" stroke-linejoin="miter" />
    <text x="283.34058291289875" y="383.34058291315887" fill="#ffffff" stroke="none" font-family="Roboto Mono" font-weight="normal" font-size="11.94" text-anchor="middle" dominant-baseline="middle">6</text>
    <circle cx="265.75" cy="365.75" r="6.97" fill="#f1c40f" stroke="none" />
    <text x="265.7513017312149" y="365.75130173080834" fill="#0d0d0d" stroke="none" font-family="Roboto Mono" font-weight="normal" font-size="11.94" text-anchor="middle" dominant-baseline="middle">A</text>
    <polyline points="298.50,209.45 298.50,214.43 298.50,215.90 298.50,217.50 298.50,219.24 298.50,221.09 298.50,223.05 298.50,225.12 298.50,227.27 298.50,229.51 298.50,231.81 298.50,234.19 298.50,236.61 298.50,239.09 298.50,241.60 298.50,244.13 298.50,246.69 298.50,249.25 298.50,251.81 298.50,254.37 298.50,256.90 298.50,259.41 298.50,261.89 298.50,264.31 298.50,266.69 298.50,268.99 298.50,271.23 298.50,273.38 298.50,275.45 298.50,277.41 298.50,279.26 298.50,281.00 298.50,284.08 298.50,289.05" fill="none" stroke="#f1c40f" stroke-width="2.6533333333333333" stroke-linecap="butt" stroke-linejoin="miter" />
    <text x="288.5500000000002" y="249.25" fill="#ffffff" stroke="none" font-family="Roboto Mono" font-weight="normal" font-size="11.94" text-anchor="middle" dominant-baseline="middle">2</text>
    <circle cx="313.43" cy="249.25" r="6.97" fill="#f1c40f" stroke="none" />
    <text x="313.4250000000002" y="249.25" fill="#0d0d0d" stroke="none" font-family="Roboto Mono" font-weight="normal" font-size="11.94" text-anchor="middle" dominant-baseline="middle">A</text>
    <polyline points="208.95,199.50 213.93,199.50 215.40,199.50 217.00,199.50 218.74,199.50 220.59,199.50 222.55,199.50 224.62,199.50 226.77,199.50 229.01,199.50 231.31,199.50 233.69,199.50 236.11,199.50 238.59,199.50 241.10,199.50 243.63,199.50 246.19,199.50 248.75,199.50 251.31,199.50 253.87,199.50 256.40,199.50 258.91,199.50 261.39,199.50 263.81,199.50 266.19,199.50 268.49,199.50 270.73,199.50 272.88,199.50 274.95,199.50 276.91,199.50 278.76,199.50 280.50,199.50 283.57,199.50 288.55,199.50" fill="none" stroke="#f1c40f" stroke-width="2.6533333333333333" stroke-linecap="butt" stroke-linejoin="miter" />
    <text x="244.48571428571358" y="209.45000000000437" fill="#ffffff" stroke="none" font-family="Roboto Mono" font-weight="normal" font-size="11.94" text-anchor="middle" dominant-baseline="middle">7</text>
    <text x="253.0142857142855" y="209.45000000000437" fill="#ffffff" stroke="none" font-family="Roboto Mono" font-weight="normal" font-size="11.94" text-anchor="middle" dominant-baseline="middle">9</text>
    <circle cx="248.75" cy="184.58" r="6.97" fill="#f1c40f" stroke="none" />
    <text x="248.75" y="184.57500000000437" fill="#0d0d0d" stroke="none" font-family="Roboto Mono" font-weight="normal" font-size="11.94" text-anchor="middle" dominant-baseline="middle">A</text>
    <polyline points="199.00,408.45 199.00,413.42 199.00,414.90 199.00,416.50 199.00,418.24 199.00,420.09 199.00,422.05 199.00,424.12 199.00,426.27 199.00,428.51 199.00,430.81 199.00,433.19 199.00,435.61 199.00,438.09 199.00,440.60 199.00,443.13 199.00,445.69 199.00,448.25 199.00,450.81 199.00,453.37 199.00,455.90 199.00,458.41 199.00,460.89 199.00,463.31 199.00,465.69 199.00,467.99 199.00,470.23 199.00,472.38 199.00,474.45 199.00,476.41 199.00,478.26 199.00,480.00 199.00,483.08 199.00,488.05" fill="none" stroke="#f1c40f" stroke-width="2.6533333333333333" stroke-linecap="butt" stroke-linejoin="miter" />
    <circle cx="199.00" cy="448.25" r="7.96" fill="rgba(13, 13, 13, 0.8)" stroke="none" />
    <circle cx="199.00" cy="448.25" r="6.97" fill="none" stroke="rgba(46, 204, 113, 0.8)" stroke-width="1.99" stroke-linecap="butt" stroke-linejoin="miter" />
    <polyline points="194.52,448.25 203.48,448.25" fill="none" stroke="rgba(46, 204, 113, 0.8)" stroke-width="2.4875000000000003" stroke-linecap="butt" stroke-linejoin="miter" />
    <text x="189.0500000000011" y="448.25" fill="#ffffff" stroke="none" font-family="Roboto Mono" font-weight="normal" font-size="11.94" text-anchor="middle" dominant-baseline="middle">1</text>
    <circle cx="213.93" cy="439.54" r="6.97" fill="#f1c40f" stroke="none" />
    <text x="213.9250000000011" y="439.54375000000437" fill="#0d0d0d" stroke="none" font-family="Roboto Mono" font-weight="normal" font-size="11.94" text-anchor="middle" dominant-baseline="middle">A</text>
    <circle cx="213.93" cy="456.96" r="6.97" fill="#1a5935" stroke="none" />
    <circle cx="213.93" cy="456.96" r="7.96" fill="none" stroke="#2ecc71" stroke-width="2.4875000000000003" stroke-linecap="butt" stroke-linejoin="miter" />
    <text x="213.9250000000011" y="456.95624999999563" fill="#ffffff" stroke="none" font-family="Roboto Mono" font-weight="normal" font-size="11.94" text-anchor="middle" dominant-baseline="middle">B</text>
    <polyline points="210.94,461.93 216.91,461.93" fill="none" stroke="#ffffff" stroke-width="0.796" stroke-linecap="butt" stroke-linejoin="miter" />
    <polyline points="99.50,408.45 99.50,413.42 99.50,416.07 99.50,418.71 99.50,421.35 99.50,424.00 99.50,426.64 99.50,429.28 99.50,431.93 99.50,434.57 99.50,437.21 99.50,439.85 99.50,442.50 99.50,445.14 99.50,447.78 99.50,450.43 99.50,453.07 99.50,455.71 99.50,458.36 99.50,461.00 99.50,463.64 99.50,466.28 99.50,468.93 99.50,471.57 99.50,474.21 99.50,476.86 99.50,479.50 99.50,482.14 99.50,484.79 99.50,487.43 99.50,490.07 99.50,492.71 99.50,498.00" fill="none" stroke="#ffffff" stroke-width="2.6533333333333333" stroke-linecap="butt" stroke-linejoin="miter" />
    <polygon points="99.50,493.03 91.74,518.89 99.50,513.72 107.26,518.89" fill="#ffffff" stroke="none" />
    <text x="99.5" y="523.8700000000026" fill="#ffffff" stroke="none" font-family="Roboto Mono" font-weight="normal" font-size="11.94" text-anchor="middle" dominant-baseline="middle">N</text>
    <polyline points="111.44,305.96 119.10,305.96" fill="none" stroke="#ffffff" stroke-width="1.724666666666667" stroke-linecap="butt" stroke-linejoin="miter" />
    <polygon points="122.39,305.96 118.01,302.90 118.01,309.03" fill="#ffffff" stroke="none" />
    <polygon points="189.05,209.45 208.95,209.45 208.95,189.55 189.05,189.55" fill="#2980b9" stroke="none" />
    <polygon points="288.55,109.95 308.45,109.95 308.45,90.05 288.55,90.05" fill="#2980b9" stroke="none" />
    <polygon points="89.55,408.45 109.45,408.45 109.45,388.55 89.55,388.55" fill="#c0392b" stroke="none" />
    <polygon points="89.55,308.95 109.45,308.95 109.45,289.05 89.55,289.05" fill="#2980b9" stroke="none" />
    <polygon points="288.55,308.95 308.45,308.95 308.45,289.05 288.55,289.05" fill="#2980b9" stroke="none" />
    <polygon points="189.05,408.45 208.95,408.45 208.95,388.55 189.05,388.55" fill="#2980b9" stroke="none" />
    <polygon points="288.55,209.45 308.45,209.45 308.45,189.55 288.55,189.55" fill="#c0392b" stroke="none" />
    <polygon points="189.05,507.95 208.95,507.95 208.95,488.05 189.05,488.05" fill="#c0392b" stroke="none" />
    <circle cx="199.00" cy="498.00" r="6.97" fill="#f1c40f" stroke="none" />
    <text x="199" y="498" fill="#0d0d0d" stroke="none" font-family="Roboto Mono" font-weight="normal" font-size="11.94" text-anchor="middle" dominant-baseline="middle">A</text>
    <text x="30" y="498" fill="#838383" stroke="none" font-family="Roboto Mono" font-weight="normal" font-size="16.00" text-anchor="middle" dominant-baseline="middle">420</text>
    <text x="30" y="398.5" fill="#838383" stroke="none" font-family="Roboto Mono" font-weight="normal" font-size="16.00" text-anchor="middle" dominant-baseline="middle">421</text>
    <text x="30" y="299" fill="#838383" stroke="none" font-family="Roboto Mono" font-weight="normal" font-size="16.00" text-anchor="middle" dominant-baseline="middle">422</text>
    <text x="30" y="199.5" fill="#838383" stroke="none" font-family="Roboto Mono" font-weight="normal" font-size="16.00" text-anchor="middle" dominant-baseline="middle">423</text>
    <text x="30" y="100" fill="#838383" stroke="none" font-family="Roboto Mono" font-weight="normal" font-size="16.00" text-anchor="middle" dominant-baseline="middle">424</text>
    <text x="30" y="0.5" fill="#838383" stroke="none" font-family="Roboto Mono" font-weight="normal" font-size="16.00" text-anchor="middle" dominant-baseline="middle">425</text>
    <text x="9.094947017729282e-13" y="568" fill="#838383" stroke="none" font-family="Roboto Mono" font-weight="normal" font-size="16.00" text-anchor="middle" dominant-baseline="middle">67</text>
    <text x="99.5" y="568" fill="#838383" stroke="none" font-family="Roboto Mono" font-weight="normal" font-size="16.00" text-anchor="middle" dominant-baseline="middle">68</text>
    <text x="199" y="568" fill="#838383" stroke="none" font-family="Roboto Mono" font-weight="normal" font-size="16.00" text-anchor="middle" dominant-baseline="middle">69</text>
    <text x="298.5000000000009" y="568" fill="#838383" stroke="none" font-family="Roboto Mono" font-weight="normal" font-size="16.00" text-anchor="middle" dominant-baseline="middle">70</text>
    <text x="398" y="568" fill="#838383" stroke="none" font-family="Roboto Mono" font-weight="normal" font-size="16.00" text-anchor="middle" dominant-baseline="middle">71</text>
    <circle cx="354.00" cy="44.00" r="24.00" fill="rgba(255, 255, 255, 0.25)" stroke="none" />
    <polygon points="354.00,24.00 362.00,44.00 346.00,44.00" fill="#c0392b" stroke="none" />
    <polygon points="354.00,64.00 362.00,44.00 346.00,44.00" fill="rgba(255, 255, 255, 0.8)" stroke="none" />
    <polygon points="351.85,43.00 350.65,43.00 350.65,35.00 351.85,35.00 356.15,41.00 356.15,35.00 357.35,35.00 357.35,43.00 356.15,43.00 351.85,37.00" fill="#ffffff" stroke="none" />
</svg>
