<?xml version="1.0" encoding="UTF-8"?>
<svg version="1.1" xmlns="http://www.w3.org/2000/svg" viewBox="0 0 923.00 838.00">
<style type="text/css">
@font-face {
  font-family: 'Roboto Mono';
  font-style: normal;
  font-weight: 400;
  font-display: swap;
  src: local('Roboto Mono'), local('RobotoMono-Regular'), url(https://fonts.gstatic.com/s/robotomono/v7/L0x5DF4xlVMF-BfR8bXMIjhLq38.woff2) format('woff2');
  unicode-range: U+0000-00FF, U+0131, U+0152-0153, U+02BB-02BC, U+02C6, U+02DA, U+02DC, U+2000-206F, U+2074, U+20AC, U+2122, U+2191, U+2193, U+2212, U+2215, U+FEFF, U+FFFD;
}
@font-face {
  font-family: 'Roboto Mono';
  font-style: normal;
  font-weight: 700;
  font-display: swap;
  src: local('Roboto Mono Bold'), local('RobotoMono-Bold'), url(https://fonts.gstatic.com/s/robotomono/v7/L0xkDF4xlVMF-BfR8bXMIjDwjmqxf78.woff2) format('woff2');
  unicode-range: U+0000-00FF, U+0131, U+0152-0153, U+02BB-02BC, U+02C6, U+02DA, U+02DC, U+2000-206F, U+2074, U+20AC, U+2122, U+2191, U+2193, U+2212, U+2215, U+FEFF, U+FFFD;
}
</style>
    <rect x="0" y="0" width="922.9999999999999" height="838.0000000000001" fill="#eeeeee" stroke="none" />
    <polygon points="0.10,838.00 922.90,838.00 922.90,0.00 0.10,0.00" fill="#fbfbfb" stroke="none" />
    <polyline points="0.00,768.17 923.00,768.17" fill="none" stroke="#d2d2d2" stroke-width="1" stroke-linecap="butt" stroke-linejoin="miter" />
    <polyline points="0.00,668.40 923.00,668.40" fill="none" stroke="#d2d2d2" stroke-width="1" stroke-linecap="butt" stroke-linejoin="miter" />
    <polyline points="0.00,568.64 923.00,568.64" fill="none" stroke="#d2d2d2" stroke-width="1" stroke-linecap="butt" stroke-linejoin="miter" />
    <polyline points="0.00,468.88 923.00,468.88" fill="none" stroke="#d2d2d2" stroke-width="1" stroke-linecap="butt" stroke-linejoin="miter" />
    <polyline points="0.00,369.12 923.00,369.12" fill="none" stroke="#d2d2d2" stroke-width="1" stroke-linecap="butt" stroke-linejoin="miter" />
    <polyline points="0.00,269.36 923.00,269.36" fill="none" stroke="#d2d2d2" stroke-width="1" stroke-linecap="butt" stroke-linejoin="miter" />
    <polyline points="0.00,169.60 923.00,169.60" fill="none" stroke="#d2d2d2" stroke-width="1" stroke-linecap="butt" stroke-linejoin="miter" />
    <polyline points="0.00,69.83 923.00,69.83" fill="none" stroke="#d2d2d2" stroke-width="1" stroke-linecap="butt" stroke-linejoin="miter" />
    <polyline points="54.97,838.00 54.97,0.00" fill="none" stroke="#d2d2d2" stroke-width="1" stroke-linecap="butt" stroke-linejoin="miter" />
    <polyline points="154.73,838.00 154.73,0.00" fill="none" stroke="#d2d2d2" stroke-width="1" stroke-linecap="butt" stroke-linejoin="miter" />
    <polyline points="254.49,838.00 254.49,0.00" fill="none" stroke="#d2d2d2" stroke-width="1" stroke-linecap="butt" stroke-linejoin="miter" />
    <polyline points="354.26,838.00 354.26,0.00" fill="none" stroke="#d2d2d2" stroke-width="1" stroke-linecap="butt" stroke-linejoin="miter" />
    <polyline points="454.02,838.00 454.02,0.00" fill="none" stroke="#d2d2d2" stroke-width="1" stroke-linecap="butt" stroke-linejoin="miter" />
    <polyline points="553.78,838.00 553.78,0.00" fill="none" stroke="#d2d2d2" stroke-width="1" stroke-linecap="butt" stroke-linejoin="miter" />
    <polyline points="653.54,838.00 653.54,0.00" fill="none" stroke="#d2d2d2" stroke-width="1" stroke-linecap="butt" stroke-linejoin="miter" />
    <polyline points="753.30,838.00 753.30,0.00" fill="none" stroke="#d2d2d2" stroke-width="1" stroke-linecap="butt" stroke-linejoin="miter" />
    <polyline points="853.07,838.00 853.07,0.00" fill="none" stroke="#d2d2d2" stroke-width="1" stroke-linecap="butt" stroke-linejoin="miter" />
    <circle cx="254.49" cy="169.60" r="24.94" fill="#f1c40f" stroke="none" />
    <circle cx="354.26" cy="468.88" r="24.94" fill="#2ecc71" stroke="none" />
    <path d="M 671.50,460.90 A 9.98 9.98 0 0 0 661.52,450.92" fill="none" stroke="#f1c40f" stroke-width="2.6603174603174606" stroke-linecap="butt" stroke-linejoin="miter" />
    <path d="M 678.98,460.90 A 17.46 17.46 0 0 0 661.52,443.44" fill="none" stroke="#f1c40f" stroke-width="2.6603174603174606" stroke-linecap="butt" stroke-linejoin="miter" />
    <path d="M 686.46,460.90 A 24.94 24.94 0 0 0 661.52,435.96" fill="none" stroke="#f1c40f" stroke-width="2.6603174603174606" stroke-linecap="butt" stroke-linejoin="miter" />
    <polygon points="680.06,439.52 686.42,429.23 674.33,428.87" fill="#f1c40f" stroke="none" />
    <circle cx="686.21" cy="436.21" r="6.98" fill="#f1c40f" stroke="none" />
    <text x="686.2124308240493" y="436.21018822356984" fill="#333333" stroke="none" font-family="Roboto Mono" font-weight="normal" font-size="11.97" text-anchor="middle" dominant-baseline="middle">A</text>
    <path d="M 571.74,161.61 A 9.98 9.98 0 0 0 561.76,151.64" fill="none" stroke="#2ecc71" stroke-width="2.6603174603174606" stroke-linecap="butt" stroke-linejoin="miter" />
    <path d="M 579.22,161.61 A 17.46 17.46 0 0 0 561.76,144.16" fill="none" stroke="#2ecc71" stroke-width="2.6603174603174606" stroke-linecap="butt" stroke-linejoin="miter" />
    <path d="M 586.70,161.61 A 24.94 24.94 0 0 0 561.76,136.67" fill="none" stroke="#2ecc71" stroke-width="2.6603174603174606" stroke-linecap="butt" stroke-linejoin="miter" />
    <polygon points="589.40,143.25 579.49,136.32 578.45,148.37" fill="#2ecc71" stroke="none" />
    <circle cx="586.45" cy="136.92" r="6.98" fill="#2ecc71" stroke="none" />
    <text x="586.4505260621445" y="136.9244739378555" fill="#fbfbfb" stroke="none" font-family="Roboto Mono" font-weight="normal" font-size="11.97" text-anchor="middle" dominant-baseline="middle">B</text>
    <path d="M 372.21,161.61 A 9.98 9.98 0 0 0 362.24,151.64" fill="none" stroke="#e74c3c" stroke-width="2.6603174603174606" stroke-linecap="butt" stroke-linejoin="miter" />
    <path d="M 379.70,161.61 A 17.46 17.46 0 0 0 362.24,144.16" fill="none" stroke="#e74c3c" stroke-width="2.6603174603174606" stroke-linecap="butt" stroke-linejoin="miter" />
    <path d="M 387.18,161.61 A 24.94 24.94 0 0 0 362.24,136.67" fill="none" stroke="#e74c3c" stroke-width="2.6603174603174606" stroke-linecap="butt" stroke-linejoin="miter" />
    <circle cx="386.93" cy="136.92" r="6.98" fill="#e74c3c" stroke="none" />
    <text x="386.926716538335" y="136.9244739378555" fill="#fbfbfb" stroke="none" font-family="Roboto Mono" font-weight="normal" font-size="11.97" text-anchor="middle" dominant-baseline="middle">C</text>
    <path d="M 571.74,660.42 A 9.98 9.98 0 0 0 561.76,650.45" fill="none" stroke="#9b59b6" stroke-width="2.6603174603174606" stroke-linecap="butt" stroke-linejoin="miter" />
    <path d="M 579.22,660.42 A 17.46 17.46 0 0 0 561.76,642.97" fill="none" stroke="#9b59b6" stroke-width="2.6603174603174606" stroke-linecap="butt" stroke-linejoin="miter" />
    <path d="M 586.70,660.42 A 24.94 24.94 0 0 0 561.76,635.48" fill="none" stroke="#9b59b6" stroke-width="2.6603174603174606" stroke-linecap="butt" stroke-linejoin="miter" />
    <circle cx="586.45" cy="635.73" r="6.98" fill="#9b59b6" stroke="none" />
    <text x="586.4505260621445" y="635.7339977473794" fill="#fbfbfb" stroke="none" font-family="Roboto Mono" font-weight="normal" font-size="11.97" text-anchor="middle" dominant-baseline="middle">D</text>
    <path d="M 771.26,460.90 A 9.98 9.98 0 0 0 761.28,450.92" fill="none" stroke="#1abc9c" stroke-width="2.6603174603174606" stroke-linecap="butt" stroke-linejoin="miter" />
    <path d="M 778.74,460.90 A 17.46 17.46 0 0 0 761.28,443.44" fill="none" stroke="#1abc9c" stroke-width="2.6603174603174606" stroke-linecap="butt" stroke-linejoin="miter" />
    <path d="M 786.23,460.90 A 24.94 24.94 0 0 0 761.28,435.96" fill="none" stroke="#1abc9c" stroke-width="2.6603174603174606" stroke-linecap="butt" stroke-linejoin="miter" />
    <circle cx="785.97" cy="436.21" r="6.98" fill="#1abc9c" stroke="none" />
    <text x="785.9743355859541" y="436.21018822356984" fill="#fbfbfb" stroke="none" font-family="Roboto Mono" font-weight="normal" font-size="11.97" text-anchor="middle" dominant-baseline="middle">E</text>
    <polyline points="743.33,468.88 738.34,468.88 734.01,468.88 730.27,468.85 727.01,468.78 724.08,468.64 721.36,468.41 718.71,468.07 716.02,467.60 713.24,466.97 710.42,466.18 707.61,465.20 704.83,464.02 702.14,462.64 699.58,461.02 697.17,459.18 694.95,457.12 692.92,454.86 691.11,452.43 689.52,449.85 688.18,447.13 687.10,444.30 686.28,441.38 685.74,438.40 685.47,435.38 685.48,432.35 685.76,429.33 686.32,426.35 687.16,423.44 688.27,420.61 689.62,417.90 691.22,415.32 693.04,412.90 695.08,410.66 697.33,408.62 699.75,406.80 702.32,405.20 705.04,403.84 707.86,402.74 710.77,401.90 713.75,401.34 716.77,401.06 719.80,401.05 722.82,401.32 725.80,401.86 728.73,402.67 731.56,403.75 734.27,405.10 736.86,406.68 739.29,408.50 741.54,410.53 743.60,412.75 745.45,415.15 747.06,417.72 748.45,420.41 749.62,423.18 750.60,426.00 751.39,428.82 752.02,431.60 752.50,434.29 752.84,436.94 753.06,439.66 753.20,442.59 753.27,445.85 753.30,453.92 753.30,458.90" fill="none" stroke="#333333" stroke-width="2.6603174603174606" stroke-linecap="butt" stroke-linejoin="miter" />
    <text x="688.0298555663016" y="403.6072365186885" fill="#333333" stroke="none" font-family="Roboto Mono" font-weight="normal" font-size="11.97" text-anchor="middle" dominant-baseline="middle">1</text>
    <polyline points="753.30,478.86 753.30,483.85 753.30,484.64 753.30,485.61 753.30,486.75 753.30,488.05 753.30,489.52 753.30,491.14 753.30,492.90 753.30,494.82 753.30,496.86 753.30,499.04 753.30,501.35 753.30,503.77 753.30,506.31 753.30,508.96 753.30,511.71 753.30,514.55 753.30,517.49 753.30,520.52 753.30,523.62 753.30,526.80 753.30,530.04 753.30,533.35 753.30,536.72 753.30,540.14 753.30,543.60 753.30,547.10 753.30,550.64 753.30,554.21 753.30,557.80 753.30,561.40 753.30,565.02 753.30,568.64 753.30,572.27 753.30,575.88 753.30,579.49 753.30,583.08 753.30,586.64 753.30,590.18 753.30,593.69 753.30,597.15 753.30,600.57 753.30,603.93 753.30,607.24 753.30,610.49 753.30,613.67 753.30,616.77 753.30,619.79 753.30,622.73 753.30,625.58 753.30,628.33 753.30,630.98 753.30,633.51 753.30,635.94 753.30,638.24 753.30,640.42 753.30,642.47 753.30,644.38 753.30,646.15 753.30,647.77 753.30,649.23 753.30,650.54 753.30,651.68 753.30,653.44 753.30,658.43" fill="none" stroke="#333333" stroke-width="2.6603174603174606" stroke-linecap="butt" stroke-linejoin="miter" />
    <text x="743.327380952381" y="568.6428571428572" fill="#333333" stroke="none" font-family="Roboto Mono" font-weight="normal" font-size="11.97" text-anchor="middle" dominant-baseline="middle">2</text>
    <polyline points="743.33,668.40 738.34,668.40 734.29,668.36 730.53,668.24 727.04,668.05 723.80,667.79 720.79,667.47 717.98,667.09 715.36,666.67 712.89,666.20 710.56,665.69 708.35,665.13 706.24,664.53 704.22,663.89 702.25,663.19 700.34,662.44 698.45,661.64 696.58,660.79 694.73,659.88 692.92,658.93 691.13,657.93 689.36,656.87 687.63,655.77 685.93,654.63 684.26,653.43 682.63,652.19 681.02,650.91 679.46,649.58 677.93,648.21 676.44,646.79 675.00,645.34 673.59,643.85 672.22,642.31 670.90,640.75 669.62,639.14 668.38,637.50 667.19,635.83 666.05,634.12 664.95,632.39 663.91,630.62 662.91,628.83 661.96,627.01 661.06,625.16 660.22,623.29 659.42,621.40 658.68,619.49 657.99,617.55 657.36,615.60 656.78,613.63 656.25,611.65 655.78,609.65 655.36,607.64 655.00,605.50 654.69,602.90 654.43,599.46 654.21,594.80 654.03,588.54 653.88,580.33 653.77,569.78 653.69,556.83 653.62,542.38 653.58,527.45 653.56,513.09 653.55,500.34 653.54,483.85 653.54,478.86" fill="none" stroke="#333333" stroke-width="2.6603174603174606" stroke-linecap="butt" stroke-linejoin="miter" />
    <text x="663.1843192427498" y="647.0741724048897" fill="#333333" stroke="none" font-family="Roboto Mono" font-weight="normal" font-size="11.97" text-anchor="middle" dominant-baseline="middle">2</text>
    <polyline points="643.57,468.88 638.58,468.88 634.96,468.85 631.58,468.75 628.41,468.60 625.45,468.39 622.68,468.13 620.07,467.82 617.62,467.48 615.31,467.09 613.13,466.68 611.05,466.22 609.07,465.74 607.17,465.22 605.35,464.66 603.58,464.06 601.85,463.42 600.15,462.74 598.47,462.02 596.82,461.26 595.18,460.46 593.56,459.62 591.96,458.74 590.38,457.82 588.83,456.87 587.30,455.87 585.79,454.84 584.32,453.77 582.86,452.67 581.44,451.53 580.04,450.35 578.68,449.14 577.34,447.90 576.03,446.63 574.76,445.32 573.52,443.98 572.31,442.62 571.13,441.22 569.99,439.80 568.89,438.35 567.82,436.87 566.79,435.36 565.79,433.83 564.84,432.28 563.92,430.70 563.04,429.10 562.20,427.48 561.40,425.84 560.64,424.19 559.92,422.51 559.24,420.81 558.60,419.09 558.01,417.32 557.45,415.49 556.92,413.59 556.44,411.61 555.99,409.53 555.57,407.35 555.18,405.04 554.84,402.59 554.53,399.98 554.27,397.21 554.06,394.25 553.91,391.08 553.78,384.08 553.78,379.10" fill="none" stroke="#333333" stroke-width="2.6603174603174606" stroke-linecap="butt" stroke-linejoin="miter" />
    <text x="568.9790817407056" y="453.68163254501303" fill="#333333" stroke="none" font-family="Roboto Mono" font-weight="normal" font-size="11.97" text-anchor="middle" dominant-baseline="middle">1</text>
    <polyline points="563.76,369.12 568.74,369.12 570.24,369.28 571.93,369.74 573.78,370.47 575.78,371.45 577.92,372.64 580.19,374.02 582.58,375.56 585.05,377.23 587.61,379.00 590.24,380.85 592.92,382.74 595.64,384.66 598.38,386.56 601.14,388.42 603.89,390.22 606.62,391.92 609.32,393.49 611.97,394.92 614.56,396.17 617.08,397.20 619.50,398.01 621.82,398.55 624.04,398.82 626.15,398.86 628.17,398.67 630.10,398.27 631.95,397.67 633.72,396.91 635.42,396.00 637.05,394.94 638.62,393.77 640.14,392.50 641.60,391.15 643.03,389.73 644.41,388.27 645.76,386.77 647.09,385.27 648.40,383.78 649.68,382.31 650.96,380.88 652.24,379.52 653.52,378.24 654.80,377.05 656.11,375.97 657.47,374.99 658.93,374.11 660.50,373.33 662.23,372.63 664.15,372.01 666.29,371.47 668.69,371.00 671.38,370.60 674.39,370.26 677.75,369.98 681.51,369.74 685.69,369.56 690.32,369.41 695.44,369.30 701.09,369.23 707.29,369.17 714.09,369.14 721.50,369.13 738.34,369.12 743.33,369.12" fill="none" stroke="#333333" stroke-width="2.6603174603174606" stroke-linecap="butt" stroke-linejoin="miter" />
    <text x="646.7365012905927" y="399.9813777570043" fill="#333333" stroke="none" font-family="Roboto Mono" font-weight="normal" font-size="11.97" text-anchor="middle" dominant-baseline="middle">2</text>
    <polyline points="753.30,359.14 753.30,354.15 753.30,352.68 753.30,351.07 753.30,349.33 753.30,347.47 753.30,345.50 753.30,343.44 753.30,341.28 753.30,339.03 753.30,336.72 753.30,334.34 753.30,331.91 753.30,329.43 753.30,326.91 753.30,324.37 753.30,321.81 753.30,319.24 753.30,316.67 753.30,314.11 753.30,311.56 753.30,309.05 753.30,306.57 753.30,304.13 753.30,301.76 753.30,299.44 753.30,297.20 753.30,295.04 753.30,292.97 753.30,291.00 753.30,289.15 753.30,287.41 753.30,284.32 753.30,279.33" fill="none" stroke="#333333" stroke-width="2.6603174603174606" stroke-linecap="butt" stroke-linejoin="miter" />
    <text x="743.327380952381" y="319.2380952380953" fill="#333333" stroke="none" font-family="Roboto Mono" font-weight="normal" font-size="11.97" text-anchor="middle" dominant-baseline="middle">1</text>
    <polyline points="563.76,269.36 568.74,269.36 570.24,269.52 571.93,269.98 573.78,270.71 575.78,271.69 577.92,272.88 580.19,274.26 582.58,275.80 585.05,277.47 587.61,279.24 590.24,281.09 592.92,282.98 595.64,284.89 598.38,286.79 601.14,288.66 603.89,290.45 606.62,292.15 609.32,293.73 611.97,295.16 614.56,296.40 617.08,297.44 619.50,298.24 621.82,298.78 624.04,299.06 626.15,299.10 628.17,298.90 630.10,298.50 631.95,297.91 633.72,297.15 635.42,296.23 637.05,295.18 638.62,294.01 640.14,292.74 641.60,291.39 643.03,289.97 644.41,288.50 645.76,287.01 647.09,285.51 648.40,284.02 649.68,282.55 650.96,281.12 652.24,279.76 653.52,278.47 654.80,277.29 656.11,276.21 657.47,275.23 658.93,274.35 660.50,273.56 662.23,272.86 664.15,272.25 666.29,271.71 668.69,271.24 671.38,270.84 674.39,270.50 677.75,270.21 681.51,269.98 685.69,269.80 690.32,269.65 695.44,269.54 701.09,269.46 707.29,269.41 714.09,269.38 721.50,269.36 738.34,269.36 743.33,269.36" fill="none" stroke="#333333" stroke-width="2.6603174603174606" stroke-linecap="butt" stroke-linejoin="miter" />
    <text x="646.7365012905939" y="300.2194729950985" fill="#333333" stroke="none" font-family="Roboto Mono" font-weight="normal" font-size="11.97" text-anchor="middle" dominant-baseline="middle">2</text>
    <polyline points="553.78,359.14 553.78,354.15 553.78,352.68 553.78,351.07 553.78,349.33 553.78,347.47 553.78,345.50 553.78,343.44 553.78,341.28 553.78,339.03 553.78,336.72 553.78,334.34 553.78,331.91 553.78,329.43 553.78,326.91 553.78,324.37 553.78,321.81 553.78,319.24 553.78,316.67 553.78,314.11 553.78,311.56 553.78,309.05 553.78,306.57 553.78,304.13 553.78,301.76 553.78,299.44 553.78,297.20 553.78,295.04 553.78,292.97 553.78,291.00 553.78,289.15 553.78,287.41 553.78,284.32 553.78,279.33" fill="none" stroke="#333333" stroke-width="2.6603174603174606" stroke-linecap="butt" stroke-linejoin="miter" />
    <text x="543.8035714285716" y="319.2380952380953" fill="#333333" stroke="none" font-family="Roboto Mono" font-weight="normal" font-size="11.97" text-anchor="middle" dominant-baseline="middle">1</text>
    <polyline points="753.30,259.38 753.30,254.39 753.27,251.87 753.16,249.44 752.98,247.10 752.73,244.85 752.41,242.69 752.03,240.62 751.58,238.63 751.06,236.73 750.48,234.91 749.84,233.18 749.14,231.52 748.37,229.94 747.55,228.44 746.67,227.02 745.73,225.66 744.73,224.39 743.68,223.18 742.58,222.04 741.42,220.97 740.21,219.97 738.95,219.04 737.65,218.16 736.29,217.35 734.89,216.60 733.44,215.91 731.95,215.28 730.42,214.70 728.84,214.18 727.22,213.71 725.56,213.30 723.86,212.93 722.13,212.62 720.36,212.35 718.55,212.13 716.71,211.95 714.83,211.81 712.93,211.72 710.99,211.67 709.02,211.65 707.03,211.67 705.00,211.73 702.96,211.82 700.88,211.95 698.78,212.10 696.66,212.29 694.52,212.50 692.36,212.74 690.17,213.01 687.97,213.30 685.75,213.61 683.52,213.94 681.27,214.29 679.01,214.66 676.73,215.05 674.45,215.45 672.15,215.86 669.84,216.29 667.53,216.72 665.21,217.17 662.88,217.62 660.55,218.08 658.22,218.54 655.88,219.01 653.54,219.48 651.20,219.94 648.87,220.41 646.53,220.87 644.20,221.33 641.87,221.78 639.55,222.23 637.24,222.66 634.93,223.09 632.64,223.50 630.35,223.91 628.08,224.29 625.81,224.66 623.56,225.01 621.33,225.34 619.11,225.66 616.91,225.95 614.73,226.21 612.56,226.45 610.42,226.66 608.30,226.85 606.20,227.01 604.13,227.13 602.08,227.22 600.06,227.28 598.06,227.30 596.09,227.29 594.16,227.23 592.25,227.14 590.38,227.00 588.53,226.83 586.73,226.60 584.96,226.33 583.22,226.02 581.52,225.65 579.86,225.24 578.25,224.77 576.67,224.25 575.13,223.67 573.64,223.04 572.19,222.35 570.79,221.60 569.44,220.79 568.13,219.92 566.87,218.98 565.66,217.98 564.51,216.91 563.40,215.77 562.35,214.57 561.36,213.29 560.42,211.94 559.54,210.51 558.71,209.01 557.95,207.43 557.24,205.78 556.60,204.04 556.02,202.22 555.50,200.32 555.05,198.34 554.67,196.26 554.35,194.10 554.10,191.85 553.92,189.52 553.78,184.56 553.78,179.57" fill="none" stroke="#333333" stroke-width="2.6603174603174606" stroke-linecap="butt" stroke-linejoin="miter" />
    <text x="655.4981034027671" y="229.25866111069126" fill="#333333" stroke="none" font-family="Roboto Mono" font-weight="normal" font-size="11.97" text-anchor="middle" dominant-baseline="middle">3</text>
    <polyline points="553.78,159.62 553.78,154.63 553.78,153.70 553.78,152.76 553.78,151.83 553.78,150.89 553.78,149.95 553.78,149.02 553.78,148.08 553.78,147.15 553.78,146.21 553.78,145.28 553.78,144.34 553.78,143.41 553.78,142.47 553.78,141.54 553.78,139.67" fill="none" stroke="#333333" stroke-width="2.6603174603174606" stroke-linecap="butt" stroke-linejoin="miter" />
    <circle cx="553.78" cy="139.67" r="7.98" fill="#c0392b" stroke="none" />
    <polyline points="549.29,139.67 558.27,139.67" fill="none" stroke="#fbfbfb" stroke-width="2.4940476190476195" stroke-linecap="butt" stroke-linejoin="miter" />
    <polyline points="563.76,169.60 568.74,169.60 569.54,169.60 570.50,169.60 571.64,169.60 572.95,169.60 574.42,169.60 576.04,169.60 577.80,169.60 579.71,169.60 581.76,169.60 583.94,169.60 586.25,169.60 588.67,169.60 591.21,169.60 593.86,169.60 596.61,169.60 599.45,169.60 602.39,169.60 605.41,169.60 608.52,169.60 611.70,169.60 614.94,169.60 618.25,169.60 621.62,169.60 625.04,169.60 628.50,169.60 632.00,169.60 635.54,169.60 639.11,169.60 642.69,169.60 646.30,169.60 649.92,169.60 653.54,169.60 657.16,169.60 660.78,169.60 664.39,169.60 667.98,169.60 671.54,169.60 675.08,169.60 678.58,169.60 682.05,169.60 685.47,169.60 688.83,169.60 692.14,169.60 695.39,169.60 698.57,169.60 701.67,169.60 704.69,169.60 707.63,169.60 710.48,169.60 713.23,169.60 715.88,169.60 718.41,169.60 720.84,169.60 723.14,169.60 725.32,169.60 727.37,169.60 729.28,169.60 731.05,169.60 732.67,169.60 734.13,169.60 735.44,169.60 736.58,169.60 738.34,169.60 743.33,169.60" fill="none" stroke="#333333" stroke-width="2.6603174603174606" stroke-linecap="butt" stroke-linejoin="miter" />
    <text x="653.5416666666667" y="179.57142857142856" fill="#333333" stroke="none" font-family="Roboto Mono" font-weight="normal" font-size="11.97" text-anchor="middle" dominant-baseline="middle">2</text>
    <polyline points="763.28,169.60 768.27,169.60 772.60,169.59 776.33,169.57 779.60,169.49 782.53,169.36 785.25,169.13 787.89,168.79 790.59,168.31 793.36,167.68 796.18,166.89 799.00,165.91 801.77,164.74 804.47,163.35 807.03,161.74 809.43,159.89 811.66,157.83 813.69,155.58 815.50,153.15 817.09,150.57 818.43,147.85 819.51,145.02 820.32,142.10 820.86,139.11 821.13,136.09 821.13,133.06 820.85,130.04 820.28,127.06 819.44,124.15 818.34,121.33 816.98,118.62 815.39,116.04 813.56,113.62 811.52,111.38 809.28,109.34 806.86,107.51 804.28,105.92 801.57,104.56 798.75,103.46 795.83,102.62 792.86,102.05 789.84,101.77 786.81,101.76 783.79,102.03 780.80,102.58 777.88,103.39 775.05,104.47 772.33,105.81 769.75,107.40 767.32,109.21 765.07,111.24 763.01,113.47 761.16,115.87 759.55,118.43 758.16,121.12 756.99,123.90 756.01,126.72 755.21,129.53 754.59,132.31 754.11,135.01 753.77,137.65 753.54,140.37 753.40,143.30 753.33,146.56 753.30,154.63 753.30,159.62" fill="none" stroke="#333333" stroke-width="2.6603174603174606" stroke-linecap="butt" stroke-linejoin="miter" />
    <text x="804.4688234185926" y="118.42998610521704" fill="#333333" stroke="none" font-family="Roboto Mono" font-weight="normal" font-size="11.97" text-anchor="middle" dominant-baseline="middle">3</text>
    <polyline points="543.80,169.60 538.82,169.60 533.06,169.68 527.70,169.92 522.72,170.31 518.11,170.85 513.87,171.53 509.97,172.35 506.40,173.29 503.15,174.36 500.21,175.55 497.56,176.85 495.19,178.26 493.09,179.77 491.24,181.37 489.63,183.06 488.25,184.84 487.08,186.69 486.12,188.62 485.34,190.61 484.74,192.66 484.30,194.77 484.01,196.92 483.86,199.12 483.83,201.36 483.91,203.63 484.08,205.92 484.34,208.23 484.67,210.56 485.05,212.89 485.48,215.23 485.94,217.57 486.42,219.89 486.91,222.20 487.38,224.49 487.84,226.76 488.26,228.99 488.63,231.18 488.94,233.33 489.18,235.44 489.33,237.48 489.39,239.47 489.32,241.38 489.14,243.23 488.81,245.00 488.34,246.68 487.73,248.28 486.99,249.81 486.12,251.24 485.13,252.60 484.03,253.87 482.83,255.07 481.52,256.18 480.13,257.20 478.65,258.15 477.09,259.01 475.46,259.79 473.77,260.49 472.02,261.11 470.21,261.64 468.37,262.09 466.48,262.46 464.56,262.75 462.62,262.96 460.66,263.08 458.69,263.12 456.72,263.08 454.75,262.96 452.79,262.75 450.84,262.46 448.92,262.09 447.03,261.64 445.17,261.11 443.36,260.49 441.59,259.79 439.88,259.01 438.24,258.15 436.67,257.20 435.17,256.18 433.76,255.07 432.43,253.87 431.21,252.60 430.08,251.24 429.07,249.81 428.18,248.28 427.41,246.68 426.77,245.00 426.26,243.23 425.89,241.38 425.64,239.47 425.49,237.48 425.44,235.44 425.47,233.33 425.56,231.18 425.72,228.99 425.91,226.76 426.14,224.49 426.39,222.20 426.64,219.89 426.89,217.57 427.12,215.23 427.31,212.89 427.47,210.56 427.56,208.23 427.59,205.92 427.53,203.63 427.39,201.36 427.13,199.12 426.76,196.92 426.25,194.77 425.60,192.66 424.79,190.61 423.82,188.62 422.66,186.69 421.31,184.84 419.75,183.06 417.98,181.37 415.97,179.77 413.71,178.26 411.20,176.85 408.42,175.55 405.36,174.36 402.01,173.29 398.34,172.35 394.36,171.53 390.05,170.85 385.39,170.31 380.37,169.92 369.22,169.60 364.23,169.60" fill="none" stroke="#333333" stroke-width="2.6603174603174606" stroke-linecap="butt" stroke-linejoin="miter" />
    <text x="458.69419642857144" y="273.09821428571433" fill="#333333" stroke="none" font-family="Roboto Mono" font-weight="normal" font-size="11.97" text-anchor="middle" dominant-baseline="middle">5</text>
    <polyline points="344.28,169.60 339.29,169.60 337.82,169.60 336.21,169.60 334.47,169.60 332.61,169.60 330.64,169.60 328.57,169.60 326.41,169.60 324.17,169.60 321.86,169.60 319.48,169.60 317.04,169.60 314.57,169.60 312.05,169.60 309.51,169.60 306.95,169.60 304.38,169.60 301.80,169.60 299.24,169.60 296.70,169.60 294.18,169.60 291.71,169.60 289.27,169.60 286.89,169.60 284.58,169.60 282.34,169.60 280.18,169.60 278.11,169.60 276.14,169.60 274.28,169.60 272.54,169.60 269.46,169.60 264.47,169.60" fill="none" stroke="#333333" stroke-width="2.6603174603174606" stroke-linecap="butt" stroke-linejoin="miter" />
    <text x="304.375" y="179.57142857142856" fill="#333333" stroke="none" font-family="Roboto Mono" font-weight="normal" font-size="11.97" text-anchor="middle" dominant-baseline="middle">1</text>
    <polyline points="254.49,159.62 254.49,154.63 254.57,152.10 254.78,149.65 255.13,147.28 255.61,144.99 256.23,142.78 256.96,140.65 257.81,138.60 258.78,136.63 259.86,134.74 261.04,132.93 262.32,131.20 263.70,129.55 265.17,127.99 266.73,126.50 268.37,125.09 270.08,123.77 271.87,122.52 273.73,121.36 275.65,120.27 277.63,119.27 279.67,118.34 281.75,117.50 283.89,116.73 286.06,116.05 288.27,115.45 290.51,114.93 292.78,114.48 295.07,114.12 297.38,113.84 299.70,113.64 302.04,113.52 304.38,113.48 306.71,113.52 309.05,113.64 311.37,113.84 313.68,114.12 315.97,114.48 318.24,114.93 320.48,115.45 322.69,116.05 324.86,116.73 327.00,117.50 329.08,118.34 331.12,119.27 333.10,120.27 335.02,121.36 336.88,122.52 338.67,123.77 340.38,125.09 342.02,126.50 343.58,127.99 345.05,129.55 346.43,131.20 347.71,132.93 348.89,134.74 349.97,136.63 350.94,138.60 351.79,140.65 352.52,142.78 353.14,144.99 353.62,147.28 353.97,149.65 354.26,154.63 354.26,159.62" fill="none" stroke="#333333" stroke-width="2.6603174603174606" stroke-linecap="butt" stroke-linejoin="miter" />
    <text x="304.3750000000023" y="123.45535714285711" fill="#333333" stroke="none" font-family="Roboto Mono" font-weight="normal" font-size="11.97" text-anchor="middle" dominant-baseline="middle">2</text>
    <polyline points="244.52,169.60 239.53,169.60 238.06,169.60 236.44,169.60 234.70,169.60 232.85,169.60 230.88,169.60 228.81,169.60 226.65,169.60 224.41,169.60 222.09,169.60 219.72,169.60 217.28,169.60 214.80,169.60 212.29,169.60 209.74,169.60 207.18,169.60 204.61,169.60 202.04,169.60 199.48,169.60 196.94,169.60 194.42,169.60 191.94,169.60 189.51,169.60 187.13,169.60 184.82,169.60 182.57,169.60 180.42,169.60 178.35,169.60 176.38,169.60 174.52,169.60 172.78,169.60 169.70,169.60 164.71,169.60" fill="none" stroke="#333333" stroke-width="2.6603174603174606" stroke-linecap="butt" stroke-linejoin="miter" />
    <text x="204.61309523809518" y="179.57142857142856" fill="#333333" stroke="none" font-family="Roboto Mono" font-weight="normal" font-size="11.97" text-anchor="middle" dominant-baseline="middle">1</text>
    <polyline points="154.73,159.62 154.73,154.63 154.73,153.70 154.73,152.76 154.73,151.83 154.73,150.89 154.73,149.95 154.73,149.02 154.73,148.08 154.73,147.15 154.73,146.21 154.73,145.28 154.73,144.34 154.73,143.41 154.73,142.47 154.73,141.54 154.73,139.67" fill="none" stroke="#333333" stroke-width="2.6603174603174606" stroke-linecap="butt" stroke-linejoin="miter" />
    <circle cx="154.73" cy="139.67" r="7.98" fill="#c0392b" stroke="none" />
    <polyline points="150.24,139.67 159.22,139.67" fill="none" stroke="#fbfbfb" stroke-width="2.4940476190476195" stroke-linecap="butt" stroke-linejoin="miter" />
    <polyline points="154.73,179.57 154.73,184.56 154.73,186.03 154.73,187.65 154.73,189.38 154.73,191.24 154.73,193.21 154.73,195.28 154.73,197.44 154.73,199.68 154.73,201.99 154.73,204.37 154.73,206.81 154.73,209.29 154.73,211.80 154.73,214.34 154.73,216.91 154.73,219.48 154.73,222.05 154.73,224.61 154.73,227.15 154.73,229.67 154.73,232.15 154.73,234.58 154.73,236.96 154.73,239.27 154.73,241.51 154.73,243.67 154.73,245.74 154.73,247.71 154.73,249.57 154.73,251.31 154.73,254.39 154.73,259.38" fill="none" stroke="#333333" stroke-width="2.6603174603174606" stroke-linecap="butt" stroke-linejoin="miter" />
    <text x="144.7559523809524" y="219.4761904761906" fill="#333333" stroke="none" font-family="Roboto Mono" font-weight="normal" font-size="11.97" text-anchor="middle" dominant-baseline="middle">1</text>
    <polyline points="144.76,269.36 139.77,269.36 137.24,269.28 134.78,269.07 132.41,268.72 130.12,268.24 127.91,267.63 125.78,266.89 123.73,266.04 121.76,265.07 119.88,263.99 118.07,262.81 116.34,261.53 114.69,260.15 113.12,258.68 111.64,257.12 110.23,255.49 108.90,253.77 107.66,251.98 106.49,250.12 105.41,248.20 104.40,246.22 103.48,244.18 102.63,242.10 101.87,239.96 101.19,237.79 100.59,235.58 100.06,233.34 99.62,231.07 99.26,228.78 98.98,226.47 98.78,224.15 98.66,221.81 98.62,219.48 98.66,217.14 98.78,214.81 98.98,212.48 99.26,210.17 99.62,207.88 100.06,205.61 100.59,203.37 101.19,201.16 101.87,198.99 102.63,196.86 103.48,194.77 104.40,192.73 105.41,190.75 106.49,188.83 107.66,186.97 108.90,185.18 110.23,183.47 111.64,181.83 113.12,180.27 114.69,178.80 116.34,177.42 118.07,176.14 119.88,174.96 121.76,173.88 123.73,172.91 125.78,172.06 127.91,171.33 130.12,170.72 132.41,170.23 134.78,169.88 139.77,169.60 144.76,169.60" fill="none" stroke="#333333" stroke-width="2.6603174603174606" stroke-linecap="butt" stroke-linejoin="miter" />
    <text x="88.63988095238096" y="219.4761904761882" fill="#333333" stroke="none" font-family="Roboto Mono" font-weight="normal" font-size="11.97" text-anchor="middle" dominant-baseline="middle">2</text>
    <polyline points="254.49,179.57 254.49,184.56 254.49,185.35 254.49,186.32 254.49,187.46 254.49,188.77 254.49,190.23 254.49,191.85 254.49,193.62 254.49,195.53 254.49,197.58 254.49,199.76 254.49,202.06 254.49,204.49 254.49,207.02 254.49,209.67 254.49,212.42 254.49,215.27 254.49,218.21 254.49,221.23 254.49,224.33 254.49,227.51 254.49,230.76 254.49,234.07 254.49,237.43 254.49,240.85 254.49,244.31 254.49,247.82 254.49,251.36 254.49,254.92 254.49,258.51 254.49,262.12 254.49,265.73 254.49,269.36 254.49,272.98 254.49,276.60 254.49,280.20 254.49,283.79 254.49,287.36 254.49,290.90 254.49,294.40 254.49,297.86 254.49,301.28 254.49,304.65 254.49,307.96 254.49,311.20 254.49,314.38 254.49,317.48 254.49,320.51 254.49,323.45 254.49,326.29 254.49,329.04 254.49,331.69 254.49,334.23 254.49,336.65 254.49,338.96 254.49,341.14 254.49,343.18 254.49,345.10 254.49,346.86 254.49,348.48 254.49,349.95 254.49,351.25 254.49,352.39 254.49,354.15 254.49,359.14" fill="none" stroke="#333333" stroke-width="2.6603174603174606" stroke-linecap="butt" stroke-linejoin="miter" />
    <text x="244.5178571428571" y="269.3571428571429" fill="#333333" stroke="none" font-family="Roboto Mono" font-weight="normal" font-size="11.97" text-anchor="middle" dominant-baseline="middle">1</text>
    <polyline points="264.47,369.12 269.46,369.12 270.93,369.12 272.54,369.12 274.28,369.12 276.14,369.12 278.11,369.12 280.18,369.12 282.34,369.12 284.58,369.12 286.89,369.12 289.27,369.12 291.71,369.12 294.18,369.12 296.70,369.12 299.24,369.12 301.80,369.12 304.38,369.12 306.95,369.12 309.51,369.12 312.05,369.12 314.57,369.12 317.04,369.12 319.48,369.12 321.86,369.12 324.17,369.12 326.41,369.12 328.57,369.12 330.64,369.12 332.61,369.12 334.47,369.12 336.21,369.12 339.29,369.12 344.28,369.12" fill="none" stroke="#333333" stroke-width="2.6603174603174606" stroke-linecap="butt" stroke-linejoin="miter" />
    <text x="300.09948979591843" y="379.09523809523813" fill="#333333" stroke="none" font-family="Roboto Mono" font-weight="normal" font-size="11.97" text-anchor="middle" dominant-baseline="middle">3</text>
    <text x="308.6505102040817" y="379.09523809523813" fill="#333333" stroke="none" font-family="Roboto Mono" font-weight="normal" font-size="11.97" text-anchor="middle" dominant-baseline="middle">6</text>
    <polyline points="354.26,379.10 354.26,384.08 354.26,385.56 354.26,387.17 354.26,388.91 354.26,390.77 354.26,392.73 354.26,394.80 354.26,396.96 354.26,399.20 354.26,401.52 354.26,403.90 354.26,406.33 354.26,408.81 354.26,411.33 354.26,413.87 354.26,416.43 354.26,419.00 354.26,421.57 354.26,424.13 354.26,426.67 354.26,429.19 354.26,431.67 354.26,434.10 354.26,436.48 354.26,438.80 354.26,441.04 354.26,443.20 354.26,445.27 354.26,447.23 354.26,449.09 354.26,450.83 354.26,453.92 354.26,458.90" fill="none" stroke="#333333" stroke-width="2.6603174603174606" stroke-linecap="butt" stroke-linejoin="miter" />
    <text x="344.27976190476204" y="419.00000000000006" fill="#333333" stroke="none" font-family="Roboto Mono" font-weight="normal" font-size="11.97" text-anchor="middle" dominant-baseline="middle">2</text>
    <polyline points="344.28,468.88 339.29,468.88 335.67,468.85 332.29,468.75 329.13,468.60 326.16,468.39 323.39,468.13 320.79,467.82 318.34,467.48 316.03,467.09 313.84,466.68 311.77,466.22 309.78,465.74 307.89,465.22 306.06,464.66 304.29,464.06 302.56,463.42 300.87,462.74 299.19,462.02 297.53,461.26 295.89,460.46 294.27,459.62 292.67,458.74 291.10,457.82 289.54,456.87 288.01,455.87 286.51,454.84 285.03,453.77 283.58,452.67 282.15,451.53 280.76,450.35 279.39,449.14 278.05,447.90 276.75,446.63 275.47,445.32 274.23,443.98 273.02,442.62 271.85,441.22 270.71,439.80 269.60,438.35 268.53,436.87 267.50,435.36 266.51,433.83 265.55,432.28 264.63,430.70 263.75,429.10 262.91,427.48 262.11,425.84 261.35,424.19 260.63,422.51 259.95,420.81 259.32,419.09 258.72,417.32 258.16,415.49 257.64,413.59 257.15,411.61 256.70,409.53 256.28,407.35 255.90,405.04 255.55,402.59 255.25,399.98 254.99,397.21 254.78,394.25 254.62,391.08 254.49,384.08 254.49,379.10" fill="none" stroke="#333333" stroke-width="2.6603174603174606" stroke-linecap="butt" stroke-linejoin="miter" />
    <text x="265.4178572509095" y="453.68163254501303" fill="#333333" stroke="none" font-family="Roboto Mono" font-weight="normal" font-size="11.97" text-anchor="middle" dominant-baseline="middle">3</text>
    <text x="273.96887765907275" y="453.68163254501303" fill="#333333" stroke="none" font-family="Roboto Mono" font-weight="normal" font-size="11.97" text-anchor="middle" dominant-baseline="middle">8</text>
    <polyline points="264.47,668.40 269.46,668.40 273.51,668.36 277.27,668.24 280.76,668.05 283.99,667.79 287.01,667.47 289.81,667.09 292.44,666.67 294.91,666.20 297.24,665.69 299.45,665.13 301.56,664.53 303.58,663.89 305.54,663.19 307.46,662.44 309.35,661.64 311.22,660.79 313.06,659.88 314.88,658.93 316.67,657.93 318.43,656.87 320.17,655.77 321.87,654.63 323.54,653.43 325.17,652.19 326.77,650.91 328.34,649.58 329.86,648.21 331.35,646.79 332.80,645.34 334.21,643.85 335.58,642.31 336.90,640.75 338.18,639.14 339.42,637.50 340.61,635.83 341.75,634.12 342.85,632.39 343.89,630.62 344.89,628.83 345.84,627.01 346.74,625.16 347.58,623.29 348.38,621.40 349.12,619.49 349.81,617.55 350.44,615.60 351.02,613.63 351.55,611.65 352.02,609.65 352.44,607.64 352.80,605.50 353.11,602.90 353.37,599.46 353.59,594.80 353.77,588.54 353.91,580.33 354.03,569.78 354.11,556.83 354.17,542.38 354.21,527.45 354.24,513.09 354.25,500.34 354.26,483.85 354.26,478.86" fill="none" stroke="#333333" stroke-width="2.6603174603174606" stroke-linecap="butt" stroke-linejoin="miter" />
    <text x="329.1899007592035" y="634.4165159256243" fill="#333333" stroke="none" font-family="Roboto Mono" font-weight="normal" font-size="11.97" text-anchor="middle" dominant-baseline="middle">4</text>
    <polyline points="244.52,668.40 239.53,668.40 238.06,668.40 236.44,668.40 234.70,668.40 232.85,668.40 230.88,668.40 228.81,668.40 226.65,668.40 224.41,668.40 222.09,668.40 219.72,668.40 217.28,668.40 214.80,668.40 212.29,668.40 209.74,668.40 207.18,668.40 204.61,668.40 202.04,668.40 199.48,668.40 196.94,668.40 194.42,668.40 191.94,668.40 189.51,668.40 187.13,668.40 184.82,668.40 182.57,668.40 180.42,668.40 178.35,668.40 176.38,668.40 174.52,668.40 172.78,668.40 169.70,668.40 164.71,668.40" fill="none" stroke="#e74c3c" stroke-width="2.6603174603174606" stroke-linecap="butt" stroke-linejoin="miter" />
    <text x="204.61309523809518" y="678.3809523809525" fill="#333333" stroke="none" font-family="Roboto Mono" font-weight="normal" font-size="11.97" text-anchor="middle" dominant-baseline="middle">1</text>
    <circle cx="204.61" cy="653.44" r="6.98" fill="#e74c3c" stroke="none" />
    <text x="204.61309523809518" y="653.4404761904764" fill="#fbfbfb" stroke="none" font-family="Roboto Mono" font-weight="normal" font-size="11.97" text-anchor="middle" dominant-baseline="middle">C</text>
    <polyline points="154.73,658.43 154.73,653.44 154.73,651.97 154.73,650.35 154.73,648.62 154.73,646.76 154.73,644.79 154.73,642.72 154.73,640.56 154.73,638.32 154.73,636.01 154.73,633.63 154.73,631.19 154.73,628.71 154.73,626.20 154.73,623.66 154.73,621.09 154.73,618.52 154.73,615.95 154.73,613.39 154.73,610.85 154.73,608.33 154.73,605.85 154.73,603.42 154.73,601.04 154.73,598.73 154.73,596.49 154.73,594.33 154.73,592.26 154.73,590.29 154.73,588.43 154.73,586.69 154.73,583.61 154.73,578.62" fill="none" stroke="#e74c3c" stroke-width="2.6603174603174606" stroke-linecap="butt" stroke-linejoin="miter" />
    <text x="144.7559523809524" y="618.5238095238096" fill="#333333" stroke="none" font-family="Roboto Mono" font-weight="normal" font-size="11.97" text-anchor="middle" dominant-baseline="middle">1</text>
    <circle cx="169.70" cy="618.52" r="6.98" fill="#e74c3c" stroke="none" />
    <text x="169.69642857142856" y="618.5238095238096" fill="#fbfbfb" stroke="none" font-family="Roboto Mono" font-weight="normal" font-size="11.97" text-anchor="middle" dominant-baseline="middle">C</text>
    <polyline points="254.49,658.43 254.49,653.44 254.46,649.82 254.37,646.44 254.21,643.27 254.00,640.31 253.74,637.54 253.44,634.94 253.09,632.49 252.71,630.18 252.29,627.99 251.84,625.91 251.35,623.93 250.83,622.04 250.27,620.21 249.67,618.44 249.03,616.71 248.36,615.01 247.64,613.34 246.88,611.68 246.08,610.04 245.24,608.42 244.36,606.82 243.44,605.24 242.48,603.69 241.49,602.16 240.45,600.66 239.38,599.18 238.28,597.73 237.14,596.30 235.96,594.91 234.76,593.54 233.51,592.20 232.24,590.90 230.93,589.62 229.60,588.38 228.23,587.17 226.83,586.00 225.41,584.86 223.96,583.75 222.48,582.68 220.97,581.65 219.45,580.66 217.89,579.70 216.32,578.78 214.72,577.90 213.10,577.06 211.46,576.26 209.80,575.50 208.12,574.78 206.43,574.10 204.70,573.47 202.93,572.87 201.10,572.31 199.20,571.79 197.22,571.30 195.15,570.85 192.96,570.43 190.65,570.05 188.20,569.70 185.60,569.40 182.82,569.14 179.86,568.93 176.70,568.77 169.70,568.64 164.71,568.64" fill="none" stroke="#e74c3c" stroke-width="2.6603174603174606" stroke-linecap="butt" stroke-linejoin="miter" />
    <text x="225.1862639108581" y="597.9506408510426" fill="#333333" stroke="none" font-family="Roboto Mono" font-weight="normal" font-size="11.97" text-anchor="middle" dominant-baseline="middle">1</text>
    <circle cx="242.82" cy="580.32" r="6.98" fill="#e74c3c" stroke="none" />
    <text x="242.8218437511706" y="580.3150610107405" fill="#fbfbfb" stroke="none" font-family="Roboto Mono" font-weight="normal" font-size="11.97" text-anchor="middle" dominant-baseline="middle">C</text>
    <polyline points="154.73,279.33 154.73,284.32 154.68,285.19 154.51,286.05 154.24,286.90 153.86,287.74 153.39,288.57 152.82,289.39 152.17,290.20 151.43,291.00 150.61,291.80 149.71,292.58 148.73,293.36 147.69,294.13 146.58,294.89 145.41,295.65 144.19,296.40 142.91,297.14 141.58,297.88 140.21,298.62 138.80,299.34 137.35,300.07 135.87,300.79 134.36,301.51 132.82,302.22 131.27,302.93 129.70,303.64 128.12,304.35 126.53,305.05 124.93,305.76 123.34,306.46 121.75,307.16 120.17,307.86 118.60,308.56 117.05,309.27 115.52,309.97 114.02,310.67 112.54,311.38 111.10,312.09 109.69,312.80 108.32,313.51 107.00,314.22 105.73,314.94 104.51,315.67 103.36,316.39 102.26,317.13 101.22,317.86 100.26,318.60 99.37,319.35 98.56,320.11 97.83,320.87 97.19,321.63 96.64,322.41 96.18,323.19 95.81,323.98 95.54,324.78 95.36,325.58 95.26,326.39 95.25,327.21 95.33,328.03 95.49,328.86 95.72,329.70 96.04,330.54 96.44,331.39 96.90,332.25 97.45,333.11 98.06,333.98 98.74,334.85 99.50,335.73 100.31,336.61 101.19,337.50 102.14,338.40 103.14,339.30 104.20,340.20 105.32,341.11 106.49,342.02 107.71,342.93 108.99,343.86 110.32,344.78 111.69,345.71 113.11,346.64 114.57,347.57 116.07,348.51 117.61,349.45 119.19,350.40 120.81,351.35 122.46,352.30 124.14,353.25 125.86,354.21 127.60,355.16 129.37,356.12 131.16,357.09 132.98,358.05 134.82,359.01 136.67,359.98 138.55,360.95 140.44,361.92 142.34,362.89 144.26,363.86 146.19,364.83 148.12,365.81 150.06,366.78 152.01,367.76 153.95,368.73 155.90,369.70 157.85,370.68 159.79,371.65 161.73,372.63 163.66,373.61 165.58,374.59 167.49,375.57 169.38,376.55 171.25,377.54 173.11,378.53 174.94,379.52 176.75,380.52 178.54,381.52 180.30,382.52 182.02,383.54 183.72,384.55 185.38,385.57 187.00,386.60 188.58,387.64 190.12,388.68 191.62,389.73 193.07,390.79 194.48,391.85 195.83,392.93 197.13,394.01 198.38,395.10 199.57,396.20 200.70,397.31 201.76,398.43 202.77,399.56 203.71,400.71 204.58,401.86 205.38,403.03 206.10,404.20 206.76,405.39 207.33,406.60 207.83,407.81 208.24,409.04 208.57,410.29 208.81,411.55 208.97,412.82 209.03,414.11 209.01,415.41 208.88,416.73 208.66,418.07 208.34,419.42 207.92,420.79 207.40,422.17 206.77,423.58 206.03,425.00 205.18,426.44 204.21,427.90 203.14,429.38 201.96,430.87 200.67,432.39 199.29,433.92 197.81,435.47 196.24,437.03 194.58,438.61 192.85,440.21 191.03,441.81 189.15,443.44 187.20,445.07 185.18,446.72 183.11,448.38 180.99,450.05 178.81,451.74 176.59,453.43 174.33,455.13 172.03,456.84 169.70,458.57 167.35,460.30 164.97,462.03 162.57,463.78 160.16,465.53 157.74,467.29 155.32,469.05 152.90,470.81 150.48,472.59 148.07,474.36 145.68,476.14 143.30,477.92 140.94,479.70 138.61,481.49 136.32,483.27 134.06,485.06 131.84,486.85 129.66,488.63 127.54,490.42 125.47,492.20 123.45,493.98 121.50,495.75 119.62,497.53 117.81,499.30 116.08,501.06 114.42,502.82 112.86,504.57 111.38,506.32 110.00,508.06 108.71,509.80 107.53,511.52 106.46,513.24 105.50,514.95 104.65,516.64 103.92,518.33 103.30,520.01 102.78,521.67 102.37,523.32 102.05,524.96 101.83,526.58 101.71,528.18 101.67,529.77 101.72,531.34 101.86,532.89 102.07,534.42 102.37,535.93 102.73,537.41 103.17,538.88 103.68,540.32 104.25,541.73 104.89,543.13 105.58,544.49 106.33,545.83 107.13,547.14 107.98,548.42 108.87,549.67 109.81,550.88 110.79,552.07 111.80,553.22 112.85,554.34 113.93,555.43 115.03,556.48 116.16,557.49 117.31,558.46 118.48,559.40 119.66,560.30 120.85,561.15 122.05,561.97 123.25,562.74 124.46,563.47 125.67,564.16 126.87,564.80 128.06,565.40 129.24,565.94 130.41,566.44 131.56,566.90 132.69,567.30 133.80,567.65 134.88,567.95 135.93,568.20 136.95,568.39 137.93,568.53 139.77,568.64 144.76,568.64" fill="none" stroke="#e74c3c" stroke-width="2.6603174603174606" stroke-linecap="butt" stroke-linejoin="miter" />
    <text x="191.70412004442267" y="402.5138313926025" fill="#333333" stroke="none" font-family="Roboto Mono" font-weight="normal" font-size="11.97" text-anchor="middle" dominant-baseline="middle">2</text>
    <circle cx="208.39" cy="383.98" r="6.98" fill="#e74c3c" stroke="none" />
    <text x="208.38876040955643" y="383.9760287047471" fill="#fbfbfb" stroke="none" font-family="Roboto Mono" font-weight="normal" font-size="11.97" text-anchor="middle" dominant-baseline="middle">C</text>
    <polyline points="753.30,678.38 753.30,683.37 753.27,685.90 753.16,688.35 752.98,690.73 752.73,693.03 752.41,695.25 752.03,697.40 751.58,699.48 751.06,701.48 750.48,703.41 749.84,705.28 749.14,707.08 748.37,708.81 747.55,710.47 746.67,712.07 745.73,713.61 744.73,715.09 743.68,716.51 742.58,717.86 741.42,719.16 740.21,720.41 738.95,721.60 737.65,722.73 736.29,723.81 734.89,724.84 733.44,725.82 731.95,726.75 730.42,727.64 728.84,728.47 727.22,729.26 725.56,730.01 723.86,730.72 722.13,731.38 720.36,732.00 718.55,732.59 716.71,733.13 714.83,733.64 712.93,734.12 710.99,734.56 709.02,734.97 707.03,735.34 705.00,735.69 702.96,736.01 700.88,736.30 698.78,736.56 696.66,736.80 694.52,737.02 692.36,737.21 690.17,737.38 687.97,737.53 685.75,737.66 683.52,737.78 681.27,737.88 679.01,737.96 676.73,738.03 674.45,738.09 672.15,738.13 669.84,738.17 667.53,738.19 665.21,738.21 662.88,738.22 660.55,738.23 658.22,738.24 655.88,738.24 653.54,738.24 651.20,738.24 648.87,738.24 646.53,738.23 644.20,738.22 641.87,738.21 639.55,738.19 637.24,738.17 634.93,738.13 632.64,738.09 630.35,738.03 628.08,737.96 625.81,737.88 623.56,737.78 621.33,737.66 619.11,737.53 616.91,737.38 614.73,737.21 612.56,737.02 610.42,736.80 608.30,736.56 606.20,736.30 604.13,736.01 602.08,735.69 600.06,735.34 598.06,734.97 596.09,734.56 594.16,734.12 592.25,733.64 590.38,733.13 588.53,732.59 586.73,732.00 584.96,731.38 583.22,730.72 581.52,730.01 579.86,729.26 578.25,728.47 576.67,727.64 575.13,726.75 573.64,725.82 572.19,724.84 570.79,723.81 569.44,722.73 568.13,721.60 566.87,720.41 565.66,719.16 564.51,717.86 563.40,716.51 562.35,715.09 561.36,713.61 560.42,712.07 559.54,710.47 558.71,708.81 557.95,707.08 557.24,705.28 556.60,703.41 556.02,701.48 555.50,699.48 555.05,697.40 554.67,695.25 554.35,693.03 554.10,690.73 553.92,688.35 553.78,683.37 553.78,678.38" fill="none" stroke="#333333" stroke-width="2.6603174603174606" stroke-linecap="butt" stroke-linejoin="miter" />
    <text x="653.5416666666667" y="748.2142857142859" fill="#333333" stroke="none" font-family="Roboto Mono" font-weight="normal" font-size="11.97" text-anchor="middle" dominant-baseline="middle">2</text>
    <polyline points="553.78,658.43 553.78,653.44 553.78,651.97 553.78,650.35 553.78,648.62 553.78,646.76 553.78,644.79 553.78,642.72 553.78,640.56 553.78,638.32 553.78,636.01 553.78,633.63 553.78,631.19 553.78,628.71 553.78,626.20 553.78,623.66 553.78,621.09 553.78,618.52 553.78,615.95 553.78,613.39 553.78,610.85 553.78,608.33 553.78,605.85 553.78,603.42 553.78,601.04 553.78,598.73 553.78,596.49 553.78,594.33 553.78,592.26 553.78,590.29 553.78,588.43 553.78,586.69 553.78,583.61 553.78,578.62" fill="none" stroke="#9b59b6" stroke-width="2.6603174603174606" stroke-linecap="butt" stroke-linejoin="miter" />
    <text x="543.8035714285716" y="618.5238095238096" fill="#333333" stroke="none" font-family="Roboto Mono" font-weight="normal" font-size="11.97" text-anchor="middle" dominant-baseline="middle">1</text>
    <circle cx="568.74" cy="618.52" r="6.98" fill="#9b59b6" stroke="none" />
    <text x="568.7440476190477" y="618.5238095238096" fill="#fbfbfb" stroke="none" font-family="Roboto Mono" font-weight="normal" font-size="11.97" text-anchor="middle" dominant-baseline="middle">D</text>
    <polyline points="563.76,668.40 568.74,668.40 571.28,668.33 573.73,668.12 576.10,667.77 578.39,667.28 580.60,666.67 582.73,665.94 584.78,665.09 586.75,664.12 588.64,663.04 590.45,661.86 592.17,660.58 593.82,659.20 595.39,657.73 596.88,656.17 598.28,654.53 599.61,652.82 600.85,651.03 602.02,649.17 603.10,647.25 604.11,645.27 605.03,643.23 605.88,641.14 606.64,639.01 607.32,636.84 607.93,634.63 608.45,632.39 608.89,630.12 609.25,627.83 609.53,625.52 609.74,623.19 609.86,620.86 609.90,618.52 609.86,616.19 609.74,613.85 609.53,611.53 609.25,609.22 608.89,606.93 608.45,604.66 607.93,602.42 607.32,600.21 606.64,598.04 605.88,595.90 605.03,593.82 604.11,591.78 603.10,589.80 602.02,587.88 600.85,586.02 599.61,584.23 598.28,582.51 596.88,580.88 595.39,579.32 593.82,577.85 592.17,576.47 590.45,575.19 588.64,574.01 586.75,572.93 584.78,571.96 582.73,571.11 580.60,570.37 578.39,569.76 576.10,569.28 573.73,568.93 568.74,568.64 563.76,568.64" fill="none" stroke="#9b59b6" stroke-width="2.6603174603174606" stroke-linecap="butt" stroke-linejoin="miter" />
    <text x="599.9196428571429" y="618.5238095238074" fill="#333333" stroke="none" font-family="Roboto Mono" font-weight="normal" font-size="11.97" text-anchor="middle" dominant-baseline="middle">3</text>
    <circle cx="624.86" cy="618.52" r="6.98" fill="#9b59b6" stroke="none" />
    <text x="624.860119047619" y="618.5238095238132" fill="#fbfbfb" stroke="none" font-family="Roboto Mono" font-weight="normal" font-size="11.97" text-anchor="middle" dominant-baseline="middle">D</text>
    <polyline points="543.80,568.64 538.82,568.64 533.86,568.57 529.27,568.36 525.04,568.01 521.15,567.52 517.60,566.91 514.36,566.18 511.44,565.32 508.81,564.36 506.47,563.28 504.39,562.10 502.58,560.81 501.02,559.44 499.70,557.97 498.61,556.41 497.72,554.77 497.04,553.06 496.55,551.27 496.24,549.41 496.09,547.49 496.10,545.50 496.24,543.47 496.53,541.38 496.92,539.25 497.43,537.08 498.03,534.87 498.71,532.63 499.47,530.36 500.28,528.07 501.15,525.76 502.04,523.43 502.97,521.10 503.90,518.76 504.83,516.42 505.75,514.09 506.65,511.77 507.51,509.46 508.33,507.17 509.08,504.90 509.77,502.66 510.37,500.45 510.87,498.27 511.27,496.14 511.55,494.06 511.70,492.02 511.71,490.04 511.56,488.12 511.25,486.26 510.76,484.47 510.08,482.75 509.19,481.11 508.10,479.56 506.77,478.09 505.21,476.71 503.40,475.43 501.33,474.24 498.99,473.17 496.36,472.20 493.43,471.35 490.20,470.61 486.65,470.00 482.76,469.52 478.53,469.17 468.98,468.88 463.99,468.88" fill="none" stroke="#9b59b6" stroke-width="2.6603174603174606" stroke-linecap="butt" stroke-linejoin="miter" />
    <text x="494.6361117264489" y="515.0569343258552" fill="#333333" stroke="none" font-family="Roboto Mono" font-weight="normal" font-size="11.97" text-anchor="middle" dominant-baseline="middle">1</text>
    <circle cx="517.79" cy="524.32" r="6.98" fill="#9b59b6" stroke="none" />
    <text x="517.7928562198506" y="524.3193604159793" fill="#fbfbfb" stroke="none" font-family="Roboto Mono" font-weight="normal" font-size="11.97" text-anchor="middle" dominant-baseline="middle">D</text>
    <polyline points="543.80,668.40 538.82,668.40 534.76,668.36 531.00,668.24 527.52,668.05 524.28,667.79 521.27,667.47 518.46,667.09 515.83,666.67 513.37,666.20 511.04,665.69 508.83,665.13 506.72,664.53 504.69,663.89 502.73,663.19 500.81,662.44 498.92,661.64 497.05,660.79 495.21,659.88 493.39,658.93 491.60,657.93 489.84,656.87 488.11,655.77 486.41,654.63 484.74,653.43 483.10,652.19 481.50,650.91 479.94,649.58 478.41,648.21 476.92,646.79 475.47,645.34 474.06,643.85 472.70,642.31 471.37,640.75 470.09,639.14 468.86,637.50 467.67,635.83 466.52,634.12 465.43,632.39 464.38,630.62 463.38,628.83 462.44,627.01 461.54,625.16 460.69,623.29 459.90,621.40 459.16,619.49 458.47,617.55 457.83,615.60 457.25,613.63 456.73,611.65 456.25,609.65 455.84,607.64 455.48,605.50 455.17,602.90 454.90,599.46 454.68,594.80 454.50,588.54 454.36,580.33 454.25,569.78 454.16,556.83 454.10,542.38 454.06,527.45 454.04,513.09 454.02,500.34 454.02,483.85 454.02,478.86" fill="none" stroke="#9b59b6" stroke-width="2.6603174603174606" stroke-linecap="butt" stroke-linejoin="miter" />
    <text x="463.6605097189404" y="647.0741724048897" fill="#333333" stroke="none" font-family="Roboto Mono" font-weight="normal" font-size="11.97" text-anchor="middle" dominant-baseline="middle">2</text>
    <circle cx="482.94" cy="631.25" r="6.98" fill="#9b59b6" stroke="none" />
    <text x="482.9397585260176" y="631.2521018058019" fill="#fbfbfb" stroke="none" font-family="Roboto Mono" font-weight="normal" font-size="11.97" text-anchor="middle" dominant-baseline="middle">D</text>
    <polyline points="454.02,458.90 454.02,453.92 454.01,449.58 453.99,445.85 453.92,442.59 453.78,439.66 453.55,436.94 453.21,434.29 452.73,431.60 452.11,428.82 451.31,426.00 450.34,423.18 449.16,420.41 447.77,417.72 446.16,415.15 444.32,412.75 442.26,410.53 440.00,408.50 437.57,406.68 434.99,405.10 432.27,403.75 429.44,402.67 426.52,401.86 423.54,401.32 420.51,401.05 417.48,401.06 414.46,401.34 411.49,401.90 408.58,402.74 405.75,403.84 403.04,405.20 400.46,406.80 398.04,408.62 395.80,410.66 393.76,412.90 391.93,415.32 390.34,417.90 388.98,420.61 387.88,423.44 387.04,426.35 386.48,429.33 386.19,432.35 386.19,435.38 386.46,438.40 387.00,441.38 387.81,444.30 388.89,447.13 390.23,449.85 391.82,452.43 393.64,454.86 395.66,457.12 397.89,459.18 400.29,461.02 402.86,462.64 405.55,464.02 408.32,465.20 411.14,466.18 413.96,466.97 416.73,467.60 419.43,468.07 422.07,468.41 424.80,468.64 427.72,468.78 430.99,468.85 439.05,468.88 444.04,468.88" fill="none" stroke="#9b59b6" stroke-width="2.6603174603174606" stroke-linecap="butt" stroke-linejoin="miter" />
    <text x="402.8526051528348" y="417.715700390933" fill="#333333" stroke="none" font-family="Roboto Mono" font-weight="normal" font-size="11.97" text-anchor="middle" dominant-baseline="middle">1</text>
    <circle cx="385.22" cy="400.08" r="6.98" fill="#9b59b6" stroke="none" />
    <text x="385.21702531253095" y="400.080120550622" fill="#fbfbfb" stroke="none" font-family="Roboto Mono" font-weight="normal" font-size="11.97" text-anchor="middle" dominant-baseline="middle">D</text>
    <polyline points="254.49,678.38 254.49,683.37 254.49,684.99 254.49,686.60 254.48,688.18 254.47,689.74 254.45,691.28 254.41,692.79 254.36,694.28 254.30,695.75 254.22,697.20 254.11,698.62 253.99,700.02 253.84,701.40 253.66,702.75 253.45,704.08 253.21,705.39 252.94,706.67 252.62,707.93 252.27,709.17 251.88,710.38 251.45,711.57 250.97,712.73 250.44,713.87 249.86,714.98 249.23,716.07 248.55,717.14 247.81,718.18 247.00,719.20 246.14,720.19 245.21,721.15 244.22,722.09 243.16,723.01 242.02,723.90 240.82,724.76 239.54,725.60 238.18,726.41 236.74,727.20 235.22,727.96 233.61,728.69 231.92,729.40 230.14,730.08 228.27,730.74 226.30,731.37 224.24,731.97 222.08,732.54 219.82,733.09 217.45,733.61 214.98,734.11 212.41,734.57 209.72,735.01 206.92,735.43 204.01,735.81 200.98,736.17 197.84,736.50 194.57,736.80 191.18,737.07 187.66,737.31 184.02,737.53 180.24,737.72 176.33,737.88 172.29,738.01 168.11,738.11 163.80,738.18 154.73,738.24" fill="none" stroke="#333333" stroke-width="2.6603174603174606" stroke-linecap="butt" stroke-linejoin="miter" />
    <circle cx="154.73" cy="738.24" r="7.98" fill="#c0392b" stroke="none" />
    <polyline points="150.24,738.24 159.22,738.24" fill="none" stroke="#fbfbfb" stroke-width="2.4940476190476195" stroke-linecap="butt" stroke-linejoin="miter" />
    <polyline points="763.28,269.36 768.27,269.36 769.20,269.36 770.14,269.36 771.07,269.36 772.01,269.36 772.94,269.36 773.88,269.36 774.81,269.36 775.75,269.36 776.69,269.36 777.62,269.36 778.56,269.36 779.49,269.36 780.43,269.36 781.36,269.36 783.23,269.36" fill="none" stroke="#f1c40f" stroke-width="2.6603174603174606" stroke-linecap="butt" stroke-linejoin="miter" />
    <circle cx="783.23" cy="269.36" r="7.98" fill="#c0392b" stroke="none" />
    <polyline points="778.74,269.36 787.72,269.36" fill="none" stroke="#fbfbfb" stroke-width="2.4940476190476195" stroke-linecap="butt" stroke-linejoin="miter" />
    <circle cx="775.75" cy="254.39" r="6.98" fill="#f1c40f" stroke="none" />
    <text x="775.7500000000002" y="254.39285714285722" fill="#333333" stroke="none" font-family="Roboto Mono" font-weight="normal" font-size="11.97" text-anchor="middle" dominant-baseline="middle">A</text>
    <polyline points="763.28,468.88 768.27,468.88 769.20,468.88 770.14,468.88 771.07,468.88 772.01,468.88 772.94,468.88 773.88,468.88 774.81,468.88 775.75,468.88 776.69,468.88 777.62,468.88 778.56,468.88 779.49,468.88 780.43,468.88 781.36,468.88 783.23,468.88" fill="none" stroke="#1abc9c" stroke-width="2.6603174603174606" stroke-linecap="butt" stroke-linejoin="miter" />
    <circle cx="783.23" cy="468.88" r="7.98" fill="#c0392b" stroke="none" />
    <polyline points="778.74,468.88 787.72,468.88" fill="none" stroke="#fbfbfb" stroke-width="2.4940476190476195" stroke-linecap="butt" stroke-linejoin="miter" />
    <circle cx="775.75" cy="453.92" r="6.98" fill="#1abc9c" stroke="none" />
    <text x="775.7500000000002" y="453.9166666666667" fill="#fbfbfb" stroke="none" font-family="Roboto Mono" font-weight="normal" font-size="11.97" text-anchor="middle" dominant-baseline="middle">E</text>
    <polyline points="763.28,668.40 768.27,668.40 769.20,668.40 770.14,668.40 771.07,668.40 772.01,668.40 772.94,668.40 773.88,668.40 774.81,668.40 775.75,668.40 776.69,668.40 777.62,668.40 778.56,668.40 779.49,668.40 780.43,668.40 781.36,668.40 783.23,668.40" fill="none" stroke="#333333" stroke-width="2.6603174603174606" stroke-linecap="butt" stroke-linejoin="miter" />
    <polygon points="778.24,668.40 804.18,676.19 798.99,668.40 804.18,660.62" fill="#333333" stroke="none" />
    <text x="809.1702380952381" y="668.404761904762" fill="#333333" stroke="none" font-family="Roboto Mono" font-weight="normal" font-size="11.97" text-anchor="middle" dominant-baseline="middle">W</text>
    <polyline points="166.70,176.58 174.39,176.58" fill="none" stroke="#333333" stroke-width="1.7292063492063496" stroke-linecap="butt" stroke-linejoin="miter" />
    <polygon points="177.68,176.58 173.29,173.51 173.29,179.65" fill="#333333" stroke="none" />
    <polyline points="261.48,357.15 261.48,349.47" fill="none" stroke="#333333" stroke-width="1.7292063492063496" stroke-linecap="butt" stroke-linejoin="miter" />
    <polygon points="261.48,346.17 258.40,350.56 264.55,350.56" fill="#333333" stroke="none" />
    <polyline points="760.29,456.91 760.29,449.23" fill="none" stroke="#333333" stroke-width="1.7292063492063496" stroke-linecap="butt" stroke-linejoin="miter" />
    <polygon points="760.29,445.94 757.21,450.33 763.36,450.33" fill="#333333" stroke="none" />
    <polygon points="743.33,478.86 763.28,478.86 763.28,458.90 743.33,458.90" fill="#c0392b" stroke="none" />
    <polygon points="743.33,678.38 763.28,678.38 763.28,658.43 743.33,658.43" fill="#c0392b" stroke="none" />
    <polygon points="643.57,478.86 663.52,478.86 663.52,458.90 643.57,458.90" fill="#2980b9" stroke="none" />
    <polygon points="543.80,379.10 563.76,379.10 563.76,359.14 543.80,359.14" fill="#2980b9" stroke="none" />
    <polygon points="743.33,379.10 763.28,379.10 763.28,359.14 743.33,359.14" fill="#2980b9" stroke="none" />
    <polygon points="743.33,279.33 763.28,279.33 763.28,259.38 743.33,259.38" fill="#c0392b" stroke="none" />
    <polygon points="543.80,279.33 563.76,279.33 563.76,259.38 543.80,259.38" fill="#c0392b" stroke="none" />
    <polygon points="543.80,179.57 563.76,179.57 563.76,159.62 543.80,159.62" fill="#2980b9" stroke="none" />
    <polygon points="743.33,179.57 763.28,179.57 763.28,159.62 743.33,159.62" fill="#2980b9" stroke="none" />
    <polygon points="344.28,179.57 364.23,179.57 364.23,159.62 344.28,159.62" fill="#2980b9" stroke="none" />
    <polygon points="244.52,179.57 264.47,179.57 264.47,159.62 244.52,159.62" fill="#c0392b" stroke="none" />
    <polygon points="144.76,179.57 164.71,179.57 164.71,159.62 144.76,159.62" fill="#2980b9" stroke="none" />
    <polygon points="144.76,279.33 164.71,279.33 164.71,259.38 144.76,259.38" fill="#c0392b" stroke="none" />
    <polygon points="244.52,379.10 264.47,379.10 264.47,359.14 244.52,359.14" fill="#c0392b" stroke="none" />
    <polygon points="344.28,379.10 364.23,379.10 364.23,359.14 344.28,359.14" fill="#2980b9" stroke="none" />
    <polygon points="344.28,478.86 364.23,478.86 364.23,458.90 344.28,458.90" fill="#c0392b" stroke="none" />
    <polygon points="244.52,678.38 264.47,678.38 264.47,658.43 244.52,658.43" fill="#2980b9" stroke="none" />
    <polygon points="144.76,678.38 164.71,678.38 164.71,658.43 144.76,658.43" fill="#c0392b" stroke="none" />
    <polygon points="144.76,578.62 164.71,578.62 164.71,558.67 144.76,558.67" fill="#2980b9" stroke="none" />
    <polygon points="543.80,678.38 563.76,678.38 563.76,658.43 543.80,658.43" fill="#c0392b" stroke="none" />
    <polygon points="543.80,578.62 563.76,578.62 563.76,558.67 543.80,558.67" fill="#2980b9" stroke="none" />
    <polygon points="444.04,478.86 463.99,478.86 463.99,458.90 444.04,458.90" fill="#2980b9" stroke="none" />
    <circle cx="254.49" cy="169.60" r="6.98" fill="#f1c40f" stroke="none" />
    <text x="254.4940476190476" y="169.59523809523807" fill="#333333" stroke="none" font-family="Roboto Mono" font-weight="normal" font-size="11.97" text-anchor="middle" dominant-baseline="middle">A</text>
    <circle cx="354.26" cy="468.88" r="6.98" fill="#2ecc71" stroke="none" />
    <text x="354.2559523809524" y="468.88095238095246" fill="#fbfbfb" stroke="none" font-family="Roboto Mono" font-weight="normal" font-size="11.97" text-anchor="middle" dominant-baseline="middle">B</text>
    <text x="30" y="768.1666666666667" fill="#a3a3a3" stroke="none" font-family="Roboto Mono" font-weight="normal" font-size="16.00" text-anchor="middle" dominant-baseline="middle">1</text>
    <text x="30" y="668.404761904762" fill="#a3a3a3" stroke="none" font-family="Roboto Mono" font-weight="normal" font-size="16.00" text-anchor="middle" dominant-baseline="middle">2</text>
    <text x="30" y="568.6428571428572" fill="#a3a3a3" stroke="none" font-family="Roboto Mono" font-weight="normal" font-size="16.00" text-anchor="middle" dominant-baseline="middle">3</text>
    <text x="30" y="468.88095238095246" fill="#a3a3a3" stroke="none" font-family="Roboto Mono" font-weight="normal" font-size="16.00" text-anchor="middle" dominant-baseline="middle">4</text>
    <text x="30" y="369.11904761904765" fill="#a3a3a3" stroke="none" font-family="Roboto Mono" font-weight="normal" font-size="16.00" text-anchor="middle" dominant-baseline="middle">5</text>
    <text x="30" y="269.3571428571429" fill="#a3a3a3" stroke="none" font-family="Roboto Mono" font-weight="normal" font-size="16.00" text-anchor="middle" dominant-baseline="middle">6</text>
    <text x="30" y="169.59523809523807" fill="#a3a3a3" stroke="none" font-family="Roboto Mono" font-weight="normal" font-size="16.00" text-anchor="middle" dominant-baseline="middle">7</text>
    <text x="30" y="69.83333333333337" fill="#a3a3a3" stroke="none" font-family="Roboto Mono" font-weight="normal" font-size="16.00" text-anchor="middle" dominant-baseline="middle">8</text>
    <text x="54.970238095238074" y="808.0000000000001" fill="#a3a3a3" stroke="none" font-family="Roboto Mono" font-weight="normal" font-size="16.00" text-anchor="middle" dominant-baseline="middle">6</text>
    <text x="154.7321428571429" y="808.0000000000001" fill="#a3a3a3" stroke="none" font-family="Roboto Mono" font-weight="normal" font-size="16.00" text-anchor="middle" dominant-baseline="middle">7</text>
    <text x="254.4940476190476" y="808.0000000000001" fill="#a3a3a3" stroke="none" font-family="Roboto Mono" font-weight="normal" font-size="16.00" text-anchor="middle" dominant-baseline="middle">8</text>
    <text x="354.2559523809524" y="808.0000000000001" fill="#a3a3a3" stroke="none" font-family="Roboto Mono" font-weight="normal" font-size="16.00" text-anchor="middle" dominant-baseline="middle">9</text>
    <text x="454.0178571428572" y="808.0000000000001" fill="#a3a3a3" stroke="none" font-family="Roboto Mono" font-weight="normal" font-size="16.00" text-anchor="middle" dominant-baseline="middle">10</text>
    <text x="553.7797619047619" y="808.0000000000001" fill="#a3a3a3" stroke="none" font-family="Roboto Mono" font-weight="normal" font-size="16.00" text-anchor="middle" dominant-baseline="middle">11</text>
    <text x="653.5416666666667" y="808.0000000000001" fill="#a3a3a3" stroke="none" font-family="Roboto Mono" font-weight="normal" font-size="16.00" text-anchor="middle" dominant-baseline="middle">12</text>
    <text x="753.3035714285713" y="808.0000000000001" fill="#a3a3a3" stroke="none" font-family="Roboto Mono" font-weight="normal" font-size="16.00" text-anchor="middle" dominant-baseline="middle">13</text>
    <text x="853.0654761904764" y="808.0000000000001" fill="#a3a3a3" stroke="none" font-family="Roboto Mono" font-weight="normal" font-size="16.00" text-anchor="middle" dominant-baseline="middle">14</text>
    <circle cx="879.00" cy="44.00" r="24.00" fill="rgba(51, 51, 51, 0.25)" stroke="none" />
    <polygon points="879.00,24.00 887.00,44.00 871.00,44.00" fill="#c0392b" stroke="none" />
    <polygon points="879.00,64.00 887.00,44.00 871.00,44.00" fill="rgba(51, 51, 51, 0.8)" stroke="none" />
    <polygon points="876.85,43.00 875.65,43.00 875.65,35.00 876.85,35.00 881.15,41.00 881.15,35.00 882.35,35.00 882.35,43.00 881.15,43.00 876.85,37.00" fill="#ffffff" stroke="none" />
</svg>
