<?xml version="1.0" encoding="UTF-8"?>
<svg version="1.1" xmlns="http://www.w3.org/2000/svg" viewBox="0 0 298.00 328.00">
<style type="text/css">
@font-face {
  font-family: 'Roboto Mono';
  font-style: normal;
  font-weight: 400;
  font-display: swap;
  src: local('Roboto Mono'), local('RobotoMono-Regular'), url(https://fonts.gstatic.com/s/robotomono/v7/L0x5DF4xlVMF-BfR8bXMIjhLq38.woff2) format('woff2');
  unicode-range: U+0000-00FF, U+0131, U+0152-0153, U+02BB-02BC, U+02C6, U+02DA, U+02DC, U+2000-206F, U+2074, U+20AC, U+2122, U+2191, U+2193, U+2212, U+2215, U+FEFF, U+FFFD;
}
@font-face {
  font-family: 'Roboto Mono';
  font-style: normal;
  font-weight: 700;
  font-display: swap;
  src: local('Roboto Mono Bold'), local('RobotoMono-Bold'), url(https://fonts.gstatic.com/s/robotomono/v7/L0xkDF4xlVMF-BfR8bXMIjDwjmqxf78.woff2) format('woff2');
  unicode-range: U+0000-00FF, U+0131, U+0152-0153, U+02BB-02BC, U+02C6, U+02DA, U+02DC, U+2000-206F, U+2074, U+20AC, U+2122, U+2191, U+2193, U+2212, U+2215, U+FEFF, U+FFFD;
}
</style>
    <rect x="0" y="0" width="298" height="328" fill="#eeeeee" stroke="none" />
    <polygon points="0.00,327.90 298.00,327.90 298.00,0.10 0.00,0.10" fill="#fbfbfb" stroke="none" />
    <polyline points="0.00,298.10 298.00,298.10" fill="none" stroke="#d2d2d2" stroke-width="1" stroke-linecap="butt" stroke-linejoin="miter" />
    <polyline points="0.00,198.77 298.00,198.77" fill="none" stroke="#d2d2d2" stroke-width="1" stroke-linecap="butt" stroke-linejoin="miter" />
    <polyline points="0.00,99.43 298.00,99.43" fill="none" stroke="#d2d2d2" stroke-width="1" stroke-linecap="butt" stroke-linejoin="miter" />
    <polyline points="0.00,0.10 298.00,0.10" fill="none" stroke="#d2d2d2" stroke-width="1" stroke-linecap="butt" stroke-linejoin="miter" />
    <polyline points="0.00,328.00 0.00,0.00" fill="none" stroke="#d2d2d2" stroke-width="1" stroke-linecap="butt" stroke-linejoin="miter" />
    <polyline points="99.33,328.00 99.33,0.00" fill="none" stroke="#d2d2d2" stroke-width="1" stroke-linecap="butt" stroke-linejoin="miter" />
    <polyline points="198.67,328.00 198.67,0.00" fill="none" stroke="#d2d2d2" stroke-width="1" stroke-linecap="butt" stroke-linejoin="miter" />
    <polyline points="298.00,328.00 298.00,0.00" fill="none" stroke="#d2d2d2" stroke-width="1" stroke-linecap="butt" stroke-linejoin="miter" />
    <path d="M 216.55,91.49 A 9.93 9.93 0 0 0 206.61,81.55" fill="none" stroke="#f1c40f" stroke-width="2.648888888888889" stroke-linecap="butt" stroke-linejoin="miter" />
    <path d="M 224.00,91.49 A 17.38 17.38 0 0 0 206.61,74.10" fill="none" stroke="#f1c40f" stroke-width="2.648888888888889" stroke-linecap="butt" stroke-linejoin="miter" />
    <path d="M 231.45,91.49 A 24.83 24.83 0 0 0 206.61,66.65" fill="none" stroke="#f1c40f" stroke-width="2.648888888888889" stroke-linecap="butt" stroke-linejoin="miter" />
    <circle cx="231.20" cy="66.90" r="6.95" fill="#f1c40f" stroke="none" />
    <text x="231.19707909258562" y="66.90292090741434" fill="#333333" stroke="none" font-family="Roboto Mono" font-weight="normal" font-size="11.92" text-anchor="middle" dominant-baseline="middle">A</text>
    <polyline points="198.67,188.83 198.67,183.87 198.67,182.40 198.67,180.79 198.67,179.06 198.67,177.21 198.67,175.25 198.67,173.19 198.67,171.04 198.67,168.81 198.67,166.51 198.67,164.14 198.67,161.72 198.67,159.25 198.67,156.74 198.67,154.21 198.67,151.66 198.67,149.10 198.67,146.54 198.67,143.99 198.67,141.46 198.67,138.95 198.67,136.48 198.67,134.06 198.67,131.69 198.67,129.39 198.67,127.16 198.67,125.01 198.67,122.95 198.67,120.99 198.67,119.14 198.67,117.41 198.67,114.33 198.67,109.37" fill="none" stroke="#333333" stroke-width="2.648888888888889" stroke-linecap="butt" stroke-linejoin="miter" />
    <text x="188.73333333333332" y="149.1" fill="#333333" stroke="none" font-family="Roboto Mono" font-weight="normal" font-size="11.92" text-anchor="middle" dominant-baseline="middle">1</text>
    <polyline points="188.73,99.43 183.77,99.43 180.16,99.47 176.80,99.56 173.64,99.72 170.70,99.92 167.93,100.18 165.34,100.49 162.90,100.83 160.60,101.21 158.43,101.63 156.36,102.08 154.39,102.56 152.50,103.08 150.68,103.64 148.91,104.24 147.20,104.87 145.51,105.55 143.84,106.26 142.18,107.02 140.55,107.81 138.94,108.65 137.35,109.53 135.78,110.44 134.23,111.39 132.71,112.39 131.21,113.41 129.74,114.48 128.29,115.58 126.87,116.71 125.48,117.88 124.12,119.09 122.79,120.32 121.49,121.59 120.22,122.89 118.99,124.22 117.78,125.58 116.61,126.97 115.48,128.39 114.38,129.84 113.31,131.31 112.29,132.81 111.29,134.33 110.34,135.88 109.43,137.45 108.55,139.04 107.71,140.65 106.92,142.28 106.16,143.94 105.45,145.61 104.77,147.30 104.14,149.01 103.54,150.78 102.98,152.60 102.46,154.49 101.98,156.46 101.53,158.53 101.11,160.70 100.73,163.00 100.39,165.44 100.08,168.03 99.82,170.80 99.62,173.74 99.46,176.90 99.33,183.87 99.33,188.83" fill="none" stroke="#333333" stroke-width="2.648888888888889" stroke-linecap="butt" stroke-linejoin="miter" />
    <text x="128.51521248143757" y="128.61521248143808" fill="#333333" stroke="none" font-family="Roboto Mono" font-weight="normal" font-size="11.92" text-anchor="middle" dominant-baseline="middle">2</text>
    <polyline points="99.33,208.70 99.33,213.67 99.33,214.60 99.33,215.53 99.33,216.46 99.33,217.39 99.33,218.32 99.33,219.25 99.33,220.19 99.33,221.12 99.33,222.05 99.33,222.98 99.33,223.91 99.33,224.84 99.33,225.77 99.33,226.70 99.33,228.57" fill="none" stroke="#f1c40f" stroke-width="2.648888888888889" stroke-linecap="butt" stroke-linejoin="miter" />
    <circle cx="99.33" cy="228.57" r="7.95" fill="#c0392b" stroke="none" />
    <polyline points="94.86,228.57 103.80,228.57" fill="none" stroke="#fbfbfb" stroke-width="2.4833333333333334" stroke-linecap="butt" stroke-linejoin="miter" />
    <circle cx="114.23" cy="221.12" r="6.95" fill="#f1c40f" stroke="none" />
    <text x="114.23333333333333" y="221.11666666666665" fill="#333333" stroke="none" font-family="Roboto Mono" font-weight="normal" font-size="11.92" text-anchor="middle" dominant-baseline="middle">A</text>
    <polyline points="198.67,208.70 198.67,213.67 198.67,214.60 198.67,215.53 198.67,216.46 198.67,217.39 198.67,218.32 198.67,219.25 198.67,220.19 198.67,221.12 198.67,222.05 198.67,222.98 198.67,223.91 198.67,224.84 198.67,225.77 198.67,226.70 198.67,228.57" fill="none" stroke="#333333" stroke-width="2.648888888888889" stroke-linecap="butt" stroke-linejoin="miter" />
    <polygon points="198.67,223.60 190.92,249.43 198.67,244.26 206.41,249.43" fill="#333333" stroke="none" />
    <text x="198.66666666666666" y="254.39333333333332" fill="#333333" stroke="none" font-family="Roboto Mono" font-weight="normal" font-size="11.92" text-anchor="middle" dominant-baseline="middle">N</text>
    <polygon points="188.73,208.70 208.60,208.70 208.60,188.83 188.73,188.83" fill="#2980b9" stroke="none" />
    <polygon points="188.73,109.37 208.60,109.37 208.60,89.50 188.73,89.50" fill="#c0392b" stroke="none" />
    <polygon points="89.40,208.70 109.27,208.70 109.27,188.83 89.40,188.83" fill="#c0392b" stroke="none" />
    <text x="30" y="198.76666666666665" fill="#a3a3a3" stroke="none" font-family="Roboto Mono" font-weight="normal" font-size="16.00" text-anchor="middle" dominant-baseline="middle">0</text>
    <text x="30" y="99.43333333333332" fill="#a3a3a3" stroke="none" font-family="Roboto Mono" font-weight="normal" font-size="16.00" text-anchor="middle" dominant-baseline="middle">1</text>
    <text x="30" y="0.09999999999999432" fill="#a3a3a3" stroke="none" font-family="Roboto Mono" font-weight="normal" font-size="16.00" text-anchor="middle" dominant-baseline="middle">2</text>
    <text x="0" y="298" fill="#a3a3a3" stroke="none" font-family="Roboto Mono" font-weight="normal" font-size="16.00" text-anchor="middle" dominant-baseline="middle">-2</text>
    <text x="99.33333333333333" y="298" fill="#a3a3a3" stroke="none" font-family="Roboto Mono" font-weight="normal" font-size="16.00" text-anchor="middle" dominant-baseline="middle">-1</text>
    <text x="198.66666666666666" y="298" fill="#a3a3a3" stroke="none" font-family="Roboto Mono" font-weight="normal" font-size="16.00" text-anchor="middle" dominant-baseline="middle">0</text>
    <text x="298" y="298" fill="#a3a3a3" stroke="none" font-family="Roboto Mono" font-weight="normal" font-size="16.00" text-anchor="middle" dominant-baseline="middle">1</text>
    <circle cx="254.00" cy="44.00" r="24.00" fill="rgba(51, 51, 51, 0.25)" stroke="none" />
    <polygon points="254.00,24.00 262.00,44.00 246.00,44.00" fill="#c0392b" stroke="none" />
    <polygon points="254.00,64.00 262.00,44.00 246.00,44.00" fill="rgba(51, 51, 51, 0.8)" stroke="none" />
    <polygon points="251.85,43.00 250.65,43.00 250.65,35.00 251.85,35.00 256.15,41.00 256.15,35.00 257.35,35.00 257.35,43.00 256.15,43.00 251.85,37.00" fill="#ffffff" stroke="none" />
</svg>
