<?xml version="1.0" encoding="UTF-8"?>
<svg version="1.1" xmlns="http://www.w3.org/2000/svg" viewBox="0 0 458.00 633.00">
<style type="text/css">
@font-face {
  font-family: 'Roboto Mono';
  font-style: normal;
  font-weight: 400;
  font-display: swap;
  src: local('Roboto Mono'), local('RobotoMono-Regular'), url(https://fonts.gstatic.com/s/robotomono/v7/L0x5DF4xlVMF-BfR8bXMIjhLq38.woff2) format('woff2');
  unicode-range: U+0000-00FF, U+0131, U+0152-0153, U+02BB-02BC, U+02C6, U+02DA, U+02DC, U+2000-206F, U+2074, U+20AC, U+2122, U+2191, U+2193, U+2212, U+2215, U+FEFF, U+FFFD;
}
@font-face {
  font-family: 'Roboto Mono';
  font-style: normal;
  font-weight: 700;
  font-display: swap;
  src: local('Roboto Mono Bold'), local('RobotoMono-Bold'), url(https://fonts.gstatic.com/s/robotomono/v7/L0xkDF4xlVMF-BfR8bXMIjDwjmqxf78.woff2) format('woff2');
  unicode-range: U+0000-00FF, U+0131, U+0152-0153, U+02BB-02BC, U+02C6, U+02DA, U+02DC, U+2000-206F, U+2074, U+20AC, U+2122, U+2191, U+2193, U+2212, U+2215, U+FEFF, U+FFFD;
}
</style>
    <rect x="0" y="0" width="458" height="633" fill="#eeeeee" stroke="none" />
    <polygon points="0.00,632.62 458.00,632.62 458.00,0.38 0.00,0.38" fill="#fbfbfb" stroke="none" />
    <polyline points="0.00,632.62 458.00,632.62" fill="none" stroke="#d2d2d2" stroke-width="1" stroke-linecap="butt" stroke-linejoin="miter" />
    <polyline points="0.00,533.05 458.00,533.05" fill="none" stroke="#d2d2d2" stroke-width="1" stroke-linecap="butt" stroke-linejoin="miter" />
    <polyline points="0.00,433.49 458.00,433.49" fill="none" stroke="#d2d2d2" stroke-width="1" stroke-linecap="butt" stroke-linejoin="miter" />
    <polyline points="0.00,333.92 458.00,333.92" fill="none" stroke="#d2d2d2" stroke-width="1" stroke-linecap="butt" stroke-linejoin="miter" />
    <polyline points="0.00,234.36 458.00,234.36" fill="none" stroke="#d2d2d2" stroke-width="1" stroke-linecap="butt" stroke-linejoin="miter" />
    <polyline points="0.00,134.79 458.00,134.79" fill="none" stroke="#d2d2d2" stroke-width="1" stroke-linecap="butt" stroke-linejoin="miter" />
    <polyline points="0.00,35.23 458.00,35.23" fill="none" stroke="#d2d2d2" stroke-width="1" stroke-linecap="butt" stroke-linejoin="miter" />
    <polyline points="0.00,633.00 0.00,0.00" fill="none" stroke="#d2d2d2" stroke-width="1" stroke-linecap="butt" stroke-linejoin="miter" />
    <polyline points="99.57,633.00 99.57,0.00" fill="none" stroke="#d2d2d2" stroke-width="1" stroke-linecap="butt" stroke-linejoin="miter" />
    <polyline points="199.13,633.00 199.13,0.00" fill="none" stroke="#d2d2d2" stroke-width="1" stroke-linecap="butt" stroke-linejoin="miter" />
    <polyline points="298.70,633.00 298.70,0.00" fill="none" stroke="#d2d2d2" stroke-width="1" stroke-linecap="butt" stroke-linejoin="miter" />
    <polyline points="398.26,633.00 398.26,0.00" fill="none" stroke="#d2d2d2" stroke-width="1" stroke-linecap="butt" stroke-linejoin="miter" />
    <circle cx="298.70" cy="234.36" r="24.89" fill="#f1c40f" stroke="none" />
    <path d="M 217.05,325.96 A 9.96 9.96 0 0 0 207.10,316.00" fill="none" stroke="#f1c40f" stroke-width="2.6550724637681165" stroke-linecap="butt" stroke-linejoin="miter" />
    <path d="M 224.52,325.96 A 17.42 17.42 0 0 0 207.10,308.53" fill="none" stroke="#f1c40f" stroke-width="2.6550724637681165" stroke-linecap="butt" stroke-linejoin="miter" />
    <path d="M 231.99,325.96 A 24.89 24.89 0 0 0 207.10,301.07" fill="none" stroke="#f1c40f" stroke-width="2.6550724637681165" stroke-linecap="butt" stroke-linejoin="miter" />
    <polygon points="229.93,294.59 238.47,303.12 241.59,291.46" fill="#f1c40f" stroke="none" />
    <circle cx="231.74" cy="301.32" r="6.97" fill="#f1c40f" stroke="none" />
    <text x="231.7367863096095" y="301.31756151647744" fill="#333333" stroke="none" font-family="Roboto Mono" font-weight="normal" font-size="11.95" text-anchor="middle" dominant-baseline="middle">A</text>
    <path d="M 217.05,525.09 A 9.96 9.96 0 0 0 207.10,515.13" fill="none" stroke="#2ecc71" stroke-width="2.6550724637681165" stroke-linecap="butt" stroke-linejoin="miter" />
    <path d="M 224.52,525.09 A 17.42 17.42 0 0 0 207.10,507.67" fill="none" stroke="#2ecc71" stroke-width="2.6550724637681165" stroke-linecap="butt" stroke-linejoin="miter" />
    <path d="M 231.99,525.09 A 24.89 24.89 0 0 0 207.10,500.20" fill="none" stroke="#2ecc71" stroke-width="2.6550724637681165" stroke-linecap="butt" stroke-linejoin="miter" />
    <circle cx="231.74" cy="500.45" r="6.97" fill="#2ecc71" stroke="none" />
    <text x="231.7367863096095" y="500.44799629908624" fill="#fbfbfb" stroke="none" font-family="Roboto Mono" font-weight="normal" font-size="11.95" text-anchor="middle" dominant-baseline="middle">B</text>
    <path d="M 117.49,425.52 A 9.96 9.96 0 0 0 107.53,415.57" fill="none" stroke="#e74c3c" stroke-width="2.6550724637681165" stroke-linecap="butt" stroke-linejoin="miter" />
    <path d="M 124.95,425.52 A 17.42 17.42 0 0 0 107.53,408.10" fill="none" stroke="#e74c3c" stroke-width="2.6550724637681165" stroke-linecap="butt" stroke-linejoin="miter" />
    <path d="M 132.42,425.52 A 24.89 24.89 0 0 0 107.53,400.63" fill="none" stroke="#e74c3c" stroke-width="2.6550724637681165" stroke-linecap="butt" stroke-linejoin="miter" />
    <circle cx="132.17" cy="400.88" r="6.97" fill="#e74c3c" stroke="none" />
    <text x="132.17156891830516" y="400.8827789077818" fill="#fbfbfb" stroke="none" font-family="Roboto Mono" font-weight="normal" font-size="11.95" text-anchor="middle" dominant-baseline="middle">C</text>
    <polyline points="189.17,333.92 184.20,333.92 182.72,333.92 181.12,333.92 179.38,333.92 177.53,333.92 175.56,333.92 173.50,333.92 171.34,333.92 169.11,333.92 166.80,333.92 164.42,333.92 161.99,333.92 159.52,333.92 157.01,333.92 154.47,333.92 151.91,333.92 149.35,333.92 146.78,333.92 144.23,333.92 141.69,333.92 139.18,333.92 136.70,333.92 134.27,333.92 131.90,333.92 129.59,333.92 127.35,333.92 125.20,333.92 123.13,333.92 121.17,333.92 119.32,333.92 117.58,333.92 114.50,333.92 109.52,333.92" fill="none" stroke="#2ecc71" stroke-width="2.6550724637681165" stroke-linecap="butt" stroke-linejoin="miter" />
    <text x="149.34782608695653" y="343.88043478260863" fill="#333333" stroke="none" font-family="Roboto Mono" font-weight="normal" font-size="11.95" text-anchor="middle" dominant-baseline="middle">2</text>
    <circle cx="149.35" cy="318.99" r="6.97" fill="#2ecc71" stroke="none" />
    <text x="149.34782608695653" y="318.9891304347825" fill="#fbfbfb" stroke="none" font-family="Roboto Mono" font-weight="normal" font-size="11.95" text-anchor="middle" dominant-baseline="middle">B</text>
    <polyline points="298.70,224.40 298.70,219.42 298.70,214.14 298.74,209.45 298.84,205.29 299.05,201.59 299.38,198.30 299.88,195.35 300.57,192.67 301.50,190.20 302.68,187.87 304.16,185.64 305.97,183.42 308.11,181.17 310.50,178.86 313.10,176.46 315.82,173.93 318.61,171.25 321.40,168.38 324.12,165.29 326.71,161.96 329.11,158.35 331.24,154.43 333.05,150.17 334.49,145.63 335.55,140.87 336.21,136.00 336.44,131.09 336.22,126.24 335.54,121.52 334.37,117.03 332.69,112.84 330.49,109.06 327.74,105.75 324.43,103.00 320.65,100.80 316.46,99.12 311.97,97.95 307.25,97.27 302.40,97.05 297.49,97.28 292.62,97.94 287.86,99.00 283.32,100.44 279.06,102.25 275.14,104.38 271.53,106.77 268.20,109.37 265.11,112.09 262.24,114.88 259.56,117.67 257.03,120.39 254.63,122.99 252.32,125.38 250.07,127.51 247.85,129.32 245.61,130.81 243.29,131.99 240.82,132.92 238.14,133.61 235.19,134.11 231.90,134.44 228.20,134.65 224.04,134.75 214.07,134.79 209.09,134.79" fill="none" stroke="#333333" stroke-width="2.6550724637681165" stroke-linecap="butt" stroke-linejoin="miter" />
    <text x="320.6951832076054" y="112.79394722717495" fill="#333333" stroke="none" font-family="Roboto Mono" font-weight="normal" font-size="11.95" text-anchor="middle" dominant-baseline="middle">4</text>
    <polyline points="298.70,244.32 298.70,249.29 298.70,251.94 298.70,254.58 298.70,257.23 298.70,259.87 298.70,262.52 298.70,265.16 298.70,267.81 298.70,270.45 298.70,273.10 298.70,275.74 298.70,278.39 298.70,281.03 298.70,283.67 298.70,286.32 298.70,288.96 298.70,291.61 298.70,294.25 298.70,296.90 298.70,299.54 298.70,302.19 298.70,304.83 298.70,307.48 298.70,310.12 298.70,312.77 298.70,315.41 298.70,318.06 298.70,320.70 298.70,323.35 298.70,325.99 298.70,328.63 298.70,333.92" fill="none" stroke="#333333" stroke-width="2.6550724637681165" stroke-linecap="butt" stroke-linejoin="miter" />
    <circle cx="298.70" cy="333.92" r="7.97" fill="#c0392b" stroke="none" />
    <polyline points="294.22,333.92 303.18,333.92" fill="none" stroke="#fbfbfb" stroke-width="2.4891304347826093" stroke-linecap="butt" stroke-linejoin="miter" />
    <polyline points="209.09,333.92 214.07,333.92 216.71,333.92 219.35,333.92 222.00,333.92 224.64,333.92 227.29,333.92 229.93,333.92 232.58,333.92 235.22,333.92 237.87,333.92 240.51,333.92 243.16,333.92 245.80,333.92 248.45,333.92 251.09,333.92 253.74,333.92 256.38,333.92 259.03,333.92 261.67,333.92 264.31,333.92 266.96,333.92 269.60,333.92 272.25,333.92 274.89,333.92 277.54,333.92 280.18,333.92 282.83,333.92 285.47,333.92 288.12,333.92 290.76,333.92 293.41,333.92 298.70,333.92" fill="none" stroke="#e74c3c" stroke-width="2.6550724637681165" stroke-linecap="butt" stroke-linejoin="miter" />
    <circle cx="298.70" cy="333.92" r="7.97" fill="#c0392b" stroke="none" />
    <polyline points="294.22,333.92 303.18,333.92" fill="none" stroke="#fbfbfb" stroke-width="2.4891304347826093" stroke-linecap="butt" stroke-linejoin="miter" />
    <circle cx="256.38" cy="318.99" r="6.97" fill="#e74c3c" stroke="none" />
    <text x="256.38043478260875" y="318.9891304347825" fill="#fbfbfb" stroke="none" font-family="Roboto Mono" font-weight="normal" font-size="11.95" text-anchor="middle" dominant-baseline="middle">C</text>
    <polyline points="308.65,433.49 313.63,433.49 318.97,433.36 323.81,432.97 328.18,432.33 332.09,431.43 335.58,430.29 338.67,428.91 341.38,427.29 343.73,425.44 345.76,423.36 347.49,421.05 348.93,418.52 350.12,415.77 351.08,412.83 351.84,409.69 352.41,406.37 352.83,402.89 353.12,399.26 353.30,395.49 353.40,391.58 353.45,387.56 353.46,383.44 353.46,379.23 353.46,374.93 353.46,370.56 353.46,366.12 353.46,361.63 353.46,357.09 353.46,352.50 353.46,347.89 353.46,343.25 353.46,338.59 353.46,333.92 353.46,329.26 353.46,324.60 353.46,319.96 353.46,315.34 353.46,310.76 353.46,306.22 353.46,301.72 353.46,297.29 353.46,292.92 353.46,288.62 353.46,284.41 353.45,280.28 353.40,276.26 353.30,272.36 353.12,268.59 352.83,264.95 352.41,261.47 351.84,258.16 351.08,255.02 350.12,252.08 348.93,249.33 347.49,246.80 345.76,244.49 343.73,242.41 341.38,240.56 338.67,238.94 335.58,237.55 332.09,236.42 328.18,235.52 323.81,234.88 313.63,234.36 308.65,234.36" fill="none" stroke="#333333" stroke-width="2.6550724637681165" stroke-linecap="butt" stroke-linejoin="miter" />
    <text x="343.5" y="333.92391304347825" fill="#333333" stroke="none" font-family="Roboto Mono" font-weight="normal" font-size="11.95" text-anchor="middle" dominant-baseline="middle">3</text>
    <polyline points="288.74,533.05 283.76,533.05 282.29,533.05 280.68,533.05 278.95,533.05 277.09,533.05 275.13,533.05 273.06,533.05 270.91,533.05 268.67,533.05 266.36,533.05 263.99,533.05 261.56,533.05 259.08,533.05 256.57,533.05 254.03,533.05 251.48,533.05 248.91,533.05 246.35,533.05 243.79,533.05 241.25,533.05 238.74,533.05 236.27,533.05 233.84,533.05 231.47,533.05 229.16,533.05 226.92,533.05 224.76,533.05 222.70,533.05 220.74,533.05 218.88,533.05 217.15,533.05 214.07,533.05 209.09,533.05" fill="none" stroke="#333333" stroke-width="2.6550724637681165" stroke-linecap="butt" stroke-linejoin="miter" />
    <text x="248.91304347826087" y="543.0108695652174" fill="#333333" stroke="none" font-family="Roboto Mono" font-weight="normal" font-size="11.95" text-anchor="middle" dominant-baseline="middle">1</text>
    <polyline points="99.57,323.97 99.57,318.99 99.57,312.60 99.57,302.52 99.58,289.80 99.61,275.47 99.65,260.57 99.71,246.14 99.79,233.23 99.91,222.70 100.05,214.50 100.23,208.26 100.45,203.61 100.71,200.17 101.02,197.57 101.38,195.44 101.80,193.43 102.27,191.44 102.79,189.46 103.37,187.49 104.01,185.55 104.69,183.62 105.43,181.71 106.23,179.82 107.07,177.95 107.97,176.11 108.91,174.29 109.91,172.50 110.95,170.74 112.05,169.01 113.19,167.31 114.37,165.64 115.61,164.00 116.89,162.40 118.21,160.83 119.57,159.30 120.98,157.81 122.42,156.36 123.91,154.95 125.43,153.58 126.99,152.26 128.59,150.98 130.22,149.74 131.89,148.55 133.59,147.40 135.32,146.30 137.08,145.25 138.86,144.25 140.68,143.30 142.52,142.40 144.38,141.55 146.27,140.75 148.18,140.00 150.14,139.30 152.16,138.66 154.27,138.06 156.47,137.50 158.80,136.99 161.26,136.53 163.88,136.10 166.68,135.73 169.69,135.41 172.92,135.15 176.40,134.96 184.20,134.79 189.17,134.79" fill="none" stroke="#2ecc71" stroke-width="2.6550724637681165" stroke-linecap="butt" stroke-linejoin="miter" />
    <text x="109.1888588229483" y="156.08201305487114" fill="#333333" stroke="none" font-family="Roboto Mono" font-weight="normal" font-size="11.95" text-anchor="middle" dominant-baseline="middle">2</text>
    <circle cx="128.43" cy="171.87" r="6.97" fill="#2ecc71" stroke="none" />
    <text x="128.4300972816505" y="171.87288936720608" fill="#fbfbfb" stroke="none" font-family="Roboto Mono" font-weight="normal" font-size="11.95" text-anchor="middle" dominant-baseline="middle">B</text>
    <polyline points="199.13,144.75 199.13,149.73 199.13,150.52 199.13,151.49 199.13,152.62 199.13,153.93 199.13,155.39 199.13,157.01 199.13,158.77 199.13,160.68 199.13,162.72 199.13,164.89 199.13,167.19 199.13,169.61 199.13,172.15 199.13,174.79 199.13,177.53 199.13,180.38 199.13,183.31 199.13,186.33 199.13,189.42 199.13,192.60 199.13,195.84 199.13,199.14 199.13,202.50 199.13,205.91 199.13,209.37 199.13,212.86 199.13,216.39 199.13,219.95 199.13,223.53 199.13,227.13 199.13,230.74 199.13,234.36 199.13,237.97 199.13,241.59 199.13,245.18 199.13,248.77 199.13,252.33 199.13,255.86 199.13,259.35 199.13,262.81 199.13,266.22 199.13,269.58 199.13,272.88 199.13,276.12 199.13,279.29 199.13,282.39 199.13,285.41 199.13,288.34 199.13,291.18 199.13,293.93 199.13,296.57 199.13,299.10 199.13,301.52 199.13,303.82 199.13,306.00 199.13,308.04 199.13,309.95 199.13,311.71 199.13,313.33 199.13,314.79 199.13,316.09 199.13,317.23 199.13,318.99 199.13,323.97" fill="none" stroke="#333333" stroke-width="2.6550724637681165" stroke-linecap="butt" stroke-linejoin="miter" />
    <text x="189.17391304347828" y="234.35869565217388" fill="#333333" stroke="none" font-family="Roboto Mono" font-weight="normal" font-size="11.95" text-anchor="middle" dominant-baseline="middle">5</text>
    <polyline points="189.17,533.05 184.20,533.05 180.58,533.02 177.21,532.93 174.05,532.77 171.09,532.56 168.33,532.30 165.73,532.00 163.28,531.65 160.98,531.27 158.80,530.85 156.72,530.40 154.75,529.92 152.85,529.40 151.03,528.84 149.26,528.24 147.54,527.60 145.85,526.93 144.17,526.21 142.52,525.45 140.88,524.65 139.26,523.81 137.67,522.94 136.10,522.02 134.54,521.06 133.02,520.07 131.52,519.04 130.04,517.97 128.59,516.87 127.17,515.73 125.78,514.56 124.41,513.36 123.08,512.12 121.77,510.84 120.50,509.54 119.26,508.21 118.06,506.84 116.89,505.45 115.75,504.03 114.64,502.58 113.58,501.10 112.55,499.60 111.55,498.07 110.60,496.52 109.68,494.95 108.80,493.36 107.97,491.74 107.17,490.10 106.41,488.45 105.69,486.77 105.01,485.08 104.38,483.36 103.78,481.59 103.22,479.77 102.70,477.87 102.22,475.90 101.77,473.82 101.35,471.64 100.97,469.34 100.62,466.89 100.32,464.29 100.06,461.53 99.85,458.57 99.69,455.41 99.57,448.42 99.57,443.45" fill="none" stroke="#333333" stroke-width="2.6550724637681165" stroke-linecap="butt" stroke-linejoin="miter" />
    <text x="114.73457073592208" y="517.8849944814681" fill="#333333" stroke="none" font-family="Roboto Mono" font-weight="normal" font-size="11.95" text-anchor="middle" dominant-baseline="middle">1</text>
    <polyline points="109.52,433.49 114.50,433.49 115.29,433.49 116.26,433.49 117.39,433.49 118.70,433.49 120.16,433.49 121.78,433.49 123.54,433.49 125.45,433.49 127.49,433.49 129.67,433.49 131.97,433.49 134.39,433.49 136.92,433.49 139.56,433.49 142.31,433.49 145.15,433.49 148.08,433.49 151.10,433.49 154.20,433.49 157.37,433.49 160.61,433.49 163.91,433.49 167.27,433.49 170.68,433.49 174.14,433.49 177.63,433.49 181.16,433.49 184.72,433.49 188.31,433.49 191.90,433.49 195.51,433.49 199.13,433.49 202.75,433.49 206.36,433.49 209.96,433.49 213.54,433.49 217.10,433.49 220.63,433.49 224.12,433.49 227.58,433.49 230.99,433.49 234.35,433.49 237.65,433.49 240.89,433.49 244.07,433.49 247.16,433.49 250.18,433.49 253.11,433.49 255.95,433.49 258.70,433.49 261.34,433.49 263.87,433.49 266.29,433.49 268.59,433.49 270.77,433.49 272.81,433.49 274.72,433.49 276.48,433.49 278.10,433.49 279.56,433.49 280.87,433.49 282.00,433.49 283.76,433.49 288.74,433.49" fill="none" stroke="#333333" stroke-width="2.6550724637681165" stroke-linecap="butt" stroke-linejoin="miter" />
    <text x="199.13043478260872" y="443.44565217391295" fill="#333333" stroke="none" font-family="Roboto Mono" font-weight="normal" font-size="11.95" text-anchor="middle" dominant-baseline="middle">1</text>
    <polyline points="308.65,533.05 313.63,533.05 317.70,533.05 321.52,533.03 325.09,532.96 328.42,532.84 331.52,532.63 334.40,532.32 337.07,531.88 339.53,531.30 341.80,530.56 343.88,529.64 345.77,528.50 347.50,527.15 349.06,525.58 350.46,523.79 351.72,521.77 352.83,519.52 353.82,517.04 354.68,514.33 355.43,511.39 356.07,508.21 356.61,504.79 357.07,501.14 357.44,497.24 357.73,493.13 357.97,488.80 358.14,484.27 358.26,479.55 358.35,474.64 358.40,469.57 358.42,464.33 358.43,453.40" fill="none" stroke="#333333" stroke-width="2.6550724637681165" stroke-linecap="butt" stroke-linejoin="miter" />
    <polygon points="358.43,458.38 366.20,432.49 358.43,437.67 350.67,432.49" fill="#333333" stroke="none" />
    <text x="358.43480059700863" y="427.51521739131056" fill="#333333" stroke="none" font-family="Roboto Mono" font-weight="normal" font-size="11.95" text-anchor="middle" dominant-baseline="middle">W</text>
    <polyline points="211.08,340.89 218.74,340.89" fill="none" stroke="#333333" stroke-width="1.725797101449276" stroke-linecap="butt" stroke-linejoin="miter" />
    <polygon points="222.03,340.89 217.65,337.83 217.65,343.96" fill="#333333" stroke="none" />
    <polyline points="291.73,246.31 291.73,253.97" fill="none" stroke="#333333" stroke-width="1.725797101449276" stroke-linecap="butt" stroke-linejoin="miter" />
    <polygon points="291.73,257.26 294.79,252.88 288.66,252.88" fill="#333333" stroke="none" />
    <polygon points="189.17,343.88 209.09,343.88 209.09,323.97 189.17,323.97" fill="#2980b9" stroke="none" />
    <polygon points="89.61,343.88 109.52,343.88 109.52,323.97 89.61,323.97" fill="#c0392b" stroke="none" />
    <polygon points="189.17,543.01 209.09,543.01 209.09,523.10 189.17,523.10" fill="#2980b9" stroke="none" />
    <polygon points="288.74,244.32 308.65,244.32 308.65,224.40 288.74,224.40" fill="#2980b9" stroke="none" />
    <polygon points="189.17,144.75 209.09,144.75 209.09,124.84 189.17,124.84" fill="#2980b9" stroke="none" />
    <polygon points="89.61,443.45 109.52,443.45 109.52,423.53 89.61,423.53" fill="#2980b9" stroke="none" />
    <polygon points="288.74,443.45 308.65,443.45 308.65,423.53 288.74,423.53" fill="#2980b9" stroke="none" />
    <polygon points="288.74,543.01 308.65,543.01 308.65,523.10 288.74,523.10" fill="#c0392b" stroke="none" />
    <circle cx="298.70" cy="234.36" r="6.97" fill="#f1c40f" stroke="none" />
    <text x="298.69565217391306" y="234.35869565217388" fill="#333333" stroke="none" font-family="Roboto Mono" font-weight="normal" font-size="11.95" text-anchor="middle" dominant-baseline="middle">A</text>
    <text x="172.10559006211184" y="562.9239130434783" fill="#333333" stroke="none" font-family="Roboto Mono" font-weight="normal" font-size="11.95" text-anchor="middle" dominant-baseline="middle">G</text>
    <text x="180.63975155279505" y="562.9239130434783" fill="#333333" stroke="none" font-family="Roboto Mono" font-weight="normal" font-size="11.95" text-anchor="middle" dominant-baseline="middle">o</text>
    <text x="189.17391304347828" y="562.9239130434783" fill="#333333" stroke="none" font-family="Roboto Mono" font-weight="normal" font-size="11.95" text-anchor="middle" dominant-baseline="middle">a</text>
    <text x="197.7080745341615" y="562.9239130434783" fill="#333333" stroke="none" font-family="Roboto Mono" font-weight="normal" font-size="11.95" text-anchor="middle" dominant-baseline="middle">l</text>
    <text x="206.24223602484471" y="562.9239130434783" fill="#333333" stroke="none" font-family="Roboto Mono" font-weight="normal" font-size="11.95" text-anchor="middle" dominant-baseline="middle">:</text>
    <text x="214.77639751552795" y="562.9239130434783" fill="#333333" stroke="none" font-family="Roboto Mono" font-weight="normal" font-size="11.95" text-anchor="middle" dominant-baseline="middle"> </text>
    <text x="223.3105590062112" y="562.9239130434783" fill="#333333" stroke="none" font-family="Roboto Mono" font-weight="normal" font-size="11.95" text-anchor="middle" dominant-baseline="middle">T</text>
    <text x="231.84472049689444" y="562.9239130434783" fill="#333333" stroke="none" font-family="Roboto Mono" font-weight="normal" font-size="11.95" text-anchor="middle" dominant-baseline="middle">a</text>
    <text x="240.3788819875777" y="562.9239130434783" fill="#333333" stroke="none" font-family="Roboto Mono" font-weight="normal" font-size="11.95" text-anchor="middle" dominant-baseline="middle">r</text>
    <text x="248.91304347826093" y="562.9239130434783" fill="#333333" stroke="none" font-family="Roboto Mono" font-weight="normal" font-size="11.95" text-anchor="middle" dominant-baseline="middle">g</text>
    <text x="257.4472049689442" y="562.9239130434783" fill="#333333" stroke="none" font-family="Roboto Mono" font-weight="normal" font-size="11.95" text-anchor="middle" dominant-baseline="middle">e</text>
    <text x="265.9813664596274" y="562.9239130434783" fill="#333333" stroke="none" font-family="Roboto Mono" font-weight="normal" font-size="11.95" text-anchor="middle" dominant-baseline="middle">t</text>
    <text x="274.5155279503107" y="562.9239130434783" fill="#333333" stroke="none" font-family="Roboto Mono" font-weight="normal" font-size="11.95" text-anchor="middle" dominant-baseline="middle">R</text>
    <text x="283.0496894409939" y="562.9239130434783" fill="#333333" stroke="none" font-family="Roboto Mono" font-weight="normal" font-size="11.95" text-anchor="middle" dominant-baseline="middle">e</text>
    <text x="291.5838509316772" y="562.9239130434783" fill="#333333" stroke="none" font-family="Roboto Mono" font-weight="normal" font-size="11.95" text-anchor="middle" dominant-baseline="middle">a</text>
    <text x="300.1180124223604" y="562.9239130434783" fill="#333333" stroke="none" font-family="Roboto Mono" font-weight="normal" font-size="11.95" text-anchor="middle" dominant-baseline="middle">c</text>
    <text x="308.65217391304367" y="562.9239130434783" fill="#333333" stroke="none" font-family="Roboto Mono" font-weight="normal" font-size="11.95" text-anchor="middle" dominant-baseline="middle">h</text>
    <text x="317.1863354037269" y="562.9239130434783" fill="#333333" stroke="none" font-family="Roboto Mono" font-weight="normal" font-size="11.95" text-anchor="middle" dominant-baseline="middle">e</text>
    <text x="325.7204968944102" y="562.9239130434783" fill="#333333" stroke="none" font-family="Roboto Mono" font-weight="normal" font-size="11.95" text-anchor="middle" dominant-baseline="middle">d</text>
    <text x="30" y="533.054347826087" fill="#a3a3a3" stroke="none" font-family="Roboto Mono" font-weight="normal" font-size="16.00" text-anchor="middle" dominant-baseline="middle">4</text>
    <text x="30" y="433.4891304347826" fill="#a3a3a3" stroke="none" font-family="Roboto Mono" font-weight="normal" font-size="16.00" text-anchor="middle" dominant-baseline="middle">5</text>
    <text x="30" y="333.92391304347825" fill="#a3a3a3" stroke="none" font-family="Roboto Mono" font-weight="normal" font-size="16.00" text-anchor="middle" dominant-baseline="middle">6</text>
    <text x="30" y="234.35869565217388" fill="#a3a3a3" stroke="none" font-family="Roboto Mono" font-weight="normal" font-size="16.00" text-anchor="middle" dominant-baseline="middle">7</text>
    <text x="30" y="134.7934782608695" fill="#a3a3a3" stroke="none" font-family="Roboto Mono" font-weight="normal" font-size="16.00" text-anchor="middle" dominant-baseline="middle">8</text>
    <text x="30" y="35.22826086956525" fill="#a3a3a3" stroke="none" font-family="Roboto Mono" font-weight="normal" font-size="16.00" text-anchor="middle" dominant-baseline="middle">9</text>
    <text x="0" y="603" fill="#a3a3a3" stroke="none" font-family="Roboto Mono" font-weight="normal" font-size="16.00" text-anchor="middle" dominant-baseline="middle">0</text>
    <text x="99.56521739130436" y="603" fill="#a3a3a3" stroke="none" font-family="Roboto Mono" font-weight="normal" font-size="16.00" text-anchor="middle" dominant-baseline="middle">1</text>
    <text x="199.13043478260872" y="603" fill="#a3a3a3" stroke="none" font-family="Roboto Mono" font-weight="normal" font-size="16.00" text-anchor="middle" dominant-baseline="middle">2</text>
    <text x="298.69565217391306" y="603" fill="#a3a3a3" stroke="none" font-family="Roboto Mono" font-weight="normal" font-size="16.00" text-anchor="middle" dominant-baseline="middle">3</text>
    <text x="398.26086956521743" y="603" fill="#a3a3a3" stroke="none" font-family="Roboto Mono" font-weight="normal" font-size="16.00" text-anchor="middle" dominant-baseline="middle">4</text>
    <circle cx="414.00" cy="44.00" r="24.00" fill="rgba(51, 51, 51, 0.25)" stroke="none" />
    <polygon points="414.00,24.00 422.00,44.00 406.00,44.00" fill="#c0392b" stroke="none" />
    <polygon points="414.00,64.00 422.00,44.00 406.00,44.00" fill="rgba(51, 51, 51, 0.8)" stroke="none" />
    <polygon points="411.85,43.00 410.65,43.00 410.65,35.00 411.85,35.00 416.15,41.00 416.15,35.00 417.35,35.00 417.35,43.00 416.15,43.00 411.85,37.00" fill="#ffffff" stroke="none" />
</svg>
