<?xml version="1.0" encoding="UTF-8"?>
<svg version="1.1" xmlns="http://www.w3.org/2000/svg" viewBox="0 0 868.00 953.00">
<style type="text/css">
@font-face {
  font-family: 'Roboto Mono';
  font-style: normal;
  font-weight: 400;
  font-display: swap;
  src: local('Roboto Mono'), local('RobotoMono-Regular'), url(https://fonts.gstatic.com/s/robotomono/v7/L0x5DF4xlVMF-BfR8bXMIjhLq38.woff2) format('woff2');
  unicode-range: U+0000-00FF, U+0131, U+0152-0153, U+02BB-02BC, U+02C6, U+02DA, U+02DC, U+2000-206F, U+2074, U+20AC, U+2122, U+2191, U+2193, U+2212, U+2215, U+FEFF, U+FFFD;
}
@font-face {
  font-family: 'Roboto Mono';
  font-style: normal;
  font-weight: 700;
  font-display: swap;
  src: local('Roboto Mono Bold'), local('RobotoMono-Bold'), url(https://fonts.gstatic.com/s/robotomono/v7/L0xkDF4xlVMF-BfR8bXMIjDwjmqxf78.woff2) format('woff2');
  unicode-range: U+0000-00FF, U+0131, U+0152-0153, U+02BB-02BC, U+02C6, U+02DA, U+02DC, U+2000-206F, U+2074, U+20AC, U+2122, U+2191, U+2193, U+2212, U+2215, U+FEFF, U+FFFD;
}
</style>
    <rect x="0" y="0" width="868" height="952.9999999999999" fill="#eeeeee" stroke="none" />
    <polygon points="0.00,952.90 868.00,952.90 868.00,0.10 0.00,0.10" fill="#fbfbfb" stroke="none" />
    <polyline points="0.00,883.06 868.00,883.06" fill="none" stroke="#d2d2d2" stroke-width="1" stroke-linecap="butt" stroke-linejoin="miter" />
    <polyline points="0.00,783.29 868.00,783.29" fill="none" stroke="#d2d2d2" stroke-width="1" stroke-linecap="butt" stroke-linejoin="miter" />
    <polyline points="0.00,683.52 868.00,683.52" fill="none" stroke="#d2d2d2" stroke-width="1" stroke-linecap="butt" stroke-linejoin="miter" />
    <polyline points="0.00,583.75 868.00,583.75" fill="none" stroke="#d2d2d2" stroke-width="1" stroke-linecap="butt" stroke-linejoin="miter" />
    <polyline points="0.00,483.98 868.00,483.98" fill="none" stroke="#d2d2d2" stroke-width="1" stroke-linecap="butt" stroke-linejoin="miter" />
    <polyline points="0.00,384.21 868.00,384.21" fill="none" stroke="#d2d2d2" stroke-width="1" stroke-linecap="butt" stroke-linejoin="miter" />
    <polyline points="0.00,284.44 868.00,284.44" fill="none" stroke="#d2d2d2" stroke-width="1" stroke-linecap="butt" stroke-linejoin="miter" />
    <polyline points="0.00,184.67 868.00,184.67" fill="none" stroke="#d2d2d2" stroke-width="1" stroke-linecap="butt" stroke-linejoin="miter" />
    <polyline points="0.00,84.90 868.00,84.90" fill="none" stroke="#d2d2d2" stroke-width="1" stroke-linecap="butt" stroke-linejoin="miter" />
    <polyline points="69.84,953.00 69.84,0.00" fill="none" stroke="#d2d2d2" stroke-width="1" stroke-linecap="butt" stroke-linejoin="miter" />
    <polyline points="169.61,953.00 169.61,0.00" fill="none" stroke="#d2d2d2" stroke-width="1" stroke-linecap="butt" stroke-linejoin="miter" />
    <polyline points="269.38,953.00 269.38,0.00" fill="none" stroke="#d2d2d2" stroke-width="1" stroke-linecap="butt" stroke-linejoin="miter" />
    <polyline points="369.15,953.00 369.15,0.00" fill="none" stroke="#d2d2d2" stroke-width="1" stroke-linecap="butt" stroke-linejoin="miter" />
    <polyline points="468.92,953.00 468.92,0.00" fill="none" stroke="#d2d2d2" stroke-width="1" stroke-linecap="butt" stroke-linejoin="miter" />
    <polyline points="568.69,953.00 568.69,0.00" fill="none" stroke="#d2d2d2" stroke-width="1" stroke-linecap="butt" stroke-linejoin="miter" />
    <polyline points="668.46,953.00 668.46,0.00" fill="none" stroke="#d2d2d2" stroke-width="1" stroke-linecap="butt" stroke-linejoin="miter" />
    <polyline points="768.23,953.00 768.23,0.00" fill="none" stroke="#d2d2d2" stroke-width="1" stroke-linecap="butt" stroke-linejoin="miter" />
    <circle cx="668.46" cy="284.44" r="24.94" fill="#f1c40f" stroke="none" />
    <circle cx="369.15" cy="384.21" r="24.94" fill="#2ecc71" stroke="none" />
    <path d="M 387.11,675.54 A 9.98 9.98 0 0 0 377.13,665.56" fill="none" stroke="#f1c40f" stroke-width="2.6605363984674333" stroke-linecap="butt" stroke-linejoin="miter" />
    <path d="M 394.59,675.54 A 17.46 17.46 0 0 0 377.13,658.08" fill="none" stroke="#f1c40f" stroke-width="2.6605363984674333" stroke-linecap="butt" stroke-linejoin="miter" />
    <path d="M 402.07,675.54 A 24.94 24.94 0 0 0 377.13,650.60" fill="none" stroke="#f1c40f" stroke-width="2.6605363984674333" stroke-linecap="butt" stroke-linejoin="miter" />
    <polygon points="398.99,644.47 408.77,651.58 410.04,639.56" fill="#f1c40f" stroke="none" />
    <circle cx="401.82" cy="650.85" r="6.98" fill="#f1c40f" stroke="none" />
    <text x="401.82287817522683" y="650.8495356178767" fill="#333333" stroke="none" font-family="Roboto Mono" font-weight="normal" font-size="11.97" text-anchor="middle" dominant-baseline="middle">A</text>
    <path d="M 686.42,575.77 A 9.98 9.98 0 0 0 676.44,565.79" fill="none" stroke="#2ecc71" stroke-width="2.6605363984674333" stroke-linecap="butt" stroke-linejoin="miter" />
    <path d="M 693.90,575.77 A 17.46 17.46 0 0 0 676.44,558.31" fill="none" stroke="#2ecc71" stroke-width="2.6605363984674333" stroke-linecap="butt" stroke-linejoin="miter" />
    <path d="M 701.38,575.77 A 24.94 24.94 0 0 0 676.44,550.83" fill="none" stroke="#2ecc71" stroke-width="2.6605363984674333" stroke-linecap="butt" stroke-linejoin="miter" />
    <polygon points="695.30,554.92 700.73,544.11 688.65,544.81" fill="#2ecc71" stroke="none" />
    <circle cx="701.13" cy="551.08" r="6.98" fill="#2ecc71" stroke="none" />
    <text x="701.1332230028131" y="551.0794206753479" fill="#fbfbfb" stroke="none" font-family="Roboto Mono" font-weight="normal" font-size="11.97" text-anchor="middle" dominant-baseline="middle">B</text>
    <path d="M 686.42,376.23 A 9.98 9.98 0 0 0 676.44,366.25" fill="none" stroke="#e74c3c" stroke-width="2.6605363984674333" stroke-linecap="butt" stroke-linejoin="miter" />
    <path d="M 693.90,376.23 A 17.46 17.46 0 0 0 676.44,358.77" fill="none" stroke="#e74c3c" stroke-width="2.6605363984674333" stroke-linecap="butt" stroke-linejoin="miter" />
    <path d="M 701.38,376.23 A 24.94 24.94 0 0 0 676.44,351.29" fill="none" stroke="#e74c3c" stroke-width="2.6605363984674333" stroke-linecap="butt" stroke-linejoin="miter" />
    <circle cx="701.13" cy="351.54" r="6.98" fill="#e74c3c" stroke="none" />
    <text x="701.1332230028131" y="351.5391907902904" fill="#fbfbfb" stroke="none" font-family="Roboto Mono" font-weight="normal" font-size="11.97" text-anchor="middle" dominant-baseline="middle">C</text>
    <path d="M 187.57,775.31 A 9.98 9.98 0 0 0 177.59,765.33" fill="none" stroke="#9b59b6" stroke-width="2.6605363984674333" stroke-linecap="butt" stroke-linejoin="miter" />
    <path d="M 195.05,775.31 A 17.46 17.46 0 0 0 177.59,757.85" fill="none" stroke="#9b59b6" stroke-width="2.6605363984674333" stroke-linecap="butt" stroke-linejoin="miter" />
    <path d="M 202.53,775.31 A 24.94 24.94 0 0 0 177.59,750.37" fill="none" stroke="#9b59b6" stroke-width="2.6605363984674333" stroke-linecap="butt" stroke-linejoin="miter" />
    <circle cx="202.28" cy="750.62" r="6.98" fill="#9b59b6" stroke="none" />
    <text x="202.2826482901694" y="750.6196505604054" fill="#fbfbfb" stroke="none" font-family="Roboto Mono" font-weight="normal" font-size="11.97" text-anchor="middle" dominant-baseline="middle">D</text>
    <path d="M 187.57,575.77 A 9.98 9.98 0 0 0 177.59,565.79" fill="none" stroke="#1abc9c" stroke-width="2.6605363984674333" stroke-linecap="butt" stroke-linejoin="miter" />
    <path d="M 195.05,575.77 A 17.46 17.46 0 0 0 177.59,558.31" fill="none" stroke="#1abc9c" stroke-width="2.6605363984674333" stroke-linecap="butt" stroke-linejoin="miter" />
    <path d="M 202.53,575.77 A 24.94 24.94 0 0 0 177.59,550.83" fill="none" stroke="#1abc9c" stroke-width="2.6605363984674333" stroke-linecap="butt" stroke-linejoin="miter" />
    <circle cx="202.28" cy="551.08" r="6.98" fill="#1abc9c" stroke="none" />
    <text x="202.2826482901694" y="551.0794206753479" fill="#fbfbfb" stroke="none" font-family="Roboto Mono" font-weight="normal" font-size="11.97" text-anchor="middle" dominant-baseline="middle">E</text>
    <polyline points="369.15,773.32 369.15,768.33 369.15,763.99 369.18,760.26 369.25,757.00 369.39,754.07 369.62,751.35 369.96,748.70 370.43,746.01 371.06,743.23 371.85,740.41 372.83,737.59 374.01,734.82 375.39,732.13 377.01,729.56 378.85,727.16 380.91,724.93 383.17,722.91 385.60,721.09 388.18,719.50 390.90,718.16 393.73,717.08 396.65,716.27 399.63,715.73 402.66,715.46 405.69,715.46 408.71,715.74 411.68,716.31 414.60,717.15 417.42,718.25 420.13,719.61 422.71,721.20 425.13,723.03 427.37,725.07 429.41,727.31 431.24,729.73 432.83,732.31 434.19,735.02 435.30,737.85 436.13,740.76 436.70,743.74 436.98,746.75 436.99,749.79 436.72,752.81 436.17,755.79 435.36,758.71 434.28,761.54 432.94,764.26 431.35,766.85 429.54,769.27 427.51,771.53 425.28,773.59 422.88,775.44 420.32,777.05 417.62,778.44 414.85,779.61 412.03,780.59 409.21,781.38 406.44,782.01 403.74,782.48 401.10,782.83 398.37,783.05 395.45,783.19 392.18,783.26 384.11,783.29 379.13,783.29" fill="none" stroke="#333333" stroke-width="2.6605363984674333" stroke-linecap="butt" stroke-linejoin="miter" />
    <text x="420.318888062661" y="732.1236406729697" fill="#333333" stroke="none" font-family="Roboto Mono" font-weight="normal" font-size="11.97" text-anchor="middle" dominant-baseline="middle">1</text>
    <polyline points="359.17,783.29 354.18,783.29 353.39,783.29 352.42,783.29 351.28,783.29 349.98,783.29 348.51,783.29 346.89,783.29 345.12,783.29 343.21,783.29 341.17,783.29 338.99,783.29 336.68,783.29 334.26,783.29 331.72,783.29 329.07,783.29 326.32,783.29 323.47,783.29 320.53,783.29 317.51,783.29 314.41,783.29 311.23,783.29 307.98,783.29 304.67,783.29 301.31,783.29 297.89,783.29 294.42,783.29 290.92,783.29 287.38,783.29 283.82,783.29 280.23,783.29 276.62,783.29 273.00,783.29 269.38,783.29 265.76,783.29 262.14,783.29 258.53,783.29 254.94,783.29 251.38,783.29 247.84,783.29 244.33,783.29 240.87,783.29 237.45,783.29 234.09,783.29 230.78,783.29 227.53,783.29 224.35,783.29 221.25,783.29 218.22,783.29 215.29,783.29 212.44,783.29 209.69,783.29 207.04,783.29 204.50,783.29 202.08,783.29 199.77,783.29 197.59,783.29 195.55,783.29 193.63,783.29 191.87,783.29 190.25,783.29 188.78,783.29 187.48,783.29 186.34,783.29 184.57,783.29 179.59,783.29" fill="none" stroke="#333333" stroke-width="2.6605363984674333" stroke-linecap="butt" stroke-linejoin="miter" />
    <text x="269.3793103448277" y="793.2701149425287" fill="#333333" stroke="none" font-family="Roboto Mono" font-weight="normal" font-size="11.97" text-anchor="middle" dominant-baseline="middle">2</text>
    <polyline points="169.61,773.32 169.61,768.33 169.65,764.27 169.77,760.51 169.97,757.03 170.23,753.79 170.55,750.78 170.92,747.97 171.35,745.34 171.81,742.88 172.33,740.55 172.88,738.34 173.48,736.23 174.13,734.20 174.83,732.24 175.57,730.32 176.37,728.43 177.23,726.56 178.13,724.72 179.08,722.90 180.09,721.11 181.14,719.35 182.24,717.62 183.39,715.91 184.58,714.24 185.82,712.61 187.11,711.01 188.44,709.44 189.81,707.92 191.22,706.43 192.68,704.98 194.17,703.57 195.70,702.20 197.27,700.88 198.88,699.60 200.51,698.36 202.19,697.17 203.89,696.03 205.63,694.93 207.39,693.89 209.19,692.89 211.01,691.94 212.86,691.04 214.73,690.20 216.62,689.40 218.53,688.66 220.47,687.97 222.42,687.34 224.39,686.76 226.37,686.23 228.37,685.76 230.38,685.34 232.52,684.98 235.12,684.67 238.56,684.41 243.22,684.19 249.48,684.01 257.69,683.86 268.25,683.75 281.19,683.67 295.65,683.61 310.58,683.57 324.94,683.54 337.68,683.53 354.18,683.52 359.17,683.52" fill="none" stroke="#333333" stroke-width="2.6605363984674333" stroke-linecap="butt" stroke-linejoin="miter" />
    <text x="203.60023853772032" y="708.5911030072266" fill="#333333" stroke="none" font-family="Roboto Mono" font-weight="normal" font-size="11.97" text-anchor="middle" dominant-baseline="middle">2</text>
    <polyline points="369.15,673.55 369.15,668.56 369.15,637.57 369.15,615.17 369.15,599.89 369.15,590.26 369.15,584.82 369.15,582.08 369.15,580.58 369.16,579.03 369.21,577.17 369.37,575.06 369.69,572.80 370.23,570.47 371.04,568.16 372.17,565.93 373.68,563.89 375.53,562.06 377.65,560.48 379.97,559.17 382.42,558.16 384.94,557.49 387.45,557.17 389.89,557.23 392.22,557.65 394.42,558.38 396.50,559.34 398.42,560.50 400.18,561.80 401.76,563.18 403.16,564.58 404.38,565.98 405.46,567.36 406.46,568.72 407.41,570.06 408.35,571.36 409.32,572.61 410.37,573.80 411.50,574.94 412.72,576.01 414.00,577.01 415.34,577.95 416.71,578.82 418.10,579.61 419.50,580.32 420.91,580.96 422.31,581.52 423.71,582.01 425.11,582.43 426.52,582.78 427.92,583.07 429.32,583.30 430.72,583.47 432.08,583.59 433.38,583.67 434.59,583.72 435.68,583.74 436.63,583.75 437.40,583.75 438.05,583.75 438.80,583.75 439.95,583.75 441.76,583.75 444.51,583.75 453.95,583.75 458.94,583.75" fill="none" stroke="#333333" stroke-width="2.6605363984674333" stroke-linecap="butt" stroke-linejoin="miter" />
    <text x="398.34072710936243" y="574.5241099025396" fill="#333333" stroke="none" font-family="Roboto Mono" font-weight="normal" font-size="11.97" text-anchor="middle" dominant-baseline="middle">1</text>
    <polyline points="468.92,593.73 468.92,598.72 468.92,603.05 468.89,607.56 468.81,612.20 468.66,616.87 468.41,621.51 468.03,626.04 467.51,630.40 466.82,634.50 465.92,638.26 464.81,641.63 463.45,644.52 461.84,646.92 459.99,648.89 457.95,650.50 455.72,651.84 453.33,652.97 450.81,653.97 448.19,654.91 445.48,655.87 442.72,656.91 439.92,658.13 437.12,659.57 434.35,661.27 431.66,663.18 429.10,665.29 426.73,667.57 424.58,670.01 422.72,672.56 421.18,675.22 420.02,677.94 419.29,680.72 419.03,683.52 419.29,686.32 420.02,689.10 421.18,691.83 422.72,694.48 424.58,697.04 426.73,699.47 429.10,701.76 431.66,703.87 434.35,705.78 437.12,707.47 439.92,708.92 442.72,710.13 445.48,711.18 448.19,712.14 450.81,713.08 453.33,714.08 455.72,715.21 457.95,716.54 459.99,718.16 461.84,720.13 463.45,722.52 464.81,725.41 465.92,728.78 466.82,732.55 467.51,736.65 468.03,741.00 468.41,745.54 468.66,750.18 468.81,754.85 468.89,759.48 468.92,768.33 468.92,773.32" fill="none" stroke="#333333" stroke-width="2.6605363984674333" stroke-linecap="butt" stroke-linejoin="miter" />
    <text x="409.0574712643679" y="683.5229885057515" fill="#333333" stroke="none" font-family="Roboto Mono" font-weight="normal" font-size="11.97" text-anchor="middle" dominant-baseline="middle">2</text>
    <polyline points="478.90,783.29 483.89,783.29 485.36,783.29 486.97,783.29 488.71,783.29 490.57,783.29 492.54,783.29 494.60,783.29 496.76,783.29 499.01,783.29 501.32,783.29 503.70,783.29 506.13,783.29 508.61,783.29 511.13,783.29 513.67,783.29 516.23,783.29 518.80,783.29 521.38,783.29 523.94,783.29 526.48,783.29 529.00,783.29 531.48,783.29 533.91,783.29 536.29,783.29 538.60,783.29 540.84,783.29 543.00,783.29 545.07,783.29 547.04,783.29 548.90,783.29 550.64,783.29 553.72,783.29 558.71,783.29" fill="none" stroke="#333333" stroke-width="2.6605363984674333" stroke-linecap="butt" stroke-linejoin="miter" />
    <text x="518.8045977011495" y="793.2701149425287" fill="#333333" stroke="none" font-family="Roboto Mono" font-weight="normal" font-size="11.97" text-anchor="middle" dominant-baseline="middle">1</text>
    <polyline points="568.69,593.73 568.69,598.72 568.69,603.05 568.66,607.56 568.58,612.20 568.43,616.87 568.18,621.51 567.80,626.04 567.28,630.40 566.59,634.50 565.69,638.26 564.58,641.63 563.22,644.52 561.61,646.92 559.76,648.89 557.72,650.50 555.49,651.84 553.10,652.97 550.58,653.97 547.96,654.91 545.25,655.87 542.49,656.91 539.69,658.13 536.89,659.57 534.12,661.27 531.43,663.18 528.88,665.29 526.50,667.57 524.35,670.01 522.49,672.56 520.95,675.22 519.79,677.94 519.06,680.72 518.80,683.52 519.06,686.32 519.79,689.10 520.95,691.83 522.49,694.48 524.35,697.04 526.50,699.47 528.88,701.76 531.43,703.87 534.12,705.78 536.89,707.47 539.69,708.92 542.49,710.13 545.25,711.18 547.96,712.14 550.58,713.08 553.10,714.08 555.49,715.21 557.72,716.54 559.76,718.16 561.61,720.13 563.22,722.52 564.58,725.41 565.69,728.78 566.59,732.55 567.28,736.65 567.80,741.00 568.18,745.54 568.43,750.18 568.58,754.85 568.66,759.48 568.69,768.33 568.69,773.32" fill="none" stroke="#333333" stroke-width="2.6605363984674333" stroke-linecap="butt" stroke-linejoin="miter" />
    <text x="508.8275862068965" y="683.5229885057471" fill="#333333" stroke="none" font-family="Roboto Mono" font-weight="normal" font-size="11.97" text-anchor="middle" dominant-baseline="middle">2</text>
    <polyline points="478.90,583.75 483.89,583.75 485.36,583.75 486.97,583.75 488.71,583.75 490.57,583.75 492.54,583.75 494.60,583.75 496.76,583.75 499.01,583.75 501.32,583.75 503.70,583.75 506.13,583.75 508.61,583.75 511.13,583.75 513.67,583.75 516.23,583.75 518.80,583.75 521.38,583.75 523.94,583.75 526.48,583.75 529.00,583.75 531.48,583.75 533.91,583.75 536.29,583.75 538.60,583.75 540.84,583.75 543.00,583.75 545.07,583.75 547.04,583.75 548.90,583.75 550.64,583.75 553.72,583.75 558.71,583.75" fill="none" stroke="#333333" stroke-width="2.6605363984674333" stroke-linecap="butt" stroke-linejoin="miter" />
    <text x="518.8045977011495" y="593.7298850574712" fill="#333333" stroke="none" font-family="Roboto Mono" font-weight="normal" font-size="11.97" text-anchor="middle" dominant-baseline="middle">1</text>
    <polyline points="578.67,783.29 583.66,783.29 586.18,783.26 588.61,783.15 590.95,782.97 593.20,782.72 595.36,782.40 597.43,782.02 599.42,781.57 601.32,781.05 603.14,780.47 604.87,779.83 606.53,779.13 608.11,778.36 609.61,777.54 611.04,776.65 612.39,775.71 613.66,774.72 614.87,773.67 616.01,772.56 617.08,771.41 618.08,770.20 619.02,768.94 619.89,767.64 620.70,766.28 621.45,764.88 622.14,763.43 622.77,761.94 623.35,760.40 623.87,758.83 624.34,757.21 624.75,755.55 625.12,753.85 625.43,752.11 625.70,750.34 625.93,748.54 626.10,746.69 626.24,744.82 626.33,742.91 626.39,740.98 626.40,739.01 626.38,737.01 626.32,734.99 626.23,732.94 626.10,730.87 625.95,728.77 625.76,726.65 625.55,724.50 625.31,722.34 625.04,720.16 624.75,717.96 624.44,715.74 624.11,713.50 623.76,711.25 623.39,708.99 623.00,706.72 622.60,704.43 622.19,702.13 621.76,699.83 621.33,697.51 620.88,695.19 620.43,692.86 619.97,690.53 619.51,688.20 619.04,685.86 618.57,683.52 618.11,681.18 617.64,678.85 617.18,676.51 616.72,674.18 616.27,671.85 615.82,669.53 615.39,667.22 614.96,664.91 614.55,662.62 614.15,660.33 613.76,658.05 613.39,655.79 613.04,653.54 612.71,651.31 612.39,649.09 612.11,646.89 611.84,644.71 611.60,642.54 611.39,640.40 611.20,638.28 611.04,636.18 610.92,634.11 610.83,632.06 610.77,630.03 610.75,628.04 610.76,626.07 610.82,624.13 610.91,622.23 611.05,620.35 611.22,618.51 611.45,616.70 611.72,614.93 612.03,613.20 612.40,611.50 612.81,609.84 613.28,608.22 613.80,606.64 614.38,605.11 615.01,603.62 615.70,602.17 616.45,600.77 617.26,599.41 618.13,598.10 619.07,596.85 620.07,595.64 621.14,594.48 622.28,593.38 623.49,592.33 624.76,591.33 626.11,590.39 627.54,589.51 629.04,588.69 630.62,587.92 632.27,587.22 634.01,586.57 635.83,585.99 637.73,585.48 639.72,585.03 641.79,584.64 643.95,584.33 646.20,584.08 648.54,583.90 653.49,583.75 658.48,583.75" fill="none" stroke="#333333" stroke-width="2.6605363984674333" stroke-linecap="butt" stroke-linejoin="miter" />
    <text x="608.791436933823" y="685.4795862521962" fill="#333333" stroke="none" font-family="Roboto Mono" font-weight="normal" font-size="11.97" text-anchor="middle" dominant-baseline="middle">3</text>
    <polyline points="678.44,583.75 683.43,583.75 691.13,583.75 698.35,583.75 705.11,583.75 711.42,583.75 717.29,583.75 722.74,583.75 727.79,583.75 732.45,583.75 736.74,583.75 740.67,583.75 744.26,583.75 747.53,583.75 750.48,583.75 753.14,583.75 755.51,583.75 757.63,583.75 759.50,583.75 761.13,583.75 762.54,583.75 763.76,583.75 764.79,583.75 765.64,583.75 766.34,583.75 766.90,583.75 767.34,583.75 767.67,583.75 767.91,583.75 768.06,583.75 768.16,583.75 768.21,583.75 768.23,583.75" fill="none" stroke="#333333" stroke-width="2.6605363984674333" stroke-linecap="butt" stroke-linejoin="miter" />
    <circle cx="768.23" cy="583.75" r="7.98" fill="#c0392b" stroke="none" />
    <polyline points="763.74,583.75 772.72,583.75" fill="none" stroke="#fbfbfb" stroke-width="2.494252873563219" stroke-linecap="butt" stroke-linejoin="miter" />
    <polyline points="668.46,593.73 668.46,598.72 668.46,599.51 668.46,600.48 668.46,601.62 668.46,602.93 668.46,604.39 668.46,606.01 668.46,607.78 668.46,609.69 668.46,611.74 668.46,613.92 668.46,616.22 668.46,618.65 668.46,621.18 668.46,623.83 668.46,626.58 668.46,629.43 668.46,632.37 668.46,635.39 668.46,638.50 668.46,641.67 668.46,644.92 668.46,648.23 668.46,651.60 668.46,655.01 668.46,658.48 668.46,661.98 668.46,665.52 668.46,669.09 668.46,672.68 668.46,676.28 668.46,679.90 668.46,683.52 668.46,687.15 668.46,690.76 668.46,694.37 668.46,697.96 668.46,701.53 668.46,705.06 668.46,708.57 668.46,712.03 668.46,715.45 668.46,718.82 668.46,722.13 668.46,725.37 668.46,728.55 668.46,731.65 668.46,734.68 668.46,737.62 668.46,740.46 668.46,743.21 668.46,745.86 668.46,748.40 668.46,750.82 668.46,753.13 668.46,755.31 668.46,757.36 668.46,759.27 668.46,761.04 668.46,762.66 668.46,764.12 668.46,765.43 668.46,766.57 668.46,768.33 668.46,773.32" fill="none" stroke="#333333" stroke-width="2.6605363984674333" stroke-linecap="butt" stroke-linejoin="miter" />
    <text x="658.4827586206895" y="683.5229885057471" fill="#333333" stroke="none" font-family="Roboto Mono" font-weight="normal" font-size="11.97" text-anchor="middle" dominant-baseline="middle">2</text>
    <polyline points="668.46,793.27 668.46,798.26 668.46,802.59 668.49,806.33 668.56,809.59 668.70,812.52 668.93,815.24 669.27,817.89 669.74,820.58 670.37,823.36 671.17,826.18 672.14,828.99 673.32,831.77 674.70,834.46 676.32,837.02 678.16,839.43 680.22,841.65 682.48,843.68 684.91,845.50 687.49,847.08 690.21,848.42 693.04,849.50 695.96,850.32 698.94,850.86 701.97,851.13 705.00,851.12 708.02,850.84 710.99,850.28 713.91,849.44 716.73,848.33 719.44,846.98 722.02,845.38 724.44,843.56 726.68,841.52 728.72,839.28 730.55,836.85 732.14,834.28 733.50,831.56 734.61,828.74 735.44,825.83 736.01,822.85 736.29,819.83 736.30,816.80 736.03,813.78 735.48,810.79 734.67,807.87 733.59,805.04 732.25,802.32 730.66,799.74 728.85,797.31 726.82,795.06 724.59,793.00 722.19,791.15 719.63,789.54 716.94,788.15 714.16,786.98 711.34,786.00 708.52,785.20 705.75,784.58 703.05,784.10 700.41,783.76 697.68,783.53 694.76,783.39 691.49,783.32 683.43,783.29 678.44,783.29" fill="none" stroke="#333333" stroke-width="2.6605363984674333" stroke-linecap="butt" stroke-linejoin="miter" />
    <text x="719.6292328902477" y="834.4625662235821" fill="#333333" stroke="none" font-family="Roboto Mono" font-weight="normal" font-size="11.97" text-anchor="middle" dominant-baseline="middle">3</text>
    <polyline points="668.46,573.78 668.46,568.79 668.46,567.37 668.46,565.93 668.45,564.45 668.44,562.96 668.43,561.44 668.40,559.91 668.37,558.35 668.33,556.78 668.27,555.20 668.21,553.60 668.12,551.99 668.02,550.37 667.90,548.75 667.76,547.12 667.60,545.48 667.42,543.84 667.21,542.21 666.98,540.57 666.72,538.94 666.43,537.32 666.11,535.70 665.76,534.09 665.37,532.49 664.95,530.91 664.50,529.34 664.00,527.78 663.47,526.24 662.89,524.73 662.27,523.23 661.61,521.76 660.90,520.32 660.15,518.90 659.34,517.51 658.49,516.16 657.60,514.84 656.66,513.55 655.68,512.31 654.66,511.11 653.61,509.95 652.52,508.85 651.40,507.79 650.25,506.79 649.06,505.85 647.85,504.96 646.62,504.14 645.36,503.38 644.09,502.69 642.79,502.07 641.48,501.52 640.15,501.05 638.81,500.65 637.45,500.34 636.09,500.11 634.72,499.97 633.35,499.92 631.97,499.96 630.59,500.10 629.21,500.33 627.84,500.66 626.47,501.10 625.10,501.64 623.75,502.30 622.40,503.06 621.07,503.94 619.75,504.93 618.44,506.03 617.15,507.23 615.85,508.52 614.57,509.88 613.28,511.32 611.99,512.83 610.69,514.38 609.38,515.98 608.07,517.61 606.74,519.27 605.39,520.95 604.02,522.63 602.63,524.31 601.21,525.98 599.76,527.63 598.29,529.25 596.77,530.84 595.22,532.37 593.63,533.85 592.00,535.26 590.32,536.60 588.59,537.85 586.81,539.01 584.98,540.07 583.08,541.02 581.13,541.84 579.11,542.54 577.03,543.10 574.88,543.51 572.65,543.76 570.35,543.84 567.98,543.76 565.53,543.50 563.03,543.08 560.48,542.50 557.88,541.77 555.26,540.89 552.61,539.86 549.96,538.70 547.30,537.41 544.64,535.99 542.01,534.45 539.40,532.80 536.82,531.03 534.29,529.16 531.82,527.20 529.41,525.14 527.07,522.99 524.81,520.76 522.64,518.45 520.58,516.08 518.63,513.63 516.80,511.13 515.09,508.57 513.53,505.96 512.12,503.31 510.86,500.62 509.77,497.90 508.86,495.15 508.13,492.38 507.60,489.59 507.28,486.79 507.16,483.98 507.28,481.18 507.60,478.38 508.13,475.59 508.86,472.82 509.77,470.07 510.86,467.34 512.12,464.65 513.53,462.00 515.09,459.39 516.80,456.84 518.63,454.33 520.58,451.89 522.64,449.51 524.81,447.20 527.07,444.98 529.41,442.83 531.82,440.77 534.29,438.80 536.82,436.93 539.40,435.17 542.01,433.52 544.64,431.98 547.30,430.56 549.96,429.27 552.61,428.10 555.26,427.08 557.88,426.20 560.48,425.47 563.03,424.89 565.53,424.46 567.98,424.21 570.35,424.12 572.65,424.21 574.88,424.46 577.03,424.87 579.11,425.43 581.13,426.12 583.08,426.95 584.98,427.90 586.81,428.95 588.59,430.11 590.32,431.37 592.00,432.70 593.63,434.12 595.22,435.60 596.77,437.13 598.29,438.71 599.76,440.33 601.21,441.98 602.63,443.65 604.02,445.33 605.39,447.02 606.74,448.69 608.07,450.35 609.38,451.99 610.69,453.58 611.99,455.14 613.28,456.64 614.57,458.08 615.85,459.45 617.15,460.74 618.44,461.94 619.75,463.04 621.07,464.03 622.40,464.91 623.75,465.67 625.10,466.32 626.47,466.86 627.84,467.30 629.21,467.63 630.59,467.87 631.97,468.00 633.35,468.04 634.72,467.99 636.09,467.85 637.45,467.62 638.81,467.31 640.15,466.92 641.48,466.45 642.79,465.90 644.09,465.28 645.36,464.59 646.62,463.83 647.85,463.01 649.06,462.12 650.25,461.18 651.40,460.17 652.52,459.12 653.61,458.01 654.66,456.86 655.68,455.66 656.66,454.41 657.60,453.13 658.49,451.81 659.34,450.45 660.15,449.06 660.90,447.65 661.61,446.20 662.27,444.73 662.89,443.24 663.47,441.72 664.00,440.18 664.50,438.63 664.95,437.06 665.37,435.47 665.76,433.88 666.11,432.27 666.43,430.65 666.72,429.02 666.98,427.39 667.21,425.76 667.42,424.12 667.60,422.48 667.76,420.85 667.90,419.22 668.02,417.59 668.12,415.97 668.21,414.37 668.27,412.77 668.33,411.18 668.37,409.61 668.40,408.06 668.43,406.52 668.44,405.00 668.45,403.51 668.46,402.04 668.46,399.18 668.46,394.19" fill="none" stroke="#333333" stroke-width="2.6605363984674333" stroke-linecap="butt" stroke-linejoin="miter" />
    <text x="497.1877394636015" y="483.9827586206896" fill="#333333" stroke="none" font-family="Roboto Mono" font-weight="normal" font-size="11.97" text-anchor="middle" dominant-baseline="middle">5</text>
    <polyline points="668.46,374.24 668.46,369.25 668.46,367.77 668.46,366.16 668.46,364.42 668.46,362.56 668.46,360.60 668.46,358.53 668.46,356.37 668.46,354.13 668.46,351.81 668.46,349.43 668.46,347.00 668.46,344.52 668.46,342.00 668.46,339.46 668.46,336.90 668.46,334.33 668.46,331.76 668.46,329.20 668.46,326.65 668.46,324.14 668.46,321.66 668.46,319.22 668.46,316.84 668.46,314.53 668.46,312.29 668.46,310.13 668.46,308.06 668.46,306.09 668.46,304.23 668.46,302.49 668.46,299.41 668.46,294.42" fill="none" stroke="#333333" stroke-width="2.6605363984674333" stroke-linecap="butt" stroke-linejoin="miter" />
    <text x="658.4827586206895" y="334.3275862068964" fill="#333333" stroke="none" font-family="Roboto Mono" font-weight="normal" font-size="11.97" text-anchor="middle" dominant-baseline="middle">1</text>
    <polyline points="678.44,284.44 683.43,284.44 685.96,284.51 688.41,284.73 690.78,285.08 693.07,285.56 695.28,286.17 697.41,286.91 699.46,287.76 701.43,288.73 703.32,289.81 705.13,290.99 706.86,292.27 708.50,293.65 710.07,295.12 711.56,296.68 712.97,298.32 714.29,300.03 715.54,301.82 716.70,303.68 717.79,305.60 718.79,307.58 719.72,309.62 720.56,311.71 721.33,313.84 722.01,316.01 722.61,318.22 723.13,320.46 723.58,322.73 723.94,325.02 724.22,327.33 724.42,329.66 724.54,331.99 724.58,334.33 724.54,336.67 724.42,339.00 724.22,341.32 723.94,343.63 723.58,345.92 723.13,348.19 722.61,350.44 722.01,352.64 721.33,354.82 720.56,356.95 719.72,359.04 718.79,361.07 717.79,363.05 716.70,364.98 715.54,366.83 714.29,368.62 712.97,370.34 711.56,371.98 710.07,373.54 708.50,375.01 706.86,376.38 705.13,377.67 703.32,378.85 701.43,379.93 699.46,380.89 697.41,381.75 695.28,382.48 693.07,383.09 690.78,383.58 688.41,383.93 683.43,384.21 678.44,384.21" fill="none" stroke="#333333" stroke-width="2.6605363984674333" stroke-linecap="butt" stroke-linejoin="miter" />
    <text x="714.6034482758623" y="334.3275862068964" fill="#333333" stroke="none" font-family="Roboto Mono" font-weight="normal" font-size="11.97" text-anchor="middle" dominant-baseline="middle">2</text>
    <polyline points="668.46,274.47 668.46,269.48 668.46,268.00 668.46,266.39 668.46,264.65 668.46,262.79 668.46,260.83 668.46,258.76 668.46,256.60 668.46,254.36 668.46,252.04 668.46,249.66 668.46,247.23 668.46,244.75 668.46,242.23 668.46,239.69 668.46,237.13 668.46,234.56 668.46,231.99 668.46,229.43 668.46,226.88 668.46,224.37 668.46,221.89 668.46,219.45 668.46,217.07 668.46,214.76 668.46,212.52 668.46,210.36 668.46,208.29 668.46,206.32 668.46,204.46 668.46,202.72 668.46,199.64 668.46,194.65" fill="none" stroke="#333333" stroke-width="2.6605363984674333" stroke-linecap="butt" stroke-linejoin="miter" />
    <text x="658.4827586206895" y="234.55747126436768" fill="#333333" stroke="none" font-family="Roboto Mono" font-weight="normal" font-size="11.97" text-anchor="middle" dominant-baseline="middle">1</text>
    <polyline points="678.44,184.67 683.43,184.67 691.13,184.67 698.35,184.67 705.11,184.67 711.42,184.67 717.29,184.67 722.74,184.67 727.79,184.67 732.45,184.67 736.74,184.67 740.67,184.67 744.26,184.67 747.53,184.67 750.48,184.67 753.14,184.67 755.51,184.67 757.63,184.67 759.50,184.67 761.13,184.67 762.54,184.67 763.76,184.67 764.79,184.67 765.64,184.67 766.34,184.67 766.90,184.67 767.34,184.67 767.67,184.67 767.91,184.67 768.06,184.67 768.16,184.67 768.21,184.67 768.23,184.67" fill="none" stroke="#333333" stroke-width="2.6605363984674333" stroke-linecap="butt" stroke-linejoin="miter" />
    <circle cx="768.23" cy="184.67" r="7.98" fill="#c0392b" stroke="none" />
    <polyline points="763.74,184.67 772.72,184.67" fill="none" stroke="#fbfbfb" stroke-width="2.494252873563219" stroke-linecap="butt" stroke-linejoin="miter" />
    <polyline points="658.48,184.67 653.49,184.67 652.02,184.67 650.41,184.67 648.67,184.67 646.81,184.67 644.84,184.67 642.77,184.67 640.61,184.67 638.37,184.67 636.06,184.67 633.68,184.67 631.25,184.67 628.77,184.67 626.25,184.67 623.71,184.67 621.15,184.67 618.57,184.67 616.00,184.67 613.44,184.67 610.90,184.67 608.38,184.67 605.90,184.67 603.47,184.67 601.09,184.67 598.78,184.67 596.53,184.67 594.38,184.67 592.31,184.67 590.34,184.67 588.48,184.67 586.74,184.67 583.66,184.67 578.67,184.67" fill="none" stroke="#333333" stroke-width="2.6605363984674333" stroke-linecap="butt" stroke-linejoin="miter" />
    <text x="618.5747126436784" y="194.64942528735617" fill="#333333" stroke="none" font-family="Roboto Mono" font-weight="normal" font-size="11.97" text-anchor="middle" dominant-baseline="middle">1</text>
    <polyline points="568.69,174.70 568.69,169.71 568.76,167.17 568.98,164.72 569.33,162.35 569.81,160.06 570.42,157.85 571.16,155.72 572.01,153.67 572.98,151.70 574.05,149.81 575.24,148.00 576.52,146.28 577.90,144.63 579.37,143.06 580.92,141.57 582.56,140.17 584.28,138.84 586.07,137.59 587.93,136.43 589.85,135.34 591.83,134.34 593.87,133.41 595.95,132.57 598.08,131.81 600.26,131.12 602.47,130.52 604.71,130.00 606.98,129.56 609.27,129.19 611.58,128.91 613.90,128.71 616.24,128.59 618.57,128.55 620.91,128.59 623.25,128.71 625.57,128.91 627.88,129.19 630.17,129.56 632.44,130.00 634.68,130.52 636.89,131.12 639.07,131.81 641.20,132.57 643.28,133.41 645.32,134.34 647.30,135.34 649.22,136.43 651.08,137.59 652.87,138.84 654.59,140.17 656.23,141.57 657.78,143.06 659.25,144.63 660.63,146.28 661.91,148.00 663.10,149.81 664.17,151.70 665.14,153.67 665.99,155.72 666.73,157.85 667.34,160.06 667.82,162.35 668.17,164.72 668.46,169.71 668.46,174.70" fill="none" stroke="#333333" stroke-width="2.6605363984674333" stroke-linecap="butt" stroke-linejoin="miter" />
    <text x="618.5747126436809" y="138.52873563218384" fill="#333333" stroke="none" font-family="Roboto Mono" font-weight="normal" font-size="11.97" text-anchor="middle" dominant-baseline="middle">2</text>
    <polyline points="658.48,284.44 653.49,284.44 652.70,284.44 651.73,284.44 650.59,284.44 649.29,284.44 647.82,284.44 646.20,284.44 644.43,284.44 642.52,284.44 640.48,284.44 638.30,284.44 635.99,284.44 633.57,284.44 631.03,284.44 628.38,284.44 625.63,284.44 622.78,284.44 619.85,284.44 616.82,284.44 613.72,284.44 610.54,284.44 607.29,284.44 603.98,284.44 600.62,284.44 597.20,284.44 593.73,284.44 590.23,284.44 586.69,284.44 583.13,284.44 579.54,284.44 575.93,284.44 572.31,284.44 568.69,284.44 565.07,284.44 561.45,284.44 557.84,284.44 554.25,284.44 550.69,284.44 547.15,284.44 543.64,284.44 540.18,284.44 536.76,284.44 533.40,284.44 530.09,284.44 526.84,284.44 523.66,284.44 520.56,284.44 517.53,284.44 514.60,284.44 511.75,284.44 509.00,284.44 506.35,284.44 503.81,284.44 501.39,284.44 499.08,284.44 496.90,284.44 494.86,284.44 492.95,284.44 491.18,284.44 489.56,284.44 488.09,284.44 486.79,284.44 485.65,284.44 483.89,284.44 478.90,284.44" fill="none" stroke="#333333" stroke-width="2.6605363984674333" stroke-linecap="butt" stroke-linejoin="miter" />
    <text x="568.689655172414" y="294.419540229885" fill="#333333" stroke="none" font-family="Roboto Mono" font-weight="normal" font-size="11.97" text-anchor="middle" dominant-baseline="middle">1</text>
    <polyline points="468.92,294.42 468.92,299.41 468.92,300.88 468.92,302.49 468.92,304.23 468.92,306.09 468.92,308.06 468.92,310.13 468.92,312.29 468.92,314.53 468.92,316.84 468.92,319.22 468.92,321.66 468.92,324.14 468.92,326.65 468.92,329.20 468.92,331.76 468.92,334.33 468.92,336.90 468.92,339.46 468.92,342.00 468.92,344.52 468.92,347.00 468.92,349.43 468.92,351.81 468.92,354.13 468.92,356.37 468.92,358.53 468.92,360.60 468.92,362.56 468.92,364.42 468.92,366.16 468.92,369.25 468.92,374.24" fill="none" stroke="#333333" stroke-width="2.6605363984674333" stroke-linecap="butt" stroke-linejoin="miter" />
    <text x="454.66666666666697" y="334.3275862068964" fill="#333333" stroke="none" font-family="Roboto Mono" font-weight="normal" font-size="11.97" text-anchor="middle" dominant-baseline="middle">3</text>
    <text x="463.2183908045979" y="334.3275862068964" fill="#333333" stroke="none" font-family="Roboto Mono" font-weight="normal" font-size="11.97" text-anchor="middle" dominant-baseline="middle">6</text>
    <polyline points="458.94,384.21 453.95,384.21 452.48,384.21 450.87,384.21 449.13,384.21 447.27,384.21 445.30,384.21 443.23,384.21 441.07,384.21 438.83,384.21 436.52,384.21 434.14,384.21 431.71,384.21 429.23,384.21 426.71,384.21 424.17,384.21 421.61,384.21 419.03,384.21 416.46,384.21 413.90,384.21 411.36,384.21 408.84,384.21 406.36,384.21 403.93,384.21 401.55,384.21 399.24,384.21 396.99,384.21 394.83,384.21 392.77,384.21 390.80,384.21 388.94,384.21 387.20,384.21 384.11,384.21 379.13,384.21" fill="none" stroke="#333333" stroke-width="2.6605363984674333" stroke-linecap="butt" stroke-linejoin="miter" />
    <text x="419.0344827586207" y="394.1896551724137" fill="#333333" stroke="none" font-family="Roboto Mono" font-weight="normal" font-size="11.97" text-anchor="middle" dominant-baseline="middle">2</text>
    <polyline points="369.15,374.24 369.15,369.25 369.18,365.63 369.28,362.25 369.43,359.08 369.64,356.12 369.90,353.34 370.21,350.74 370.55,348.29 370.94,345.98 371.35,343.80 371.81,341.72 372.29,339.74 372.82,337.84 373.38,336.01 373.97,334.24 374.61,332.51 375.29,330.82 376.01,329.14 376.77,327.48 377.57,325.84 378.41,324.22 379.29,322.62 380.21,321.05 381.16,319.49 382.16,317.96 383.19,316.46 384.26,314.98 385.36,313.53 386.51,312.10 387.68,310.71 388.89,309.34 390.13,308.00 391.40,306.70 392.71,305.42 394.05,304.18 395.41,302.97 396.81,301.80 398.24,300.66 399.69,299.55 401.17,298.48 402.67,297.45 404.20,296.46 405.75,295.50 407.33,294.58 408.93,293.70 410.55,292.86 412.19,292.06 413.85,291.30 415.53,290.58 417.22,289.90 418.95,289.27 420.72,288.67 422.55,288.11 424.44,287.59 426.43,287.10 428.50,286.65 430.69,286.23 433.00,285.85 435.45,285.50 438.05,285.19 440.83,284.94 443.79,284.73 446.95,284.57 453.95,284.44 458.94,284.44" fill="none" stroke="#333333" stroke-width="2.6605363984674333" stroke-linecap="butt" stroke-linejoin="miter" />
    <text x="394.18375889132244" y="313.75272440858043" fill="#333333" stroke="none" font-family="Roboto Mono" font-weight="normal" font-size="11.97" text-anchor="middle" dominant-baseline="middle">3</text>
    <text x="402.7354830292534" y="313.75272440858043" fill="#333333" stroke="none" font-family="Roboto Mono" font-weight="normal" font-size="11.97" text-anchor="middle" dominant-baseline="middle">8</text>
    <polyline points="169.61,294.42 169.61,299.41 169.65,303.46 169.77,307.22 169.97,310.71 170.23,313.95 170.55,316.96 170.92,319.76 171.35,322.39 171.81,324.86 172.33,327.19 172.88,329.40 173.48,331.51 174.13,333.53 174.83,335.50 175.57,337.41 176.37,339.31 177.23,341.17 178.13,343.02 179.08,344.83 180.09,346.62 181.14,348.39 182.24,350.12 183.39,351.82 184.58,353.49 185.82,355.13 187.11,356.73 188.44,358.29 189.81,359.82 191.22,361.31 192.68,362.76 194.17,364.17 195.70,365.53 197.27,366.86 198.88,368.14 200.51,369.37 202.19,370.56 203.89,371.71 205.63,372.80 207.39,373.85 209.19,374.85 211.01,375.79 212.86,376.69 214.73,377.54 216.62,378.33 218.53,379.07 220.47,379.76 222.42,380.40 224.39,380.98 226.37,381.51 228.37,381.98 230.38,382.39 232.52,382.75 235.12,383.06 238.56,383.33 243.22,383.55 249.48,383.73 257.69,383.87 268.25,383.98 281.19,384.07 295.65,384.13 310.58,384.17 324.94,384.19 337.68,384.21 354.18,384.21 359.17,384.21" fill="none" stroke="#333333" stroke-width="2.6605363984674333" stroke-linecap="butt" stroke-linejoin="miter" />
    <text x="190.94154036176087" y="374.56919753343334" fill="#333333" stroke="none" font-family="Roboto Mono" font-weight="normal" font-size="11.97" text-anchor="middle" dominant-baseline="middle">4</text>
    <polyline points="169.61,274.47 169.61,269.48 169.61,268.00 169.61,266.39 169.61,264.65 169.61,262.79 169.61,260.83 169.61,258.76 169.61,256.60 169.61,254.36 169.61,252.04 169.61,249.66 169.61,247.23 169.61,244.75 169.61,242.23 169.61,239.69 169.61,237.13 169.61,234.56 169.61,231.99 169.61,229.43 169.61,226.88 169.61,224.37 169.61,221.89 169.61,219.45 169.61,217.07 169.61,214.76 169.61,212.52 169.61,210.36 169.61,208.29 169.61,206.32 169.61,204.46 169.61,202.72 169.61,199.64 169.61,194.65" fill="none" stroke="#e74c3c" stroke-width="2.6605363984674333" stroke-linecap="butt" stroke-linejoin="miter" />
    <text x="159.63218390804627" y="234.55747126436768" fill="#333333" stroke="none" font-family="Roboto Mono" font-weight="normal" font-size="11.97" text-anchor="middle" dominant-baseline="middle">1</text>
    <circle cx="184.57" cy="234.56" r="6.98" fill="#e74c3c" stroke="none" />
    <text x="184.57471264367814" y="234.55747126436768" fill="#fbfbfb" stroke="none" font-family="Roboto Mono" font-weight="normal" font-size="11.97" text-anchor="middle" dominant-baseline="middle">C</text>
    <polyline points="179.59,184.67 184.57,184.67 186.05,184.67 187.66,184.67 189.40,184.67 191.26,184.67 193.23,184.67 195.29,184.67 197.45,184.67 199.70,184.67 202.01,184.67 204.39,184.67 206.82,184.67 209.30,184.67 211.82,184.67 214.36,184.67 216.92,184.67 219.49,184.67 222.06,184.67 224.63,184.67 227.17,184.67 229.69,184.67 232.16,184.67 234.60,184.67 236.98,184.67 239.29,184.67 241.53,184.67 243.69,184.67 245.76,184.67 247.73,184.67 249.59,184.67 251.33,184.67 254.41,184.67 259.40,184.67" fill="none" stroke="#e74c3c" stroke-width="2.6605363984674333" stroke-linecap="butt" stroke-linejoin="miter" />
    <text x="219.49425287356325" y="194.64942528735617" fill="#333333" stroke="none" font-family="Roboto Mono" font-weight="normal" font-size="11.97" text-anchor="middle" dominant-baseline="middle">1</text>
    <circle cx="219.49" cy="169.71" r="6.98" fill="#e74c3c" stroke="none" />
    <text x="219.49425287356325" y="169.70689655172396" fill="#fbfbfb" stroke="none" font-family="Roboto Mono" font-weight="normal" font-size="11.97" text-anchor="middle" dominant-baseline="middle">C</text>
    <polyline points="179.59,284.44 184.57,284.44 188.19,284.41 191.58,284.31 194.74,284.16 197.70,283.95 200.48,283.69 203.08,283.38 205.53,283.04 207.84,282.65 210.03,282.24 212.10,281.79 214.08,281.30 215.98,280.78 217.81,280.22 219.58,279.62 221.31,278.98 223.00,278.30 224.68,277.58 226.34,276.82 227.98,276.02 229.60,275.18 231.20,274.30 232.77,273.39 234.33,272.43 235.86,271.43 237.36,270.40 238.84,269.33 240.29,268.23 241.72,267.09 243.11,265.91 244.48,264.70 245.82,263.46 247.12,262.19 248.40,260.88 249.64,259.54 250.85,258.18 252.02,256.78 253.16,255.36 254.27,253.90 255.34,252.43 256.37,250.92 257.37,249.39 258.32,247.84 259.24,246.26 260.12,244.66 260.96,243.04 261.76,241.40 262.52,239.74 263.24,238.07 263.92,236.37 264.56,234.64 265.15,232.87 265.71,231.04 266.24,229.15 266.72,227.17 267.17,225.09 267.59,222.90 267.98,220.59 268.32,218.14 268.63,215.54 268.89,212.77 269.10,209.80 269.25,206.64 269.38,199.64 269.38,194.65" fill="none" stroke="#e74c3c" stroke-width="2.6605363984674333" stroke-linecap="butt" stroke-linejoin="miter" />
    <text x="254.17873963900206" y="269.2419580298273" fill="#333333" stroke="none" font-family="Roboto Mono" font-weight="normal" font-size="11.97" text-anchor="middle" dominant-baseline="middle">1</text>
    <circle cx="236.54" cy="251.60" r="6.98" fill="#e74c3c" stroke="none" />
    <text x="236.5417084301223" y="251.60492682089534" fill="#fbfbfb" stroke="none" font-family="Roboto Mono" font-weight="normal" font-size="11.97" text-anchor="middle" dominant-baseline="middle">C</text>
    <polyline points="558.71,184.67 553.72,184.67 543.56,184.28 535.06,183.18 528.09,181.44 522.50,179.17 518.16,176.44 514.91,173.34 512.61,169.97 511.12,166.41 510.30,162.75 510.01,159.08 510.09,155.48 510.41,152.04 510.84,148.85 511.32,145.91 511.82,143.20 512.33,140.69 512.83,138.37 513.28,136.21 513.67,134.19 513.98,132.29 514.19,130.49 514.27,128.76 514.20,127.08 513.96,125.43 513.52,123.80 512.90,122.16 512.10,120.54 511.15,118.93 510.05,117.34 508.83,115.78 507.49,114.24 506.07,112.75 504.57,111.29 503.01,109.88 501.41,108.53 499.79,107.23 498.15,106.00 496.51,104.84 494.86,103.76 493.20,102.78 491.52,101.90 489.82,101.14 488.08,100.50 486.31,100.00 484.50,99.66 482.65,99.47 480.74,99.45 478.77,99.61 476.74,99.97 474.66,100.53 472.53,101.27 470.38,102.19 468.24,103.27 466.12,104.51 464.06,105.89 462.06,107.41 460.15,109.05 458.36,110.80 456.71,112.64 455.21,114.58 453.90,116.59 452.78,118.67 451.85,120.81 451.12,122.99 450.57,125.21 450.21,127.44 450.01,129.69 449.98,131.94 450.12,134.18 450.41,136.40 450.85,138.58 451.44,140.72 452.18,142.81 453.04,144.83 454.04,146.79 455.16,148.67 456.39,150.49 457.75,152.25 459.20,153.93 460.76,155.55 462.42,157.11 464.17,158.59 466.00,160.01 467.92,161.36 469.90,162.64 471.96,163.86 474.06,165.03 476.19,166.16 478.31,167.29 480.40,168.43 482.42,169.60 484.35,170.84 486.17,172.15 487.85,173.56 489.35,175.10 490.66,176.79 491.73,178.64 492.56,180.68 493.12,182.90 493.43,185.26 493.50,187.70 493.34,190.20 492.96,192.70 492.37,195.16 491.58,197.54 490.61,199.79 489.46,201.87 488.15,203.73 486.68,205.33 485.07,206.63 483.34,207.60 481.49,208.26 479.54,208.64 477.52,208.76 475.43,208.63 473.29,208.29 471.12,207.74 468.94,207.03 466.76,206.16 464.61,205.15 462.48,204.04 460.41,202.85 458.40,201.58 456.46,200.29 454.57,198.98 452.73,197.69 450.93,196.44 449.17,195.27 447.45,194.20 445.75,193.26 444.08,192.47 442.43,191.87 440.78,191.48 439.14,191.32 437.51,191.43 435.86,191.76 434.21,192.28 432.54,192.93 430.85,193.69 429.13,194.49 427.38,195.31 425.60,196.09 423.76,196.79 421.88,197.36 419.95,197.77 417.95,197.96 415.89,197.91 413.77,197.62 411.61,197.13 409.40,196.50 407.17,195.76 404.93,194.96 402.68,194.14 400.43,193.36 398.21,192.64 396.01,192.04 393.85,191.59 391.75,191.35 389.70,191.36 387.72,191.63 385.79,192.13 383.89,192.87 382.03,193.82 380.18,194.96 378.34,196.27 376.49,197.75 374.63,199.37 372.74,201.12 370.81,202.99 368.84,204.94 366.80,206.97 364.70,209.06 362.53,211.18 360.29,213.28 357.99,215.34 355.62,217.32 353.18,219.20 350.68,220.93 348.10,222.48 345.47,223.83 342.76,224.94 339.99,225.77 337.15,226.30 334.25,226.50 331.33,226.38 328.42,225.96 325.57,225.25 322.81,224.28 320.18,223.06 317.72,221.61 315.47,219.93 313.47,218.06 311.75,216.00 310.36,213.77 309.33,211.39 308.69,208.88 308.43,206.26 308.53,203.56 308.97,200.81 309.73,198.03 310.78,195.25 312.10,192.50 313.67,189.81 315.47,187.21 317.47,184.72 319.66,182.36 322.01,180.18 324.50,178.18 327.09,176.36 329.75,174.67 332.43,173.07 335.11,171.53 337.74,170.01 340.28,168.47 342.69,166.87 344.94,165.17 346.98,163.33 348.78,161.32 350.30,159.10 351.50,156.62 352.37,153.91 352.87,151.01 353.02,147.96 352.79,144.83 352.17,141.65 351.16,138.48 349.73,135.37 347.89,132.36 345.62,129.51 342.91,126.87 339.75,124.48 336.12,122.39 332.06,120.64 327.64,119.24 322.95,118.18 318.07,117.48 313.08,117.14 308.06,117.16 303.11,117.56 298.29,118.33 293.69,119.48 289.40,121.02 285.50,122.95 282.07,125.29 279.15,128.00 276.72,131.07 274.73,134.43 273.14,138.03 271.90,141.83 270.97,145.77 270.30,149.81 269.85,153.89 269.58,157.97 269.44,162.00 269.38,169.71 269.38,174.70" fill="none" stroke="#e74c3c" stroke-width="2.6605363984674333" stroke-linecap="butt" stroke-linejoin="miter" />
    <text x="443.7535476209239" y="203.6495191645157" fill="#333333" stroke="none" font-family="Roboto Mono" font-weight="normal" font-size="11.97" text-anchor="middle" dominant-baseline="middle">2</text>
    <circle cx="457.30" cy="182.71" r="6.98" fill="#e74c3c" stroke="none" />
    <text x="457.303107687389" y="182.70819251759383" fill="#fbfbfb" stroke="none" font-family="Roboto Mono" font-weight="normal" font-size="11.97" text-anchor="middle" dominant-baseline="middle">C</text>
    <polyline points="159.63,783.29 154.64,783.29 152.11,783.26 149.66,783.15 147.28,782.97 144.98,782.72 142.76,782.40 140.61,782.02 138.54,781.57 136.53,781.05 134.60,780.47 132.73,779.83 130.93,779.13 129.20,778.36 127.54,777.54 125.94,776.65 124.40,775.71 122.92,774.72 121.50,773.67 120.15,772.56 118.84,771.41 117.60,770.20 116.41,768.94 115.28,767.64 114.20,766.28 113.17,764.88 112.19,763.43 111.26,761.94 110.37,760.40 109.54,758.83 108.74,757.21 108.00,755.55 107.29,753.85 106.63,752.11 106.01,750.34 105.42,748.54 104.88,746.69 104.37,744.82 103.89,742.91 103.45,740.98 103.04,739.01 102.66,737.01 102.32,734.99 102.00,732.94 101.71,730.87 101.44,728.77 101.21,726.65 100.99,724.50 100.80,722.34 100.63,720.16 100.48,717.96 100.34,715.74 100.23,713.50 100.13,711.25 100.05,708.99 99.98,706.72 99.92,704.43 99.88,702.13 99.84,699.83 99.82,697.51 99.80,695.19 99.78,692.86 99.78,690.53 99.77,688.20 99.77,685.86 99.77,683.52 99.77,681.18 99.77,678.85 99.78,676.51 99.78,674.18 99.80,671.85 99.82,669.53 99.84,667.22 99.88,664.91 99.92,662.62 99.98,660.33 100.05,658.05 100.13,655.79 100.23,653.54 100.34,651.31 100.48,649.09 100.63,646.89 100.80,644.71 100.99,642.54 101.21,640.40 101.44,638.28 101.71,636.18 102.00,634.11 102.32,632.06 102.66,630.03 103.04,628.04 103.45,626.07 103.89,624.13 104.37,622.23 104.88,620.35 105.42,618.51 106.01,616.70 106.63,614.93 107.29,613.20 108.00,611.50 108.74,609.84 109.54,608.22 110.37,606.64 111.26,605.11 112.19,603.62 113.17,602.17 114.20,600.77 115.28,599.41 116.41,598.10 117.60,596.85 118.84,595.64 120.15,594.48 121.50,593.38 122.92,592.33 124.40,591.33 125.94,590.39 127.54,589.51 129.20,588.69 130.93,587.92 132.73,587.22 134.60,586.57 136.53,585.99 138.54,585.48 140.61,585.03 142.76,584.64 144.98,584.33 147.28,584.08 149.66,583.90 154.64,583.75 159.63,583.75" fill="none" stroke="#333333" stroke-width="2.6605363984674333" stroke-linecap="butt" stroke-linejoin="miter" />
    <text x="89.79310344827604" y="683.5229885057471" fill="#333333" stroke="none" font-family="Roboto Mono" font-weight="normal" font-size="11.97" text-anchor="middle" dominant-baseline="middle">2</text>
    <polyline points="179.59,583.75 184.57,583.75 186.05,583.75 187.66,583.75 189.40,583.75 191.26,583.75 193.23,583.75 195.29,583.75 197.45,583.75 199.70,583.75 202.01,583.75 204.39,583.75 206.82,583.75 209.30,583.75 211.82,583.75 214.36,583.75 216.92,583.75 219.49,583.75 222.06,583.75 224.63,583.75 227.17,583.75 229.69,583.75 232.16,583.75 234.60,583.75 236.98,583.75 239.29,583.75 241.53,583.75 243.69,583.75 245.76,583.75 247.73,583.75 249.59,583.75 251.33,583.75 254.41,583.75 259.40,583.75" fill="none" stroke="#9b59b6" stroke-width="2.6605363984674333" stroke-linecap="butt" stroke-linejoin="miter" />
    <text x="219.49425287356325" y="593.7298850574712" fill="#333333" stroke="none" font-family="Roboto Mono" font-weight="normal" font-size="11.97" text-anchor="middle" dominant-baseline="middle">1</text>
    <circle cx="219.49" cy="568.79" r="6.98" fill="#9b59b6" stroke="none" />
    <text x="219.49425287356325" y="568.7873563218391" fill="#fbfbfb" stroke="none" font-family="Roboto Mono" font-weight="normal" font-size="11.97" text-anchor="middle" dominant-baseline="middle">D</text>
    <polyline points="169.61,593.73 169.61,598.72 169.68,601.25 169.90,603.70 170.25,606.07 170.73,608.36 171.34,610.57 172.08,612.70 172.93,614.75 173.90,616.72 174.97,618.61 176.16,620.42 177.44,622.15 178.82,623.80 180.29,625.36 181.84,626.85 183.48,628.26 185.20,629.58 186.99,630.83 188.85,632.00 190.77,633.08 192.75,634.09 194.79,635.01 196.87,635.85 199.00,636.62 201.18,637.30 203.39,637.90 205.63,638.43 207.90,638.87 210.19,639.23 212.50,639.51 214.82,639.71 217.16,639.83 219.49,639.87 221.83,639.83 224.16,639.71 226.49,639.51 228.80,639.23 231.09,638.87 233.36,638.43 235.60,637.90 237.81,637.30 239.98,636.62 242.12,635.85 244.20,635.01 246.24,634.09 248.22,633.08 250.14,632.00 252.00,630.83 253.79,629.58 255.51,628.26 257.15,626.85 258.70,625.36 260.17,623.80 261.55,622.15 262.83,620.42 264.02,618.61 265.09,616.72 266.06,614.75 266.91,612.70 267.65,610.57 268.26,608.36 268.74,606.07 269.09,603.70 269.38,598.72 269.38,593.73" fill="none" stroke="#9b59b6" stroke-width="2.6605363984674333" stroke-linecap="butt" stroke-linejoin="miter" />
    <text x="219.49425287356325" y="649.8505747126437" fill="#333333" stroke="none" font-family="Roboto Mono" font-weight="normal" font-size="11.97" text-anchor="middle" dominant-baseline="middle">3</text>
    <circle cx="219.49" cy="624.91" r="6.98" fill="#9b59b6" stroke="none" />
    <text x="219.49425287356325" y="624.9080459770114" fill="#fbfbfb" stroke="none" font-family="Roboto Mono" font-weight="normal" font-size="11.97" text-anchor="middle" dominant-baseline="middle">D</text>
    <polyline points="269.38,573.78 269.38,568.79 269.45,563.83 269.67,559.24 270.02,555.01 270.50,551.12 271.11,547.57 271.85,544.33 272.70,541.41 273.67,538.78 274.74,536.43 275.93,534.36 277.21,532.55 278.59,530.99 280.06,529.67 281.61,528.57 283.25,527.69 284.97,527.01 286.76,526.52 288.62,526.20 290.54,526.06 292.52,526.06 294.56,526.21 296.64,526.49 298.77,526.89 300.95,527.40 303.16,528.00 305.40,528.68 307.67,529.44 309.96,530.25 312.27,531.12 314.59,532.01 316.93,532.93 319.26,533.87 321.60,534.80 323.94,535.72 326.26,536.62 328.57,537.48 330.86,538.30 333.13,539.05 335.37,539.74 337.58,540.34 339.75,540.84 341.89,541.24 343.97,541.52 346.01,541.67 347.99,541.68 349.91,541.53 351.77,541.22 353.56,540.73 355.28,540.05 356.92,539.16 358.47,538.06 359.94,536.74 361.32,535.18 362.60,533.37 363.79,531.30 364.86,528.96 365.83,526.33 366.68,523.40 367.42,520.17 368.03,516.61 368.51,512.72 368.86,508.49 369.15,498.95 369.15,493.96" fill="none" stroke="#9b59b6" stroke-width="2.6605363984674333" stroke-linecap="butt" stroke-linejoin="miter" />
    <text x="315.5590924693063" y="543.1312761885354" fill="#333333" stroke="none" font-family="Roboto Mono" font-weight="normal" font-size="11.97" text-anchor="middle" dominant-baseline="middle">1</text>
    <circle cx="324.82" cy="519.97" r="6.98" fill="#9b59b6" stroke="none" />
    <text x="324.8222808362709" y="519.972625947082" fill="#fbfbfb" stroke="none" font-family="Roboto Mono" font-weight="normal" font-size="11.97" text-anchor="middle" dominant-baseline="middle">D</text>
    <polyline points="169.61,573.78 169.61,568.79 169.61,562.47 169.59,556.60 169.55,551.16 169.48,546.13 169.36,541.49 169.17,537.22 168.91,533.30 168.57,529.71 168.13,526.43 167.58,523.45 166.91,520.74 166.10,518.28 165.15,516.05 164.04,514.04 162.76,512.23 161.30,510.59 159.64,509.10 157.82,507.75 155.85,506.50 153.76,505.34 151.57,504.23 149.31,503.16 147.00,502.10 144.67,501.03 142.33,499.91 140.02,498.73 137.76,497.47 135.57,496.09 133.48,494.58 131.51,492.90 129.69,491.04 128.04,488.97 126.58,486.68 125.32,484.18 124.26,481.51 123.41,478.70 122.78,475.77 122.37,472.76 122.18,469.71 122.22,466.63 122.49,463.56 123.00,460.53 123.76,457.57 124.76,454.71 126.02,451.99 127.54,449.43 129.32,447.05 131.36,444.91 133.68,443.01 136.23,441.35 138.99,439.95 141.91,438.79 144.98,437.86 148.14,437.17 151.38,436.72 154.64,436.49 157.91,436.48 161.15,436.70 164.31,437.13 167.37,437.77 170.30,438.63 173.06,439.69 175.61,440.95 177.92,442.41 179.97,444.06 181.78,445.89 183.37,447.86 184.78,449.95 186.03,452.13 187.16,454.40 188.19,456.71 189.15,459.04 190.07,461.37 190.98,463.68 191.91,465.95 192.89,468.13 193.95,470.22 195.11,472.19 196.41,474.02 197.88,475.67 199.53,477.13 201.36,478.41 203.35,479.52 205.49,480.48 207.75,481.28 210.12,481.95 212.59,482.50 215.13,482.94 217.73,483.29 220.37,483.54 223.03,483.73 225.70,483.85 228.37,483.93 231.00,483.97 233.59,483.98 236.12,483.98 238.58,483.98 240.97,483.98 243.29,483.98 245.57,483.98 247.80,483.98 249.99,483.98 252.16,483.98 254.31,483.98 256.45,483.98 258.59,483.98 260.73,483.98 262.90,483.98 265.08,483.98 267.30,483.98 269.56,483.98 271.87,483.98 274.25,483.98 276.74,483.98 279.40,483.98 282.28,483.98 285.44,483.98 288.93,483.98 292.81,483.98 297.13,483.98 301.95,483.98 307.31,483.98 313.29,483.98 319.93,483.98 327.28,483.98 335.40,483.98 354.18,483.98 359.17,483.98" fill="none" stroke="#1abc9c" stroke-width="2.6605363984674333" stroke-linecap="butt" stroke-linejoin="miter" />
    <text x="172.12441969280576" y="450.5305542932131" fill="#333333" stroke="none" font-family="Roboto Mono" font-weight="normal" font-size="11.97" text-anchor="middle" dominant-baseline="middle">2</text>
    <circle cx="186.62" cy="430.23" r="6.98" fill="#1abc9c" stroke="none" />
    <text x="186.6217995795655" y="430.23386204677035" fill="#fbfbfb" stroke="none" font-family="Roboto Mono" font-weight="normal" font-size="11.97" text-anchor="middle" dominant-baseline="middle">E</text>
    <polyline points="379.13,483.98 384.11,483.98 388.45,483.98 392.18,483.95 395.45,483.88 398.37,483.74 401.10,483.52 403.74,483.17 406.44,482.70 409.21,482.07 412.03,481.28 414.85,480.30 417.62,479.13 420.32,477.74 422.88,476.13 425.28,474.28 427.51,472.22 429.54,469.96 431.35,467.53 432.94,464.95 434.28,462.23 435.36,459.40 436.17,456.48 436.72,453.50 436.99,450.48 436.98,447.44 436.70,444.43 436.13,441.45 435.30,438.54 434.19,435.71 432.83,433.00 431.24,430.42 429.41,428.00 427.37,425.76 425.13,423.72 422.71,421.89 420.13,420.30 417.42,418.94 414.60,417.84 411.68,417.00 408.71,416.43 405.69,416.15 402.66,416.15 399.63,416.42 396.65,416.96 393.73,417.77 390.90,418.85 388.18,420.19 385.60,421.78 383.17,423.60 380.91,425.62 378.85,427.85 377.01,430.25 375.39,432.82 374.01,435.51 372.83,438.28 371.85,441.10 371.06,443.92 370.43,446.70 369.96,449.39 369.62,452.04 369.39,454.76 369.25,457.69 369.18,460.95 369.15,469.02 369.15,474.01" fill="none" stroke="#1abc9c" stroke-width="2.6605363984674333" stroke-linecap="butt" stroke-linejoin="miter" />
    <text x="420.3188880626633" y="432.8132958453858" fill="#333333" stroke="none" font-family="Roboto Mono" font-weight="normal" font-size="11.97" text-anchor="middle" dominant-baseline="middle">1</text>
    <circle cx="437.96" cy="415.18" r="6.98" fill="#1abc9c" stroke="none" />
    <text x="437.95591927156534" y="415.1762646364763" fill="#fbfbfb" stroke="none" font-family="Roboto Mono" font-weight="normal" font-size="11.97" text-anchor="middle" dominant-baseline="middle">E</text>
    <polyline points="169.61,793.27 169.61,798.26 169.61,799.19 169.61,800.13 169.61,801.06 169.61,802.00 169.61,802.94 169.61,803.87 169.61,804.81 169.61,805.74 169.61,806.68 169.61,807.61 169.61,808.55 169.61,809.48 169.61,810.42 169.61,811.35 169.61,813.22" fill="none" stroke="#f1c40f" stroke-width="2.6605363984674333" stroke-linecap="butt" stroke-linejoin="miter" />
    <circle cx="169.61" cy="813.22" r="7.98" fill="#c0392b" stroke="none" />
    <polyline points="165.12,813.22 174.10,813.22" fill="none" stroke="#fbfbfb" stroke-width="2.494252873563219" stroke-linecap="butt" stroke-linejoin="miter" />
    <circle cx="184.57" cy="805.74" r="6.98" fill="#f1c40f" stroke="none" />
    <text x="184.57471264367814" y="805.7413793103449" fill="#333333" stroke="none" font-family="Roboto Mono" font-weight="normal" font-size="11.97" text-anchor="middle" dominant-baseline="middle">A</text>
    <polyline points="159.63,284.44 154.64,284.44 153.02,284.44 151.41,284.44 149.83,284.43 148.27,284.42 146.74,284.39 145.22,284.36 143.73,284.31 142.26,284.25 140.81,284.17 139.39,284.06 137.99,283.94 136.61,283.78 135.26,283.61 133.93,283.40 132.62,283.16 131.34,282.88 130.08,282.57 128.84,282.22 127.63,281.83 126.44,281.40 125.28,280.92 124.14,280.39 123.03,279.81 121.94,279.18 120.87,278.50 119.83,277.75 118.81,276.95 117.82,276.09 116.86,275.16 115.92,274.17 115.00,273.10 114.11,271.97 113.25,270.77 112.41,269.48 111.60,268.12 110.81,266.69 110.05,265.16 109.32,263.56 108.61,261.87 107.93,260.08 107.27,258.21 106.64,256.25 106.04,254.18 105.46,252.02 104.92,249.76 104.39,247.40 103.90,244.93 103.43,242.35 102.99,239.67 102.58,236.87 102.20,233.96 101.84,230.93 101.51,227.78 101.21,224.51 100.94,221.12 100.70,217.60 100.48,213.96 100.29,210.18 100.13,206.28 100.00,202.23 99.90,198.06 99.83,193.74 99.77,184.67" fill="none" stroke="#333333" stroke-width="2.6605363984674333" stroke-linecap="butt" stroke-linejoin="miter" />
    <circle cx="99.77" cy="184.67" r="7.98" fill="#c0392b" stroke="none" />
    <polyline points="95.28,184.67 104.26,184.67" fill="none" stroke="#fbfbfb" stroke-width="2.494252873563219" stroke-linecap="butt" stroke-linejoin="miter" />
    <polyline points="369.15,793.27 369.15,798.26 369.15,799.19 369.15,800.13 369.15,801.06 369.15,802.00 369.15,802.94 369.15,803.87 369.15,804.81 369.15,805.74 369.15,806.68 369.15,807.61 369.15,808.55 369.15,809.48 369.15,810.42 369.15,811.35 369.15,813.22" fill="none" stroke="#f1c40f" stroke-width="2.6605363984674333" stroke-linecap="butt" stroke-linejoin="miter" />
    <circle cx="369.15" cy="813.22" r="7.98" fill="#c0392b" stroke="none" />
    <polyline points="364.66,813.22 373.64,813.22" fill="none" stroke="#fbfbfb" stroke-width="2.494252873563219" stroke-linecap="butt" stroke-linejoin="miter" />
    <circle cx="384.11" cy="805.74" r="6.98" fill="#f1c40f" stroke="none" />
    <text x="384.1149425287358" y="805.7413793103449" fill="#333333" stroke="none" font-family="Roboto Mono" font-weight="normal" font-size="11.97" text-anchor="middle" dominant-baseline="middle">A</text>
    <polyline points="568.69,793.27 568.69,798.26 568.69,799.19 568.69,800.13 568.69,801.06 568.69,802.00 568.69,802.94 568.69,803.87 568.69,804.81 568.69,805.74 568.69,806.68 568.69,807.61 568.69,808.55 568.69,809.48 568.69,810.42 568.69,811.35 568.69,813.22" fill="none" stroke="#333333" stroke-width="2.6605363984674333" stroke-linecap="butt" stroke-linejoin="miter" />
    <polygon points="568.69,808.24 560.91,834.18 568.69,828.99 576.47,834.18" fill="#333333" stroke="none" />
    <text x="568.689655172414" y="839.164367816092" fill="#333333" stroke="none" font-family="Roboto Mono" font-weight="normal" font-size="11.97" text-anchor="middle" dominant-baseline="middle">N</text>
    <polyline points="661.48,196.64 661.48,204.33" fill="none" stroke="#333333" stroke-width="1.7293486590038318" stroke-linecap="butt" stroke-linejoin="miter" />
    <polygon points="661.48,207.62 664.55,203.23 658.40,203.23" fill="#333333" stroke="none" />
    <polyline points="480.89,291.43 488.57,291.43" fill="none" stroke="#333333" stroke-width="1.7293486590038318" stroke-linecap="butt" stroke-linejoin="miter" />
    <polygon points="491.87,291.43 487.48,288.35 487.48,294.50" fill="#333333" stroke="none" />
    <polyline points="157.64,776.31 149.95,776.31" fill="none" stroke="#333333" stroke-width="1.7293486590038318" stroke-linecap="butt" stroke-linejoin="miter" />
    <polygon points="146.66,776.31 151.05,779.38 151.05,773.24" fill="#333333" stroke="none" />
    <polygon points="359.17,793.27 379.13,793.27 379.13,773.32 359.17,773.32" fill="#c0392b" stroke="none" />
    <polygon points="159.63,793.27 179.59,793.27 179.59,773.32 159.63,773.32" fill="#c0392b" stroke="none" />
    <polygon points="359.17,693.50 379.13,693.50 379.13,673.55 359.17,673.55" fill="#2980b9" stroke="none" />
    <polygon points="458.94,593.73 478.90,593.73 478.90,573.78 458.94,573.78" fill="#2980b9" stroke="none" />
    <polygon points="458.94,793.27 478.90,793.27 478.90,773.32 458.94,773.32" fill="#2980b9" stroke="none" />
    <polygon points="558.71,793.27 578.67,793.27 578.67,773.32 558.71,773.32" fill="#c0392b" stroke="none" />
    <polygon points="558.71,593.73 578.67,593.73 578.67,573.78 558.71,573.78" fill="#c0392b" stroke="none" />
    <polygon points="658.48,593.73 678.44,593.73 678.44,573.78 658.48,573.78" fill="#2980b9" stroke="none" />
    <polygon points="658.48,793.27 678.44,793.27 678.44,773.32 658.48,773.32" fill="#2980b9" stroke="none" />
    <polygon points="658.48,394.19 678.44,394.19 678.44,374.24 658.48,374.24" fill="#2980b9" stroke="none" />
    <polygon points="658.48,294.42 678.44,294.42 678.44,274.47 658.48,274.47" fill="#c0392b" stroke="none" />
    <polygon points="658.48,194.65 678.44,194.65 678.44,174.70 658.48,174.70" fill="#2980b9" stroke="none" />
    <polygon points="558.71,194.65 578.67,194.65 578.67,174.70 558.71,174.70" fill="#c0392b" stroke="none" />
    <polygon points="458.94,294.42 478.90,294.42 478.90,274.47 458.94,274.47" fill="#c0392b" stroke="none" />
    <polygon points="458.94,394.19 478.90,394.19 478.90,374.24 458.94,374.24" fill="#2980b9" stroke="none" />
    <polygon points="359.17,394.19 379.13,394.19 379.13,374.24 359.17,374.24" fill="#c0392b" stroke="none" />
    <polygon points="159.63,294.42 179.59,294.42 179.59,274.47 159.63,274.47" fill="#2980b9" stroke="none" />
    <polygon points="159.63,194.65 179.59,194.65 179.59,174.70 159.63,174.70" fill="#c0392b" stroke="none" />
    <polygon points="259.40,194.65 279.36,194.65 279.36,174.70 259.40,174.70" fill="#2980b9" stroke="none" />
    <polygon points="159.63,593.73 179.59,593.73 179.59,573.78 159.63,573.78" fill="#c0392b" stroke="none" />
    <polygon points="259.40,593.73 279.36,593.73 279.36,573.78 259.40,573.78" fill="#2980b9" stroke="none" />
    <polygon points="359.17,493.96 379.13,493.96 379.13,474.01 359.17,474.01" fill="#2980b9" stroke="none" />
    <circle cx="668.46" cy="284.44" r="6.98" fill="#f1c40f" stroke="none" />
    <text x="668.4597701149428" y="284.4425287356321" fill="#333333" stroke="none" font-family="Roboto Mono" font-weight="normal" font-size="11.97" text-anchor="middle" dominant-baseline="middle">A</text>
    <circle cx="369.15" cy="384.21" r="6.98" fill="#2ecc71" stroke="none" />
    <text x="369.1494252873565" y="384.2126436781608" fill="#fbfbfb" stroke="none" font-family="Roboto Mono" font-weight="normal" font-size="11.97" text-anchor="middle" dominant-baseline="middle">B</text>
    <text x="30" y="883.0632183908046" fill="#a3a3a3" stroke="none" font-family="Roboto Mono" font-weight="normal" font-size="16.00" text-anchor="middle" dominant-baseline="middle">1</text>
    <text x="30" y="783.2931034482758" fill="#a3a3a3" stroke="none" font-family="Roboto Mono" font-weight="normal" font-size="16.00" text-anchor="middle" dominant-baseline="middle">2</text>
    <text x="30" y="683.5229885057471" fill="#a3a3a3" stroke="none" font-family="Roboto Mono" font-weight="normal" font-size="16.00" text-anchor="middle" dominant-baseline="middle">3</text>
    <text x="30" y="583.7528735632184" fill="#a3a3a3" stroke="none" font-family="Roboto Mono" font-weight="normal" font-size="16.00" text-anchor="middle" dominant-baseline="middle">4</text>
    <text x="30" y="483.9827586206896" fill="#a3a3a3" stroke="none" font-family="Roboto Mono" font-weight="normal" font-size="16.00" text-anchor="middle" dominant-baseline="middle">5</text>
    <text x="30" y="384.2126436781608" fill="#a3a3a3" stroke="none" font-family="Roboto Mono" font-weight="normal" font-size="16.00" text-anchor="middle" dominant-baseline="middle">6</text>
    <text x="30" y="284.4425287356321" fill="#a3a3a3" stroke="none" font-family="Roboto Mono" font-weight="normal" font-size="16.00" text-anchor="middle" dominant-baseline="middle">7</text>
    <text x="30" y="184.67241379310337" fill="#a3a3a3" stroke="none" font-family="Roboto Mono" font-weight="normal" font-size="16.00" text-anchor="middle" dominant-baseline="middle">8</text>
    <text x="30" y="84.90229885057454" fill="#a3a3a3" stroke="none" font-family="Roboto Mono" font-weight="normal" font-size="16.00" text-anchor="middle" dominant-baseline="middle">9</text>
    <text x="69.83908045977023" y="922.9999999999999" fill="#a3a3a3" stroke="none" font-family="Roboto Mono" font-weight="normal" font-size="16.00" text-anchor="middle" dominant-baseline="middle">12</text>
    <text x="169.60919540229906" y="922.9999999999999" fill="#a3a3a3" stroke="none" font-family="Roboto Mono" font-weight="normal" font-size="16.00" text-anchor="middle" dominant-baseline="middle">13</text>
    <text x="269.3793103448277" y="922.9999999999999" fill="#a3a3a3" stroke="none" font-family="Roboto Mono" font-weight="normal" font-size="16.00" text-anchor="middle" dominant-baseline="middle">14</text>
    <text x="369.1494252873565" y="922.9999999999999" fill="#a3a3a3" stroke="none" font-family="Roboto Mono" font-weight="normal" font-size="16.00" text-anchor="middle" dominant-baseline="middle">15</text>
    <text x="468.9195402298851" y="922.9999999999999" fill="#a3a3a3" stroke="none" font-family="Roboto Mono" font-weight="normal" font-size="16.00" text-anchor="middle" dominant-baseline="middle">16</text>
    <text x="568.689655172414" y="922.9999999999999" fill="#a3a3a3" stroke="none" font-family="Roboto Mono" font-weight="normal" font-size="16.00" text-anchor="middle" dominant-baseline="middle">17</text>
    <text x="668.4597701149428" y="922.9999999999999" fill="#a3a3a3" stroke="none" font-family="Roboto Mono" font-weight="normal" font-size="16.00" text-anchor="middle" dominant-baseline="middle">18</text>
    <text x="768.2298850574714" y="922.9999999999999" fill="#a3a3a3" stroke="none" font-family="Roboto Mono" font-weight="normal" font-size="16.00" text-anchor="middle" dominant-baseline="middle">19</text>
    <circle cx="824.00" cy="44.00" r="24.00" fill="rgba(51, 51, 51, 0.25)" stroke="none" />
    <polygon points="824.00,24.00 832.00,44.00 816.00,44.00" fill="#c0392b" stroke="none" />
    <polygon points="824.00,64.00 832.00,44.00 816.00,44.00" fill="rgba(51, 51, 51, 0.8)" stroke="none" />
    <polygon points="821.85,43.00 820.65,43.00 820.65,35.00 821.85,35.00 826.15,41.00 826.15,35.00 827.35,35.00 827.35,43.00 826.15,43.00 821.85,37.00" fill="#ffffff" stroke="none" />
</svg>
