<?xml version="1.0" encoding="UTF-8"?>
<svg version="1.1" xmlns="http://www.w3.org/2000/svg" viewBox="0 0 413.00 598.00">
<style type="text/css">
@font-face {
  font-family: 'Roboto Mono';
  font-style: normal;
  font-weight: 400;
  font-display: swap;
  src: local('Roboto Mono'), local('RobotoMono-Regular'), url(https://fonts.gstatic.com/s/robotomono/v7/L0x5DF4xlVMF-BfR8bXMIjhLq38.woff2) format('woff2');
  unicode-range: U+0000-00FF, U+0131, U+0152-0153, U+02BB-02BC, U+02C6, U+02DA, U+02DC, U+2000-206F, U+2074, U+20AC, U+2122, U+2191, U+2193, U+2212, U+2215, U+FEFF, U+FFFD;
}
@font-face {
  font-family: 'Roboto Mono';
  font-style: normal;
  font-weight: 700;
  font-display: swap;
  src: local('Roboto Mono Bold'), local('RobotoMono-Bold'), url(https://fonts.gstatic.com/s/robotomono/v7/L0xkDF4xlVMF-BfR8bXMIjDwjmqxf78.woff2) format('woff2');
  unicode-range: U+0000-00FF, U+0131, U+0152-0153, U+02BB-02BC, U+02C6, U+02DA, U+02DC, U+2000-206F, U+2074, U+20AC, U+2122, U+2191, U+2193, U+2212, U+2215, U+FEFF, U+FFFD;
}
</style>
    <rect x="0" y="0" width="413.0000000000006" height="598" fill="#eeeeee" stroke="none" />
    <polygon points="0.00,597.55 413.00,597.55 413.00,0.45 0.00,0.45" fill="#fbfbfb" stroke="none" />
    <polyline points="0.00,597.55 413.00,597.55" fill="none" stroke="#d2d2d2" stroke-width="1" stroke-linecap="butt" stroke-linejoin="miter" />
    <polyline points="0.00,498.04 413.00,498.04" fill="none" stroke="#d2d2d2" stroke-width="1" stroke-linecap="butt" stroke-linejoin="miter" />
    <polyline points="0.00,398.52 413.00,398.52" fill="none" stroke="#d2d2d2" stroke-width="1" stroke-linecap="butt" stroke-linejoin="miter" />
    <polyline points="0.00,299.00 413.00,299.00" fill="none" stroke="#d2d2d2" stroke-width="1" stroke-linecap="butt" stroke-linejoin="miter" />
    <polyline points="0.00,199.48 413.00,199.48" fill="none" stroke="#d2d2d2" stroke-width="1" stroke-linecap="butt" stroke-linejoin="miter" />
    <polyline points="0.00,99.96 413.00,99.96" fill="none" stroke="#d2d2d2" stroke-width="1" stroke-linecap="butt" stroke-linejoin="miter" />
    <polyline points="0.00,0.45 413.00,0.45" fill="none" stroke="#d2d2d2" stroke-width="1" stroke-linecap="butt" stroke-linejoin="miter" />
    <polyline points="0.00,598.00 0.00,0.00" fill="none" stroke="#d2d2d2" stroke-width="1" stroke-linecap="butt" stroke-linejoin="miter" />
    <polyline points="99.52,598.00 99.52,0.00" fill="none" stroke="#d2d2d2" stroke-width="1" stroke-linecap="butt" stroke-linejoin="miter" />
    <polyline points="199.04,598.00 199.04,0.00" fill="none" stroke="#d2d2d2" stroke-width="1" stroke-linecap="butt" stroke-linejoin="miter" />
    <polyline points="298.55,598.00 298.55,0.00" fill="none" stroke="#d2d2d2" stroke-width="1" stroke-linecap="butt" stroke-linejoin="miter" />
    <polyline points="398.07,598.00 398.07,0.00" fill="none" stroke="#d2d2d2" stroke-width="1" stroke-linecap="butt" stroke-linejoin="miter" />
    <circle cx="199.04" cy="498.04" r="24.88" fill="#2ecc71" stroke="none" />
    <path d="M 117.43,490.07 A 9.95 9.95 0 0 0 107.48,480.12" fill="none" stroke="#f1c40f" stroke-width="2.6538152610441776" stroke-linecap="butt" stroke-linejoin="miter" />
    <path d="M 124.90,490.07 A 17.42 17.42 0 0 0 107.48,472.66" fill="none" stroke="#f1c40f" stroke-width="2.6538152610441776" stroke-linecap="butt" stroke-linejoin="miter" />
    <path d="M 132.36,490.07 A 24.88 24.88 0 0 0 107.48,465.20" fill="none" stroke="#f1c40f" stroke-width="2.6538152610441776" stroke-linecap="butt" stroke-linejoin="miter" />
    <circle cx="132.11" cy="465.45" r="6.97" fill="#f1c40f" stroke="none" />
    <text x="132.1089843904865" y="465.44523247698453" fill="#333333" stroke="none" font-family="Roboto Mono" font-weight="normal" font-size="11.94" text-anchor="middle" dominant-baseline="middle">A</text>
    <path d="M 117.43,92.00 A 9.95 9.95 0 0 0 107.48,82.05" fill="none" stroke="#2ecc71" stroke-width="2.6538152610441776" stroke-linecap="butt" stroke-linejoin="miter" />
    <path d="M 124.90,92.00 A 17.42 17.42 0 0 0 107.48,74.59" fill="none" stroke="#2ecc71" stroke-width="2.6538152610441776" stroke-linecap="butt" stroke-linejoin="miter" />
    <path d="M 132.36,92.00 A 24.88 24.88 0 0 0 107.48,67.12" fill="none" stroke="#2ecc71" stroke-width="2.6538152610441776" stroke-linecap="butt" stroke-linejoin="miter" />
    <polygon points="138.61,69.89 126.68,71.74 134.25,81.14" fill="#2ecc71" stroke="none" />
    <circle cx="132.11" cy="67.37" r="6.97" fill="#2ecc71" stroke="none" />
    <text x="132.1089843904865" y="67.37294332035708" fill="#fbfbfb" stroke="none" font-family="Roboto Mono" font-weight="normal" font-size="11.94" text-anchor="middle" dominant-baseline="middle">B</text>
    <path d="M 216.95,490.07 A 9.95 9.95 0 0 0 207.00,480.12" fill="none" stroke="#e74c3c" stroke-width="2.6538152610441776" stroke-linecap="butt" stroke-linejoin="miter" />
    <path d="M 224.41,490.07 A 17.42 17.42 0 0 0 207.00,472.66" fill="none" stroke="#e74c3c" stroke-width="2.6538152610441776" stroke-linecap="butt" stroke-linejoin="miter" />
    <path d="M 231.88,490.07 A 24.88 24.88 0 0 0 207.00,465.20" fill="none" stroke="#e74c3c" stroke-width="2.6538152610441776" stroke-linecap="butt" stroke-linejoin="miter" />
    <circle cx="231.63" cy="465.45" r="6.97" fill="#e74c3c" stroke="none" />
    <text x="231.62705667964292" y="465.44523247698453" fill="#fbfbfb" stroke="none" font-family="Roboto Mono" font-weight="normal" font-size="11.94" text-anchor="middle" dominant-baseline="middle">C</text>
    <path d="M 216.95,291.04 A 9.95 9.95 0 0 0 207.00,281.09" fill="none" stroke="#9b59b6" stroke-width="2.6538152610441776" stroke-linecap="butt" stroke-linejoin="miter" />
    <path d="M 224.41,291.04 A 17.42 17.42 0 0 0 207.00,273.62" fill="none" stroke="#9b59b6" stroke-width="2.6538152610441776" stroke-linecap="butt" stroke-linejoin="miter" />
    <path d="M 231.88,291.04 A 24.88 24.88 0 0 0 207.00,266.16" fill="none" stroke="#9b59b6" stroke-width="2.6538152610441776" stroke-linecap="butt" stroke-linejoin="miter" />
    <circle cx="231.63" cy="266.41" r="6.97" fill="#9b59b6" stroke="none" />
    <text x="231.62705667964292" y="266.4090878986699" fill="#fbfbfb" stroke="none" font-family="Roboto Mono" font-weight="normal" font-size="11.94" text-anchor="middle" dominant-baseline="middle">D</text>
    <polyline points="288.60,498.04 283.63,498.04 282.16,498.04 280.55,498.04 278.81,498.04 276.96,498.04 275.00,498.04 272.93,498.04 270.78,498.04 268.54,498.04 266.23,498.04 263.86,498.04 261.43,498.04 258.96,498.04 256.45,498.04 253.91,498.04 251.36,498.04 248.80,498.04 246.23,498.04 243.68,498.04 241.14,498.04 238.63,498.04 236.16,498.04 233.73,498.04 231.36,498.04 229.05,498.04 226.81,498.04 224.66,498.04 222.59,498.04 220.63,498.04 218.78,498.04 217.04,498.04 213.96,498.04 208.99,498.04" fill="none" stroke="#333333" stroke-width="2.6538152610441776" stroke-linecap="butt" stroke-linejoin="miter" />
    <text x="248.79518072289284" y="507.98795180722846" fill="#333333" stroke="none" font-family="Roboto Mono" font-weight="normal" font-size="11.94" text-anchor="middle" dominant-baseline="middle">1</text>
    <polyline points="288.60,199.48 283.63,199.48 282.16,199.48 280.55,199.48 278.81,199.48 276.96,199.48 275.00,199.48 272.93,199.48 270.78,199.48 268.54,199.48 266.23,199.48 263.86,199.48 261.43,199.48 258.96,199.48 256.45,199.48 253.91,199.48 251.36,199.48 248.80,199.48 246.23,199.48 243.68,199.48 241.14,199.48 238.63,199.48 236.16,199.48 233.73,199.48 231.36,199.48 229.05,199.48 226.81,199.48 224.66,199.48 222.59,199.48 220.63,199.48 218.78,199.48 217.04,199.48 213.96,199.48 208.99,199.48" fill="none" stroke="#333333" stroke-width="2.6538152610441776" stroke-linecap="butt" stroke-linejoin="miter" />
    <text x="248.79518072289284" y="209.43373493975741" fill="#333333" stroke="none" font-family="Roboto Mono" font-weight="normal" font-size="11.94" text-anchor="middle" dominant-baseline="middle">1</text>
    <polyline points="189.08,199.48 184.11,199.48 181.46,199.48 178.82,199.48 176.18,199.48 173.53,199.48 170.89,199.48 168.25,199.48 165.60,199.48 162.96,199.48 160.32,199.48 157.67,199.48 155.03,199.48 152.39,199.48 149.74,199.48 147.10,199.48 144.46,199.48 141.81,199.48 139.17,199.48 136.53,199.48 133.88,199.48 131.24,199.48 128.60,199.48 125.95,199.48 123.31,199.48 120.67,199.48 118.02,199.48 115.38,199.48 112.74,199.48 110.09,199.48 107.45,199.48 104.80,199.48 99.52,199.48" fill="none" stroke="#333333" stroke-width="2.6538152610441776" stroke-linecap="butt" stroke-linejoin="miter" />
    <circle cx="99.52" cy="199.48" r="7.96" fill="#c0392b" stroke="none" />
    <polyline points="95.04,199.48 104.00,199.48" fill="none" stroke="#fbfbfb" stroke-width="2.4879518072289164" stroke-linecap="butt" stroke-linejoin="miter" />
    <polyline points="298.55,289.05 298.55,284.07 298.55,282.60 298.55,280.99 298.55,279.26 298.55,277.41 298.55,275.44 298.55,273.38 298.55,271.23 298.55,268.99 298.55,266.68 298.55,264.31 298.55,261.88 298.55,259.41 298.55,256.90 298.55,254.36 298.55,251.81 298.55,249.24 298.55,246.68 298.55,244.12 298.55,241.58 298.55,239.08 298.55,236.60 298.55,234.17 298.55,231.80 298.55,229.49 298.55,227.26 298.55,225.10 298.55,223.04 298.55,221.08 298.55,219.22 298.55,217.49 298.55,214.41 298.55,209.43" fill="none" stroke="#333333" stroke-width="2.6538152610441776" stroke-linecap="butt" stroke-linejoin="miter" />
    <text x="288.6024096385554" y="249.2409638554218" fill="#333333" stroke="none" font-family="Roboto Mono" font-weight="normal" font-size="11.94" text-anchor="middle" dominant-baseline="middle">1</text>
    <polyline points="189.08,299.00 184.11,299.00 180.31,298.98 176.70,298.93 173.25,298.85 169.97,298.74 166.85,298.60 163.88,298.42 161.05,298.21 158.35,297.97 155.79,297.70 153.35,297.40 151.02,297.07 148.80,296.71 146.68,296.32 144.66,295.90 142.72,295.45 140.86,294.98 139.08,294.47 137.36,293.94 135.69,293.37 134.08,292.78 132.51,292.16 130.98,291.52 129.49,290.84 128.03,290.14 126.60,289.40 125.21,288.64 123.86,287.84 122.54,287.00 121.26,286.13 120.01,285.23 118.80,284.28 117.62,283.29 116.49,282.27 115.39,281.20 114.32,280.09 113.29,278.93 112.30,277.73 111.35,276.48 110.43,275.18 109.55,273.83 108.71,272.43 107.91,270.97 107.15,269.47 106.42,267.90 105.73,266.25 105.08,264.52 104.47,262.68 103.89,260.71 103.35,258.60 102.85,256.34 102.38,253.91 101.95,251.29 101.56,248.47 101.20,245.43 100.88,242.15 100.59,238.62 100.34,234.83 100.12,230.75 99.93,226.38 99.78,221.69 99.67,216.68 99.58,211.31 99.52,199.48" fill="none" stroke="#f1c40f" stroke-width="2.6538152610441776" stroke-linecap="butt" stroke-linejoin="miter" />
    <circle cx="99.52" cy="199.48" r="7.96" fill="#c0392b" stroke="none" />
    <polyline points="95.04,199.48 104.00,199.48" fill="none" stroke="#fbfbfb" stroke-width="2.4879518072289164" stroke-linecap="butt" stroke-linejoin="miter" />
    <circle cx="127.42" cy="272.03" r="6.97" fill="#f1c40f" stroke="none" />
    <text x="127.4212115430928" y="272.03112474914633" fill="#333333" stroke="none" font-family="Roboto Mono" font-weight="normal" font-size="11.94" text-anchor="middle" dominant-baseline="middle">A</text>
    <polyline points="109.47,498.04 114.45,498.04 115.92,498.04 117.52,498.04 119.26,498.04 121.11,498.04 123.08,498.04 125.14,498.04 127.29,498.04 129.53,498.04 131.84,498.04 134.21,498.04 136.64,498.04 139.11,498.04 141.62,498.04 144.16,498.04 146.71,498.04 149.28,498.04 151.84,498.04 154.40,498.04 156.93,498.04 159.44,498.04 161.92,498.04 164.34,498.04 166.72,498.04 169.03,498.04 171.26,498.04 173.42,498.04 175.48,498.04 177.44,498.04 179.30,498.04 181.03,498.04 184.11,498.04 189.08,498.04" fill="none" stroke="#333333" stroke-width="2.6538152610441776" stroke-linecap="butt" stroke-linejoin="miter" />
    <text x="149.2771084337346" y="507.98795180722846" fill="#333333" stroke="none" font-family="Roboto Mono" font-weight="normal" font-size="11.94" text-anchor="middle" dominant-baseline="middle">2</text>
    <polyline points="189.08,398.52 184.11,398.52 180.50,398.55 177.12,398.65 173.97,398.80 171.01,399.01 168.25,399.27 165.65,399.57 163.21,399.92 160.90,400.30 158.72,400.72 156.65,401.17 154.67,401.65 152.78,402.17 150.96,402.73 149.19,403.33 147.47,403.97 145.78,404.64 144.10,405.36 142.45,406.12 140.81,406.91 139.20,407.75 137.60,408.63 136.03,409.55 134.48,410.50 132.96,411.49 131.45,412.52 129.98,413.59 128.53,414.69 127.11,415.83 125.72,417.00 124.35,418.21 123.02,419.45 121.72,420.72 120.45,422.02 119.21,423.35 118.00,424.72 116.83,426.11 115.69,427.53 114.59,428.98 113.52,430.45 112.49,431.96 111.50,433.48 110.55,435.03 109.63,436.60 108.75,438.20 107.91,439.81 107.12,441.45 106.36,443.10 105.64,444.78 104.97,446.47 104.33,448.19 103.73,449.96 103.17,451.78 102.65,453.67 102.17,455.65 101.72,457.72 101.30,459.90 100.92,462.21 100.57,464.65 100.27,467.25 100.01,470.01 99.80,472.97 99.65,476.12 99.52,483.11 99.52,488.08" fill="none" stroke="#e74c3c" stroke-width="2.6538152610441776" stroke-linecap="butt" stroke-linejoin="miter" />
    <circle cx="121.72" cy="420.72" r="7.96" fill="rgba(251, 251, 251, 0.8)" stroke="none" />
    <circle cx="121.72" cy="420.72" r="6.97" fill="none" stroke="rgba(241, 196, 15, 0.8)" stroke-width="1.9903614457831331" stroke-linecap="butt" stroke-linejoin="miter" />
    <polyline points="117.24,420.72 126.20,420.72" fill="none" stroke="rgba(241, 196, 15, 0.8)" stroke-width="2.4879518072289164" stroke-linecap="butt" stroke-linejoin="miter" />
    <text x="128.75422355014598" y="427.7542235502078" fill="#333333" stroke="none" font-family="Roboto Mono" font-weight="normal" font-size="11.94" text-anchor="middle" dominant-baseline="middle">1</text>
    <circle cx="117.32" cy="404.00" r="6.97" fill="#f7e59d" stroke="none" />
    <circle cx="117.32" cy="404.00" r="7.96" fill="none" stroke="#f1c40f" stroke-width="2.4879518072289164" stroke-linecap="butt" stroke-linejoin="miter" />
    <text x="117.3191141882362" y="404.0043810290372" fill="#333333" stroke="none" font-family="Roboto Mono" font-weight="normal" font-size="11.94" text-anchor="middle" dominant-baseline="middle">A</text>
    <polyline points="114.33,408.98 120.30,408.98" fill="none" stroke="#333333" stroke-width="0.7961445783132532" stroke-linecap="butt" stroke-linejoin="miter" />
    <circle cx="105.00" cy="416.32" r="6.97" fill="#e74c3c" stroke="none" />
    <text x="105.0043810290772" y="416.31911418807795" fill="#fbfbfb" stroke="none" font-family="Roboto Mono" font-weight="normal" font-size="11.94" text-anchor="middle" dominant-baseline="middle">C</text>
    <polyline points="199.04,488.08 199.04,483.11 199.04,481.64 199.04,480.03 199.04,478.30 199.04,476.44 199.04,474.48 199.04,472.42 199.04,470.26 199.04,468.03 199.04,465.72 199.04,463.34 199.04,460.92 199.04,458.44 199.04,455.93 199.04,453.40 199.04,450.84 199.04,448.28 199.04,445.71 199.04,443.16 199.04,440.62 199.04,438.11 199.04,435.64 199.04,433.21 199.04,430.84 199.04,428.53 199.04,426.29 199.04,424.14 199.04,422.08 199.04,420.11 199.04,418.26 199.04,416.52 199.04,413.45 199.04,408.47" fill="none" stroke="#333333" stroke-width="2.6538152610441776" stroke-linecap="butt" stroke-linejoin="miter" />
    <text x="189.084337349399" y="448.2771084337346" fill="#333333" stroke="none" font-family="Roboto Mono" font-weight="normal" font-size="11.94" text-anchor="middle" dominant-baseline="middle">4</text>
    <polyline points="199.04,388.57 199.04,383.59 199.04,382.12 199.04,380.51 199.04,378.78 199.04,376.92 199.04,374.96 199.04,372.90 199.04,370.74 199.04,368.51 199.04,366.20 199.04,363.83 199.04,361.40 199.04,358.92 199.04,356.42 199.04,353.88 199.04,351.32 199.04,348.76 199.04,346.19 199.04,343.64 199.04,341.10 199.04,338.59 199.04,336.12 199.04,333.69 199.04,331.32 199.04,329.01 199.04,326.77 199.04,324.62 199.04,322.56 199.04,320.59 199.04,318.74 199.04,317.01 199.04,313.93 199.04,308.95" fill="none" stroke="#f1c40f" stroke-width="2.6538152610441776" stroke-linecap="butt" stroke-linejoin="miter" />
    <text x="189.084337349399" y="348.7590361445782" fill="#333333" stroke="none" font-family="Roboto Mono" font-weight="normal" font-size="11.94" text-anchor="middle" dominant-baseline="middle">2</text>
    <circle cx="213.96" cy="348.76" r="6.97" fill="#f1c40f" stroke="none" />
    <text x="213.963855421689" y="348.7590361445782" fill="#333333" stroke="none" font-family="Roboto Mono" font-weight="normal" font-size="11.94" text-anchor="middle" dominant-baseline="middle">A</text>
    <polyline points="208.99,299.00 213.96,299.00 215.43,299.00 217.04,299.00 218.78,299.00 220.63,299.00 222.59,299.00 224.66,299.00 226.81,299.00 229.05,299.00 231.36,299.00 233.73,299.00 236.16,299.00 238.63,299.00 241.14,299.00 243.68,299.00 246.23,299.00 248.80,299.00 251.36,299.00 253.91,299.00 256.45,299.00 258.96,299.00 261.43,299.00 263.86,299.00 266.23,299.00 268.54,299.00 270.78,299.00 272.93,299.00 275.00,299.00 276.96,299.00 278.81,299.00 280.55,299.00 283.63,299.00 288.60,299.00" fill="none" stroke="#f1c40f" stroke-width="2.6538152610441776" stroke-linecap="butt" stroke-linejoin="miter" />
    <text x="248.79518072289284" y="308.95180722891564" fill="#333333" stroke="none" font-family="Roboto Mono" font-weight="normal" font-size="11.94" text-anchor="middle" dominant-baseline="middle">2</text>
    <circle cx="248.80" cy="284.07" r="6.97" fill="#f1c40f" stroke="none" />
    <text x="248.79518072289284" y="284.07228915662563" fill="#333333" stroke="none" font-family="Roboto Mono" font-weight="normal" font-size="11.94" text-anchor="middle" dominant-baseline="middle">A</text>
    <polyline points="298.55,308.95 298.55,313.93 298.65,318.88 298.92,323.91 299.35,328.98 299.92,334.06 300.61,339.11 301.39,344.10 302.25,348.98 303.17,353.73 304.12,358.30 305.09,362.67 306.06,366.84 307.00,370.86 307.90,374.73 308.73,378.50 309.48,382.19 310.12,385.82 310.64,389.43 311.01,393.04 311.21,396.68 311.24,400.34 311.08,403.98 310.74,407.58 310.19,411.11 309.44,414.53 308.47,417.82 307.28,420.94 305.87,423.87 304.22,426.57 302.35,429.04 300.28,431.27 298.04,433.26 295.65,435.01 293.15,436.52 290.55,437.80 287.89,438.83 285.18,439.63 282.46,440.20 279.75,440.52 277.06,440.60 274.43,440.45 271.86,440.06 269.38,439.43 267.00,438.56 264.75,437.46 262.64,436.11 260.70,434.53 258.92,432.72 257.26,430.71 255.67,428.53 254.11,426.21 252.54,423.77 250.90,421.25 249.16,418.68 247.26,416.08 245.16,413.49 242.83,410.94 240.24,408.48 237.39,406.17 234.26,404.06 230.84,402.21 227.11,400.68 223.06,399.52 213.96,398.52 208.99,398.52" fill="none" stroke="#333333" stroke-width="2.6538152610441776" stroke-linecap="butt" stroke-linejoin="miter" />
    <text x="301.1719035914193" y="443.2884177671003" fill="#333333" stroke="none" font-family="Roboto Mono" font-weight="normal" font-size="11.94" text-anchor="middle" dominant-baseline="middle">5</text>
    <polyline points="109.47,99.96 114.45,99.96 120.83,99.96 130.90,99.97 143.62,99.98 157.94,100.01 172.84,100.05 187.26,100.11 200.17,100.19 210.69,100.30 218.89,100.45 225.13,100.63 229.77,100.85 233.21,101.11 235.81,101.42 237.94,101.78 239.94,102.19 241.94,102.66 243.91,103.19 245.88,103.77 247.83,104.40 249.75,105.09 251.66,105.83 253.55,106.62 255.42,107.47 257.26,108.36 259.08,109.31 260.86,110.30 262.63,111.35 264.36,112.44 266.06,113.58 267.73,114.77 269.36,116.00 270.96,117.28 272.53,118.60 274.05,119.96 275.54,121.36 276.99,122.81 278.40,124.30 279.77,125.82 281.10,127.38 282.38,128.98 283.62,130.61 284.81,132.27 285.95,133.97 287.05,135.70 288.10,137.46 289.10,139.24 290.05,141.06 290.96,142.89 291.81,144.76 292.60,146.64 293.35,148.56 294.05,150.51 294.69,152.54 295.29,154.64 295.85,156.84 296.35,159.17 296.82,161.63 297.24,164.25 297.62,167.05 297.94,170.05 298.20,173.28 298.39,176.76 298.55,184.55 298.55,189.53" fill="none" stroke="#333333" stroke-width="2.6538152610441776" stroke-linecap="butt" stroke-linejoin="miter" />
    <circle cx="270.96" cy="117.28" r="7.96" fill="rgba(251, 251, 251, 0.8)" stroke="none" />
    <circle cx="270.96" cy="117.28" r="6.97" fill="none" stroke="rgba(155, 89, 182, 0.8)" stroke-width="1.9903614457831331" stroke-linecap="butt" stroke-linejoin="miter" />
    <polyline points="266.48,117.28 275.44,117.28" fill="none" stroke="rgba(155, 89, 182, 0.8)" stroke-width="2.4879518072289164" stroke-linecap="butt" stroke-linejoin="miter" />
    <text x="264.649043059786" y="124.96864200076016" fill="#333333" stroke="none" font-family="Roboto Mono" font-weight="normal" font-size="11.94" text-anchor="middle" dominant-baseline="middle">3</text>
    <circle cx="280.43" cy="105.74" r="6.97" fill="#d5badf" stroke="none" />
    <circle cx="280.43" cy="105.74" r="7.96" fill="none" stroke="#9b59b6" stroke-width="2.4879518072289164" stroke-linecap="butt" stroke-linejoin="miter" />
    <text x="280.4324422381869" y="105.7365144563446" fill="#333333" stroke="none" font-family="Roboto Mono" font-weight="normal" font-size="11.94" text-anchor="middle" dominant-baseline="middle">D</text>
    <polyline points="277.45,110.71 283.42,110.71" fill="none" stroke="#333333" stroke-width="0.7961445783132532" stroke-linecap="butt" stroke-linejoin="miter" />
    <polyline points="298.55,507.99 298.55,512.96 298.55,513.90 298.55,514.83 298.55,515.76 298.55,516.70 298.55,517.63 298.55,518.56 298.55,519.49 298.55,520.43 298.55,521.36 298.55,522.29 298.55,523.23 298.55,524.16 298.55,525.09 298.55,526.03 298.55,527.89" fill="none" stroke="#333333" stroke-width="2.6538152610441776" stroke-linecap="butt" stroke-linejoin="miter" />
    <polygon points="298.55,522.92 290.79,548.79 298.55,543.62 306.32,548.79" fill="#333333" stroke="none" />
    <text x="298.55421686747104" y="553.7662650602415" fill="#333333" stroke="none" font-family="Roboto Mono" font-weight="normal" font-size="11.94" text-anchor="middle" dominant-baseline="middle">N</text>
    <polyline points="187.09,491.07 179.43,491.07" fill="none" stroke="#333333" stroke-width="1.7249799196787154" stroke-linecap="butt" stroke-linejoin="miter" />
    <polygon points="176.15,491.07 180.53,494.14 180.53,488.00" fill="#333333" stroke="none" />
    <polyline points="210.98,405.48 218.64,405.48" fill="none" stroke="#333333" stroke-width="1.7249799196787154" stroke-linecap="butt" stroke-linejoin="miter" />
    <polygon points="221.93,405.48 217.55,402.42 217.55,408.55" fill="#333333" stroke="none" />
    <polyline points="286.61,192.52 278.95,192.52" fill="none" stroke="#333333" stroke-width="1.7249799196787154" stroke-linecap="butt" stroke-linejoin="miter" />
    <polygon points="275.67,192.52 280.04,195.58 280.04,189.45" fill="#333333" stroke="none" />
    <polyline points="305.52,287.06 305.52,279.39" fill="none" stroke="#333333" stroke-width="1.7249799196787154" stroke-linecap="butt" stroke-linejoin="miter" />
    <polygon points="305.52,276.11 302.46,280.49 308.59,280.49" fill="#333333" stroke="none" />
    <polygon points="288.60,507.99 308.51,507.99 308.51,488.08 288.60,488.08" fill="#2980b9" stroke="none" />
    <polygon points="189.08,507.99 208.99,507.99 208.99,488.08 189.08,488.08" fill="#c0392b" stroke="none" />
    <polygon points="288.60,209.43 308.51,209.43 308.51,189.53 288.60,189.53" fill="#c0392b" stroke="none" />
    <polygon points="189.08,209.43 208.99,209.43 208.99,189.53 189.08,189.53" fill="#2980b9" stroke="none" />
    <polygon points="288.60,308.95 308.51,308.95 308.51,289.05 288.60,289.05" fill="#2980b9" stroke="none" />
    <polygon points="189.08,308.95 208.99,308.95 208.99,289.05 189.08,289.05" fill="#c0392b" stroke="none" />
    <polygon points="89.57,507.99 109.47,507.99 109.47,488.08 89.57,488.08" fill="#2980b9" stroke="none" />
    <polygon points="189.08,408.47 208.99,408.47 208.99,388.57 189.08,388.57" fill="#2980b9" stroke="none" />
    <polygon points="89.57,109.92 109.47,109.92 109.47,90.01 89.57,90.01" fill="#2980b9" stroke="none" />
    <circle cx="199.04" cy="498.04" r="6.97" fill="#2ecc71" stroke="none" />
    <text x="199.03614457831463" y="498.0361445783128" fill="#fbfbfb" stroke="none" font-family="Roboto Mono" font-weight="normal" font-size="11.94" text-anchor="middle" dominant-baseline="middle">B</text>
    <text x="30" y="498.0361445783128" fill="#a3a3a3" stroke="none" font-family="Roboto Mono" font-weight="normal" font-size="16.00" text-anchor="middle" dominant-baseline="middle">120</text>
    <text x="30" y="398.5180722891582" fill="#a3a3a3" stroke="none" font-family="Roboto Mono" font-weight="normal" font-size="16.00" text-anchor="middle" dominant-baseline="middle">121</text>
    <text x="30" y="299" fill="#a3a3a3" stroke="none" font-family="Roboto Mono" font-weight="normal" font-size="16.00" text-anchor="middle" dominant-baseline="middle">122</text>
    <text x="30" y="199.4819277108436" fill="#a3a3a3" stroke="none" font-family="Roboto Mono" font-weight="normal" font-size="16.00" text-anchor="middle" dominant-baseline="middle">123</text>
    <text x="30" y="99.96385542168537" fill="#a3a3a3" stroke="none" font-family="Roboto Mono" font-weight="normal" font-size="16.00" text-anchor="middle" dominant-baseline="middle">124</text>
    <text x="30" y="0.44578313253077795" fill="#a3a3a3" stroke="none" font-family="Roboto Mono" font-weight="normal" font-size="16.00" text-anchor="middle" dominant-baseline="middle">125</text>
    <text x="-1.8189894035458565e-12" y="568" fill="#a3a3a3" stroke="none" font-family="Roboto Mono" font-weight="normal" font-size="16.00" text-anchor="middle" dominant-baseline="middle">147</text>
    <text x="99.51807228915641" y="568" fill="#a3a3a3" stroke="none" font-family="Roboto Mono" font-weight="normal" font-size="16.00" text-anchor="middle" dominant-baseline="middle">148</text>
    <text x="199.03614457831463" y="568" fill="#a3a3a3" stroke="none" font-family="Roboto Mono" font-weight="normal" font-size="16.00" text-anchor="middle" dominant-baseline="middle">149</text>
    <text x="298.55421686747104" y="568" fill="#a3a3a3" stroke="none" font-family="Roboto Mono" font-weight="normal" font-size="16.00" text-anchor="middle" dominant-baseline="middle">150</text>
    <text x="398.07228915662563" y="568" fill="#a3a3a3" stroke="none" font-family="Roboto Mono" font-weight="normal" font-size="16.00" text-anchor="middle" dominant-baseline="middle">151</text>
    <circle cx="369.00" cy="44.00" r="24.00" fill="rgba(51, 51, 51, 0.25)" stroke="none" />
    <polygon points="369.00,24.00 377.00,44.00 361.00,44.00" fill="#c0392b" stroke="none" />
    <polygon points="369.00,64.00 377.00,44.00 361.00,44.00" fill="rgba(51, 51, 51, 0.8)" stroke="none" />
    <polygon points="366.85,43.00 365.65,43.00 365.65,35.00 366.85,35.00 371.15,41.00 371.15,35.00 372.35,35.00 372.35,43.00 371.15,43.00 366.85,37.00" fill="#ffffff" stroke="none" />
</svg>
