<?xml version="1.0" encoding="UTF-8"?>
<svg version="1.1" xmlns="http://www.w3.org/2000/svg" viewBox="0 0 598.00 498.00">
<style type="text/css">
@font-face {
  font-family: 'Roboto Mono';
  font-style: normal;
  font-weight: 400;
  font-display: swap;
  src: local('Roboto Mono'), local('RobotoMono-Regular'), url(https://fonts.gstatic.com/s/robotomono/v7/L0x5DF4xlVMF-BfR8bXMIjhLq38.woff2) format('woff2');
  unicode-range: U+0000-00FF, U+0131, U+0152-0153, U+02BB-02BC, U+02C6, U+02DA, U+02DC, U+2000-206F, U+2074, U+20AC, U+2122, U+2191, U+2193, U+2212, U+2215, U+FEFF, U+FFFD;
}
@font-face {
  font-family: 'Roboto Mono';
  font-style: normal;
  font-weight: 700;
  font-display: swap;
  src: local('Roboto Mono Bold'), local('RobotoMono-Bold'), url(https://fonts.gstatic.com/s/robotomono/v7/L0xkDF4xlVMF-BfR8bXMIjDwjmqxf78.woff2) format('woff2');
  unicode-range: U+0000-00FF, U+0131, U+0152-0153, U+02BB-02BC, U+02C6, U+02DA, U+02DC, U+2000-206F, U+2074, U+20AC, U+2122, U+2191, U+2193, U+2212, U+2215, U+FEFF, U+FFFD;
}
</style>
    <rect x="0" y="0" width="598" height="498.00000000000006" fill="#eeeeee" stroke="none" />
    <polygon points="0.20,498.00 597.80,498.00 597.80,0.00 0.20,0.00" fill="#fbfbfb" stroke="none" />
    <polyline points="0.00,448.20 598.00,448.20" fill="none" stroke="#d2d2d2" stroke-width="1" stroke-linecap="butt" stroke-linejoin="miter" />
    <polyline points="0.00,348.60 598.00,348.60" fill="none" stroke="#d2d2d2" stroke-width="1" stroke-linecap="butt" stroke-linejoin="miter" />
    <polyline points="0.00,249.00 598.00,249.00" fill="none" stroke="#d2d2d2" stroke-width="1" stroke-linecap="butt" stroke-linejoin="miter" />
    <polyline points="0.00,149.40 598.00,149.40" fill="none" stroke="#d2d2d2" stroke-width="1" stroke-linecap="butt" stroke-linejoin="miter" />
    <polyline points="0.00,49.80 598.00,49.80" fill="none" stroke="#d2d2d2" stroke-width="1" stroke-linecap="butt" stroke-linejoin="miter" />
    <polyline points="0.20,498.00 0.20,0.00" fill="none" stroke="#d2d2d2" stroke-width="1" stroke-linecap="butt" stroke-linejoin="miter" />
    <polyline points="99.80,498.00 99.80,0.00" fill="none" stroke="#d2d2d2" stroke-width="1" stroke-linecap="butt" stroke-linejoin="miter" />
    <polyline points="199.40,498.00 199.40,0.00" fill="none" stroke="#d2d2d2" stroke-width="1" stroke-linecap="butt" stroke-linejoin="miter" />
    <polyline points="299.00,498.00 299.00,0.00" fill="none" stroke="#d2d2d2" stroke-width="1" stroke-linecap="butt" stroke-linejoin="miter" />
    <polyline points="398.60,498.00 398.60,0.00" fill="none" stroke="#d2d2d2" stroke-width="1" stroke-linecap="butt" stroke-linejoin="miter" />
    <polyline points="498.20,498.00 498.20,0.00" fill="none" stroke="#d2d2d2" stroke-width="1" stroke-linecap="butt" stroke-linejoin="miter" />
    <polyline points="597.80,498.00 597.80,0.00" fill="none" stroke="#d2d2d2" stroke-width="1" stroke-linecap="butt" stroke-linejoin="miter" />
    <circle cx="99.80" cy="49.80" r="24.90" fill="#9b59b6" stroke="none" />
    <circle cx="99.80" cy="149.40" r="24.90" fill="#e67e22" stroke="none" />
    <circle cx="99.80" cy="249.00" r="24.90" fill="#2ecc71" stroke="none" />
    <path d="M 217.33,241.03 A 9.96 9.96 0 0 0 207.37,231.07" fill="none" stroke="#f1c40f" stroke-width="2.6560000000000006" stroke-linecap="butt" stroke-linejoin="miter" />
    <path d="M 224.80,241.03 A 17.43 17.43 0 0 0 207.37,223.60" fill="none" stroke="#f1c40f" stroke-width="2.6560000000000006" stroke-linecap="butt" stroke-linejoin="miter" />
    <path d="M 232.27,241.03 A 24.90 24.90 0 0 0 207.37,216.13" fill="none" stroke="#f1c40f" stroke-width="2.6560000000000006" stroke-linecap="butt" stroke-linejoin="miter" />
    <circle cx="232.02" cy="216.38" r="6.97" fill="#f1c40f" stroke="none" />
    <text x="232.0177423921632" y="216.38225760783826" fill="#333333" stroke="none" font-family="Roboto Mono" font-weight="normal" font-size="11.95" text-anchor="middle" dominant-baseline="middle">A</text>
    <path d="M 316.93,241.03 A 9.96 9.96 0 0 0 306.97,231.07" fill="none" stroke="#2ecc71" stroke-width="2.6560000000000006" stroke-linecap="butt" stroke-linejoin="miter" />
    <path d="M 324.40,241.03 A 17.43 17.43 0 0 0 306.97,223.60" fill="none" stroke="#2ecc71" stroke-width="2.6560000000000006" stroke-linecap="butt" stroke-linejoin="miter" />
    <path d="M 331.87,241.03 A 24.90 24.90 0 0 0 306.97,216.13" fill="none" stroke="#2ecc71" stroke-width="2.6560000000000006" stroke-linecap="butt" stroke-linejoin="miter" />
    <polygon points="329.01,222.85 327.32,210.89 317.81,218.33" fill="#2ecc71" stroke="none" />
    <circle cx="331.62" cy="216.38" r="6.97" fill="#2ecc71" stroke="none" />
    <text x="331.61774239216356" y="216.38225760783826" fill="#fbfbfb" stroke="none" font-family="Roboto Mono" font-weight="normal" font-size="11.95" text-anchor="middle" dominant-baseline="middle">B</text>
    <path d="M 316.93,141.43 A 9.96 9.96 0 0 0 306.97,131.47" fill="none" stroke="#e74c3c" stroke-width="2.6560000000000006" stroke-linecap="butt" stroke-linejoin="miter" />
    <path d="M 324.40,141.43 A 17.43 17.43 0 0 0 306.97,124.00" fill="none" stroke="#e74c3c" stroke-width="2.6560000000000006" stroke-linecap="butt" stroke-linejoin="miter" />
    <path d="M 331.87,141.43 A 24.90 24.90 0 0 0 306.97,116.53" fill="none" stroke="#e74c3c" stroke-width="2.6560000000000006" stroke-linecap="butt" stroke-linejoin="miter" />
    <circle cx="331.62" cy="116.78" r="6.97" fill="#e74c3c" stroke="none" />
    <text x="331.61774239216356" y="116.78225760783971" fill="#fbfbfb" stroke="none" font-family="Roboto Mono" font-weight="normal" font-size="11.95" text-anchor="middle" dominant-baseline="middle">C</text>
    <path d="M 516.13,141.43 A 9.96 9.96 0 0 0 506.17,131.47" fill="none" stroke="#9b59b6" stroke-width="2.6560000000000006" stroke-linecap="butt" stroke-linejoin="miter" />
    <path d="M 523.60,141.43 A 17.43 17.43 0 0 0 506.17,124.00" fill="none" stroke="#9b59b6" stroke-width="2.6560000000000006" stroke-linecap="butt" stroke-linejoin="miter" />
    <path d="M 531.07,141.43 A 24.90 24.90 0 0 0 506.17,116.53" fill="none" stroke="#9b59b6" stroke-width="2.6560000000000006" stroke-linecap="butt" stroke-linejoin="miter" />
    <polygon points="526.45,122.21 528.30,110.28 517.04,114.64" fill="#9b59b6" stroke="none" />
    <circle cx="530.82" cy="116.78" r="6.97" fill="#9b59b6" stroke="none" />
    <text x="530.8177423921634" y="116.78225760783971" fill="#fbfbfb" stroke="none" font-family="Roboto Mono" font-weight="normal" font-size="11.95" text-anchor="middle" dominant-baseline="middle">D</text>
    <path d="M 516.13,340.63 A 9.96 9.96 0 0 0 506.17,330.67" fill="none" stroke="#1abc9c" stroke-width="2.6560000000000006" stroke-linecap="butt" stroke-linejoin="miter" />
    <path d="M 523.60,340.63 A 17.43 17.43 0 0 0 506.17,323.20" fill="none" stroke="#1abc9c" stroke-width="2.6560000000000006" stroke-linecap="butt" stroke-linejoin="miter" />
    <path d="M 531.07,340.63 A 24.90 24.90 0 0 0 506.17,315.73" fill="none" stroke="#1abc9c" stroke-width="2.6560000000000006" stroke-linecap="butt" stroke-linejoin="miter" />
    <circle cx="530.82" cy="315.98" r="6.97" fill="#1abc9c" stroke="none" />
    <text x="530.8177423921634" y="315.9822576078368" fill="#fbfbfb" stroke="none" font-family="Roboto Mono" font-weight="normal" font-size="11.95" text-anchor="middle" dominant-baseline="middle">E</text>
    <path d="M 217.33,141.43 A 9.96 9.96 0 0 0 207.37,131.47" fill="none" stroke="#e67e22" stroke-width="2.6560000000000006" stroke-linecap="butt" stroke-linejoin="miter" />
    <path d="M 224.80,141.43 A 17.43 17.43 0 0 0 207.37,124.00" fill="none" stroke="#e67e22" stroke-width="2.6560000000000006" stroke-linecap="butt" stroke-linejoin="miter" />
    <path d="M 232.27,141.43 A 24.90 24.90 0 0 0 207.37,116.53" fill="none" stroke="#e67e22" stroke-width="2.6560000000000006" stroke-linecap="butt" stroke-linejoin="miter" />
    <polygon points="230.08,123.48 227.19,111.76 218.48,120.12" fill="#e67e22" stroke="none" />
    <circle cx="232.02" cy="116.78" r="6.97" fill="#e67e22" stroke="none" />
    <text x="232.0177423921632" y="116.78225760783971" fill="#fbfbfb" stroke="none" font-family="Roboto Mono" font-weight="normal" font-size="11.95" text-anchor="middle" dominant-baseline="middle">F</text>
    <polyline points="488.24,348.60 483.26,348.60 473.69,349.33 463.82,351.37 453.71,354.48 443.44,358.42 433.08,362.97 422.70,367.89 412.37,372.93 402.15,377.88 392.12,382.49 382.35,386.52 372.90,389.83 363.79,392.46 355.02,394.49 346.62,395.99 338.60,397.05 330.98,397.74 323.76,398.15 316.96,398.34 310.61,398.40 304.70,398.40 299.26,398.40 294.26,398.40 289.70,398.40 285.56,398.40 281.85,398.40 278.54,398.40 275.63,398.40 273.11,398.40 270.96,398.40 269.17,398.40 267.71,398.40 266.51,398.40 265.51,398.40 264.63,398.40 263.80,398.40 262.97,398.40 262.06,398.40 261.00,398.40 259.72,398.40 258.17,398.40 256.33,398.40 254.22,398.40 251.87,398.40 249.30,398.40 246.55,398.40 243.64,398.40 240.59,398.40 237.43,398.40 234.19,398.40 230.89,398.40 227.54,398.40 224.17,398.40 220.77,398.40 217.36,398.40 213.94,398.40 210.54,398.40 207.15,398.40 203.80,398.40 200.48,398.40 197.22,398.40 194.02,398.39 190.88,398.36 187.83,398.30 184.88,398.19 182.02,398.04 179.28,397.82 176.66,397.54 174.18,397.16 171.84,396.70 169.65,396.14 167.61,395.48 165.71,394.72 163.95,393.88 162.33,392.96 160.83,391.96 159.45,390.90 158.20,389.76 157.05,388.57 156.01,387.32 155.07,386.02 154.24,384.67 153.51,383.29 152.88,381.87 152.35,380.42 151.93,378.94 151.61,377.45 151.39,375.95 151.28,374.43 151.27,372.92 151.36,371.40 151.55,369.89 151.85,368.40 152.25,366.92 152.75,365.47 153.35,364.04 154.06,362.65 154.87,361.29 155.78,359.98 156.80,358.72 157.92,357.51 159.15,356.36 160.50,355.28 161.97,354.26 163.57,353.32 165.29,352.46 167.16,351.69 169.16,351.01 171.32,350.42 173.63,349.93 176.13,349.54 178.89,349.24 181.96,349.01 185.41,348.84 189.28,348.72 193.65,348.65 198.57,348.62 204.10,348.60 210.30,348.60 217.21,348.60 224.70,348.60 232.59,348.60 240.71,348.60 248.87,348.60 256.90,348.60 264.61,348.60 271.83,348.60 284.06,348.60 289.04,348.60" fill="none" stroke="#1abc9c" stroke-width="2.6560000000000006" stroke-linecap="butt" stroke-linejoin="miter" />
    <text x="180.17375415591596" y="408.1430976127158" fill="#333333" stroke="none" font-family="Roboto Mono" font-weight="normal" font-size="11.95" text-anchor="middle" dominant-baseline="middle">2</text>
    <text x="188.71089701305937" y="408.1430976127158" fill="#333333" stroke="none" font-family="Roboto Mono" font-weight="normal" font-size="11.95" text-anchor="middle" dominant-baseline="middle">9</text>
    <circle cx="185.52" cy="383.27" r="6.97" fill="#1abc9c" stroke="none" />
    <text x="185.5240116232717" y="383.26660358093795" fill="#fbfbfb" stroke="none" font-family="Roboto Mono" font-weight="normal" font-size="11.95" text-anchor="middle" dominant-baseline="middle">E</text>
    <polyline points="498.20,338.64 498.20,333.66 498.20,332.87 498.20,331.90 498.20,330.76 498.20,329.46 498.20,328.00 498.20,326.38 498.20,324.62 498.20,322.71 498.20,320.66 498.20,318.49 498.20,316.19 498.20,313.77 498.20,311.23 498.20,308.59 498.20,305.84 498.20,303.00 498.20,300.07 498.20,297.05 498.20,293.95 498.20,290.78 498.20,287.54 498.20,284.23 498.20,280.87 498.20,277.46 498.20,274.00 498.20,270.50 498.20,266.97 498.20,263.41 498.20,259.83 498.20,256.23 498.20,252.62 498.20,249.00 498.20,245.38 498.20,241.77 498.20,238.17 498.20,234.59 498.20,231.03 498.20,227.50 498.20,224.00 498.20,220.54 498.20,217.13 498.20,213.77 498.20,210.46 498.20,207.22 498.20,204.05 498.20,200.95 498.20,197.93 498.20,195.00 498.20,192.16 498.20,189.41 498.20,186.77 498.20,184.23 498.20,181.81 498.20,179.51 498.20,177.34 498.20,175.29 498.20,173.38 498.20,171.62 498.20,170.00 498.20,168.54 498.20,167.24 498.20,166.10 498.20,164.34 498.20,159.36" fill="none" stroke="#333333" stroke-width="2.6560000000000006" stroke-linecap="butt" stroke-linejoin="miter" />
    <text x="488.2399999999998" y="249" fill="#333333" stroke="none" font-family="Roboto Mono" font-weight="normal" font-size="11.95" text-anchor="middle" dominant-baseline="middle">1</text>
    <polyline points="299.00,139.44 299.00,134.46 299.07,130.39 299.27,126.58 299.60,123.02 300.07,119.71 300.68,116.65 301.44,113.83 302.33,111.25 303.38,108.90 304.57,106.78 305.91,104.89 307.40,103.22 309.04,101.76 310.82,100.52 312.73,99.49 314.76,98.67 316.90,98.04 319.13,97.62 321.46,97.38 323.86,97.34 326.33,97.47 328.86,97.79 331.43,98.29 334.04,98.95 336.67,99.77 339.32,100.73 341.96,101.82 344.59,103.02 347.19,104.34 349.76,105.74 352.27,107.23 354.72,108.78 357.10,110.39 359.39,112.05 361.61,113.74 363.76,115.47 365.87,117.23 367.93,119.02 369.97,120.83 372.00,122.67 374.02,124.51 376.06,126.37 378.12,128.24 380.21,130.10 382.36,131.96 384.60,133.80 386.95,135.60 389.44,137.35 392.12,139.02 395.00,140.61 398.12,142.10 401.51,143.46 405.20,144.69 409.22,145.76 413.60,146.66 418.37,147.41 423.56,148.00 429.19,148.46 435.29,148.81 441.89,149.06 449.01,149.22 456.68,149.33 464.93,149.38 483.26,149.40 488.24,149.40" fill="none" stroke="#333333" stroke-width="2.6560000000000006" stroke-linecap="butt" stroke-linejoin="miter" />
    <text x="351.3883312759417" y="118.54956128641061" fill="#333333" stroke="none" font-family="Roboto Mono" font-weight="normal" font-size="11.95" text-anchor="middle" dominant-baseline="middle">1</text>
    <polyline points="199.40,258.96 199.40,263.94 199.40,267.60 199.41,270.96 199.43,274.04 199.47,276.87 199.53,279.47 199.63,281.87 199.76,284.07 199.94,286.12 200.17,288.02 200.45,289.81 200.80,291.50 201.22,293.12 201.71,294.69 202.29,296.19 202.96,297.62 203.72,298.98 204.58,300.26 205.54,301.46 206.63,302.58 207.83,303.61 209.16,304.54 210.62,305.37 212.22,306.09 213.96,306.71 215.84,307.21 217.82,307.59 219.89,307.84 222.03,307.96 224.20,307.94 226.40,307.77 228.60,307.45 230.77,306.97 232.90,306.32 234.96,305.51 236.92,304.51 238.79,303.34 240.56,302.02 242.25,300.58 243.89,299.05 245.47,297.48 247.03,295.87 248.57,294.28 250.12,292.72 251.68,291.24 253.27,289.86 254.92,288.62 256.63,287.54 258.40,286.65 260.22,285.93 262.08,285.39 263.96,285.02 265.84,284.82 267.71,284.79 269.55,284.93 271.35,285.22 273.09,285.67 274.75,286.27 276.32,287.03 277.78,287.93 279.13,288.97 280.36,290.13 281.48,291.40 282.47,292.78 283.33,294.24 284.07,295.77 284.68,297.36 285.15,299.00 285.48,300.68 285.67,302.38 285.72,304.09 285.62,305.80 285.36,307.49 284.94,309.16 284.36,310.78 283.60,312.36 282.66,313.86 281.54,315.29 280.22,316.63 278.70,317.87 276.98,318.99 275.05,319.98 272.90,320.83 270.54,321.53 268.01,322.09 265.31,322.51 262.49,322.80 259.56,322.95 256.55,322.98 253.48,322.88 250.39,322.65 247.29,322.31 244.21,321.84 241.17,321.27 238.21,320.58 235.32,319.79 232.52,318.91 229.81,317.95 227.20,316.92 224.70,315.82 222.30,314.66 220.03,313.46 217.87,312.23 215.85,310.97 213.96,309.69 212.22,308.41 210.62,307.12 209.16,305.83 207.83,304.53 206.63,303.21 205.54,301.87 204.58,300.51 203.72,299.12 202.96,297.69 202.29,296.22 201.71,294.71 201.22,293.15 200.80,291.54 200.45,289.82 200.17,287.91 199.94,285.73 199.76,283.20 199.63,280.25 199.53,276.78 199.47,272.73 199.43,268.00 199.41,262.53 199.40,249.00" fill="none" stroke="#f1c40f" stroke-width="2.6560000000000006" stroke-linecap="butt" stroke-linejoin="miter" />
    <text x="274.55422177677974" y="298.93834818802134" fill="#333333" stroke="none" font-family="Roboto Mono" font-weight="normal" font-size="11.95" text-anchor="middle" dominant-baseline="middle">1</text>
    <circle cx="296.50" cy="287.18" r="6.97" fill="#f1c40f" stroke="none" />
    <text x="296.5030423348262" y="287.1799777179767" fill="#333333" stroke="none" font-family="Roboto Mono" font-weight="normal" font-size="11.95" text-anchor="middle" dominant-baseline="middle">A</text>
    <polyline points="199.40,239.04 199.40,234.06 199.40,230.37 199.41,226.99 199.43,223.89 199.47,221.05 199.53,218.45 199.63,216.05 199.76,213.85 199.94,211.82 200.17,209.92 200.45,208.14 200.80,206.46 201.22,204.85 201.71,203.29 202.29,201.78 202.96,200.31 203.72,198.88 204.58,197.49 205.54,196.13 206.63,194.79 207.83,193.47 209.16,192.17 210.62,190.88 212.22,189.59 213.96,188.31 215.85,187.03 217.87,185.77 220.03,184.54 222.30,183.34 224.70,182.18 227.20,181.08 229.81,180.05 232.52,179.09 235.32,178.21 238.21,177.42 241.17,176.73 244.21,176.16 247.29,175.69 250.39,175.35 253.48,175.12 256.55,175.02 259.56,175.05 262.49,175.20 265.31,175.49 268.01,175.91 270.54,176.47 272.90,177.17 275.05,178.02 276.98,179.01 278.70,180.13 280.22,181.37 281.54,182.71 282.66,184.14 283.60,185.64 284.36,187.22 284.94,188.84 285.36,190.51 285.62,192.20 285.72,193.91 285.67,195.62 285.48,197.32 285.15,199.00 284.68,200.64 284.07,202.23 283.33,203.76 282.47,205.22 281.48,206.60 280.36,207.87 279.13,209.03 277.78,210.07 276.32,210.97 274.75,211.73 273.09,212.33 271.35,212.78 269.55,213.07 267.71,213.21 265.84,213.18 263.96,212.98 262.08,212.61 260.22,212.07 258.40,211.35 256.63,210.46 254.92,209.38 253.27,208.14 251.68,206.76 250.12,205.28 248.57,203.72 247.03,202.13 245.47,200.52 243.89,198.95 242.25,197.42 240.56,195.98 238.79,194.66 236.92,193.49 234.96,192.49 232.90,191.68 230.77,191.03 228.60,190.55 226.40,190.23 224.20,190.06 222.03,190.04 219.89,190.16 217.82,190.41 215.84,190.79 213.96,191.29 212.22,191.91 210.62,192.63 209.16,193.46 207.83,194.39 206.63,195.42 205.54,196.53 204.58,197.73 203.72,199.01 202.96,200.37 202.29,201.80 201.71,203.29 201.22,204.85 200.80,206.46 200.45,208.18 200.17,210.09 199.94,212.27 199.76,214.80 199.63,217.75 199.53,221.22 199.47,225.27 199.43,230.00 199.41,235.47 199.40,249.00" fill="none" stroke="#f1c40f" stroke-width="2.6560000000000006" stroke-linecap="butt" stroke-linejoin="miter" />
    <text x="274.55422177677974" y="199.06165181198594" fill="#333333" stroke="none" font-family="Roboto Mono" font-weight="normal" font-size="11.95" text-anchor="middle" dominant-baseline="middle">1</text>
    <circle cx="296.50" cy="210.82" r="6.97" fill="#f1c40f" stroke="none" />
    <text x="296.5030423348262" y="210.82002228202327" fill="#333333" stroke="none" font-family="Roboto Mono" font-weight="normal" font-size="11.95" text-anchor="middle" dominant-baseline="middle">A</text>
    <polyline points="209.36,249.00 214.34,249.00 215.81,249.00 217.42,249.00 219.16,249.00 221.01,249.00 222.98,249.00 225.04,249.00 227.20,249.00 229.44,249.00 231.75,249.00 234.12,249.00 236.55,249.00 239.03,249.00 241.54,249.00 244.08,249.00 246.63,249.00 249.20,249.00 251.77,249.00 254.32,249.00 256.86,249.00 259.37,249.00 261.85,249.00 264.28,249.00 266.65,249.00 268.96,249.00 271.20,249.00 273.36,249.00 275.42,249.00 277.39,249.00 279.24,249.00 280.98,249.00 284.06,249.00 289.04,249.00" fill="none" stroke="#333333" stroke-width="2.6560000000000006" stroke-linecap="butt" stroke-linejoin="miter" />
    <text x="249.19999999999982" y="258.9600000000064" fill="#333333" stroke="none" font-family="Roboto Mono" font-weight="normal" font-size="11.95" text-anchor="middle" dominant-baseline="middle">4</text>
    <polyline points="209.36,149.40 214.34,149.40 215.81,149.40 217.42,149.40 219.16,149.40 221.01,149.40 222.98,149.40 225.04,149.40 227.20,149.40 229.44,149.40 231.75,149.40 234.12,149.40 236.55,149.40 239.03,149.40 241.54,149.40 244.08,149.40 246.63,149.40 249.20,149.40 251.77,149.40 254.32,149.40 256.86,149.40 259.37,149.40 261.85,149.40 264.28,149.40 266.65,149.40 268.96,149.40 271.20,149.40 273.36,149.40 275.42,149.40 277.39,149.40 279.24,149.40 280.98,149.40 284.06,149.40 289.04,149.40" fill="none" stroke="#e74c3c" stroke-width="2.6560000000000006" stroke-linecap="butt" stroke-linejoin="miter" />
    <text x="249.19999999999982" y="159.36000000000786" fill="#333333" stroke="none" font-family="Roboto Mono" font-weight="normal" font-size="11.95" text-anchor="middle" dominant-baseline="middle">2</text>
    <circle cx="249.20" cy="134.46" r="6.97" fill="#e74c3c" stroke="none" />
    <text x="249.19999999999982" y="134.4600000000064" fill="#fbfbfb" stroke="none" font-family="Roboto Mono" font-weight="normal" font-size="11.95" text-anchor="middle" dominant-baseline="middle">C</text>
    <polyline points="289.04,348.60 284.06,348.60 277.90,348.60 270.76,348.60 262.87,348.60 254.46,348.60 245.74,348.60 236.94,348.60 228.30,348.60 220.03,348.60 212.35,348.60 205.47,348.60 199.38,348.61 194.01,348.65 189.28,348.72 185.13,348.85 181.47,349.04 178.23,349.30 175.34,349.65 172.72,350.11 170.30,350.68 168.07,351.36 165.99,352.16 164.08,353.05 162.33,354.04 160.72,355.12 159.25,356.27 157.92,357.51 156.72,358.81 155.64,360.18 154.68,361.60 153.83,363.07 153.11,364.58 152.51,366.13 152.02,367.71 151.65,369.32 151.41,370.94 151.28,372.57 151.27,374.20 151.38,375.83 151.61,377.45 151.96,379.06 152.43,380.64 153.02,382.20 153.72,383.72 154.55,385.19 155.49,386.62 156.56,388.00 157.75,389.31 159.09,390.55 160.62,391.72 162.34,392.81 164.30,393.82 166.52,394.72 169.02,395.53 171.83,396.23 174.97,396.82 178.50,397.29 182.52,397.65 187.14,397.93 192.50,398.13 198.69,398.26 205.85,398.34 214.09,398.38 234.26,398.40" fill="none" stroke="#333333" stroke-width="2.6560000000000006" stroke-linecap="butt" stroke-linejoin="miter" />
    <circle cx="234.26" cy="398.40" r="7.97" fill="#c0392b" stroke="none" />
    <polyline points="229.78,398.40 238.74,398.40" fill="none" stroke="#fbfbfb" stroke-width="2.49" stroke-linecap="butt" stroke-linejoin="miter" />
    <polyline points="488.24,348.60 483.26,348.60 478.89,348.76 474.44,349.23 469.93,349.97 465.36,350.98 460.73,352.22 456.06,353.68 451.36,355.32 446.62,357.14 441.86,359.09 437.08,361.17 432.28,363.34 427.49,365.59 422.70,367.89 417.92,370.21 413.16,372.55 408.42,374.86 403.71,377.14 399.04,379.34 394.42,381.47 389.84,383.48 385.33,385.36 380.88,387.08 376.50,388.65 372.18,390.06 367.94,391.33 363.76,392.46 359.64,393.47 355.60,394.35 351.61,395.13 347.70,395.79 343.84,396.36 340.06,396.84 336.33,397.24 332.67,397.57 329.07,397.82 325.54,398.02 322.07,398.17 318.66,398.27 315.31,398.34 312.03,398.38 308.80,398.39 305.64,398.40 302.54,398.40 299.50,398.40 296.53,398.40 293.64,398.40 290.83,398.40 288.13,398.40 285.52,398.40 283.02,398.40 280.65,398.40 278.40,398.40 276.28,398.40 274.30,398.40 272.48,398.40 270.81,398.40 269.32,398.40 267.99,398.40 266.85,398.40 265.89,398.40 265.14,398.40 264.59,398.40 264.14,398.40" fill="none" stroke="#333333" stroke-width="2.6560000000000006" stroke-linecap="butt" stroke-linejoin="miter" />
    <circle cx="264.14" cy="398.40" r="7.97" fill="#1abc9c" stroke="none" />
    <polyline points="259.66,398.40 268.62,398.40" fill="none" stroke="#fbfbfb" stroke-width="2.49" stroke-linecap="butt" stroke-linejoin="miter" />
    <circle cx="338.33" cy="382.00" r="6.97" fill="#a1e2d5" stroke="none" />
    <circle cx="338.33" cy="382.00" r="7.97" fill="none" stroke="#1abc9c" stroke-width="2.49" stroke-linecap="butt" stroke-linejoin="miter" />
    <text x="338.3259430598864" y="382.0041841899292" fill="#333333" stroke="none" font-family="Roboto Mono" font-weight="normal" font-size="11.95" text-anchor="middle" dominant-baseline="middle">E</text>
    <polyline points="335.34,386.98 341.31,386.98" fill="none" stroke="#333333" stroke-width="0.7968000000000001" stroke-linecap="butt" stroke-linejoin="miter" />
    <polyline points="398.60,258.96 398.60,263.94 398.57,267.55 398.47,270.93 398.32,274.09 398.11,277.05 397.85,279.82 397.54,282.41 397.20,284.86 396.82,287.17 396.40,289.35 395.95,291.42 395.46,293.40 394.94,295.29 394.38,297.12 393.78,298.89 393.15,300.61 392.47,302.30 391.75,303.98 391.00,305.63 390.20,307.27 389.36,308.89 388.48,310.48 387.56,312.06 386.61,313.61 385.61,315.14 384.58,316.64 383.52,318.11 382.41,319.56 381.27,320.99 380.10,322.38 378.89,323.74 377.65,325.08 376.38,326.38 375.08,327.65 373.74,328.89 372.38,330.10 370.99,331.27 369.56,332.41 368.11,333.52 366.64,334.58 365.14,335.61 363.61,336.61 362.06,337.56 360.48,338.48 358.89,339.36 357.27,340.20 355.63,341.00 353.98,341.75 352.30,342.47 350.61,343.15 348.89,343.78 347.12,344.38 345.29,344.94 343.40,345.46 341.42,345.95 339.35,346.40 337.17,346.82 334.86,347.20 332.41,347.54 329.82,347.85 327.05,348.11 324.09,348.32 320.93,348.47 313.94,348.60 308.96,348.60" fill="none" stroke="#333333" stroke-width="2.6560000000000006" stroke-linecap="butt" stroke-linejoin="miter" />
    <text x="369.3397802366999" y="319.339780236769" fill="#333333" stroke="none" font-family="Roboto Mono" font-weight="normal" font-size="11.95" text-anchor="middle" dominant-baseline="middle">1</text>
    <polyline points="308.96,249.00 313.94,249.00 315.41,249.00 317.02,249.00 318.76,249.00 320.61,249.00 322.58,249.00 324.64,249.00 326.80,249.00 329.04,249.00 331.35,249.00 333.72,249.00 336.15,249.00 338.63,249.00 341.14,249.00 343.68,249.00 346.23,249.00 348.80,249.00 351.37,249.00 353.92,249.00 356.46,249.00 358.97,249.00 361.45,249.00 363.88,249.00 366.25,249.00 368.56,249.00 370.80,249.00 372.96,249.00 375.02,249.00 376.99,249.00 378.84,249.00 380.58,249.00 383.66,249.00 388.64,249.00" fill="none" stroke="#333333" stroke-width="2.6560000000000006" stroke-linecap="butt" stroke-linejoin="miter" />
    <text x="348.7999999999993" y="258.9600000000064" fill="#333333" stroke="none" font-family="Roboto Mono" font-weight="normal" font-size="11.95" text-anchor="middle" dominant-baseline="middle">1</text>
    <polyline points="99.80,239.04 99.80,234.06 99.80,232.59 99.80,230.98 99.80,229.24 99.80,227.39 99.80,225.42 99.80,223.36 99.80,221.20 99.80,218.96 99.80,216.65 99.80,214.28 99.80,211.85 99.80,209.37 99.80,206.86 99.80,204.32 99.80,201.77 99.80,199.20 99.80,196.63 99.80,194.08 99.80,191.54 99.80,189.03 99.80,186.55 99.80,184.12 99.80,181.75 99.80,179.44 99.80,177.20 99.80,175.04 99.80,172.98 99.80,171.01 99.80,169.16 99.80,167.42 99.80,164.34 99.80,159.36" fill="none" stroke="#2ecc71" stroke-width="2.6560000000000006" stroke-linecap="butt" stroke-linejoin="miter" />
    <text x="89.84000000000015" y="199.20000000000437" fill="#333333" stroke="none" font-family="Roboto Mono" font-weight="normal" font-size="11.95" text-anchor="middle" dominant-baseline="middle">1</text>
    <circle cx="114.74" cy="199.20" r="6.97" fill="#2ecc71" stroke="none" />
    <text x="114.73999999999978" y="199.20000000000437" fill="#fbfbfb" stroke="none" font-family="Roboto Mono" font-weight="normal" font-size="11.95" text-anchor="middle" dominant-baseline="middle">B</text>
    <polyline points="109.76,149.40 114.74,149.40 116.21,149.40 117.82,149.40 119.56,149.40 121.41,149.40 123.38,149.40 125.44,149.40 127.60,149.40 129.84,149.40 132.15,149.40 134.52,149.40 136.95,149.40 139.43,149.40 141.94,149.40 144.48,149.40 147.03,149.40 149.60,149.40 152.17,149.40 154.72,149.40 157.26,149.40 159.77,149.40 162.25,149.40 164.68,149.40 167.05,149.40 169.36,149.40 171.60,149.40 173.76,149.40 175.82,149.40 177.79,149.40 179.64,149.40 181.38,149.40 184.46,149.40 189.44,149.40" fill="none" stroke="#333333" stroke-width="2.6560000000000006" stroke-linecap="butt" stroke-linejoin="miter" />
    <text x="149.60000000000036" y="159.36000000000786" fill="#333333" stroke="none" font-family="Roboto Mono" font-weight="normal" font-size="11.95" text-anchor="middle" dominant-baseline="middle">1</text>
    <polyline points="398.60,239.04 398.60,234.06 398.57,230.45 398.47,227.07 398.32,223.91 398.11,220.95 397.85,218.18 397.54,215.59 397.20,213.14 396.82,210.83 396.40,208.65 395.95,206.58 395.46,204.60 394.94,202.71 394.38,200.88 393.78,199.11 393.15,197.39 392.47,195.70 391.75,194.02 391.00,192.37 390.20,190.73 389.36,189.11 388.48,187.52 387.56,185.94 386.61,184.39 385.61,182.86 384.58,181.36 383.52,179.89 382.41,178.44 381.27,177.01 380.10,175.62 378.89,174.26 377.65,172.92 376.38,171.62 375.08,170.35 373.74,169.11 372.38,167.90 370.99,166.73 369.56,165.59 368.11,164.48 366.64,163.42 365.14,162.39 363.61,161.39 362.06,160.44 360.48,159.52 358.89,158.64 357.27,157.80 355.63,157.00 353.98,156.25 352.30,155.53 350.61,154.85 348.89,154.22 347.12,153.62 345.29,153.06 343.40,152.54 341.42,152.05 339.35,151.60 337.17,151.18 334.86,150.80 332.41,150.46 329.82,150.15 327.05,149.89 324.09,149.68 320.93,149.53 313.94,149.40 308.96,149.40" fill="none" stroke="#2ecc71" stroke-width="2.6560000000000006" stroke-linecap="butt" stroke-linejoin="miter" />
    <text x="369.3397802366999" y="178.660219763231" fill="#333333" stroke="none" font-family="Roboto Mono" font-weight="normal" font-size="11.95" text-anchor="middle" dominant-baseline="middle">5</text>
    <circle cx="386.95" cy="161.05" r="6.97" fill="#2ecc71" stroke="none" />
    <text x="386.94673908832647" y="161.05326091177267" fill="#fbfbfb" stroke="none" font-family="Roboto Mono" font-weight="normal" font-size="11.95" text-anchor="middle" dominant-baseline="middle">B</text>
    <polyline points="109.76,249.00 114.74,249.00 116.21,249.00 117.82,249.00 119.56,249.00 121.41,249.00 123.38,249.00 125.44,249.00 127.60,249.00 129.84,249.00 132.15,249.00 134.52,249.00 136.95,249.00 139.43,249.00 141.94,249.00 144.48,249.00 147.03,249.00 149.60,249.00 152.17,249.00 154.72,249.00 157.26,249.00 159.77,249.00 162.25,249.00 164.68,249.00 167.05,249.00 169.36,249.00 171.60,249.00 173.76,249.00 175.82,249.00 177.79,249.00 179.64,249.00 181.38,249.00 184.46,249.00 189.44,249.00" fill="none" stroke="#e74c3c" stroke-width="2.6560000000000006" stroke-linecap="butt" stroke-linejoin="miter" />
    <circle cx="149.60" cy="249.00" r="7.97" fill="rgba(251, 251, 251, 0.8)" stroke="none" />
    <circle cx="149.60" cy="249.00" r="6.97" fill="none" stroke="rgba(46, 204, 113, 0.8)" stroke-width="1.9920000000000002" stroke-linecap="butt" stroke-linejoin="miter" />
    <polyline points="145.12,249.00 154.08,249.00" fill="none" stroke="rgba(46, 204, 113, 0.8)" stroke-width="2.49" stroke-linecap="butt" stroke-linejoin="miter" />
    <text x="145.33142857142775" y="258.9600000000064" fill="#333333" stroke="none" font-family="Roboto Mono" font-weight="normal" font-size="11.95" text-anchor="middle" dominant-baseline="middle">1</text>
    <text x="153.86857142857116" y="258.9600000000064" fill="#333333" stroke="none" font-family="Roboto Mono" font-weight="normal" font-size="11.95" text-anchor="middle" dominant-baseline="middle">0</text>
    <circle cx="140.88" cy="234.06" r="6.97" fill="#a9e8c4" stroke="none" />
    <circle cx="140.88" cy="234.06" r="7.97" fill="none" stroke="#2ecc71" stroke-width="2.49" stroke-linecap="butt" stroke-linejoin="miter" />
    <text x="140.8849999999993" y="234.05999999999767" fill="#333333" stroke="none" font-family="Roboto Mono" font-weight="normal" font-size="11.95" text-anchor="middle" dominant-baseline="middle">B</text>
    <polyline points="137.90,239.04 143.87,239.04" fill="none" stroke="#333333" stroke-width="0.7968000000000001" stroke-linecap="butt" stroke-linejoin="miter" />
    <circle cx="158.31" cy="234.06" r="6.97" fill="#e74c3c" stroke="none" />
    <text x="158.3149999999996" y="234.05999999999767" fill="#fbfbfb" stroke="none" font-family="Roboto Mono" font-weight="normal" font-size="11.95" text-anchor="middle" dominant-baseline="middle">C</text>
    <polyline points="99.80,258.96 99.80,263.94 99.80,269.93 99.81,275.40 99.82,280.38 99.85,284.90 99.90,289.01 99.97,292.73 100.07,296.10 100.21,299.15 100.38,301.92 100.59,304.44 100.85,306.75 101.17,308.87 101.54,310.84 101.97,312.70 102.46,314.43 103.02,316.05 103.63,317.56 104.31,318.96 105.04,320.24 105.84,321.43 106.69,322.50 107.61,323.48 108.59,324.36 109.63,325.14 110.73,325.82 111.89,326.42 113.11,326.92 114.37,327.32 115.68,327.63 117.01,327.84 118.36,327.95 119.72,327.95 121.08,327.85 122.43,327.64 123.76,327.32 125.07,326.88 126.33,326.33 127.55,325.66 128.71,324.87 129.81,323.97 130.85,322.95 131.83,321.84 132.75,320.65 133.60,319.37 134.40,318.03 135.13,316.63 135.81,315.18 136.42,313.69 136.98,312.17 137.47,310.62 137.90,309.07 138.27,307.52 138.60,305.96 138.88,304.41 139.15,302.87 139.41,301.33 139.68,299.81 139.97,298.30 140.29,296.81 140.67,295.33 141.11,293.88 141.63,292.45 142.24,291.05 142.96,289.67 143.80,288.33 144.75,287.02 145.80,285.76 146.94,284.57 148.17,283.44 149.48,282.39 150.84,281.43 152.27,280.56 153.73,279.80 155.24,279.16 156.77,278.64 158.32,278.25 159.87,278.01 161.43,277.92 162.97,277.98 164.50,278.18 166.01,278.51 167.49,278.98 168.93,279.58 170.32,280.29 171.67,281.13 172.95,282.08 174.17,283.13 175.32,284.29 176.39,285.55 177.37,286.90 178.26,288.34 179.04,289.86 179.71,291.46 180.25,293.12 180.66,294.85 180.93,296.62 181.05,298.44 181.00,300.30 180.79,302.19 180.39,304.11 179.81,306.04 179.02,307.98 178.03,309.93 176.83,311.87 175.44,313.82 173.87,315.78 172.14,317.75 170.25,319.72 168.22,321.71 166.07,323.72 163.80,325.74 161.43,327.79 158.98,329.85 156.45,331.94 153.86,334.06 151.22,336.22 148.49,338.43 145.63,340.75 142.60,343.21 139.35,345.86 135.83,348.73 132.00,351.86 127.80,355.30 123.20,359.08 118.15,363.25 112.59,367.85 99.80,378.48" fill="none" stroke="#333333" stroke-width="2.6560000000000006" stroke-linecap="butt" stroke-linejoin="miter" />
    <polygon points="103.63,375.29 78.76,385.90 87.71,388.55 88.70,397.84" fill="#333333" stroke="none" />
    <text x="79.90509578160345" y="395.05695997886505" fill="#333333" stroke="none" font-family="Roboto Mono" font-weight="normal" font-size="11.95" text-anchor="middle" dominant-baseline="middle">N</text>
    <polyline points="111.75,255.97 119.42,255.97" fill="none" stroke="#333333" stroke-width="1.7264000000000004" stroke-linecap="butt" stroke-linejoin="miter" />
    <polygon points="122.71,255.97 118.33,252.90 118.33,259.04" fill="#333333" stroke="none" />
    <polyline points="305.97,137.45 305.97,129.78" fill="none" stroke="#333333" stroke-width="1.7264000000000004" stroke-linecap="butt" stroke-linejoin="miter" />
    <polygon points="305.97,126.49 302.90,130.87 309.04,130.87" fill="#333333" stroke="none" />
    <polyline points="206.37,237.05 206.37,229.38" fill="none" stroke="#333333" stroke-width="1.7264000000000004" stroke-linecap="butt" stroke-linejoin="miter" />
    <polygon points="206.37,226.09 203.30,230.47 209.44,230.47" fill="#333333" stroke="none" />
    <polyline points="187.45,142.43 179.78,142.43" fill="none" stroke="#333333" stroke-width="1.7264000000000004" stroke-linecap="butt" stroke-linejoin="miter" />
    <polygon points="176.49,142.43 180.87,145.50 180.87,139.36" fill="#333333" stroke="none" />
    <polygon points="488.24,358.56 508.16,358.56 508.16,338.64 488.24,338.64" fill="#2980b9" stroke="none" />
    <polygon points="488.24,159.36 508.16,159.36 508.16,139.44 488.24,139.44" fill="#2980b9" stroke="none" />
    <polygon points="289.04,159.36 308.96,159.36 308.96,139.44 289.04,139.44" fill="#2980b9" stroke="none" />
    <polygon points="189.44,258.96 209.36,258.96 209.36,239.04 189.44,239.04" fill="#2980b9" stroke="none" />
    <polygon points="289.04,258.96 308.96,258.96 308.96,239.04 289.04,239.04" fill="#c0392b" stroke="none" />
    <polygon points="189.44,159.36 209.36,159.36 209.36,139.44 189.44,139.44" fill="#c0392b" stroke="none" />
    <polygon points="289.04,358.56 308.96,358.56 308.96,338.64 289.04,338.64" fill="#2980b9" stroke="none" />
    <polygon points="388.64,258.96 408.56,258.96 408.56,239.04 388.64,239.04" fill="#2980b9" stroke="none" />
    <polygon points="89.84,258.96 109.76,258.96 109.76,239.04 89.84,239.04" fill="#c0392b" stroke="none" />
    <polygon points="89.84,159.36 109.76,159.36 109.76,139.44 89.84,139.44" fill="#2980b9" stroke="none" />
    <polygon points="90.70,58.90 108.90,58.90 108.90,40.70 90.70,40.70" fill="none" stroke="#c0392b" stroke-width="1.7264000000000004" stroke-linecap="butt" stroke-linejoin="miter" />
    <circle cx="99.80" cy="49.80" r="6.97" fill="#9b59b6" stroke="none" />
    <text x="99.80000000000018" y="49.80000000000291" fill="#fbfbfb" stroke="none" font-family="Roboto Mono" font-weight="normal" font-size="11.95" text-anchor="middle" dominant-baseline="middle">D</text>
    <circle cx="99.80" cy="149.40" r="6.97" fill="#e67e22" stroke="none" />
    <text x="99.80000000000018" y="149.40000000000146" fill="#fbfbfb" stroke="none" font-family="Roboto Mono" font-weight="normal" font-size="11.95" text-anchor="middle" dominant-baseline="middle">F</text>
    <circle cx="99.80" cy="249.00" r="6.97" fill="#2ecc71" stroke="none" />
    <text x="99.80000000000018" y="249" fill="#fbfbfb" stroke="none" font-family="Roboto Mono" font-weight="normal" font-size="11.95" text-anchor="middle" dominant-baseline="middle">B</text>
    <text x="30" y="348.59999999999854" fill="#a3a3a3" stroke="none" font-family="Roboto Mono" font-weight="normal" font-size="16.00" text-anchor="middle" dominant-baseline="middle">420</text>
    <text x="30" y="249" fill="#a3a3a3" stroke="none" font-family="Roboto Mono" font-weight="normal" font-size="16.00" text-anchor="middle" dominant-baseline="middle">421</text>
    <text x="30" y="149.40000000000146" fill="#a3a3a3" stroke="none" font-family="Roboto Mono" font-weight="normal" font-size="16.00" text-anchor="middle" dominant-baseline="middle">422</text>
    <text x="30" y="49.80000000000291" fill="#a3a3a3" stroke="none" font-family="Roboto Mono" font-weight="normal" font-size="16.00" text-anchor="middle" dominant-baseline="middle">423</text>
    <text x="0.2000000000007276" y="468.00000000000006" fill="#a3a3a3" stroke="none" font-family="Roboto Mono" font-weight="normal" font-size="16.00" text-anchor="middle" dominant-baseline="middle">67</text>
    <text x="99.80000000000018" y="468.00000000000006" fill="#a3a3a3" stroke="none" font-family="Roboto Mono" font-weight="normal" font-size="16.00" text-anchor="middle" dominant-baseline="middle">68</text>
    <text x="199.39999999999964" y="468.00000000000006" fill="#a3a3a3" stroke="none" font-family="Roboto Mono" font-weight="normal" font-size="16.00" text-anchor="middle" dominant-baseline="middle">69</text>
    <text x="299" y="468.00000000000006" fill="#a3a3a3" stroke="none" font-family="Roboto Mono" font-weight="normal" font-size="16.00" text-anchor="middle" dominant-baseline="middle">70</text>
    <text x="398.59999999999945" y="468.00000000000006" fill="#a3a3a3" stroke="none" font-family="Roboto Mono" font-weight="normal" font-size="16.00" text-anchor="middle" dominant-baseline="middle">71</text>
    <text x="498.1999999999998" y="468.00000000000006" fill="#a3a3a3" stroke="none" font-family="Roboto Mono" font-weight="normal" font-size="16.00" text-anchor="middle" dominant-baseline="middle">72</text>
    <text x="597.8000000000002" y="468.00000000000006" fill="#a3a3a3" stroke="none" font-family="Roboto Mono" font-weight="normal" font-size="16.00" text-anchor="middle" dominant-baseline="middle">73</text>
    <circle cx="554.00" cy="44.00" r="24.00" fill="rgba(51, 51, 51, 0.25)" stroke="none" />
    <polygon points="554.00,24.00 562.00,44.00 546.00,44.00" fill="#c0392b" stroke="none" />
    <polygon points="554.00,64.00 562.00,44.00 546.00,44.00" fill="rgba(51, 51, 51, 0.8)" stroke="none" />
    <polygon points="551.85,43.00 550.65,43.00 550.65,35.00 551.85,35.00 556.15,41.00 556.15,35.00 557.35,35.00 557.35,43.00 556.15,43.00 551.85,37.00" fill="#ffffff" stroke="none" />
</svg>
